<svg class="h-6" width="522" height="98" fill="none" version="1.1" viewBox="0 0 522 98" xmlns="http://www.w3.org/2000/svg"><path class="fill-(--mauve-12)" d="m190.76 20.53c1.485 0 2.705 0.477 3.66 1.43 0.955 0.954 1.432 2.209 1.432 3.763v45.994c0 1.413-0.477 2.615-1.432 3.604s-2.175 1.483-3.66 1.483-2.687-0.477-3.606-1.43c-0.92-0.954-1.379-2.173-1.379-3.657v-2.755c-1.839 2.473-4.349 4.575-7.532 6.306-3.182 1.73-6.612 2.596-10.289 2.596-4.809 0-9.176-1.236-13.101-3.71-3.925-2.472-7.001-5.916-9.229-10.332-2.227-4.416-3.341-9.38-3.341-14.89s1.114-10.474 3.341-14.89c2.228-4.416 5.286-7.86 9.176-10.333 3.889-2.473 8.168-3.709 12.835-3.709 3.748 0 7.231 0.777 10.449 2.331 3.218 1.555 5.781 3.533 7.691 5.935v-2.543c0-1.484 0.459-2.72 1.379-3.71 0.919-0.989 2.121-1.483 3.606-1.483zm-21.64 48.008c3.324 0 6.277-0.848 8.858-2.543 2.581-1.696 4.597-4.028 6.046-6.995 1.45-2.967 2.175-6.323 2.175-10.068 0-3.674-0.725-6.995-2.175-9.962-1.449-2.967-3.465-5.316-6.046-7.047s-5.534-2.597-8.858-2.597c-3.323 0-6.276 0.848-8.857 2.544-2.581 1.695-4.597 4.027-6.046 6.994-1.45 2.968-2.175 6.324-2.175 10.068 0 3.745 0.725 7.1 2.175 10.068 1.449 2.967 3.465 5.299 6.046 6.995 2.581 1.695 5.534 2.543 8.857 2.543zm69.375-48.538c1.839 0 3.43 0.477 4.774 1.43 1.344 0.954 2.015 2.138 2.015 3.551 0 1.696-0.442 2.985-1.326 3.868s-1.962 1.325-3.235 1.325c-0.636 0-1.591-0.212-2.864-0.636-1.485-0.494-2.652-0.742-3.501-0.742-2.192 0-4.331 0.76-6.417 2.279-2.087 1.519-3.784 3.603-5.092 6.252-1.308 2.65-1.963 5.6-1.963 8.85v25.54c0 1.413-0.477 2.615-1.432 3.604-0.954 0.989-2.174 1.483-3.659 1.483s-2.688-0.477-3.607-1.43c-0.919-0.954-1.379-2.173-1.379-3.657v-45.357c0-1.413 0.477-2.614 1.432-3.604 0.955-0.989 2.139-1.483 3.554-1.483 1.485 0 2.705 0.494 3.659 1.483 0.955 0.99 1.432 2.19 1.432 3.604v5.405c1.556-3.462 3.89-6.27 7.002-8.426 3.111-2.155 6.647-3.267 10.607-3.338zm60.995 0.53c1.485 0 2.705 0.477 3.66 1.43 0.955 0.954 1.432 2.209 1.432 3.763v46.63c0 5.723-1.22 10.51-3.66 14.36s-5.746 6.695-9.918 8.532-8.875 2.755-14.108 2.755c-2.829 0-6.135-0.495-9.919-1.484-3.783-0.989-6.205-2.013-7.266-3.073-2.192-1.13-3.288-2.543-3.288-4.24 0-0.423 0.141-0.988 0.424-1.695 0.778-1.766 2.086-2.65 3.925-2.65 0.919 0 1.909 0.213 2.97 0.637 5.657 2.19 10.077 3.285 13.26 3.285 5.657 0 9.989-1.36 12.994-4.08 3.006-2.72 4.509-6.447 4.509-11.181v-5.723c-1.486 2.756-3.978 5.122-7.479 7.1-3.501 1.979-7.196 2.968-11.085 2.968-4.88 0-9.335-1.236-13.366-3.71-4.031-2.472-7.196-5.916-9.494-10.332s-3.447-9.38-3.447-14.89 1.149-10.474 3.447-14.89 5.445-7.86 9.441-10.333 8.398-3.709 13.207-3.709c3.889 0 7.514 0.883 10.873 2.65 3.359 1.766 5.993 3.92 7.903 6.464v-3.391c0-1.484 0.459-2.72 1.379-3.71 0.919-0.989 2.121-1.483 3.606-1.483zm-22.382 48.008c3.465 0 6.541-0.83 9.229-2.49 2.687-1.66 4.791-3.992 6.311-6.995 1.521-3.003 2.281-6.376 2.281-10.12 0-3.745-0.76-7.102-2.281-10.069-1.52-2.967-3.624-5.299-6.311-6.994-2.688-1.696-5.764-2.544-9.229-2.544-3.395 0-6.436 0.848-9.123 2.544-2.687 1.695-4.791 4.044-6.312 7.047-1.52 3.003-2.28 6.341-2.28 10.015s0.76 7.012 2.28 10.015c1.521 3.003 3.625 5.352 6.312 7.048 2.687 1.695 5.728 2.543 9.123 2.543zm92.924-19.5c0 5.51-1.238 10.457-3.713 14.837s-5.852 7.807-10.13 10.28c-4.279 2.473-8.999 3.71-14.162 3.71-5.162 0-9.883-1.237-14.161-3.71s-7.655-5.9-10.13-10.28c-2.476-4.38-3.713-9.326-3.713-14.837 0-5.51 1.237-10.492 3.713-14.943 2.475-4.451 5.852-7.913 10.13-10.386s8.999-3.709 14.161-3.709c5.163 0 9.883 1.236 14.162 3.71 4.278 2.472 7.655 5.934 10.13 10.385s3.713 9.432 3.713 14.943zm-10.077 0c0-3.815-0.796-7.224-2.387-10.227s-3.748-5.334-6.471-6.994-5.746-2.49-9.07-2.49c-3.323 0-6.347 0.83-9.069 2.49-2.723 1.66-4.88 3.991-6.471 6.994s-2.387 6.412-2.387 10.227c0 3.745 0.796 7.1 2.387 10.068 1.591 2.967 3.748 5.281 6.471 6.942 2.722 1.66 5.746 2.49 9.069 2.49 3.324 0 6.347-0.83 9.07-2.49s4.88-3.975 6.471-6.942 2.387-6.323 2.387-10.068zm18.563 19.076c-0.636-0.989-0.954-1.943-0.954-2.861 0-1.413 0.742-2.614 2.227-3.603 0.707-0.495 1.521-0.742 2.44-0.742 1.273 0 2.44 0.53 3.501 1.59 2.121 2.402 4.402 4.203 6.842 5.404 2.439 1.201 5.356 1.802 8.751 1.802 2.687-0.07 5.056-0.69 7.107-1.855 2.051-1.166 3.076-3.056 3.076-5.67 0-2.402-1.043-4.239-3.129-5.51-2.086-1.272-5.145-2.438-9.176-3.498-3.96-1.06-7.248-2.172-9.865-3.338a17.677 17.677 0 0 1-6.63-5.087c-1.803-2.226-2.705-5.14-2.705-8.743 0-3.18 0.902-5.97 2.705-8.373 1.804-2.402 4.208-4.274 7.214-5.616 3.005-1.343 6.276-2.014 9.812-2.014 3.394 0 6.771 0.636 10.13 1.908 3.359 1.271 6.1 3.214 8.221 5.828 0.849 0.99 1.273 2.014 1.273 3.074 0 1.13-0.566 2.225-1.697 3.285-0.707 0.636-1.591 0.954-2.652 0.954-1.273 0-2.298-0.424-3.076-1.272-1.485-1.696-3.306-3.003-5.463-3.921-2.157-0.919-4.544-1.378-7.161-1.378-2.687 0-4.968 0.548-6.842 1.643s-2.811 2.95-2.811 5.564c0.071 2.473 1.15 4.31 3.236 5.51 2.086 1.202 5.286 2.367 9.6 3.498 3.748 0.99 6.86 2.049 9.335 3.18 2.475 1.13 4.561 2.808 6.258 5.033 1.697 2.226 2.546 5.14 2.546 8.744 0 3.32-0.955 6.2-2.864 8.637s-4.402 4.31-7.478 5.616c-3.077 1.308-6.347 1.961-9.813 1.961-4.455 0-8.574-0.777-12.358-2.331-3.783-1.555-6.983-4.028-9.6-7.419zm96.994 9.803c-14.798 0-22.436-10.333-22.436-23.925v-10.014c0-13.592 7.638-23.925 22.436-23.925 12.57 0 20.526 8.584 21.48 18.838h-3.739c-1.114-8.426-7.08-15.58-17.821-15.58-12.252 0-18.457 8.744-18.457 20.587v10.174c0 11.843 6.205 20.586 18.457 20.586 10.741 0 16.707-7.153 17.821-15.578h3.739c-0.954 10.253-8.91 18.837-21.48 18.837zm35.164 0.083v-57.947h3.899v57.947h-3.899z" fill="#211f26"/><path d="M0 48.898C17.37 25.632 36.096 14 56.18 14c20.085 0 38.726 11.632 55.925 34.898C94.906 72.299 76.265 84 56.181 84 36.096 84 17.369 72.3 0 48.898Z" clip-rule="evenodd" fill="url(#a)" fill-rule="evenodd"/><path d="m56.455 78.132c16.214 0 29.36-13.09 29.36-29.237 0-16.146-13.146-29.237-29.36-29.237-16.215 0-29.36 13.09-29.36 29.237 0 4.52-0.93 24.721 1.52 19.435s2.778-6.633 4.325-4.784c5.386 6.435 14.445 14.586 23.515 14.586z" clip-rule="evenodd" fill="#fff" fill-rule="evenodd"/><path d="M56.474 68.91c11.093 0 20.086-8.961 20.086-20.015S67.567 28.88 56.474 28.88c-11.094 0-20.086 8.961-20.086 20.015S45.38 68.91 56.474 68.91Z" fill="url(#b)"/><path d="m64.08 67.446c10.3-4.145 15.276-15.824 11.114-26.084 0 20.797-22.608 25.054-30.377 17.309-7.77-7.745-6.582-23.934 4.194-28.381-10.3 4.145-15.277 15.824-11.114 26.084 4.16 10.26 15.884 15.218 26.183 11.072z" clip-rule="evenodd" fill="url(#c)" fill-rule="evenodd"/><path d="m63.996 65.028c8.583-3.354 14.776-14.695 10.614-24.955 0 20.796-17.133 22.862-24.903 15.118-7.77-7.745-4.166-20.9 1.703-24.684-10.3 4.146-15.282 14.424-11.121 24.683 4.161 10.261 15.124 13.191 23.707 9.838z" clip-rule="evenodd" fill="url(#d)" fill-rule="evenodd"/><defs><radialGradient id="b" cx="0" cy="0" r="1" gradientTransform="matrix(27.776 0 0 27.677 62.615 48.895)" gradientUnits="userSpaceOnUse"><stop stop-color="#311476" offset="0"/><stop stop-color="#2B214F" offset="1"/></radialGradient><radialGradient id="c" cx="0" cy="0" r="1" gradientTransform="matrix(28.204 14.358 -14.324 28.139 20.468 84.031)" gradientUnits="userSpaceOnUse"><stop stop-color="#1B357A" offset="0"/><stop stop-color="#512BCD" offset="1"/></radialGradient><radialGradient id="d" cx="0" cy="0" r="1" gradientTransform="matrix(25.809 19.913 -19.37 25.105 15.617 86.997)" gradientUnits="userSpaceOnUse"><stop stop-color="#493CA8" offset="0"/><stop stop-color="#512BCC" offset="1"/></radialGradient><linearGradient id="a" x1="89.819" x2="56.363" y1="39.782" y2="76.004" gradientUnits="userSpaceOnUse"><stop stop-color="#804FCE" offset="0"/><stop stop-color="#2D3383" offset="1"/></linearGradient></defs></svg>