<svg width="2e3" height="400" version="1.1" xmlns="http://www.w3.org/2000/svg"><g transform="translate(0 -652.36)"><g transform="translate(-7.2878 -6.3547e-5)" fill="#32322a"><g transform="matrix(8.4463 0 0 8.4463 -93.469 -7827.2)" fill="#32322a"><g transform="matrix(.55754 0 0 .55754 68.308 1050.1)"><path d="m-67.281-41.594a1.6144 1.6144 0 0 0-0.21875 3.1562s3.9317 1.301 10.625 1.8438c5.3747 0.43579 11.469-0.375 11.469-0.375a1.6144 1.6144 0 1 0-0.40625-3.1875s-5.9616 0.73707-10.812 0.34375c-6.3882-0.51796-9.875-1.6875-9.875-1.6875a1.6144 1.6144 0 0 0-0.78125-0.09375zm0-8a1.6144 1.6144 0 0 0-0.21875 3.1562s3.9317 1.301 10.625 1.8438c5.3747 0.43579 11.469-0.375 11.469-0.375a1.6144 1.6144 0 1 0-0.40625-3.1875s-5.9616 0.73707-10.812 0.34375c-6.3882-0.51796-9.875-1.6875-9.875-1.6875a1.6144 1.6144 0 0 0-0.78125-0.09375zm0-8a1.6144 1.6144 0 0 0-0.21875 3.1562s3.9317 1.301 10.625 1.8438c5.3747 0.43579 11.469-0.375 11.469-0.375a1.6144 1.6144 0 1 0-0.40625-3.1875s-5.9616 0.73707-10.812 0.34375c-6.3882-0.51796-9.875-1.6875-9.875-1.6875a1.6144 1.6144 0 0 0-0.78125-0.09375zm0-8a1.6144 1.6144 0 0 0-0.21875 3.1562s3.9317 1.301 10.625 1.8438c5.3747 0.43579 11.469-0.375 11.469-0.375a1.6144 1.6144 0 1 0-0.40625-3.1875s-5.9616 0.73707-10.812 0.34375c-6.3882-0.51796-9.875-1.6875-9.875-1.6875a1.6144 1.6144 0 0 0-0.78125-0.09375zm-11.208-8.437c-8.4072 0.05606-11.539 2.6451-11.539 2.6451v62.784s3.0586-2.6415 12.906-2.2381 11.878 3.8553 23.98 4.0984 15.144-1.8603 15.144-1.8603l0.1744-64.005s-5.4461 1.5414-16.045 1.6277c-10.599 0.08634-13.146-2.6961-22.875-3.0229-0.60808-0.02042-1.1835-0.0328-1.744-0.02907zm7.0341 4.0984s5.0944 1.684 14.504 2.1509c7.953 0.39462 15.928-0.7848 15.928-0.7848v56.883s-4.0367 2.1159-14.126 1.3952c-7.8193-0.5585-16.423-3.5171-16.423-3.5171l0.11627-56.128zm-4.9122 1.4824a1.6277 1.6277 0 0 1 0 3.2555s-2.635 0.01353-4.2437 0.1744c-2.701 0.2701-4.5344 1.2499-4.5344 1.2499a1.6252 1.6252 0 1 1-1.5115-2.8776s2.3916-1.2652 5.7261-1.5987c1.9268-0.1927 4.5635-0.20347 4.5635-0.20347zm-1.5696 8.0224c0.89978-0.02279 1.5696 0 1.5696 0a1.625 1.625 0 0 1 0 3.2264s-2.635 0.01352-4.2437 0.1744c-2.701 0.2701-4.5344 1.2499-4.5344 1.2499a1.6252 1.6252 0 0 1-1.5115-2.8776s2.3916-1.2652 5.7261-1.5987c0.9634-0.09635 2.0941-0.15161 2.9939-0.1744zm1.5696 7.9933a1.6277 1.6277 0 0 1 0 3.2555s-2.635-0.01554-4.2437 0.14533c-2.701 0.2701-4.5344 1.2499-4.5344 1.2499a1.6252 1.6252 0 0 1-1.5115-2.8776s2.3916-1.2652 5.7261-1.5987c1.9268-0.1927 4.5635-0.1744 4.5635-0.1744z" color="#000000" fill="#32322a" style="block-progression:tb;text-indent:0;text-transform:none"/></g><g><path d="m63.38 1038.9v-2.592l1.056-0.096c0.61866-0.064 0.928-0.3627 0.928-0.896v-14.88l-1.824-0.096v-2.72h8.736c2.4747 0 4.3733 0.4587 5.696 1.376 1.3226 0.9173 1.984 2.4213 1.984 4.512-1.8e-5 1.4507-0.38402 2.6453-1.152 3.584-0.74668 0.9387-1.6427 1.6213-2.688 2.048 0.76798 0.2773 1.376 0.928 1.824 1.952l2.304 5.024 1.824 0.064v2.72h-7.904v-2.592l0.928-0.096c0.49065-0.064 0.73599-0.256 0.736-0.576-1.4e-5 -0.128-0.04268-0.2774-0.128-0.448l-1.504-3.2c-0.23468-0.5334-0.50134-0.9067-0.8-1.12-0.27734-0.2347-0.68268-0.352-1.216-0.352h-2.912v5.568l2.08 0.096v2.72h-7.968m5.888-11.424h2.784c2.624 0 3.936-1.1733 3.936-3.52-1.4e-5 -1.344-0.35201-2.2187-1.056-2.624-0.68268-0.4053-1.792-0.608-3.328-0.608h-2.336v6.752"/><path d="m90.31 1022.3c1.6 0 2.8693 0.3947 3.808 1.184 0.93865 0.768 1.408 1.856 1.408 3.264-1.5e-5 0.9387-0.20268 1.7706-0.608 2.496-0.40535 0.704-0.90668 1.2586-1.504 1.664-0.59734 0.4053-1.3227 0.736-2.176 0.992-1.4293 0.4266-3.04 0.64-4.832 0.64 0.06399 1.1306 0.41599 2.048 1.056 2.752 0.63999 0.6826 1.6213 1.024 2.944 1.024 1.3227 0 2.6453-0.4694 3.968-1.408l1.216 2.592c-0.42668 0.384-1.152 0.7786-2.176 1.184-1.0027 0.4053-2.1547 0.608-3.456 0.608-2.6027 0-4.512-0.7147-5.728-2.144-1.216-1.4507-1.824-3.4347-1.824-5.952-2e-6 -2.5174 0.69333-4.6293 2.08-6.336 1.3867-1.7067 3.328-2.56 5.824-2.56m-1.472 7.328c0.78932-0.1494 1.5147-0.4587 2.176-0.928 0.66132-0.4907 0.99199-1.0667 0.992-1.728-1.1e-5 -1.3013-0.64001-1.952-1.92-1.952-1.1947 0-2.112 0.48-2.752 1.44-0.64001 0.9387-0.99201 2.0693-1.056 3.392 0.93866-0.021 1.792-0.096 2.56-0.224"/><path d="m110.86 1023.4v11.904c-1e-5 0.3413 0.0533 0.576 0.16 0.704 0.12799 0.128 0.34132 0.2026 0.64 0.224l1.024 0.064v2.56h-5.088v-1.856l-0.096-0.032c-1.0667 1.536-2.528 2.304-4.384 2.304-2.176 0-3.7867-0.6934-4.832-2.08-1.0453-1.3867-1.568-3.2854-1.568-5.696-1e-6 -2.9014 0.704-5.1627 2.112-6.784 1.408-1.6213 3.52-2.432 6.336-2.432 1.8133 0 3.712 0.3733 5.696 1.12m-3.712 10.368v-8.288c-0.59734-0.2773-1.4187-0.416-2.464-0.416-1.4293 0-2.464 0.576-3.104 1.728-0.64 1.152-0.96 2.6773-0.96 4.576 0 3.456 1.1093 5.184 3.328 5.184 0.93866 0 1.7067-0.2774 2.304-0.832 0.59732-0.576 0.89599-1.2267 0.896-1.952"/><path d="m121.12 1022.3c0.91733 0 1.792 0.128 2.624 0.384v-3.232c-1e-5 -0.4693-0.27734-0.7253-0.832-0.768l-1.376-0.096v-2.528h5.952v19.456c0.0213 0.4906 0.28799 0.736 0.8 0.736l1.12 0.064v2.56h-5.184v-1.888l-0.096-0.032c-0.96001 1.5573-2.4107 2.336-4.352 2.336-2.432 0-4.1387-0.8107-5.12-2.432-0.896-1.472-1.344-3.2747-1.344-5.408 0-2.7734 0.68267-4.992 2.048-6.656 1.3867-1.664 3.3067-2.496 5.76-2.496m2.624 11.584v-8.288c-0.76801-0.3413-1.5787-0.512-2.432-0.512-1.408 0-2.4427 0.5653-3.104 1.696-0.64 1.1307-0.96 2.5706-0.96 4.32 0 3.584 1.152 5.376 3.456 5.376 0.87466 0 1.6-0.2454 2.176-0.736 0.57599-0.512 0.86399-1.1307 0.864-1.856"/><path d="m141.89 1036.3s-1.484 0.56-2.268 0.56-1.092-0.392-1.092-1.4c0-0.448 0.056-1.036 0.168-1.764l1.204-7.476h3.864l0.336-2.1h-3.864l0.672-4.088-2.772 0.56-0.56 3.528-2.8 0.28-0.308 1.82h2.772l-1.232 7.756c-0.112 0.644-0.168 1.26-0.168 1.792 0 2.212 0.924 3.332 2.828 3.332 1.568 0 3.668-1.288 3.668-1.288l-0.448-1.512"/><path d="m150.57 1017.3-5.124 0.14-0.252 1.54 2.352 0.56-3.08 19.32h2.66l0.924-5.04s2.212-7.7 5.852-7.7c1.12 0 1.456 0.812 1.456 1.848 0 0.392-0.056 0.812-0.112 1.232l-1.596 9.66 5.124-0.28 0.252-1.54-2.352-0.42 1.26-7.84c0.084-0.588 0.14-1.148 0.14-1.652 0-2.016-0.81201-3.388-3.052-3.388-4.256 0-6.496 5.404-6.608 5.712l2.156-12.152"/><path d="m170.7 1035.6s-2.548 1.26-4.592 1.26c-2.1 0-3.08-0.924-3.08-2.912 0-0.364 0.028-0.784 0.084-1.204 5.796 0 9.828-2.184 9.828-5.404 0-2.212-1.792-3.64-4.62-3.64-4.452 0-8.092 4.564-8.092 10.36 0 3.08 1.96 5.04 5.04 5.04 3.304 0 6.272-2.072 6.272-2.072l-0.84-1.428m-7.336-4.816c0.728-2.94 2.772-4.984 4.816-4.984 1.428 0 2.1 0.588 2.1 1.82 0 1.848-2.94 3.164-6.916 3.164"/><path d="m177.64 1038.9v-2.592l1.056-0.096c0.61867-0.064 0.928-0.3627 0.928-0.896v-14.88l-1.824-0.096v-2.72h8.768c3.136 0 5.5786 0.832 7.328 2.496 1.7706 1.664 2.656 4.128 2.656 7.392-2e-5 2.0266-0.26668 3.7973-0.8 5.312-0.53335 1.4933-1.2587 2.6666-2.176 3.52-1.8347 1.7066-4.1173 2.56-6.848 2.56h-9.088m5.888-18.176v15.104h3.264c1.8347 0 3.264-0.6614 4.288-1.984 1.024-1.3227 1.536-3.2427 1.536-5.76-1e-5 -4.9067-2.08-7.36-6.24-7.36h-2.848"/><path d="m205.63 1036.5c2.3253 0 3.488-1.8774 3.488-5.632-2e-5 -1.8987-0.26668-3.3387-0.8-4.32-0.51201-0.9813-1.3867-1.472-2.624-1.472-1.216 0-2.112 0.4693-2.688 1.408-0.57601 0.9387-0.86401 2.2186-0.864 3.84-1e-5 3.008 0.55466 4.896 1.664 5.664 0.49066 0.3413 1.0987 0.512 1.824 0.512m-7.36-5.728c0-1.5787 0.23466-2.944 0.704-4.096 0.46933-1.1733 1.0987-2.0693 1.888-2.688 1.5147-1.152 3.1893-1.728 5.024-1.728 1.28 0 2.3573 0.2133 3.232 0.64 0.89598 0.4053 1.5893 0.8853 2.08 1.44 0.51198 0.5333 0.93865 1.3227 1.28 2.368 0.36265 1.024 0.54398 2.24 0.544 3.648-2e-5 2.944-0.71469 5.1733-2.144 6.688-1.4294 1.5146-3.264 2.272-5.504 2.272-2.2187 0-3.9573-0.7147-5.216-2.144-1.2587-1.4507-1.888-3.584-1.888-6.4"/><path d="m218.43 1030.6c-1e-5 1.8133 0.34133 3.2213 1.024 4.224 0.68266 1.0026 1.664 1.504 2.944 1.504 1.3013 0 2.5813-0.4587 3.84-1.376l1.376 2.464c-1.5147 1.2373-3.4134 1.856-5.696 1.856-2.2827 0-4.0853-0.7147-5.408-2.144-1.3013-1.4507-1.952-3.584-1.952-6.4s0.74666-4.928 2.24-6.336c1.5147-1.4293 3.2107-2.144 5.088-2.144 1.8986 0 3.6586 0.4373 5.28 1.312v4.16l-2.944 0.224v-1.536c-1e-5 -0.576-0.21335-0.928-0.64-1.056-0.40535-0.1493-0.83201-0.224-1.28-0.224-2.5813 0-3.872 1.824-3.872 5.472"/><path d="m236.75 1025.2c-0.51201-0.192-1.1307-0.288-1.856-0.288-0.72534 0-1.312 0.1707-1.76 0.512-0.42668 0.32-0.64001 0.7253-0.64 1.216-1e-5 0.4693 0.0747 0.8427 0.224 1.12 0.17066 0.256 0.42666 0.48 0.768 0.672 0.53332 0.2773 1.1733 0.5226 1.92 0.736 0.74665 0.192 1.3013 0.352 1.664 0.48 0.36265 0.1066 0.81065 0.2986 1.344 0.576 0.55465 0.2773 0.97065 0.576 1.248 0.896 0.74665 0.7893 1.12 1.8026 1.12 3.04-2e-5 1.6-0.58668 2.8586-1.76 3.776-1.152 0.896-2.624 1.344-4.416 1.344-2.6027 0-4.5653-0.3307-5.888-0.992v-4.448l2.88-0.224v1.536c-1e-5 0.9386 0.89599 1.408 2.688 1.408 1.792 0 2.688-0.6507 2.688-1.952-1e-5 -0.4694-0.16001-0.8534-0.48-1.152-0.29868-0.2987-0.59735-0.5014-0.896-0.608-0.29868-0.1067-0.66134-0.2134-1.088-0.32-0.40534-0.1067-0.81068-0.2134-1.216-0.32-0.38401-0.1067-0.81068-0.2454-1.28-0.416-0.44801-0.192-0.94934-0.4587-1.504-0.8-1.088-0.704-1.632-1.8774-1.632-3.52-1e-5 -1.664 0.58666-2.944 1.76-3.84 1.1733-0.896 2.6453-1.344 4.416-1.344 1.792 0 3.5626 0.4267 5.312 1.28v3.84l-2.88 0.224v-1.344c-1e-5 -0.5333-0.24535-0.896-0.736-1.088"/></g></g></g></g></svg>