<svg viewBox="0 0 592 148"><linearGradient id="a" x1="0%" x2="68.26%" y1="38.057%" y2="38.057%"><stop offset="0" stop-color="#00d2e6"/><stop offset="1" stop-color="#2eccaa"/></linearGradient><linearGradient id="b" x1="17.275%" x2="79%" y1="59.719%" y2="30.635%"><stop offset="0" stop-opacity="0"/><stop offset=".514"/><stop offset="1" stop-opacity="0"/></linearGradient><linearGradient id="c" x1="100%" x2="31.855%" y1="39.719%" y2="39.719%"><stop offset="0" stop-color="#1fa385"/><stop offset="1" stop-color="#2eccaa"/></linearGradient><g fill="none" fill-rule="evenodd"><path fill="url(#a)" fill-rule="nonzero" d="M127.247 111.606a21.454 21.454 0 01-8.48-1.784c-6.111-2.663-11.493-7.691-15.871-14.495a72.01 72.01 0 003.378-6.854c4.405-10.243 6.5-21.46 6.661-32.593-.023-.22-.042-.442-.055-.665l-.012-.571c-.01-4.365-.675-8.79-2.177-12.909-1.73-4.746-4.489-9.495-8.865-11.348a5.94 5.94 0 00-2.464-.457c-5.505-10.289-5.68-20.148 0-29.537l.307.001c6.701.074 13.34 2.142 19.022 5.754 15.469 9.835 23.181 29 23.351 47.818.003.22 0 .441-.007.662h.087c-.022 19.886-4.805 40.053-14.875 56.978zm-34.3 31.216c-14.447 5.943-31.228 5.624-45.549-1.025-16.475-7.647-29.065-22.512-36.818-39.479C-2.682 73.297-2.986 38.603 9.592 9.137c9.446 3.779 17.845-2.24 17.845-2.24s-.02 9.26 8.948 13.905c-9.201 21.556-8.98 47.167.24 68.173 4.44 10.107 11.22 19.519 20.62 24.842a29.143 29.143 0 0010.833 3.586l.042.065c6.697 10.45 15.132 19.157 24.828 25.354z"/><path fill="url(#b)" d="M127.243 111.613a21.454 21.454 0 01-8.475-1.784c-6.113-2.663-11.496-7.693-15.874-14.498a72.007 72.007 0 003.38-6.858 77.776 77.776 0 003.365-9.5c2.128-7.498 30.382 2.018 26.071 14.37-2.223 6.373-5.039 12.51-8.467 18.27zm-34.302 31.212c-14.446 5.94-31.224 5.62-45.543-1.028-16.475-7.647.448-33.303 9.847-27.98a29.143 29.143 0 0010.828 3.585l.047.074c6.695 10.446 15.128 19.152 24.82 25.349z" opacity=".3"/><g fill-rule="nonzero"><path fill="url(#c)" d="M56.762 54.628a18.24 18.24 0 01-.007-.662c.17-18.817 7.883-37.983 23.352-47.818C85.788 2.536 92.427.468 99.13.394l.307-.001V29.93a5.94 5.94 0 00-2.464.457c-4.377 1.853-7.135 6.602-8.865 11.348-1.502 4.12-2.167 8.544-2.177 12.909l-.012.571a16.25 16.25 0 01-.055.665c.16 11.134 2.255 22.35 6.66 32.593 4.934 11.472 12.776 22.026 23.848 26.85 8.352 3.639 17.611 2.78 25.182-1.506 9.4-5.323 16.18-14.735 20.619-24.842 9.22-21.006 9.442-46.617.241-68.173 8.967-4.644 8.948-13.905 8.948-13.905s8.4 6.019 17.845 2.24c12.578 29.466 12.274 64.16-.988 93.181-7.753 16.967-20.343 31.832-36.818 39.48-14.667 6.808-31.913 6.978-46.592.583-13.19-5.749-23.918-16.106-31.636-28.15C61.994 96.788 56.7 75.553 56.677 54.628z"/><path fill="#2a3744" d="M259 51h8.4l3.92 23.1c.373 2.473.758 4.923 1.155 7.35s.782 4.853 1.155 7.28h.28c.467-2.427.945-4.865 1.435-7.315.49-2.45.992-4.888 1.505-7.315l5.67-23.1h7l5.67 23.1c.513 2.38 1.015 4.795 1.505 7.245s.992 4.912 1.505 7.385h.28c.373-2.473.747-4.923 1.12-7.35l1.12-7.28 3.92-23.1h7.84l-8.82 45.78h-10.08l-5.67-24.08a234.759 234.759 0 01-1.05-5.285c-.327-1.75-.653-3.512-.98-5.285h-.28a2263.75 2263.75 0 01-.98 5.285c-.327 1.75-.677 3.512-1.05 5.285l-5.53 24.08h-9.94zm69.743 0h27.51v6.86h-19.39v11.69h16.45v6.86h-16.45v13.51h20.09v6.86h-28.21zm46.714 0h14.63c2.333 0 4.503.198 6.51.595 2.006.397 3.733 1.027 5.18 1.89 1.446.863 2.578 2.018 3.395 3.465s1.225 3.22 1.225 5.32c0 2.193-.63 4.223-1.89 6.09s-3.244 3.15-5.95 3.85v.28c3.313.56 5.856 1.738 7.63 3.535 1.773 1.797 2.66 4.235 2.66 7.315 0 2.287-.444 4.27-1.33 5.95s-2.112 3.08-3.675 4.2-3.419 1.948-5.565 2.485c-2.147.537-4.48.805-7 .805h-15.82zm13.86 18.97c3.22 0 5.541-.583 6.965-1.75 1.423-1.167 2.135-2.823 2.135-4.97 0-2.1-.735-3.617-2.205-4.55s-3.699-1.4-6.685-1.4h-5.95v12.67zm1.12 20.51c3.36 0 5.938-.63 7.735-1.89s2.695-3.197 2.695-5.81c0-2.38-.887-4.142-2.66-5.285-1.774-1.143-4.364-1.715-7.77-1.715h-6.86v14.7zM426.37 51h8.12v38.92h18.97v6.86h-27.09zm63.653 27.02l-1.61-5.6c-.7-2.427-1.4-4.923-2.1-7.49a627.75 627.75 0 01-2.03-7.63h-.28c-.653 2.567-1.306 5.122-1.96 7.665a164.626 164.626 0 01-2.1 7.455l-1.61 5.6zm1.82 6.37h-15.33l-3.57 12.39h-8.33L479.593 51h9.52l14.91 45.78h-8.61zm33.414-26.53h-13.23V51h34.51v6.86h-13.16v38.92h-8.12zM563.36 51h27.51v6.86h-19.39v11.69h16.45v6.86h-16.45v13.51h20.09v6.86h-28.21z"/></g></g></svg>