<?xml version="1.0" encoding="utf-8"?>
<svg width="300" height="300" version="1.2" viewBox="0 0 300 300" baseProfile="tiny-ps" xmlns="http://www.w3.org/2000/svg">
  <title>Weblate</title>
  <linearGradient id="a" x1=".3965" x2="98.808" y1="55.253" y2="55.253" gradientUnits="userSpaceOnUse">
    <stop stop-color="#00d2e6" offset="0" />
    <stop stop-color="#2eccaa" offset="1" />
  </linearGradient>
  <linearGradient id="b" x1="49.017" x2="99.793" y1="137.89" y2="113.96" gradientUnits="userSpaceOnUse">
    <stop stop-opacity="0" offset="0" />
    <stop offset=".51413" />
    <stop stop-opacity="0" offset="1" />
  </linearGradient>
  <linearGradient id="c" x1="201.82" x2="103.58" y1="57.649" y2="57.649" gradientUnits="userSpaceOnUse">
    <stop stop-color="#1fa385" offset="0" />
    <stop stop-color="#2eccaa" offset="1" />
  </linearGradient>
  <g transform="translate(50,76)" fill-rule="evenodd">
    <path d="m127.25 111.61c-2.8884-0.0145-5.7666-0.6024-8.4797-1.7847-6.1117-2.6626-11.493-7.6912-15.872-14.495 1.2486-2.2193 2.3738-4.5173 3.3784-6.8535 4.4051-10.243 6.5-21.46 6.6607-32.593-0.0233-0.22082-0.0416-0.44244-0.0552-0.66483l-0.0121-0.57132c-0.01-4.3654-0.67459-8.7898-2.1767-12.909-1.7304-4.7458-4.4887-9.4955-8.865-11.348-0.79519-0.33595-1.6316-0.47701-2.4642-0.45737-5.5049-10.289-5.6799-20.149 0-29.537 0.10115 0 0.20619 3.9293e-4 0.30734 0.001179 6.7012 0.07387 13.34 2.1418 19.021 5.7536 15.469 9.835 23.182 29.001 23.352 47.818 2e-3 0.22083-3.9e-4 0.44126-7e-3 0.66169h0.0868c-0.0226 19.887-4.8049 40.054-14.875 56.979zm-34.3 31.216c-14.448 5.9425-31.228 5.6236-45.549-1.025-16.476-7.6476-29.065-22.512-36.818-39.479-13.262-29.022-13.566-63.715-0.98815-93.182 9.4458 3.7788 17.845-2.2397 17.845-2.2397s-0.01945 9.2605 8.9478 13.905c-9.2007 21.556-8.979 47.167 0.2412 68.173 4.4389 10.107 11.22 19.519 20.619 24.842 3.3547 1.8996 7.041 3.126 10.833 3.5862 0.01404 0.0219 0.02808 0.0439 0.04214 0.0658 6.6965 10.449 15.132 19.157 24.828 25.354z" fill="url(#a)" fill-rule="nonzero" />
    <path d="m56.762 54.628c-0.0066-0.22043-0.0093-0.44086-7e-3 -0.66169 0.17001-18.817 7.8827-37.983 23.352-47.818 5.6811-3.6118 12.32-5.6798 19.021-5.7536 0.10115-7.8585e-4 0.20619-0.001179 0.30734-0.001179v29.537c-0.83254-0.01965-1.669 0.12141-2.4642 0.45737-4.3763 1.8523-7.1345 6.602-8.865 11.348-1.5021 4.1191-2.1669 8.5434-2.1767 12.909l-0.01206 0.57132c-0.01362 0.2224-0.0319 0.44401-0.05524 0.66483 0.16067 11.134 2.2556 22.35 6.6607 32.593 4.9334 11.472 12.775 22.025 23.847 26.849 8.3526 3.6397 17.612 2.7811 25.182-1.5057 9.3991-5.3226 16.18-14.734 20.619-24.842 9.2202-21.006 9.4419-46.617 0.24121-68.173 8.9673-4.6444 8.9478-13.905 8.9478-13.905s8.3993 6.0185 17.845 2.2397c12.578 29.466 12.274 64.16-0.98815 93.182-7.7535 16.967-20.343 31.831-36.818 39.479-14.667 6.809-31.913 6.9792-46.591 0.58389-13.19-5.7489-23.918-16.106-31.637-28.15-11.179-17.443-16.472-38.678-16.496-59.604z" fill="url(#c)" fill-rule="nonzero" />
  </g>
</svg>
