<svg viewBox="0 0 204 204"><g fill-rule="evenodd"><path fill-rule="nonzero" d="M129.848 139.887a21.454 21.454 0 01-8.48-1.784c-6.111-2.663-11.493-7.691-15.871-14.495a72.011 72.011 0 003.378-6.854c4.405-10.243 6.5-21.46 6.661-32.593-.023-.22-.042-.442-.055-.665l-.012-.571c-.01-4.365-.675-8.79-2.177-12.909-1.73-4.746-4.489-9.495-8.865-11.348a5.94 5.94 0 00-2.464-.457c-5.505-10.289-5.68-20.148 0-29.537l.307.001c6.701.074 13.34 2.142 19.021 5.754 15.47 9.835 23.182 29 23.352 47.818.002.22 0 .441-.007.662h.087c-.022 19.886-4.805 40.053-14.875 56.978zm-34.3 31.216c-14.447 5.943-31.228 5.624-45.549-1.025-16.475-7.647-29.065-22.512-36.818-39.479-13.262-29.021-13.566-63.715-.988-93.181 9.446 3.779 17.845-2.24 17.845-2.24s-.02 9.26 8.948 13.905c-9.201 21.556-8.98 47.167.24 68.173 4.44 10.107 11.22 19.519 20.62 24.841a29.143 29.143 0 0010.833 3.587l.042.065c6.697 10.45 15.132 19.157 24.828 25.354z"/><path d="M129.844 139.894a21.454 21.454 0 01-8.475-1.784c-6.113-2.663-11.496-7.693-15.874-14.498a72.008 72.008 0 003.38-6.858 77.777 77.777 0 003.365-9.5c2.128-7.498 30.382 2.018 26.071 14.37-2.223 6.373-5.039 12.51-8.467 18.27zm-34.302 31.212c-14.446 5.94-31.224 5.62-45.543-1.028-16.475-7.647.448-33.303 9.847-27.98a29.143 29.143 0 0010.828 3.585l.047.074c6.695 10.446 15.128 19.152 24.82 25.35z" opacity=".3"/><path fill-rule="nonzero" d="M59.363 82.909a18.24 18.24 0 01-.007-.662c.17-18.817 7.883-37.983 23.352-47.818 5.681-3.612 12.32-5.68 19.023-5.754l.307-.001v29.537a5.94 5.94 0 00-2.464.457c-4.377 1.853-7.135 6.602-8.865 11.348-1.502 4.12-2.167 8.544-2.177 12.909l-.012.571a16.25 16.25 0 01-.055.665c.16 11.134 2.255 22.35 6.66 32.593 4.934 11.472 12.776 22.026 23.848 26.85 8.352 3.639 17.611 2.78 25.182-1.506 9.4-5.323 16.18-14.735 20.619-24.842 9.22-21.006 9.442-46.617.241-68.173 8.968-4.644 8.948-13.905 8.948-13.905s8.4 6.019 17.845 2.24c12.578 29.466 12.274 64.16-.988 93.181-7.753 16.967-20.343 31.832-36.818 39.48-14.667 6.808-31.913 6.978-46.591.583-13.19-5.749-23.919-16.106-31.637-28.15-11.179-17.443-16.473-38.678-16.496-59.603z"/></g></svg>