<svg width="610" height="145" version="1.1" xmlns="http://www.w3.org/2000/svg" xmlns:xlink="http://www.w3.org/1999/xlink"><defs><clipPath id="clipPath8"><path d="m76 2v46h-22v23h-18.419c-0.07818 0.66569-0.14148 1.3329-0.20574 2-1.1512 12.531 1.0364 24.088 6.0625 33.969l1.6875 3.0312c1.0114 1.8168 2.1912 3.523 3.4375 5.1875 1.2447 1.6625 1.6857 2.5826 2.4688 3.6875 13.289 14.936 33.098 22.125 55.969 22.125 50.648 0 93.633-22.438 112.66-72.844 13.497 1.385 26.443-2.0759 32.344-13.594-9.3986-5.4237-21.478-3.6853-28.438-0.1875l18.438-52.375-72 46h-23v-46z"/></clipPath></defs><path d="m467.82 113.24-0.0422-25.558-0.12687-45.657m25.854 19.676-25.727 25.981 25.854 25.642m-172.35-25.304c0.12417-5.4809-1.469-11.081-4.6969-15.614-4.6513-6.5313-12.179-10.99-20.438-11.086-0.55059 0-1.0956 0-1.6503 0.04225-3.2648 0.2017-6.4266 0.65538-9.2245 1.8195-18.401 7.656-21.661 33.208-6.1356 44.769 13.445 10.011 33.002 5.9236 39.775-9.3515 1.4314-3.2279 2.3696-7.2971 2.3696-10.579v-46.207m124.15 22.554c-3.8099-2.4618-8.2546-3.3499-12.652-3.3428-0.47683 0-0.96708 0.02383-1.3964 0.04225-12.713 0.54677-24.5 9.5304-24.5 26.954 0 20.6 22.088 31.718 38.591 22.003m74.135-2.2427c13.002-11.138 39.056-33.471 39.056-33.471s-0.94989-1.7971-1.5656-2.6235c-5.2574-7.0555-13.289-10.579-21.75-10.579-20.909 0-36.582 27.036-15.741 46.673 1.443 1.3596 3.4252 2.4245 5.6278 3.3428 7.6475 3.1884 18.117 2.9268 23.781-1.2694m-185-48.661c-0.59271 0.01083-1.1819 0.07366-1.7772 0.08463-15.855 0.29135-27.286 16.759-23.823 32.032 3.3748 14.883 19.634 23.696 33.682 18.83 16.359-4.2893 23.031-24.889 14.048-38.802-4.9126-7.6096-13.239-12.313-22.13-12.144zm240.73 0.50777c-6.4201 0.0172-12.673 2.2658-17.307 6.601-7.3077 6.0313-8.8945 13.647-8.8014 23.273l0.21157 21.877" fill="none" stroke="#225b4d" stroke-linecap="round" stroke-linejoin="round" stroke-width="10.5"/><path d="m147.49 45.732h22.866v23.375h11.562c5.339 0 10.831-0.95117 15.887-2.6644 2.4845-0.84244 5.2732-2.0148 7.7239-3.4892-3.2278-4.2144-4.8758-9.5357-5.361-14.781-0.65874-7.1343 0.78032-16.42 5.609-22.004l2.4036-2.7801 2.8642 2.3024c7.2114 5.7937 13.276 13.889 14.345 23.118 8.6831-2.5541 18.878-1.95 26.531 2.4674l3.14 1.8118-1.6528 3.2257c-6.4729 12.633-20.005 16.547-33.235 15.854-19.797 49.308-62.898 72.653-115.16 72.653-26.999 0-51.77-10.093-65.876-34.047-0.82702-1.488-1.5352-3.0439-2.2863-4.5721-4.7681-10.544-6.3518-22.095-5.2775-33.637l0.32241-3.4571h19.553v-23.375h22.866v-22.866h45.732v-22.866h27.44v45.732" fill="#225b4d"/><g clip-path="url(#clipPath8)"><g id="g18"><g id="g20" transform="translate(0,-22.866)"><path d="m123.86 3.8111h19.818v19.817h-19.818z" fill="#427b6d"/><path d="m123.86 26.676h19.818v19.818h-19.818z" fill="#4c8577"/><path id="path26" d="m126.29 21.977v-16.516m2.9718 16.516v-16.516m3.0018 16.516v-16.516m3.0034 16.516v-16.516m3.0029 16.516v-16.516m2.9713 16.516v-16.516" stroke="#225b4d" stroke-width="1.56"/><use transform="translate(0,22.866)" xlink:href="#path26"/></g><use transform="matrix(1 0 0 -1 22.866 4.5727)" xlink:href="#g20"/></g><use transform="translate(-91.464,45.732)" xlink:href="#g18"/><use transform="translate(-45.732,45.732)" xlink:href="#g18"/><use transform="translate(0,45.732)" xlink:href="#g18"/></g><path d="m221.57 54.38c1.5333-11.915-7.3838-21.275-12.914-25.718-6.3727 7.3678-7.363 26.678 2.635 34.807-5.5795 4.9561-17.337 9.4484-29.376 9.4484h-147.92c-1.1707 12.567 0 73.083 0 73.083h217l-0.98657-91.424c-9.3986-5.4237-21.484-3.6943-28.443-0.19655" clip-path="url(#clipPath8)" fill="#6aa395"/><path d="m34 89v57h217v-57" clip-path="url(#clipPath8)" fill-opacity=".17"/><path d="m111.24 140.89c-13.54-6.4252-20.972-15.159-25.107-24.694l-41.131 1.8044 21 28 45.237-5.11" clip-path="url(#clipPath8)" fill="#d4edf1"/><path d="m222.5 53.938v0.03125c-20.861 26.889-50.783 50.379-82.906 62.719-28.655 11.008-53.638 11.06-70.875 2.2188-1.8561-1.0483-3.6757-2.2115-5.5-3.3125-12.637-8.832-19.754-23.441-19.156-42.688h-10.062v73.094h217v-96h-25z" clip-path="url(#clipPath8)" fill-opacity=".085"/><path d="m45.625 117.03c14.165 0.77531 29.282 0.91433 42.469-3.2188" fill="none" stroke="#225b4d" stroke-linecap="round" stroke-width="3.4"/><path d="m102.17 106.96c0 3.019-2.4475 5.4665-5.4665 5.4665-3.0195 0-5.4676-2.4475-5.4676-5.4665s2.4481-5.4676 5.4676-5.4676c3.019 0 5.4665 2.4486 5.4665 5.4676z" fill="#d4edf1"/><path d="m98.121 103.31c-0.47719 0.27582-0.80013 0.79264-0.80013 1.3839 0 0.88261 0.71551 1.5971 1.5981 1.5971 0.60465 0 1.13-0.3358 1.4016-0.83174 0.19173 0.4622 0.29831 0.96991 0.29831 1.5023 0 2.1621-1.7529 3.915-3.9155 3.915-2.1621 0-3.916-1.7529-3.916-3.915 0-2.1631 1.754-3.9166 3.916-3.9166 0.50022 0 0.97741 0.0943 1.4176 0.2651z" fill="#225b4d"/><path d="m0 90.162h254.33c-5.5377-1.4048-17.521-3.3023-15.545-10.56-10.069 11.652-34.353 8.1743-40.481 2.4288-6.8247 9.8983-46.555 6.136-49.326-1.5751-8.5556 10.041-35.067 10.041-43.623 0-2.7721 7.7111-42.501 11.473-49.327 1.5751-6.1285 5.7455-30.41 9.223-40.48-2.4288 1.9762 7.2574-10.007 9.1549-15.546 10.56" fill="#225b4d"/></svg>