<svg xmlns="http://www.w3.org/2000/svg" width="60" height="60" version="1.1" viewBox="0 0 60 60"><g fill="none" fill-rule="evenodd"><g fill-rule="nonzero"><g transform="translate(-1031 -2395) translate(1031 2395)"><path id="Path" fill="#1FA385" d="m59.31 53.685c0 3.1251-2.5323 5.6598-5.6598 5.6598h-47.22c-3.1245 0-5.6598-2.5353-5.6598-5.6598v-47.22c0-3.1251 2.5353-5.6598 5.6598-5.6598h47.22c3.1275 0 5.6598 2.5347 5.6598 5.6598v47.22"/><path fill="#fff" d="m24.628 41.816c-1.8854 0-3.3656-0.246-4.4407-0.73678-1.0751-0.49139-1.8459-1.1614-2.31-2.0123-0.46527-0.84915-0.69062-1.8222-0.67726-2.9265 0.012756-1.1018 0.16521-2.2766 0.45798-3.5248l5.0579-21.148 6.1737-0.95545-5.5359 22.94c-0.1063 0.47742-0.16582 0.91597-0.17918 1.3138-0.01397 0.39785 0.059526 0.75014 0.21867 1.0551 0.15914 0.30613 0.43126 0.55152 0.81635 0.73678 0.38449 0.18647 0.92265 0.30613 1.6133 0.35898l-1.1948 4.8957"/><path fill="#fff" d="m46.925 28.636c0 1.9376-0.31889 3.71-0.95606 5.3166-0.63717 1.6072-1.5203 2.9939-2.6483 4.1619-1.1286 1.1693-2.4825 2.0779-4.0623 2.7279-1.5799 0.64992-3.2994 0.9761-5.1569 0.9761-0.90321 0-1.8058-0.080177-2.7084-0.23992l-1.7925 7.2093h-5.8943l6.611-27.558c1.0617-0.31828 2.2766-0.60376 3.6438-0.85644 1.3679-0.25207 2.8481-0.37781 4.4413-0.37781 1.4869 0 2.7686 0.22535 3.8431 0.67665 1.0757 0.4513 1.9583 1.069 2.6489 1.852 0.69001 0.78355 1.2008 1.6995 1.5325 2.7479 0.33164 1.0484 0.49807 2.1709 0.49807 3.3662m-14.457 8.1647c0.4513 0.1063 1.0089 0.15914 1.6728 0.15914 1.035 0 1.9777-0.19194 2.8275-0.57764 0.84915-0.38449 1.5732-0.92204 2.1709-1.6127 0.59647-0.69001 1.0611-1.5191 1.3934-2.4891 0.33164-0.96881 0.49746-2.0372 0.49746-3.2059 0-1.1413-0.25268-2.1107-0.75622-2.9076-0.50475-0.79631-1.3806-1.1948-2.6282-1.1948-0.85037 0-1.6467 0.07957-2.3901 0.23932l-2.7874 11.589"/></g></g></g></svg>