<svg width="60px" height="59px" version="1.1" viewBox="0 0 60 59" xmlns="http://www.w3.org/2000/svg"><g fill="none" fill-rule="evenodd"><g transform="translate(-719 -2395)" fill="#1FA385" fill-rule="nonzero"><g transform="translate(719 2395)"><path d="m30-4.4409e-16c-16.569-5.3291e-15 -30 13.431-30 30 1.3323e-15 13.26 8.61 24.51 20.52 28.5 1.5 0.24 1.98-0.69 1.98-1.5v-5.07c-8.31 1.8-10.08-4.02-10.08-4.02-1.38-3.48-3.33-4.41-3.33-4.41-2.73-1.86 0.21-1.8 0.21-1.8 3 0.21 4.59 3.09 4.59 3.09 2.61 4.56 7.02 3.21 8.73 2.49 0.27-1.95 1.05-3.27 1.89-4.02-6.66-0.75-13.65-3.33-13.65-14.76 0-3.33 1.14-6 3.09-8.13-0.3-0.75-1.35-3.87 0.3-7.92 0 0 2.52-0.81 8.25 3.06 2.37-0.66 4.95-0.99 7.5-0.99s5.13 0.33 7.5 0.99c5.73-3.87 8.25-3.06 8.25-3.06 1.65 4.05 0.6 7.17 0.3 7.92 1.95 2.13 3.09 4.8 3.09 8.13 0 11.46-7.02 13.98-13.71 14.73 1.08 0.93 2.07 2.76 2.07 5.55v8.22c0 0.81 0.48 1.77 2.01 1.5 11.91-4.02 20.49-15.24 20.49-28.5 0-7.9565-3.1607-15.587-8.7868-21.213-5.6261-5.6261-13.257-8.7868-21.213-8.7868z"/></g></g></g></svg>