<svg width="60" height="60" version="1.1" viewBox="0 0 60 60" xmlns="http://www.w3.org/2000/svg"><g transform="matrix(1.5104 0 0 1.5104 1.3022 1.3022)" fill="#1fa385" fill-rule="evenodd"><path d="m34.619 8.1788c2.1314 3.0707 3.3806 6.8001 3.3806 10.821s-1.2492 7.7505-3.3806 10.821l-4.9217-4.9217c0.9665-1.7488 1.5166-3.7599 1.5166-5.8995s-0.55011-4.1506-1.5166-5.8995zm-4.7982-4.7982-4.9217 4.9217c-1.7488-0.9665-3.7599-1.5166-5.8995-1.5166-6.7458 0-12.214 5.4685-12.214 12.214s5.4685 12.214 12.214 12.214c2.1395 0 4.1506-0.55011 5.8995-1.5166l4.9217 4.9217c-3.0707 2.1314-6.8001 3.3806-10.821 3.3806-10.493 0-19-8.5066-19-19 0-10.493 8.5066-19 19-19 4.0211 0 7.7505 1.2492 10.821 3.3806z"/><path d="m34.619 8.1788c2.1314 3.0707 3.3806 6.8001 3.3806 10.821s-1.2492 7.7505-3.3806 10.821l-4.9217-4.9217c0.9665-1.7488 1.5166-3.7599 1.5166-5.8995s-0.55011-4.1506-1.5166-5.8995z"/></g></svg>