<svg xmlns="http://www.w3.org/2000/svg" xmlns:svg="http://www.w3.org/2000/svg" id="svg10" width="23" height="23" version="1.1" viewBox="0 0 23 23"><metadata id="metadata16"/><title id="title2">7AFE0AC2-6252-40B2-95A6-45549388053D</title><desc id="desc4">Created with sketchtool.</desc><g id="Weblate" fill="none" fill-rule="evenodd" stroke="none" stroke-width="1" transform="translate(0.5,0.5)"><g id="Donate" fill="#2eccaa" fill-rule="nonzero" transform="translate(-346,-2776)"><g id="monero" transform="translate(346,2776)"><path id="Shape" d="M 11,0 C 4.9344686,0 0,4.9344686 0,11 0,17.065531 4.9344686,22 11,22 17.065084,22 22,17.065531 22,11 22,4.9344686 17.065084,0 11,0 Z m 0,20.166667 c -3.3837891,0 -6.3383382,-1.848104 -7.9263916,-4.583334 H 8.25 V 10.002767 L 10.964193,14.795349 13.75,9.9636027 v 5.6197303 h 5.176392 C 17.338338,18.318563 14.384237,20.166667 11,20.166667 Z M 19.744141,13.75 H 15.583333 V 6.4166667 H 13.679057 L 10.978516,11.100484 8.3260905,6.4166667 H 6.4166667 V 13.75 H 2.2558594 C 1.9823812,12.881449 1.8333333,11.957845 1.8333333,11 1.8333333,5.945577 5.945577,1.8333333 11,1.8333333 c 5.054423,0 9.166667,4.1122437 9.166667,9.1666667 0,0.957845 -0.149048,1.881449 -0.422526,2.75 z"/></g></g></g></svg>