<?xml version="1.0" encoding="UTF-8" standalone="no"?>
<svg
   xmlns:dc="http://purl.org/dc/elements/1.1/"
   xmlns:cc="http://creativecommons.org/ns#"
   xmlns:rdf="http://www.w3.org/1999/02/22-rdf-syntax-ns#"
   xmlns:svg="http://www.w3.org/2000/svg"
   xmlns="http://www.w3.org/2000/svg"
   xmlns:sodipodi="http://sodipodi.sourceforge.net/DTD/sodipodi-0.dtd"
   xmlns:inkscape="http://www.inkscape.org/namespaces/inkscape"
   version="1.1"
   width="45.047619"
   height="43"
   viewBox="-1 -1 47.047619 45"
   id="svg4"
   sodipodi:docname="icon-notifications.svg"
   inkscape:version="0.92.4 (5da689c313, 2019-01-14)">
  <metadata
     id="metadata10">
    <rdf:RDF>
      <cc:Work
         rdf:about="">
        <dc:format>image/svg+xml</dc:format>
        <dc:type
           rdf:resource="http://purl.org/dc/dcmitype/StillImage" />
        <dc:title></dc:title>
      </cc:Work>
    </rdf:RDF>
  </metadata>
  <defs
     id="defs8" />
  <sodipodi:namedview
     pagecolor="#ffffff"
     bordercolor="#666666"
     borderopacity="1"
     objecttolerance="10"
     gridtolerance="10"
     guidetolerance="10"
     inkscape:pageopacity="0"
     inkscape:pageshadow="2"
     inkscape:window-width="1920"
     inkscape:window-height="1027"
     id="namedview6"
     showgrid="false"
     fit-margin-top="0"
     fit-margin-left="0"
     fit-margin-right="0"
     fit-margin-bottom="0"
     inkscape:zoom="9.8333333"
     inkscape:cx="5.9661017"
     inkscape:cy="10.999999"
     inkscape:window-x="-8"
     inkscape:window-y="-8"
     inkscape:window-maximized="1"
     inkscape:current-layer="svg4" />
  <path
     d="m 40.95238,34.809523 v 2.047619 H 4.095238 V 34.809523 L 8.190476,30.714285 V 18.428571 c 0,-6.347619 4.156667,-11.937619 10.238095,-13.739523 0,-0.204762 0,-0.389048 0,-0.59381 A 4.095238,4.095238 0 0 1 22.523809,0 4.095238,4.095238 0 0 1 26.619047,4.095238 c 0,0.204762 0,0.389048 0,0.59381 6.081428,1.801904 10.238095,7.391904 10.238095,13.739523 v 12.285714 l 4.095238,4.095238 m -14.333333,4.095238 a 4.095238,4.095238 0 0 1 -4.095238,4.095238 4.095238,4.095238 0 0 1 -4.095238,-4.095238 M 38.392856,2.436667 35.485237,5.344286 c 3.501429,3.460476 5.467143,8.169999 5.467143,13.084285 h 4.095238 c 0,-5.999524 -2.375238,-11.773809 -6.654762,-15.991904 M 0,18.428571 h 4.095238 c 0,-4.914286 1.9657142,-9.623809 5.467143,-13.084285 L 6.6547617,2.436667 C 2.375238,6.654762 0,12.429047 0,18.428571 Z"
     id="path2"
     inkscape:connector-curvature="0"
     style="stroke-width:0.99999994;fill:none;stroke:#1fa385;stroke-opacity:1" />
</svg>
