<?xml version="1.0" encoding="UTF-8" standalone="no"?>
<svg
   xmlns:dc="http://purl.org/dc/elements/1.1/"
   xmlns:cc="http://creativecommons.org/ns#"
   xmlns:rdf="http://www.w3.org/1999/02/22-rdf-syntax-ns#"
   xmlns:svg="http://www.w3.org/2000/svg"
   xmlns="http://www.w3.org/2000/svg"
   xmlns:sodipodi="http://sodipodi.sourceforge.net/DTD/sodipodi-0.dtd"
   xmlns:inkscape="http://www.inkscape.org/namespaces/inkscape"
   version="1.1"
   width="41"
   height="41"
   viewBox="-1 -1 43 43"
   id="svg4"
   sodipodi:docname="icon-documentation.svg"
   inkscape:version="0.92.4 (5da689c313, 2019-01-14)">
  <metadata
     id="metadata10">
    <rdf:RDF>
      <cc:Work
         rdf:about="">
        <dc:format>image/svg+xml</dc:format>
        <dc:type
           rdf:resource="http://purl.org/dc/dcmitype/StillImage" />
        <dc:title></dc:title>
      </cc:Work>
    </rdf:RDF>
  </metadata>
  <defs
     id="defs8" />
  <sodipodi:namedview
     pagecolor="#ffffff"
     bordercolor="#666666"
     borderopacity="1"
     objecttolerance="10"
     gridtolerance="10"
     guidetolerance="10"
     inkscape:pageopacity="0"
     inkscape:pageshadow="2"
     inkscape:window-width="1920"
     inkscape:window-height="1027"
     id="namedview6"
     showgrid="false"
     fit-margin-top="0"
     fit-margin-left="0"
     fit-margin-right="0"
     fit-margin-bottom="0"
     inkscape:zoom="9.8333333"
     inkscape:cx="4.9661017"
     inkscape:cy="10"
     inkscape:window-x="-8"
     inkscape:window-y="-8"
     inkscape:window-maximized="1"
     inkscape:current-layer="svg4" />
  <path
     d="m 36.4695,27.4905 c 1.9475,-4.4485 1.9475,-9.553 0,-13.981 l -5.617,2.542 c 1.23,2.829 1.23,6.0475 0.0205,8.897 l 5.5965,2.542 M 27.511,4.5305 c -4.4485,-1.9475 -9.553,-1.9475 -14.0015,0 l 2.542,5.5965 c 2.8495,-1.2095 6.068,-1.2095 8.9175,0.0205 l 2.542,-5.617 M 4.5305,13.489 c -1.9475,4.469 -1.9475,9.553 0,14.022 l 5.617,-2.5625 c -1.23,-2.829 -1.23,-6.068 0,-8.9175 l -5.617,-2.542 m 8.979,22.9805 c 4.4485,1.9475 9.553,1.9475 14.0015,-0.0205 l -2.542,-5.5965 c -2.829,1.23 -6.068,1.23 -8.897,0.0205 l -2.5625,5.5965 M 20.5,0 A 20.5,20.5 0 0 1 41,20.5 20.5,20.5 0 0 1 20.5,41 20.5,20.5 0 0 1 0,20.5 20.5,20.5 0 0 1 20.5,0 m 0,12.3 a 8.2,8.2 0 0 0 -8.2,8.2 8.2,8.2 0 0 0 8.2,8.2 8.2,8.2 0 0 0 8.2,-8.2 8.2,8.2 0 0 0 -8.2,-8.2 z"
     id="path2"
     inkscape:connector-curvature="0"
     style="stroke-width:1;fill:none;stroke:#1fa385;stroke-opacity:1" />
</svg>
