<svg viewBox="-1 -1 33 43"><path fill="none" stroke="#1fa385" d="M17.55 24.6c-6.888 0-9.143 2.768-9.881 4.592A6.154 6.154 0 0111.4 34.85 6.15 6.15 0 015.25 41 6.15 6.15 0 01-.9 34.85a6.13 6.13 0 014.1-5.801V11.95a6.13 6.13 0 01-4.1-5.8A6.15 6.15 0 015.25 0a6.15 6.15 0 016.15 6.15 6.13 6.13 0 01-4.1 5.801v10.845c1.804-1.333 4.428-2.296 8.2-2.296 5.473 0 7.298-2.747 7.893-4.572A6.161 6.161 0 0119.6 10.25a6.15 6.15 0 016.15-6.15 6.15 6.15 0 016.15 6.15c0 2.747-1.804 5.125-4.285 5.863-.532 2.931-2.521 8.487-10.065 8.487m-12.3 8.2a2.05 2.05 0 00-2.05 2.05 2.05 2.05 0 002.05 2.05 2.05 2.05 0 002.05-2.05 2.05 2.05 0 00-2.05-2.05m0-28.7A2.05 2.05 0 003.2 6.15 2.05 2.05 0 005.25 8.2 2.05 2.05 0 007.3 6.15 2.05 2.05 0 005.25 4.1m20.5 4.1a2.05 2.05 0 00-2.05 2.05 2.05 2.05 0 002.05 2.05 2.05 2.05 0 002.05-2.05 2.05 2.05 0 00-2.05-2.05z"/></svg>