<svg viewBox="-1 -1 45.973 36.994"><path fill="none" stroke="#1fa385" d="M39.82 1.442c-2.199-.7-4.616-1-6.935-1-3.864 0-8.025.8-10.898 3-2.874-2.2-7.035-3-10.899-3-3.864 0-8.025.8-10.898 3v29.3c0 .5.495 1 .99 1 .199 0 .298-.1.496-.1 2.675-1.3 6.539-2.2 9.412-2.2 3.864 0 8.025.8 10.899 3 2.675-1.7 7.53-3 10.898-3 3.27 0 6.638.6 9.412 2.1.199.1.298.1.496.1.495 0 .99-.5.99-1v-29.2c-1.188-.9-2.476-1.5-3.962-2m0 27c-2.18-.7-4.558-1-6.936-1-3.368 0-8.223 1.3-10.898 3v-23c2.675-1.7 7.53-3 10.898-3 2.378 0 4.756.3 6.936 1z"/></svg>