<svg width="20" height="19.5" version="1.1" viewBox="-1 -1 22 21.498" xmlns="http://www.w3.org/2000/svg"><path d="m10-1.0255a11.042 11.042 0 0 0-11.042 11.042c0 4.8807 3.1691 9.0215 7.5529 10.49 0.55211 0.08835 0.72879-0.25397 0.72879-0.55211v-1.8661c-3.0587 0.66253-3.7102-1.4797-3.7102-1.4797-0.50794-1.2809-1.2257-1.6232-1.2257-1.6232-1.0048-0.68462 0.077294-0.66253 0.077294-0.66253 1.1042 0.0773 1.6895 1.1373 1.6895 1.1373 0.96067 1.6784 2.5839 1.1815 3.2133 0.9165 0.099381-0.71774 0.38648-1.2036 0.69566-1.4797-2.4514-0.27605-5.0242-1.2257-5.0242-5.4328 0-1.2257 0.4196-2.2084 1.1373-2.9924-0.11042-0.27606-0.4969-1.4244 0.11042-2.9151 0 0 0.92754-0.29814 3.0366 1.1263 0.87233-0.24293 1.822-0.36439 2.7606-0.36439 0.93859 0 1.8882 0.12146 2.7606 0.36439 2.1091-1.4244 3.0366-1.1263 3.0366-1.1263 0.60732 1.4907 0.22084 2.6391 0.11042 2.9151 0.71774 0.784 1.1373 1.7668 1.1373 2.9924 0 4.2181-2.5839 5.1457-5.0463 5.4217 0.39752 0.34231 0.76191 1.0159 0.76191 2.0428v3.0256c0 0.29814 0.17668 0.65149 0.73983 0.55211 4.3838-1.4797 7.5418-5.6094 7.5418-10.49a11.042 11.042 0 0 0-11.042-11.042z" fill="#fff"/></svg>