<svg width="41" height="41" version="1.1" viewBox="-1 -1 43 42" xmlns="http://www.w3.org/2000/svg"><path d="m32.8 17.95h-6.519c-0.861-2.378-3.116-4.1-5.781-4.1s-4.92 1.722-5.781 4.1h-6.519c-0.6765 0-4.1-0.205-4.1-4.1v-2.05c0-3.7515 3.157-4.1 4.1-4.1h20.869c0.861 2.378 3.116 4.1 5.781 4.1a6.15 6.15 0 0 0 6.15-6.15 6.15 6.15 0 0 0-6.15-6.15c-2.665 0-4.92 1.722-5.781 4.1h-20.869c-3.3005 0-8.2 2.173-8.2 8.2v2.05c0 6.027 4.8995 8.2 8.2 8.2h6.519c0.861 2.378 3.116 4.1 5.781 4.1s4.92-1.722 5.781-4.1h6.519c0.6765 0 4.1 0.205 4.1 4.1v2.05c0 3.7515-3.157 4.1-4.1 4.1h-20.869c-0.861-2.378-3.116-4.1-5.781-4.1a6.15 6.15 0 0 0-6.15 6.15 6.15 6.15 0 0 0 6.15 6.15c2.665 0 4.92-1.722 5.781-4.1h20.869c3.3005 0 8.2-2.1935 8.2-8.2v-2.05c0-6.0065-4.8995-8.2-8.2-8.2m2.05-14.35a2.05 2.05 0 0 1 2.05 2.05 2.05 2.05 0 0 1-2.05 2.05 2.05 2.05 0 0 1-2.05-2.05 2.05 2.05 0 0 1 2.05-2.05m-28.7 32.8a2.05 2.05 0 0 1-2.05-2.05 2.05 2.05 0 0 1 2.05-2.05 2.05 2.05 0 0 1 2.05 2.05 2.05 2.05 0 0 1-2.05 2.05z" fill="none" stroke="#1fa385"/></svg>