<svg width="45" height="43" version="1.1" viewBox="-1 -1 46.998 45" xmlns="http://www.w3.org/2000/svg"><path d="m40.928 34.81v2.0476h-36.857v-2.0476l4.0952-4.0952v-12.286c0-6.3476 4.1567-11.938 10.238-13.74v-0.59381a4.0952 4.0952 0 0 1 4.0952-4.0952 4.0952 4.0952 0 0 1 4.0952 4.0952v0.59381c6.0814 1.8019 10.238 7.3919 10.238 13.74v12.286l4.0952 4.0952m-14.333 4.0952a4.0952 4.0952 0 0 1-4.0952 4.0952 4.0952 4.0952 0 0 1-4.0952-4.0952m19.964-36.468-2.9076 2.9076c3.5014 3.4605 5.4671 8.17 5.4671 13.084h4.0952c0-5.9995-2.3752-11.774-6.6548-15.992m-38.393 15.992h4.0952c0-4.9143 1.9657-9.6238 5.4671-13.084l-2.9076-2.9076c-4.2795 4.2181-6.6548 9.9924-6.6548 15.992z" fill="none" stroke="#1fa385"/></svg>