<?xml version="1.0" encoding="UTF-8" standalone="no"?>
<svg
   xmlns:dc="http://purl.org/dc/elements/1.1/"
   xmlns:cc="http://creativecommons.org/ns#"
   xmlns:rdf="http://www.w3.org/1999/02/22-rdf-syntax-ns#"
   xmlns:svg="http://www.w3.org/2000/svg"
   xmlns="http://www.w3.org/2000/svg"
   xmlns:sodipodi="http://sodipodi.sourceforge.net/DTD/sodipodi-0.dtd"
   xmlns:inkscape="http://www.inkscape.org/namespaces/inkscape"
   version="1.1"
   width="41"
   height="41"
   viewBox="-1 -1 43.000732 43.000732"
   id="svg4"
   sodipodi:docname="icon-versioncontrol.svg"
   inkscape:version="0.92.4 (5da689c313, 2019-01-14)">
  <metadata
     id="metadata10">
    <rdf:RDF>
      <cc:Work
         rdf:about="">
        <dc:format>image/svg+xml</dc:format>
        <dc:type
           rdf:resource="http://purl.org/dc/dcmitype/StillImage" />
        <dc:title></dc:title>
      </cc:Work>
    </rdf:RDF>
  </metadata>
  <defs
     id="defs8" />
  <sodipodi:namedview
     pagecolor="#ffffff"
     bordercolor="#666666"
     borderopacity="1"
     objecttolerance="10"
     gridtolerance="10"
     guidetolerance="10"
     inkscape:pageopacity="0"
     inkscape:pageshadow="2"
     inkscape:window-width="1920"
     inkscape:window-height="1173"
     id="namedview6"
     showgrid="false"
     fit-margin-top="0"
     fit-margin-left="0"
     fit-margin-right="0"
     fit-margin-bottom="0"
     inkscape:zoom="9.8333333"
     inkscape:cx="-19.448178"
     inkscape:cy="9.5857206"
     inkscape:window-x="0"
     inkscape:window-y="27"
     inkscape:window-maximized="1"
     inkscape:current-layer="svg4" />
  <path
     d="M 1.2229579,17.608755 13.076513,5.7346923 16.542345,9.221032 c -0.492189,1.74317 0.307618,3.650403 1.907233,4.573257 v 11.361366 c -1.230473,0.697268 -2.050788,2.030281 -2.050788,3.547864 a 4.1015762,4.1015762 0 0 0 4.101576,4.101576 4.1015762,4.1015762 0 0 0 4.101576,-4.101576 c 0,-1.517583 -0.820315,-2.850596 -2.050788,-3.547864 v -9.96683 l 4.245132,4.286147 c -0.143556,0.307619 -0.143556,0.656253 -0.143556,1.025394 a 4.1015762,4.1015762 0 0 0 4.101577,4.101577 4.1015762,4.1015762 0 0 0 4.101576,-4.101577 4.1015762,4.1015762 0 0 0 -4.101576,-4.101576 c -0.369142,0 -0.717776,0 -1.025394,0.143555 L 24.458387,11.27182 C 24.991592,9.3645871 24.007214,7.2727833 22.099981,6.4729763 21.218142,6.1448503 20.295287,6.0628183 19.474972,6.2884053 l -3.48634,-3.465832 1.620123,-1.599615 c 1.599615,-1.62012301 4.183608,-1.62012301 5.783222,0 L 39.777774,17.608755 c 1.620123,1.599615 1.620123,4.183608 0,5.783223 L 23.391977,39.777774 c -1.599614,1.620123 -4.183607,1.620123 -5.783222,0 L 1.2229579,23.391978 c -1.62012267,-1.599615 -1.62012267,-4.183608 0,-5.783223 z"
     id="path2"
     inkscape:connector-curvature="0"
     style="fill:none;stroke:#2eccaa;stroke-width:1;stroke-opacity:1" />
</svg>
