<svg xmlns="http://www.w3.org/2000/svg" xmlns:svg="http://www.w3.org/2000/svg" id="svg4" width="45" height="41" version="1.1" viewBox="-1 -1 46.996 43"><metadata id="metadata10"/><path id="path2" fill="none" stroke="#1fa385" stroke-opacity="1" stroke-width="1" d="m 24.170532,26.7935 -5.207,-5.1455 0.0615,-0.0615 c 3.567,-3.977 6.109,-8.5485 7.6055,-13.3865 h 6.0065 V 4.1 h -14.35 V 0 h -4.1 V 4.1 H -0.16296762 V 8.2 H 22.735532 c -1.3735,3.936 -3.5465,7.6875 -6.4985,10.9675 -1.9065,-2.1115 -3.485,-4.428 -4.7355,-6.8675 H 7.4015324 c 1.4965,3.3415 3.5464996,6.4985 6.1089996,9.348 l -10.4344996,10.291 2.911,2.911 10.2499996,-10.25 6.3755,6.3755 1.558,-4.182 M 35.712032,16.4 h -4.1 l -9.225,24.6 h 4.1 l 2.296,-6.15 h 9.7375 l 2.3165,6.15 h 4.1 l -9.225,-24.6 m -5.371,14.35 3.321,-8.8765 3.321,8.8765 z"/></svg>