<svg width="41" height="42" viewBox="-1 -1 42.981 43.974" xmlns="http://www.w3.org/2000/svg"><path d="M27.206 32.763a4.858 4.858 0 004.852-4.85 4.858 4.858 0 00-4.852-4.848 4.846 4.846 0 00-4.852 4.849 4.846 4.846 0 004.852 4.849m10.298-3.503l2.931 2.296a.695.695 0 01.158.89l-2.772 4.79c-.178.297-.515.416-.852.297l-3.446-1.385a10.625 10.625 0 01-2.336 1.365l-.535 3.662a.683.683 0 01-.673.593h-5.545a.703.703 0 01-.694-.593l-.514-3.662a10.183 10.183 0 01-2.337-1.365l-3.466 1.385a.676.676 0 01-.832-.297l-2.772-4.79a.695.695 0 01.158-.89l2.931-2.296-.099-1.346.1-1.366-2.932-2.276a.7.7 0 01-.158-.89l2.772-4.79c.159-.317.535-.436.832-.317l3.466 1.405c.713-.554 1.485-1.029 2.337-1.365l.514-3.682a.704.704 0 01.694-.574h5.545c.336 0 .633.258.673.574l.535 3.682a9.894 9.894 0 012.336 1.365l3.446-1.405a.68.68 0 01.852.317l2.772 4.79a.7.7 0 01-.158.89l-2.931 2.276.099 1.366-.099 1.346M8.967 12.219c1.723 0 3.11-1.386 3.11-3.108s-1.387-3.127-3.11-3.127a3.129 3.127 0 00-3.129 3.127c0 1.722 1.406 3.108 3.129 3.108m6.614-2.237l1.921 1.465a.472.472 0 01.06.574l-1.782 3.087a.423.423 0 01-.535.198l-2.218-.89-1.466.87-.376 2.356a.445.445 0 01-.436.376H7.185a.45.45 0 01-.456-.376l-.317-2.355-1.505-.871-2.257.89c-.179.08-.396 0-.515-.198L.353 12.021a.452.452 0 01.099-.574l1.88-1.465-.058-.87.059-.871L.452 6.776a.452.452 0 01-.1-.574l1.783-3.088c.119-.198.336-.277.515-.198l2.238.891 1.524-.87L6.73.58a.45.45 0 01.456-.376h3.564c.218 0 .397.158.436.376l.376 2.355 1.466.871 2.218-.89c.198-.08.436 0 .535.197l1.782 3.088a.472.472 0 01-.06.574l-1.92 1.465.059.87z" fill="none" stroke="#2eccaa"/></svg>