<svg xmlns="http://www.w3.org/2000/svg" xmlns:svg="http://www.w3.org/2000/svg" id="svg4" width="41" height="41" version="1.1" viewBox="-1 -1 43.001 43.001"><metadata id="metadata10"/><path id="path2" fill="none" stroke="#2eccaa" stroke-opacity="1" stroke-width="1" d="M 1.2229579,17.608755 13.076513,5.7346923 16.542345,9.221032 c -0.492189,1.74317 0.307618,3.650403 1.907233,4.573257 v 11.361366 c -1.230473,0.697268 -2.050788,2.030281 -2.050788,3.547864 a 4.1015762,4.1015762 0 0 0 4.101576,4.101576 4.1015762,4.1015762 0 0 0 4.101576,-4.101576 c 0,-1.517583 -0.820315,-2.850596 -2.050788,-3.547864 v -9.96683 l 4.245132,4.286147 c -0.143556,0.307619 -0.143556,0.656253 -0.143556,1.025394 a 4.1015762,4.1015762 0 0 0 4.101577,4.101577 4.1015762,4.1015762 0 0 0 4.101576,-4.101577 4.1015762,4.1015762 0 0 0 -4.101576,-4.101576 c -0.369142,0 -0.717776,0 -1.025394,0.143555 L 24.458387,11.27182 C 24.991592,9.3645871 24.007214,7.2727833 22.099981,6.4729763 21.218142,6.1448503 20.295287,6.0628183 19.474972,6.2884053 l -3.48634,-3.465832 1.620123,-1.599615 c 1.599615,-1.62012301 4.183608,-1.62012301 5.783222,0 L 39.777774,17.608755 c 1.620123,1.599615 1.620123,4.183608 0,5.783223 L 23.391977,39.777774 c -1.599614,1.620123 -4.183607,1.620123 -5.783222,0 L 1.2229579,23.391978 c -1.62012267,-1.599615 -1.62012267,-4.183608 0,-5.783223 z"/></svg>