<?xml version="1.0" encoding="UTF-8" standalone="no"?>
<svg
   xmlns:dc="http://purl.org/dc/elements/1.1/"
   xmlns:cc="http://creativecommons.org/ns#"
   xmlns:rdf="http://www.w3.org/1999/02/22-rdf-syntax-ns#"
   xmlns:svg="http://www.w3.org/2000/svg"
   xmlns="http://www.w3.org/2000/svg"
   xmlns:sodipodi="http://sodipodi.sourceforge.net/DTD/sodipodi-0.dtd"
   xmlns:inkscape="http://www.inkscape.org/namespaces/inkscape"
   version="1.1"
   width="41.428574"
   height="29"
   viewBox="-1 -1 43.428574 31"
   id="svg4"
   sodipodi:docname="icon-integrated.svg"
   inkscape:version="0.92.4 (5da689c313, 2019-01-14)">
  <metadata
     id="metadata10">
    <rdf:RDF>
      <cc:Work
         rdf:about="">
        <dc:format>image/svg+xml</dc:format>
        <dc:type
           rdf:resource="http://purl.org/dc/dcmitype/StillImage" />
        <dc:title></dc:title>
      </cc:Work>
    </rdf:RDF>
  </metadata>
  <defs
     id="defs8" />
  <sodipodi:namedview
     pagecolor="#ffffff"
     bordercolor="#666666"
     borderopacity="1"
     objecttolerance="10"
     gridtolerance="10"
     guidetolerance="10"
     inkscape:pageopacity="0"
     inkscape:pageshadow="2"
     inkscape:window-width="1920"
     inkscape:window-height="1027"
     id="namedview6"
     showgrid="false"
     fit-margin-top="0"
     fit-margin-left="0"
     fit-margin-right="0"
     fit-margin-bottom="0"
     inkscape:zoom="9.8333333"
     inkscape:cx="4.9661016"
     inkscape:cy="7"
     inkscape:window-x="-8"
     inkscape:window-y="-8"
     inkscape:window-maximized="1"
     inkscape:current-layer="svg4" />
  <path
     d="M 14.5,0 A 14.5,14.5 0 0 0 0,14.5 14.5,14.5 0 0 0 14.5,29 c 2.154286,0 4.267143,-0.497142 6.214286,-1.408571 C 22.661429,28.502858 24.774286,29 26.928572,29 a 14.5,14.5 0 0 0 14.5,-14.5 14.5,14.5 0 0 0 -14.5,-14.5 C 24.774286,0 22.661429,0.4971429 20.714286,1.4085714 18.767143,0.4971429 16.654286,0 14.5,0 m 0,4.1428572 c 0.704286,0 1.387857,0.062143 2.071429,0.2071429 C 13.92,7.0635715 12.428572,10.709286 12.428572,14.5 c 0,3.790714 1.491428,7.436429 4.142857,10.129286 -0.683572,0.145 -1.367143,0.227857 -2.071429,0.227857 A 10.357143,10.357143 0 0 1 4.1428572,14.5 10.357143,10.357143 0 0 1 14.5,4.1428572 m 12.428572,0 A 10.357143,10.357143 0 0 1 37.285715,14.5 10.357143,10.357143 0 0 1 26.928572,24.857143 C 26.224286,24.857143 25.540715,24.795 24.857143,24.65 27.508572,21.936429 29,18.290714 29,14.5 29,10.709286 27.508572,7.0635715 24.857143,4.3707143 c 0.683572,-0.145 1.367143,-0.2278571 2.071429,-0.2278571 z"
     id="path2"
     inkscape:connector-curvature="0"
     style="stroke-width:1;fill:none;stroke:#1fa385;stroke-opacity:1" />
</svg>
