<svg xmlns="http://www.w3.org/2000/svg" xmlns:svg="http://www.w3.org/2000/svg" id="svg4" width="41" height="41" version="1.1" viewBox="-1 -1 43 43"><metadata id="metadata10"/><path id="path2" fill="none" stroke="#1fa385" stroke-opacity="1" stroke-width="1" d="M 25.8095,6.15 20.5,11.4595 15.1905,6.15 12.3,9.0405 17.6095,14.35 12.3,19.6595 15.1905,22.55 20.5,17.2405 25.8095,22.55 28.7,19.6595 23.3905,14.35 28.7,9.0405 25.8095,6.15 M 30.75,0 a 4.1,4.1 0 0 1 4.1,4.1 v 20.5 a 4.1,4.1 0 0 1 -4.1,4.1 h -8.2 v 4.1 h 2.05 a 2.05,2.05 0 0 1 2.05,2.05 H 41 v 4.1 H 26.65 A 2.05,2.05 0 0 1 24.6,41 H 16.4 A 2.05,2.05 0 0 1 14.35,38.95 H 0 v -4.1 H 14.35 A 2.05,2.05 0 0 1 16.4,32.8 h 2.05 v -4.1 h -8.2 c -2.2755,0 -4.1,-1.845 -4.1,-4.1 V 4.1 A 4.1,4.1 0 0 1 10.25,0 Z"/></svg>