<?xml version="1.0" encoding="UTF-8" standalone="no"?>
<svg
   xmlns:dc="http://purl.org/dc/elements/1.1/"
   xmlns:cc="http://creativecommons.org/ns#"
   xmlns:rdf="http://www.w3.org/1999/02/22-rdf-syntax-ns#"
   xmlns:svg="http://www.w3.org/2000/svg"
   xmlns="http://www.w3.org/2000/svg"
   xmlns:sodipodi="http://sodipodi.sourceforge.net/DTD/sodipodi-0.dtd"
   xmlns:inkscape="http://www.inkscape.org/namespaces/inkscape"
   version="1.1"
   width="32.799999"
   height="41"
   viewBox="-1 -1 34.799999 43"
   id="svg4"
   sodipodi:docname="icon-support.svg"
   inkscape:version="0.92.4 (5da689c313, 2019-01-14)">
  <metadata
     id="metadata10">
    <rdf:RDF>
      <cc:Work
         rdf:about="">
        <dc:format>image/svg+xml</dc:format>
        <dc:type
           rdf:resource="http://purl.org/dc/dcmitype/StillImage" />
        <dc:title></dc:title>
      </cc:Work>
    </rdf:RDF>
  </metadata>
  <defs
     id="defs8" />
  <sodipodi:namedview
     pagecolor="#ffffff"
     bordercolor="#666666"
     borderopacity="1"
     objecttolerance="10"
     gridtolerance="10"
     guidetolerance="10"
     inkscape:pageopacity="0"
     inkscape:pageshadow="2"
     inkscape:window-width="1920"
     inkscape:window-height="1027"
     id="namedview6"
     showgrid="false"
     fit-margin-top="0"
     fit-margin-left="0"
     fit-margin-right="0"
     fit-margin-bottom="0"
     inkscape:zoom="9.8333333"
     inkscape:cx="2.9661017"
     inkscape:cy="10"
     inkscape:window-x="-8"
     inkscape:window-y="-8"
     inkscape:window-maximized="1"
     inkscape:current-layer="svg4" />
  <path
     d="m 18.45,24.6 c -6.888,0 -9.143,2.7675 -9.881,4.592 2.1935,0.943 3.731,3.116 3.731,5.658 A 6.15,6.15 0 0 1 6.15,41 6.15,6.15 0 0 1 0,34.85 C 0,32.1645 1.7015,29.889 4.1,29.0485 V 11.9515 C 1.7015,11.111 0,8.8355 0,6.15 A 6.15,6.15 0 0 1 6.15,0 6.15,6.15 0 0 1 12.3,6.15 c 0,2.6855 -1.7015,4.961 -4.1,5.8015 V 22.796 c 1.804,-1.3325 4.428,-2.296 8.2,-2.296 5.4735,0 7.298,-2.747 7.8925,-4.5715 C 22.0785,15.006 20.5,12.8125 20.5,10.25 a 6.15,6.15 0 0 1 6.15,-6.15 6.15,6.15 0 0 1 6.15,6.15 c 0,2.747 -1.804,5.125 -4.2845,5.863 C 27.9825,19.0445 25.994,24.6 18.45,24.6 M 6.15,32.8 A 2.05,2.05 0 0 0 4.1,34.85 2.05,2.05 0 0 0 6.15,36.9 2.05,2.05 0 0 0 8.2,34.85 2.05,2.05 0 0 0 6.15,32.8 m 0,-28.7 A 2.05,2.05 0 0 0 4.1,6.15 2.05,2.05 0 0 0 6.15,8.2 2.05,2.05 0 0 0 8.2,6.15 2.05,2.05 0 0 0 6.15,4.1 m 20.5,4.1 A 2.05,2.05 0 0 0 24.6,10.25 2.05,2.05 0 0 0 26.65,12.3 2.05,2.05 0 0 0 28.7,10.25 2.05,2.05 0 0 0 26.65,8.2 Z"
     id="path2"
     inkscape:connector-curvature="0"
     style="stroke-width:1;fill:none;stroke:#1fa385;stroke-opacity:1" />
</svg>
