<svg viewBox="-1 -1 46.998 45"><path fill="none" stroke="#1fa385" d="M40.928 34.81v2.047H4.07V34.81l4.096-4.096V18.43c0-6.348 4.156-11.938 10.238-13.74v-.594A4.095 4.095 0 0122.499 0a4.095 4.095 0 014.095 4.095v.594c6.082 1.802 10.238 7.392 10.238 13.74v12.285l4.096 4.096m-14.334 4.095A4.095 4.095 0 0122.5 43a4.095 4.095 0 01-4.095-4.095M38.368 2.437L35.46 5.344a18.39 18.39 0 015.468 13.085h4.095c0-6-2.375-11.774-6.655-15.992M-.025 18.429H4.07A18.39 18.39 0 019.538 5.344L6.63 2.437C2.35 6.655-.025 12.429-.025 18.429z"/></svg>