<svg viewBox="-1 -1 42.979 31"><path fill="none" stroke="#1fa385" d="M14.275 0a14.5 14.5 0 00-14.5 14.5 14.5 14.5 0 0014.5 14.5c2.155 0 4.268-.497 6.215-1.409 1.947.912 4.06 1.409 6.214 1.409a14.5 14.5 0 0014.5-14.5A14.5 14.5 0 0026.704 0c-2.154 0-4.267.497-6.214 1.409A14.647 14.647 0 0014.275 0m0 4.143c.705 0 1.388.062 2.072.207a14.535 14.535 0 00-4.143 10.15 14.45 14.45 0 004.143 10.13 9.916 9.916 0 01-2.072.227A10.357 10.357 0 013.918 14.5 10.357 10.357 0 0114.275 4.143m12.429 0A10.357 10.357 0 0137.06 14.5a10.357 10.357 0 01-10.357 10.357 9.898 9.898 0 01-2.071-.207 14.535 14.535 0 004.142-10.15 14.45 14.45 0 00-4.142-10.13 9.916 9.916 0 012.07-.227z"/></svg>