<svg width="41" height="41" version="1.1" viewBox="-1 -1 43 43" xmlns="http://www.w3.org/2000/svg"><path d="m36.47 27.49c1.9475-4.4485 1.9475-9.553 0-13.981l-5.617 2.542c1.23 2.829 1.23 6.0475 0.0205 8.897l5.5965 2.542m-8.9585-22.96c-4.4485-1.9475-9.553-1.9475-14.002 0l2.542 5.5965c2.8495-1.2095 6.068-1.2095 8.9175 0.0205l2.542-5.617m-22.98 8.9585c-1.9475 4.469-1.9475 9.553 0 14.022l5.617-2.5625c-1.23-2.829-1.23-6.068 0-8.9175l-5.617-2.542m8.979 22.98c4.4485 1.9475 9.553 1.9475 14.002-0.0205l-2.542-5.5965c-2.829 1.23-6.068 1.23-8.897 0.0205l-2.5625 5.5965m6.9905-36.47a20.5 20.5 0 0 1 20.5 20.5 20.5 20.5 0 0 1-20.5 20.5 20.5 20.5 0 0 1-20.5-20.5 20.5 20.5 0 0 1 20.5-20.5m0 12.3a8.2 8.2 0 0 0-8.2 8.2 8.2 8.2 0 0 0 8.2 8.2 8.2 8.2 0 0 0 8.2-8.2 8.2 8.2 0 0 0-8.2-8.2z" fill="none" stroke="#1fa385"/></svg>