<?xml version="1.0" encoding="UTF-8" standalone="no"?>
<svg
   xmlns:dc="http://purl.org/dc/elements/1.1/"
   xmlns:cc="http://creativecommons.org/ns#"
   xmlns:rdf="http://www.w3.org/1999/02/22-rdf-syntax-ns#"
   xmlns:svg="http://www.w3.org/2000/svg"
   xmlns="http://www.w3.org/2000/svg"
   xmlns:sodipodi="http://sodipodi.sourceforge.net/DTD/sodipodi-0.dtd"
   xmlns:inkscape="http://www.inkscape.org/namespaces/inkscape"
   version="1.1"
   width="20"
   height="14"
   viewBox="0 0 20 14"
   id="svg4"
   sodipodi:docname="icon-youtube.svg"
   inkscape:version="0.92.4 (5da689c313, 2019-01-14)">
  <metadata
     id="metadata10">
    <rdf:RDF>
      <cc:Work
         rdf:about="">
        <dc:format>image/svg+xml</dc:format>
        <dc:type
           rdf:resource="http://purl.org/dc/dcmitype/StillImage" />
        <dc:title></dc:title>
      </cc:Work>
    </rdf:RDF>
  </metadata>
  <defs
     id="defs8" />
  <sodipodi:namedview
     pagecolor="#ffffff"
     bordercolor="#666666"
     borderopacity="1"
     objecttolerance="10"
     gridtolerance="10"
     guidetolerance="10"
     inkscape:pageopacity="0"
     inkscape:pageshadow="2"
     inkscape:window-width="1920"
     inkscape:window-height="1027"
     id="namedview6"
     showgrid="false"
     fit-margin-top="0"
     fit-margin-left="0"
     fit-margin-right="0"
     fit-margin-bottom="0"
     inkscape:zoom="9.8333333"
     inkscape:cx="4.9661017"
     inkscape:cy="7"
     inkscape:window-x="-8"
     inkscape:window-y="-8"
     inkscape:window-maximized="1"
     inkscape:current-layer="svg4" />
  <path
     d="M 8,10 13.19,7 8,4 v 6 M 19.56,2.17 c 0.13,0.47 0.22,1.1 0.28,1.9 0.07,0.8 0.1,1.49 0.1,2.09 L 20,7 c 0,2.19 -0.16,3.8 -0.44,4.83 -0.25,0.9 -0.83,1.48 -1.73,1.73 -0.47,0.13 -1.33,0.22 -2.65,0.28 -1.3,0.07 -2.49,0.1 -3.59,0.1 L 10,14 C 5.81,14 3.2,13.84 2.17,13.56 1.27,13.31 0.69,12.73 0.44,11.83 0.31,11.36 0.22,10.73 0.16,9.93 0.09,9.13 0.06,8.44 0.06,7.84 L 0,7 C 0,4.81 0.16,3.2 0.44,2.17 0.69,1.27 1.27,0.69 2.17,0.44 2.64,0.31 3.5,0.22 4.82,0.16 6.12,0.09 7.31,0.06 8.41,0.06 L 10,0 c 4.19,0 6.8,0.16 7.83,0.44 0.9,0.25 1.48,0.83 1.73,1.73 z"
     id="path2"
     inkscape:connector-curvature="0"
     fill="#ffffff" />
</svg>
