<svg width="48" height="54" version="1.1" viewBox="-1 -1 50 56" xmlns="http://www.w3.org/2000/svg"><path d="m30 27h-12v-6h12m0 18h-12v-6h12m18-18h-8.43c-1.35-2.34-3.21-4.35-5.46-5.88l4.89-4.89-4.23-4.23-6.51 6.51c-1.38-0.33-2.76-0.51-4.26-0.51s-2.88 0.18-4.23 0.51l-6.54-6.51-4.23 4.23 4.86 4.89c-2.22 1.53-4.08 3.54-5.43 5.88h-8.43v6h6.27c-0.15 0.99-0.27 1.98-0.27 3v3h-6v6h6v3c0 1.02 0.12 2.01 0.27 3h-6.27v6h8.43c3.12 5.37 8.91 9 15.57 9s12.45-3.63 15.57-9h8.43v-6h-6.27c0.15-0.99 0.27-1.98 0.27-3v-3h6v-6h-6v-3c0-1.02-0.12-2.01-0.27-3h6.27z" fill="#2eccaa"/></svg>