<svg width="41" height="42" version="1.1" viewBox="-1 -1 42.981 43.974" xmlns="http://www.w3.org/2000/svg"><path d="m27.206 32.763c2.6735 0 4.8519-2.1771 4.8519-4.8491 0-2.6719-2.1784-4.8491-4.8519-4.8491-2.6933 0-4.8519 2.1771-4.8519 4.8491 0 2.6719 2.1586 4.8491 4.8519 4.8491m10.298-3.5032 2.931 2.2959c0.25745 0.21771 0.33666 0.57397 0.15843 0.89065l-2.7725 4.7897c-0.17823 0.29688-0.5149 0.41564-0.85156 0.29688l-3.4459-1.3854c-0.71294 0.55418-1.5051 1.0094-2.3368 1.3657l-0.5347 3.6615c-0.03961 0.33647-0.33666 0.59376-0.67333 0.59376h-5.5451c-0.35647 0-0.63372-0.2573-0.69313-0.59376l-0.5149-3.6615c-0.85156-0.35626-1.6239-0.81148-2.3368-1.3657l-3.4657 1.3854c-0.29706 0.11875-0.67333 0-0.83176-0.29688l-2.7725-4.7897c-0.17823-0.31668-0.09902-0.67293 0.15843-0.89065l2.931-2.2959-0.09902-1.3459 0.09902-1.3657-2.931-2.2761c-0.25745-0.21771-0.33666-0.59376-0.15843-0.89065l2.7725-4.7897c0.15843-0.31668 0.5347-0.43543 0.83176-0.31668l3.4657 1.4052c0.71294-0.55418 1.4853-1.0292 2.3368-1.3657l0.5149-3.6813c0.05941-0.31667 0.33666-0.57397 0.69313-0.57397h5.5451c0.33666 0 0.63372 0.2573 0.67333 0.57397l0.5347 3.6813c0.83176 0.33647 1.6239 0.81148 2.3368 1.3657l3.4459-1.4052c0.33666-0.11875 0.67333 0 0.85156 0.31668l2.7725 4.7897c0.17823 0.29688 0.09902 0.67293-0.15843 0.89065l-2.931 2.2761 0.09902 1.3657-0.09902 1.3459m-28.537-17.041c1.7229 0 3.1092-1.3855 3.1092-3.1074s-1.3863-3.1272-3.1092-3.1272a3.129 3.1272 0 0 0-3.129 3.1272c0 1.7219 1.4061 3.1074 3.129 3.1074m6.6145-2.2365 1.921 1.4646c0.13863 0.13854 0.17823 0.37605 0.05941 0.57397l-1.7823 3.0876c-0.09902 0.19792-0.33666 0.27709-0.5347 0.19792l-2.218-0.89065-1.4655 0.87085-0.37627 2.3553c-0.03961 0.21771-0.21784 0.37605-0.43568 0.37605h-3.5647c-0.23765 0-0.41588-0.15834-0.45549-0.37605l-0.31686-2.3553-1.5051-0.87085-2.2576 0.89065c-0.17823 0.07917-0.39608 0-0.5149-0.19792l-1.7823-3.0876c-0.11882-0.19792-0.059411-0.43543 0.099019-0.57397l1.8814-1.4646-0.059411-0.87085 0.059411-0.87086-1.8814-1.4646c-0.15843-0.13854-0.21784-0.37605-0.099019-0.57397l1.7823-3.0876c0.11882-0.19792 0.33666-0.27709 0.5149-0.19792l2.2378 0.89065 1.5249-0.87086 0.31686-2.3553c0.039608-0.21771 0.21784-0.37605 0.45549-0.37605h3.5647c0.21784 0 0.39608 0.15834 0.43568 0.37605l0.37627 2.3553 1.4655 0.87086 2.218-0.89065c0.19804-0.07917 0.43568 0 0.5347 0.19792l1.7823 3.0876c0.11882 0.19792 0.07922 0.43543-0.05941 0.57397l-1.921 1.4646 0.05941 0.87086z" fill="none" stroke="#2eccaa"/></svg>