<?xml version="1.0" encoding="UTF-8" standalone="no"?>
<svg
   xmlns:dc="http://purl.org/dc/elements/1.1/"
   xmlns:cc="http://creativecommons.org/ns#"
   xmlns:rdf="http://www.w3.org/1999/02/22-rdf-syntax-ns#"
   xmlns:svg="http://www.w3.org/2000/svg"
   xmlns="http://www.w3.org/2000/svg"
   xmlns:sodipodi="http://sodipodi.sourceforge.net/DTD/sodipodi-0.dtd"
   xmlns:inkscape="http://www.inkscape.org/namespaces/inkscape"
   version="1.1"
   width="44"
   height="35"
   viewBox="-1 -1 45.973366 36.993744"
   id="svg4"
   sodipodi:docname="icon-glossary.svg"
   inkscape:version="0.92.4 (5da689c313, 2019-01-14)">
  <metadata
     id="metadata10">
    <rdf:RDF>
      <cc:Work
         rdf:about="">
        <dc:format>image/svg+xml</dc:format>
        <dc:type
           rdf:resource="http://purl.org/dc/dcmitype/StillImage" />
        <dc:title></dc:title>
      </cc:Work>
    </rdf:RDF>
  </metadata>
  <defs
     id="defs8" />
  <sodipodi:namedview
     pagecolor="#ffffff"
     bordercolor="#666666"
     borderopacity="1"
     objecttolerance="10"
     gridtolerance="10"
     guidetolerance="10"
     inkscape:pageopacity="0"
     inkscape:pageshadow="2"
     inkscape:window-width="1920"
     inkscape:window-height="1173"
     id="namedview6"
     showgrid="false"
     fit-margin-top="0"
     fit-margin-left="0"
     fit-margin-right="0"
     fit-margin-bottom="0"
     inkscape:zoom="9.8333333"
     inkscape:cx="-18.288911"
     inkscape:cy="9.7025703"
     inkscape:window-x="0"
     inkscape:window-y="27"
     inkscape:window-maximized="1"
     inkscape:current-layer="svg4" />
  <path
     d="M 39.820532,1.4419698 C 37.621024,0.74195984 35.203547,0.44195584 32.885146,0.44195584 c -3.864,0 -8.025232,0.80001096 -10.898463,3.00004296 -2.873231,-2.200032 -7.034463,-3.00004296 -10.898464,-3.00004296 -3.8640003,0 -8.0252317,0.80001096 -10.898463,3.00004296 V 32.742415 c 0,0.500007 0.4953847,1.000014 0.9907694,1.000014 0.1981539,0 0.2972308,-0.100002 0.4953847,-0.100002 2.6750774,-1.300018 6.539078,-2.200031 9.4123089,-2.200031 3.864001,0 8.025233,0.800012 10.898464,3.000043 2.675077,-1.700024 7.529847,-3.000043 10.898463,-3.000043 3.269539,0 6.638155,0.600009 9.41231,2.10003 0.198153,0.100001 0.29723,0.100001 0.495384,0.100001 0.495385,0 0.99077,-0.500007 0.99077,-1.000014 V 3.4419988 c -1.188924,-0.900013 -2.476924,-1.500022 -3.963078,-2.000029 m 0,27.0003842 c -2.179693,-0.70001 -4.557539,-1.000015 -6.935386,-1.000015 -3.368616,0 -8.223386,1.300019 -10.898463,3.000043 V 7.4420548 c 2.675077,-1.700024 7.529847,-3.000042 10.898463,-3.000042 2.377847,0 4.755693,0.300004 6.935386,1.000014 z"
     id="path2"
     inkscape:connector-curvature="0"
     style="fill:none;stroke:#1fa385;stroke-width:1;stroke-opacity:1" />
</svg>
