<svg xmlns="http://www.w3.org/2000/svg" xmlns:svg="http://www.w3.org/2000/svg" id="svg4" width="43" height="17" version="1.1" viewBox="-1 -1 44.976 18.021"><metadata id="metadata10"/><path id="path2" fill="none" stroke="#1fa385" stroke-opacity="1" stroke-width="1" d="m 4.8412046,3.3854761 c -0.4440029,0 -0.8325055,0.1665011 -1.0915072,0.4625031 C 3.4906957,4.125481 3.379695,4.5324837 3.4351954,4.9764866 l 0.9250061,5.5315364 c 0.1480009,1.202508 1.221008,2.127514 2.3310153,2.127514 h 5.5500362 c 1.184008,0 2.516017,-1.036006 2.775018,-2.183014 l 1.961013,-5.9015392 c 0.074,-0.2405016 0.0185,-0.5920039 -0.111,-0.8140054 C 16.662782,3.514977 16.34828,3.3854761 15.941278,3.3854761 H 4.8412046 M 12.241253,16.335562 H 6.6912168 c -2.9970197,0 -5.624037,-2.331016 -5.99403945,-5.291035 L -0.22782875,5.5129901 C -0.4313301,3.9404798 0.01267283,2.46047 0.97467922,1.3874629 1.9366855,0.31445585 3.3426947,-0.31454825 4.8412046,-0.31454825 H 15.941278 c 1.53551,0 2.923019,0.64750431 3.811025,1.77601165 0.203501,0.2775018 0.388503,0.5735038 0.536504,0.906506 0.795505,-0.1665011 1.60951,-0.1665011 2.386515,0 0.148001,-0.3330022 0.333003,-0.6290042 0.555004,-0.906506 0.869506,-1.12850734 2.257015,-1.77601165 3.811025,-1.77601165 h 11.100073 c 1.49851,0 2.904519,0.6290041 3.866526,1.70201115 0.943506,1.0730071 1.387509,2.5530169 1.202508,4.0515267 l -0.943506,5.6795374 c -0.351503,2.886019 -2.99702,5.217035 -5.97554,5.217035 h -5.550037 c -2.886019,0 -5.698037,-2.201515 -6.401042,-4.995033 L 22.675322,6.3269955 c -0.703004,-0.5180034 -1.683511,-0.5180034 -2.386515,0 L 18.586795,11.47003 c -0.666004,2.682517 -3.459523,4.865532 -6.345542,4.865532 M 27.041351,3.3854761 c -0.407003,0 -0.721505,0.1295009 -0.925006,0.3515023 -0.148001,0.2220015 -0.185001,0.5735038 -0.0925,0.9435062 l 1.868513,5.6425374 c 0.333002,1.276509 1.665011,2.312515 2.849018,2.312515 h 5.550037 c 1.091507,0 2.183014,-0.925006 2.312515,-2.053513 L 39.547435,4.9024861 C 39.602935,4.5324837 39.491935,4.125481 39.232932,3.8479792 38.973931,3.5519772 38.585428,3.3854761 38.141425,3.3854761 Z"/></svg>