<?xml version="1.0" encoding="UTF-8"?>
<svg width="22px" height="22px" viewBox="0 0 22 22" version="1.1" xmlns="http://www.w3.org/2000/svg" xmlns:xlink="http://www.w3.org/1999/xlink">
    <!-- Generator: sketchtool 54.1 (76490) - https://sketchapp.com -->
    <title>7AFE0AC2-6252-40B2-95A6-45549388053D</title>
    <desc>Created with sketchtool.</desc>
    <g id="Weblate" stroke="none" stroke-width="1" fill="none" fill-rule="evenodd">
        <g id="Donate" transform="translate(-346.000000, -2776.000000)" fill="#2ECCAA" fill-rule="nonzero">
            <g id="monero" transform="translate(346.000000, 2776.000000)">
                <path d="M11,0 C4.93446857,0 0,4.93446857 0,11 C0,17.0655314 4.93446857,22 11,22 C17.0650838,22 22,17.0655314 22,11 C22,4.93446857 17.0650838,0 11,0 Z M11,20.1666667 C7.61621094,20.1666667 4.66166181,18.3185629 3.07360843,15.5833333 L8.25,15.5833333 L8.25,10.0027669 L10.9641927,14.7953491 L13.75,9.96360269 L13.75,15.5833333 L18.9263916,15.5833333 C17.3383382,18.3185629 14.3842366,20.1666667 11,20.1666667 Z M19.7441406,13.75 L15.5833333,13.75 L15.5833333,6.41666667 L13.6790568,6.41666667 L10.9785156,11.1004842 L8.32609049,6.41666667 L6.41666667,6.41666667 L6.41666667,13.75 L2.25585938,13.75 C1.98238116,12.8814494 1.83333333,11.9578451 1.83333333,11 C1.83333333,5.945577 5.945577,1.83333333 11,1.83333333 C16.054423,1.83333333 20.1666667,5.945577 20.1666667,11 C20.1666667,11.9578451 20.0176188,12.8814494 19.7441406,13.75 Z" id="Shape"></path>
            </g>
        </g>
    </g>
</svg>