<?xml version="1.0" encoding="UTF-8"?>
<svg width="16px" height="20px" viewBox="0 0 16 20" version="1.1" xmlns="http://www.w3.org/2000/svg" xmlns:xlink="http://www.w3.org/1999/xlink">
    <!-- Generator: sketchtool 54.1 (76490) - https://sketchapp.com -->
    <title>06D12D9C-822D-454C-B052-05541135555D</title>
    <desc>Created with sketchtool.</desc>
    <g id="Weblate" stroke="none" stroke-width="1" fill="none" fill-rule="evenodd">
        <g id="Donate" transform="translate(-347.000000, -2527.000000)" fill="#2ECCAA" fill-rule="nonzero">
            <g id="bitcoin" transform="translate(347.000000, 2527.000000)">
                <path d="M0.5,3 L4,3 L4,0 L6,0 L6,3 L7.5,3 L7.5,0 L9.5,0 L9.5,3 C15,3 15,9 12,9.25 C16,9 17,17 9.5,17 L9.5,20 L7.5,20 L7.5,17 L6,17 L6,20 L4,20 L4,17 L0.5,17 L1,15 L2,15 C2.55228475,15 3,14.5522847 3,14 L3,6 C3,5.44771525 2.55228475,5 2,5 L0.5,5 L0.5,3 L0.5,3 Z M6,5 L6,9 C6,9 10.5,9.25 10.5,7 C10.5,4.75 6,5 6,5 L6,5 Z M6,10.5 L6,15 C6,15 11.5,15 11.5,12.75 C11.5,10.5 6,10.5 6,10.5 Z" id="Shape"></path>
            </g>
        </g>
    </g>
</svg>