<svg width="41" height="29" version="1.1" viewBox="-1 -1 42.979 31" xmlns="http://www.w3.org/2000/svg"><path d="m14.275 0a14.5 14.5 0 0 0-14.5 14.5 14.5 14.5 0 0 0 14.5 14.5c2.1543 0 4.2671-0.49714 6.2143-1.4086 1.9471 0.91143 4.06 1.4086 6.2143 1.4086a14.5 14.5 0 0 0 14.5-14.5 14.5 14.5 0 0 0-14.5-14.5c-2.1543 0-4.2671 0.49714-6.2143 1.4086-1.9471-0.91143-4.06-1.4086-6.2143-1.4086m0 4.1429c0.70429 0 1.3879 0.062143 2.0714 0.20714-2.6514 2.7136-4.1429 6.3593-4.1429 10.15s1.4914 7.4364 4.1429 10.129c-0.68357 0.145-1.3671 0.22786-2.0714 0.22786a10.357 10.357 0 0 1-10.357-10.357 10.357 10.357 0 0 1 10.357-10.357m12.429 0a10.357 10.357 0 0 1 10.357 10.357 10.357 10.357 0 0 1-10.357 10.357c-0.70429 0-1.3879-0.06214-2.0714-0.20714 2.6514-2.7136 4.1429-6.3593 4.1429-10.15s-1.4914-7.4364-4.1429-10.129c0.68357-0.145 1.3671-0.22786 2.0714-0.22786z" fill="none" stroke="#1fa385"/></svg>