<svg xmlns="http://www.w3.org/2000/svg" width="23" height="23" version="1.1" viewBox="0 0 23 23"><g fill="none" fill-rule="evenodd"><g fill="#2eccaa" fill-rule="nonzero"><g><path d="m11 0c-6.0655 0-11 4.9345-11 11s4.9345 11 11 11c6.0651 0 11-4.9345 11-11s-4.9349-11-11-11zm0 20.167c-3.3838 0-6.3383-1.8481-7.9264-4.5833h5.1764v-5.5806l2.7142 4.7926 2.7858-4.8317v5.6197h5.1764c-1.5881 2.7352-4.5422 4.5833-7.9264 4.5833zm8.7441-6.4167h-4.1608v-7.3333h-1.9043l-2.7005 4.6838-2.6524-4.6838h-1.9094v7.3333h-4.1608c-0.27348-0.86855-0.42253-1.7922-0.42253-2.75 0-5.0544 4.1122-9.1667 9.1667-9.1667s9.1667 4.1122 9.1667 9.1667c0 0.95784-0.14905 1.8814-0.42253 2.75z" transform="translate(.5 .5) translate(-346,-2776) translate(346,2776)"/></g></g></g></svg>