<svg viewBox="-1 -1 22 21.498"><path fill="#fff" d="M10-1.025A11.042 11.042 0 00-1.042 10.017c0 4.88 3.169 9.021 7.553 10.49.552.088.728-.254.728-.552v-1.866c-3.058.662-3.71-1.48-3.71-1.48-.508-1.281-1.225-1.623-1.225-1.623-1.005-.685.077-.663.077-.663 1.104.077 1.69 1.138 1.69 1.138.96 1.678 2.583 1.181 3.213.916.099-.718.386-1.204.695-1.48-2.451-.276-5.024-1.225-5.024-5.432 0-1.226.42-2.209 1.137-2.993-.11-.276-.496-1.424.11-2.915 0 0 .928-.298 3.037 1.126A10.404 10.404 0 0110 4.32c.939 0 1.888.121 2.76.364 2.11-1.424 3.037-1.126 3.037-1.126.607 1.49.221 2.64.11 2.915.718.784 1.138 1.767 1.138 2.993 0 4.218-2.584 5.145-5.046 5.421.397.343.762 1.016.762 2.043v3.026c0 .298.176.651.74.552 4.383-1.48 7.541-5.61 7.541-10.49A11.042 11.042 0 0010-1.025z"/></svg>