<svg xmlns="http://www.w3.org/2000/svg" xmlns:svg="http://www.w3.org/2000/svg" id="svg4" width="41" height="41" version="1.1" viewBox="-1 -1 43 43"><metadata id="metadata10"/><path id="path2" fill="none" stroke="#1fa385" stroke-opacity="1" stroke-width="1" d="M 7.175,10.25 A 3.075,3.075 0 0 0 10.25,7.175 3.075,3.075 0 0 0 7.175,4.1 3.075,3.075 0 0 0 4.1,7.175 3.075,3.075 0 0 0 7.175,10.25 m 32.6155,9.389 C 40.5285,20.377 41,21.402 41,22.55 c 0,1.1275 -0.451,2.1525 -1.2095,2.8905 l -14.35,14.35 C 24.7025,40.5285 23.6775,41 22.55,41 21.4225,41 20.3975,40.5285 19.639,39.7905 L 1.2095,21.3405 C 0.451,20.6025 0,19.5775 0,18.45 V 4.1 C 0,1.8245 1.8245,0 4.1,0 h 14.35 c 1.1275,0 2.1525,0.451 2.8905,1.189 l 18.45,18.45 M 22.55,36.9 36.9,22.55 19.475,5.125 5.125,19.475 22.55,36.9 M 16.5845,14.1655 19.475,11.275 30.75,22.55 27.8595,25.4405 16.5845,14.1655 m -5.125,5.125 2.8905,-2.8905 8.2,8.2 -2.8905,2.8905 z"/></svg>