<?xml version="1.0" encoding="UTF-8" standalone="no"?>
<svg
   xmlns:dc="http://purl.org/dc/elements/1.1/"
   xmlns:cc="http://creativecommons.org/ns#"
   xmlns:rdf="http://www.w3.org/1999/02/22-rdf-syntax-ns#"
   xmlns:svg="http://www.w3.org/2000/svg"
   xmlns="http://www.w3.org/2000/svg"
   xmlns:sodipodi="http://sodipodi.sourceforge.net/DTD/sodipodi-0.dtd"
   xmlns:inkscape="http://www.inkscape.org/namespaces/inkscape"
   version="1.1"
   width="45"
   height="41"
   viewBox="-1 -1 46.995565 43"
   id="svg4"
   sodipodi:docname="icon-languages.svg"
   inkscape:version="0.92.4 (5da689c313, 2019-01-14)">
  <metadata
     id="metadata10">
    <rdf:RDF>
      <cc:Work
         rdf:about="">
        <dc:format>image/svg+xml</dc:format>
        <dc:type
           rdf:resource="http://purl.org/dc/dcmitype/StillImage" />
        <dc:title></dc:title>
      </cc:Work>
    </rdf:RDF>
  </metadata>
  <defs
     id="defs8" />
  <sodipodi:namedview
     pagecolor="#ffffff"
     bordercolor="#666666"
     borderopacity="1"
     objecttolerance="10"
     gridtolerance="10"
     guidetolerance="10"
     inkscape:pageopacity="0"
     inkscape:pageshadow="2"
     inkscape:window-width="1920"
     inkscape:window-height="1173"
     id="namedview6"
     showgrid="false"
     fit-margin-top="0"
     fit-margin-left="0"
     fit-margin-right="0"
     fit-margin-bottom="0"
     inkscape:zoom="9.8333333"
     inkscape:cx="-18.440678"
     inkscape:cy="9.5932203"
     inkscape:window-x="0"
     inkscape:window-y="27"
     inkscape:window-maximized="1"
     inkscape:current-layer="svg4" />
  <path
     d="m 24.170532,26.7935 -5.207,-5.1455 0.0615,-0.0615 c 3.567,-3.977 6.109,-8.5485 7.6055,-13.3865 h 6.0065 V 4.1 h -14.35 V 0 h -4.1 V 4.1 H -0.16296762 V 8.2 H 22.735532 c -1.3735,3.936 -3.5465,7.6875 -6.4985,10.9675 -1.9065,-2.1115 -3.485,-4.428 -4.7355,-6.8675 H 7.4015324 c 1.4965,3.3415 3.5464996,6.4985 6.1089996,9.348 l -10.4344996,10.291 2.911,2.911 10.2499996,-10.25 6.3755,6.3755 1.558,-4.182 M 35.712032,16.4 h -4.1 l -9.225,24.6 h 4.1 l 2.296,-6.15 h 9.7375 l 2.3165,6.15 h 4.1 l -9.225,-24.6 m -5.371,14.35 3.321,-8.8765 3.321,8.8765 z"
     id="path2"
     inkscape:connector-curvature="0"
     style="fill:none;stroke:#1fa385;stroke-width:1;stroke-opacity:1" />
</svg>
