<svg width="41" height="41" version="1.1" viewBox="-1 -1 43.001 43.001" xmlns="http://www.w3.org/2000/svg"><path d="m1.223 17.609 11.854-11.874 3.4658 3.4863c-0.49219 1.7432 0.30762 3.6504 1.9072 4.5733v11.361c-1.2305 0.69727-2.0508 2.0303-2.0508 3.5479a4.1016 4.1016 0 0 0 4.1016 4.1016 4.1016 4.1016 0 0 0 4.1016-4.1016c0-1.5176-0.82032-2.8506-2.0508-3.5479v-9.9668l4.2451 4.2861c-0.14356 0.30762-0.14356 0.65625-0.14356 1.0254a4.1016 4.1016 0 0 0 4.1016 4.1016 4.1016 4.1016 0 0 0 4.1016-4.1016 4.1016 4.1016 0 0 0-4.1016-4.1016c-0.36914 0-0.71778 0-1.0254 0.14356l-5.2705-5.2705c0.5332-1.9072-0.45117-3.999-2.3584-4.7988-0.88184-0.32813-1.8047-0.41016-2.625-0.18457l-3.4863-3.4658 1.6201-1.5996c1.5996-1.6201 4.1836-1.6201 5.7832 0l16.386 16.386c1.6201 1.5996 1.6201 4.1836 0 5.7832l-16.386 16.386c-1.5996 1.6201-4.1836 1.6201-5.7832 0l-16.386-16.386c-1.6201-1.5996-1.6201-4.1836 0-5.7832z" fill="none" stroke="#2eccaa"/></svg>