<svg width="41" height="41" version="1.1" viewBox="-1 -1 43 43" xmlns="http://www.w3.org/2000/svg"><path d="m25.81 6.15-5.3095 5.3095-5.3095-5.3095-2.8905 2.8905 5.3095 5.3095-5.3095 5.3095 2.8905 2.8905 5.3095-5.3095 5.3095 5.3095 2.8905-2.8905-5.3095-5.3095 5.3095-5.3095-2.8905-2.8905m4.9405-6.15a4.1 4.1 0 0 1 4.1 4.1v20.5a4.1 4.1 0 0 1-4.1 4.1h-8.2v4.1h2.05a2.05 2.05 0 0 1 2.05 2.05h14.35v4.1h-14.35a2.05 2.05 0 0 1-2.05 2.05h-8.2a2.05 2.05 0 0 1-2.05-2.05h-14.35v-4.1h14.35a2.05 2.05 0 0 1 2.05-2.05h2.05v-4.1h-8.2c-2.2755 0-4.1-1.845-4.1-4.1v-20.5a4.1 4.1 0 0 1 4.1-4.1z" fill="none" stroke="#1fa385"/></svg>