<svg viewBox="-1 -1 42.981 43.974"><path fill="none" stroke="#2eccaa" d="M27.206 32.763a4.858 4.858 0 004.852-4.849 4.858 4.858 0 00-4.852-4.85 4.846 4.846 0 00-4.852 4.85 4.846 4.846 0 004.852 4.85m10.298-3.504l2.931 2.296a.695.695 0 01.159.89l-2.773 4.79a.693.693 0 01-.851.297l-3.446-1.385a10.622 10.622 0 01-2.337 1.365l-.535 3.662a.683.683 0 01-.673.594h-5.545a.703.703 0 01-.693-.594l-.515-3.662a10.185 10.185 0 01-2.337-1.365l-3.466 1.385a.676.676 0 01-.832-.297l-2.772-4.79a.695.695 0 01.158-.89l2.931-2.296-.099-1.346.1-1.366-2.932-2.276a.7.7 0 01-.158-.89l2.772-4.79a.664.664 0 01.832-.317l3.466 1.405c.713-.554 1.485-1.029 2.337-1.365l.515-3.682a.704.704 0 01.693-.573h5.545c.336 0 .634.257.673.573l.535 3.682a9.896 9.896 0 012.337 1.365l3.446-1.405a.68.68 0 01.851.317l2.773 4.79a.699.699 0 01-.159.89l-2.93 2.276.098 1.366-.099 1.346M8.967 12.219a3.1 3.1 0 003.11-3.108 3.118 3.118 0 00-3.11-3.127 3.129 3.127 0 00-3.129 3.127c0 1.722 1.406 3.108 3.129 3.108m6.614-2.237l1.921 1.465a.472.472 0 01.06.574l-1.783 3.087a.422.422 0 01-.534.198l-2.218-.89-1.466.87-.376 2.356a.445.445 0 01-.436.376H7.185a.45.45 0 01-.456-.376l-.317-2.355-1.505-.871-2.257.89c-.179.08-.396 0-.515-.198L.352 12.021a.452.452 0 01.1-.574l1.88-1.465-.059-.87.06-.871L.45 6.776a.452.452 0 01-.099-.574l1.783-3.088c.119-.197.336-.277.515-.197l2.237.89 1.525-.87L6.73.58a.45.45 0 01.456-.376h3.564c.218 0 .396.158.436.376l.376 2.355 1.466.871 2.218-.89c.198-.08.435 0 .534.197l1.783 3.088a.472.472 0 01-.06.574l-1.92 1.465.059.87z"/></svg>