<svg xmlns="http://www.w3.org/2000/svg" xmlns:svg="http://www.w3.org/2000/svg" id="svg4" width="20" height="19.5" version="1.1" viewBox="-1 -1 22 21.498"><metadata id="metadata10"/><path id="path2" fill="#fff" d="M 10,-1.0254946 A 11.042202,11.042202 0 0 0 -1.0422032,10.01671 c 0,4.880653 3.1691123,9.021479 7.5528671,10.490094 0.5521102,0.08835 0.7287854,-0.253972 0.7287854,-0.552111 0,-0.25397 0,-0.94963 0,-1.866133 C 4.180759,18.751093 3.5292691,16.608905 3.5292691,16.608905 3.0213276,15.328008 2.3035843,14.985702 2.3035843,14.985702 c -1.0048404,-0.684618 0.077294,-0.662534 0.077294,-0.662534 1.1042206,0.0773 1.6894572,1.137347 1.6894572,1.137347 0.9606716,1.678415 2.5838757,1.181517 3.2132812,0.916503 0.099381,-0.717742 0.3864774,-1.203599 0.695659,-1.479655 -2.4513688,-0.276054 -5.0242019,-1.225684 -5.0242019,-5.4327647 0,-1.2256846 0.4196037,-2.2084406 1.1373468,-2.992437 C 3.9819993,6.1961063 3.595522,5.047717 4.2028435,3.5570197 c 0,0 0.9275448,-0.2981396 3.0366057,1.1263046 0.8723341,-0.2429284 1.8219635,-0.3643928 2.7605501,-0.3643928 0.9385877,0 1.8882167,0.1214644 2.7605507,0.3643928 2.10906,-1.4244442 3.036606,-1.1263046 3.036606,-1.1263046 0.607322,1.4906973 0.220844,2.6390866 0.110423,2.9151416 0.717742,0.7839964 1.137346,1.7667524 1.137346,2.992437 0,4.2181217 -2.583876,5.1456667 -5.046288,5.4217217 0.397521,0.34231 0.761913,1.015883 0.761913,2.04281 0,1.479655 0,2.672211 0,3.025563 0,0.298139 0.176676,0.651489 0.739828,0.552111 4.383754,-1.479658 7.541825,-5.609441 7.541825,-10.490094 A 11.042202,11.042202 0 0 0 10,-1.0254946 Z"/></svg>