<svg width="45" height="41" version="1.1" viewBox="-1 -1 46.996 43" xmlns="http://www.w3.org/2000/svg"><path d="m24.171 26.794-5.207-5.1455 0.0615-0.0615c3.567-3.977 6.109-8.5485 7.6055-13.386h6.0065v-4.1h-14.35v-4.1h-4.1v4.1h-14.35v4.1h22.898c-1.3735 3.936-3.5465 7.6875-6.4985 10.968-1.9065-2.1115-3.485-4.428-4.7355-6.8675h-4.1c1.4965 3.3415 3.5465 6.4985 6.109 9.348l-10.434 10.291 2.911 2.911 10.25-10.25 6.3755 6.3755 1.558-4.182m11.542-10.394h-4.1l-9.225 24.6h4.1l2.296-6.15h9.7375l2.3165 6.15h4.1l-9.225-24.6m-5.371 14.35 3.321-8.8765 3.321 8.8765z" fill="none" stroke="#1fa385"/></svg>