<svg width="40px" height="45px" version="1.1" viewBox="0 0 40 45" xmlns="http://www.w3.org/2000/svg"><g fill="none" fill-rule="evenodd"><g transform="translate(-1382 -4293)" fill-rule="nonzero" stroke="#1FA385"><g transform="translate(1382 4294)"><path d="m32.62 33.8c0.88-1.38 1.38-3.04 1.38-4.8 0-5-4-9-9-9s-9 4-9 9 4 9 9 9c1.74 0 3.38-0.5 4.76-1.36l6.24 6.14 2.78-2.78-6.16-6.2zm-7.62 0.2c-2.76 0-5-2.24-5-5s2.24-5 5-5 5 2.24 5 5-2.24 5-5 5zm-11.82 0.4-13.18-10.26 3.24-2.52 8.76 6.82v0.56c0 1.92 0.44 3.76 1.18 5.4zm-9.92-17.86-3.26-2.54 18-14 18 14-3.28 2.54-1.42 1.1c-1.86-1.04-4.02-1.64-6.3-1.64-5.42 0-10.08 3.36-12 8.1l-9.74-7.56z"/></g></g></g></svg>