<?xml version="1.0" encoding="UTF-8" standalone="no"?>
<svg
   xmlns:dc="http://purl.org/dc/elements/1.1/"
   xmlns:cc="http://creativecommons.org/ns#"
   xmlns:rdf="http://www.w3.org/1999/02/22-rdf-syntax-ns#"
   xmlns:svg="http://www.w3.org/2000/svg"
   xmlns="http://www.w3.org/2000/svg"
   xmlns:sodipodi="http://sodipodi.sourceforge.net/DTD/sodipodi-0.dtd"
   xmlns:inkscape="http://www.inkscape.org/namespaces/inkscape"
   version="1.1"
   width="20"
   height="19.51549"
   viewBox="-1 -1 22 21.51549"
   id="svg4"
   sodipodi:docname="icon-github.svg"
   inkscape:version="0.92.4 (5da689c313, 2019-01-14)">
  <metadata
     id="metadata10">
    <rdf:RDF>
      <cc:Work
         rdf:about="">
        <dc:format>image/svg+xml</dc:format>
        <dc:type
           rdf:resource="http://purl.org/dc/dcmitype/StillImage" />
        <dc:title></dc:title>
      </cc:Work>
    </rdf:RDF>
  </metadata>
  <defs
     id="defs8" />
  <sodipodi:namedview
     pagecolor="#ffffff"
     bordercolor="#666666"
     borderopacity="1"
     objecttolerance="10"
     gridtolerance="10"
     guidetolerance="10"
     inkscape:pageopacity="0"
     inkscape:pageshadow="2"
     inkscape:window-width="1920"
     inkscape:window-height="1173"
     id="namedview6"
     showgrid="false"
     fit-margin-top="0"
     fit-margin-left="0"
     fit-margin-right="0"
     fit-margin-bottom="0"
     inkscape:zoom="9.8333333"
     inkscape:cx="-15.474576"
     inkscape:cy="9.1087098"
     inkscape:window-x="0"
     inkscape:window-y="27"
     inkscape:window-maximized="1"
     inkscape:current-layer="svg4"
     inkscape:pagecheckerboard="true" />
  <path
     d="M 9.9999998,-0.78481825 A 10.804302,10.804302 0 0 0 -0.80430279,10.019485 c 0,4.775502 3.10083489,8.827116 7.39014319,10.264088 0.5402151,0.08644 0.7130839,-0.248499 0.7130839,-0.540215 0,-0.248499 0,-0.929171 0,-1.825927 -2.9927919,0.648258 -3.6302457,-1.447777 -3.6302457,-1.447777 -0.496998,-1.253299 -1.1992777,-1.588232 -1.1992777,-1.588232 -0.9831915,-0.669867 0.07563,-0.648258 0.07563,-0.648258 1.0804304,0.07563 1.6530584,1.112842 1.6530584,1.112842 0.9399743,1.642254 2.5282069,1.156061 3.1440521,0.896758 0.097239,-0.70228 0.3781506,-1.177669 0.6806711,-1.447777 C 5.6242575,14.52488 3.106855,13.595709 3.106855,9.4792694 c 0,-1.1992777 0.4105636,-2.1608606 1.1128432,-2.9279661 -0.108043,-0.2701075 -0.4861936,-1.3937551 0.1080431,-2.8523359 0,0 0.9075614,-0.2917162 2.9711832,1.1020388 0.8535399,-0.2376946 1.78271,-0.356542 2.7010753,-0.356542 0.9183662,0 1.8475352,0.1188474 2.7010762,0.356542 2.063621,-1.393755 2.971183,-1.1020388 2.971183,-1.1020388 0.594237,1.4585808 0.216086,2.5822284 0.108043,2.8523359 0.70228,0.7671055 1.112843,1.7286884 1.112843,2.9279661 0,4.1272436 -2.528207,5.0348056 -4.937567,5.3049126 0.388956,0.334934 0.745498,0.993996 0.745498,1.998797 0,1.447777 0,2.614641 0,2.960379 0,0.291716 0.172869,0.637454 0.723888,0.540215 4.289308,-1.447777 7.379339,-5.488586 7.379339,-10.264088 A 10.804302,10.804302 0 0 0 9.9999998,-0.78481825 Z"
     id="path2"
     inkscape:connector-curvature="0"
     style="fill:#ffffff;stroke-width:1.08043027" />
</svg>
