<svg xmlns="http://www.w3.org/2000/svg" xmlns:svg="http://www.w3.org/2000/svg" id="svg4" width="41" height="41" version="1.1" viewBox="-1 -1 43 42"><metadata id="metadata10"/><path id="path2" fill="none" stroke="#1fa385" stroke-opacity="1" stroke-width="1" d="m 32.8,17.95 h -6.519 c -0.861,-2.378 -3.116,-4.1 -5.781,-4.1 -2.665,0 -4.92,1.722 -5.781,4.1 H 8.1999998 c -0.6765,0 -4.1,-0.205 -4.1,-4.1 V 11.8 c 0,-3.7515 3.157,-4.1 4.1,-4.1 H 29.069 c 0.861,2.378 3.116,4.1 5.781,4.1 A 6.15,6.15 0 0 0 41,5.65 6.15,6.15 0 0 0 34.85,-0.50000001 C 32.185,-0.50000001 29.93,1.222 29.069,3.6 H 8.1999998 C 4.8994998,3.6 -1.4500001e-7,5.773 -1.4500001e-7,11.8 v 2.05 c 0,6.027 4.89949994500001,8.2 8.19999994500001,8.2 H 14.719 c 0.861,2.378 3.116,4.1 5.781,4.1 2.665,0 4.92,-1.722 5.781,-4.1 H 32.8 c 0.6765,0 4.1,0.205 4.1,4.1 v 2.05 c 0,3.7515 -3.157,4.1 -4.1,4.1 H 11.931 C 11.07,29.922 8.8149998,28.2 6.1499998,28.2 A 6.15,6.15 0 0 0 -1.4500001e-7,34.35 6.15,6.15 0 0 0 6.1499998,40.5 C 8.8149998,40.5 11.07,38.778 11.931,36.4 H 32.8 c 3.3005,0 8.2,-2.1935 8.2,-8.2 v -2.05 c 0,-6.0065 -4.8995,-8.2 -8.2,-8.2 M 34.85,3.6 A 2.05,2.05 0 0 1 36.9,5.65 2.05,2.05 0 0 1 34.85,7.7 2.05,2.05 0 0 1 32.8,5.65 2.05,2.05 0 0 1 34.85,3.6 M 6.1499998,36.4 a 2.05,2.05 0 0 1 -2.05,-2.05 2.05,2.05 0 0 1 2.05,-2.05 2.05,2.05 0 0 1 2.05,2.05 2.05,2.05 0 0 1 -2.05,2.05 z"/></svg>