<svg xmlns="http://www.w3.org/2000/svg" xmlns:svg="http://www.w3.org/2000/svg" id="svg4" width="41" height="41" version="1.1" viewBox="-1 -1 43 43"><metadata id="metadata10"/><path id="path2" fill="none" fill-opacity="1" stroke="#2eccaa" stroke-opacity="1" stroke-width="1" d="m 22.5,32.5 h 2 a 2,2 0 0 1 2,2 h 14 v 4 h -14 a 2,2 0 0 1 -2,2 h -8 a 2,2 0 0 1 -2,-2 h -14 v -4 h 14 a 2,2 0 0 1 2,-2 h 2 v -4 h -14 a 2,2 0 0 1 -2,-2 v -8 a 2,2 0 0 1 2,-2 h 32 a 2,2 0 0 1 2,2 v 8 a 2,2 0 0 1 -2,2 h -14 v 4 m -18,-32 h 32 a 2,2 0 0 1 2,2 v 8 a 2,2 0 0 1 -2,2 h -32 a 2,2 0 0 1 -2,-2 v -8 a 2,2 0 0 1 2,-2 m 10,8 h 2 v -4 h -2 v 4 m 0,16 h 2 v -4 h -2 v 4 m -8,-20 v 4 h 4 v -4 h -4 m 0,16 v 4 h 4 v -4 z"/></svg>