<svg width="43" height="17" version="1.1" viewBox="-1 -1 44.976 18.021" xmlns="http://www.w3.org/2000/svg"><path d="m4.8412 3.3855c-0.444 0-0.83251 0.1665-1.0915 0.4625-0.259 0.2775-0.37 0.6845-0.3145 1.1285l0.92501 5.5315c0.148 1.2025 1.221 2.1275 2.331 2.1275h5.55c1.184 0 2.516-1.036 2.775-2.183l1.961-5.9015c0.074-0.2405 0.0185-0.592-0.111-0.81401-0.2035-0.222-0.518-0.3515-0.92501-0.3515h-11.1m7.4 12.95h-5.55c-2.997 0-5.624-2.331-5.994-5.291l-0.92501-5.5315c-0.2035-1.5725 0.2405-3.0525 1.2025-4.1255 0.96201-1.073 2.368-1.702 3.8665-1.702h11.1c1.5355 0 2.923 0.6475 3.811 1.776 0.2035 0.2775 0.3885 0.5735 0.5365 0.90651 0.7955-0.1665 1.6095-0.1665 2.3865 0 0.148-0.333 0.333-0.629 0.555-0.90651 0.86951-1.1285 2.257-1.776 3.811-1.776h11.1c1.4985 0 2.9045 0.629 3.8665 1.702 0.94351 1.073 1.3875 2.553 1.2025 4.0515l-0.94351 5.6795c-0.3515 2.886-2.997 5.217-5.9755 5.217h-5.55c-2.886 0-5.698-2.2015-6.401-4.995l-1.665-5.0135c-0.703-0.518-1.6835-0.518-2.3865 0l-1.702 5.143c-0.666 2.6825-3.4595 4.8655-6.3455 4.8655m14.8-12.95c-0.407 0-0.7215 0.1295-0.92501 0.3515-0.148 0.222-0.185 0.5735-0.0925 0.94351l1.8685 5.6425c0.333 1.2765 1.665 2.3125 2.849 2.3125h5.55c1.0915 0 2.183-0.92501 2.3125-2.0535l0.94351-5.6795c0.0555-0.37-0.0555-0.77701-0.3145-1.0545-0.259-0.296-0.6475-0.4625-1.0915-0.4625z" fill="none" stroke="#1fa385"/></svg>