<svg viewBox="-1 -1 39.999 46.958"><path fill="none" stroke="#1fa385" d="M19-.05L.486 8.132v12.273C.487 31.757 8.386 42.373 19 44.95c10.614-2.577 18.512-13.193 18.512-24.545V8.132L19-.05m0 8.182a6.17 6.136 0 016.171 6.136A6.17 6.136 0 0119 20.405a6.17 6.136 0 01-6.171-6.137 6.17 6.136 0 016.17-6.136m10.552 24.546A19.917 19.917 0 0119 40.696a19.917 19.917 0 01-10.551-8.018 20.763 20.763 0 01-1.79-3.13c0-3.375 5.574-6.136 12.341-6.136 6.768 0 12.342 2.7 12.342 6.136a20.763 20.763 0 01-1.79 3.13z"/></svg>