<svg width="33" height="41" version="1.1" viewBox="-1 -1 33 43" xmlns="http://www.w3.org/2000/svg"><path d="m17.55 24.6c-6.888 0-9.143 2.7675-9.881 4.592 2.1935 0.943 3.731 3.116 3.731 5.658a6.15 6.15 0 0 1-6.15 6.15 6.15 6.15 0 0 1-6.15-6.15c0-2.6855 1.7015-4.961 4.1-5.8015v-17.097c-2.3985-0.8405-4.1-3.116-4.1-5.8015a6.15 6.15 0 0 1 6.15-6.15 6.15 6.15 0 0 1 6.15 6.15c0 2.6855-1.7015 4.961-4.1 5.8015v10.844c1.804-1.3325 4.428-2.296 8.2-2.296 5.4735 0 7.298-2.747 7.8925-4.5715-2.214-0.9225-3.7925-3.116-3.7925-5.6785a6.15 6.15 0 0 1 6.15-6.15 6.15 6.15 0 0 1 6.15 6.15c0 2.747-1.804 5.125-4.2845 5.863-0.533 2.9315-2.5215 8.487-10.066 8.487m-12.3 8.2a2.05 2.05 0 0 0-2.05 2.05 2.05 2.05 0 0 0 2.05 2.05 2.05 2.05 0 0 0 2.05-2.05 2.05 2.05 0 0 0-2.05-2.05m0-28.7a2.05 2.05 0 0 0-2.05 2.05 2.05 2.05 0 0 0 2.05 2.05 2.05 2.05 0 0 0 2.05-2.05 2.05 2.05 0 0 0-2.05-2.05m20.5 4.1a2.05 2.05 0 0 0-2.05 2.05 2.05 2.05 0 0 0 2.05 2.05 2.05 2.05 0 0 0 2.05-2.05 2.05 2.05 0 0 0-2.05-2.05z" fill="none" stroke="#1fa385"/></svg>