<svg xmlns="http://www.w3.org/2000/svg" xmlns:svg="http://www.w3.org/2000/svg" id="svg4" width="48" height="54" version="1.1" viewBox="-1 -1 50 56"><metadata id="metadata10"/><path id="path2" fill="#2eccaa" fill-opacity="1" stroke-width="1" d="M 30,27 H 18 v -6 h 12 m 0,18 H 18 V 33 H 30 M 48,15 H 39.57 C 38.22,12.66 36.36,10.65 34.11,9.12 L 39,4.23 34.77,0 28.26,6.51 C 26.88,6.18 25.5,6 24,6 22.5,6 21.12,6.18 19.77,6.51 L 13.23,0 9,4.23 13.86,9.12 C 11.64,10.65 9.78,12.66 8.43,15 H 0 v 6 H 6.27 C 6.12,21.99 6,22.98 6,24 v 3 H 0 v 6 h 6 v 3 c 0,1.02 0.12,2.01 0.27,3 H 0 v 6 h 8.43 c 3.12,5.37 8.91,9 15.57,9 6.66,0 12.45,-3.63 15.57,-9 H 48 V 39 H 41.73 C 41.88,38.01 42,37.02 42,36 v -3 h 6 v -6 h -6 v -3 c 0,-1.02 -0.12,-2.01 -0.27,-3 H 48 Z"/></svg>