<svg width="20" height="14" version="1.1" viewBox="0 0 20 14" xmlns="http://www.w3.org/2000/svg"><path d="m8 10 5.19-3-5.19-3v6m11.56-7.83c0.13 0.47 0.22 1.1 0.28 1.9 0.07 0.8 0.1 1.49 0.1 2.09l0.06 0.84c0 2.19-0.16 3.8-0.44 4.83-0.25 0.9-0.83 1.48-1.73 1.73-0.47 0.13-1.33 0.22-2.65 0.28-1.3 0.07-2.49 0.1-3.59 0.1l-1.59 0.06c-4.19 0-6.8-0.16-7.83-0.44-0.9-0.25-1.48-0.83-1.73-1.73-0.13-0.47-0.22-1.1-0.28-1.9-0.07-0.8-0.1-1.49-0.1-2.09l-0.06-0.84c0-2.19 0.16-3.8 0.44-4.83 0.25-0.9 0.83-1.48 1.73-1.73 0.47-0.13 1.33-0.22 2.65-0.28 1.3-0.07 2.49-0.1 3.59-0.1l1.59-0.06c4.19 0 6.8 0.16 7.83 0.44 0.9 0.25 1.48 0.83 1.73 1.73z" fill="#fff"/></svg>