<svg width="44" height="35" version="1.1" viewBox="-1 -1 45.973 36.994" xmlns="http://www.w3.org/2000/svg"><path d="m39.821 1.442c-2.1995-0.70001-4.617-1-6.9354-1-3.864 0-8.0252 0.80001-10.898 3-2.8732-2.2-7.0345-3-10.898-3-3.864 0-8.0252 0.80001-10.898 3v29.3c0 0.50001 0.49538 1 0.99077 1 0.19815 0 0.29723-0.1 0.49538-0.1 2.6751-1.3 6.5391-2.2 9.4123-2.2 3.864 0 8.0252 0.80001 10.898 3 2.6751-1.7 7.5298-3 10.898-3 3.2695 0 6.6382 0.60001 9.4123 2.1 0.19815 0.1 0.29723 0.1 0.49538 0.1 0.49538 0 0.99077-0.50001 0.99077-1v-29.2c-1.1889-0.90001-2.4769-1.5-3.9631-2m0 27c-2.1797-0.70001-4.5575-1-6.9354-1-3.3686 0-8.2234 1.3-10.898 3v-23c2.6751-1.7 7.5298-3 10.898-3 2.3778 0 4.7557 0.3 6.9354 1z" fill="none" stroke="#1fa385"/></svg>