<svg width="41" height="41" version="1.1" viewBox="-1 -1 43 43" xmlns="http://www.w3.org/2000/svg"><path d="m7.175 10.25a3.075 3.075 0 0 0 3.075-3.075 3.075 3.075 0 0 0-3.075-3.075 3.075 3.075 0 0 0-3.075 3.075 3.075 3.075 0 0 0 3.075 3.075m32.616 9.389c0.738 0.738 1.2095 1.763 1.2095 2.911 0 1.1275-0.451 2.1525-1.2095 2.8905l-14.35 14.35c-0.738 0.738-1.763 1.2095-2.8905 1.2095s-2.1525-0.4715-2.911-1.2095l-18.43-18.45c-0.7585-0.738-1.2095-1.763-1.2095-2.8905v-14.35c0-2.2755 1.8245-4.1 4.1-4.1h14.35c1.1275 0 2.1525 0.451 2.8905 1.189l18.45 18.45m-17.24 17.261 14.35-14.35-17.425-17.425-14.35 14.35 17.425 17.425m-5.9655-22.734 2.8905-2.8905 11.275 11.275-2.8905 2.8905-11.275-11.275m-5.125 5.125 2.8905-2.8905 8.2 8.2-2.8905 2.8905z" fill="none" stroke="#1fa385"/></svg>