<?xml version="1.0" encoding="UTF-8" standalone="no"?>
<svg
   xmlns:dc="http://purl.org/dc/elements/1.1/"
   xmlns:cc="http://creativecommons.org/ns#"
   xmlns:rdf="http://www.w3.org/1999/02/22-rdf-syntax-ns#"
   xmlns:svg="http://www.w3.org/2000/svg"
   xmlns="http://www.w3.org/2000/svg"
   xmlns:sodipodi="http://sodipodi.sourceforge.net/DTD/sodipodi-0.dtd"
   xmlns:inkscape="http://www.inkscape.org/namespaces/inkscape"
   version="1.1"
   width="45.099998"
   height="41"
   viewBox="-1 -1 47.099998 43"
   id="svg4"
   sodipodi:docname="icon-languages.svg"
   inkscape:version="0.92.4 (5da689c313, 2019-01-14)">
  <metadata
     id="metadata10">
    <rdf:RDF>
      <cc:Work
         rdf:about="">
        <dc:format>image/svg+xml</dc:format>
        <dc:type
           rdf:resource="http://purl.org/dc/dcmitype/StillImage" />
        <dc:title></dc:title>
      </cc:Work>
    </rdf:RDF>
  </metadata>
  <defs
     id="defs8" />
  <sodipodi:namedview
     pagecolor="#ffffff"
     bordercolor="#666666"
     borderopacity="1"
     objecttolerance="10"
     gridtolerance="10"
     guidetolerance="10"
     inkscape:pageopacity="0"
     inkscape:pageshadow="2"
     inkscape:window-width="1920"
     inkscape:window-height="1027"
     id="namedview6"
     showgrid="false"
     fit-margin-top="0"
     fit-margin-left="0"
     fit-margin-right="0"
     fit-margin-bottom="0"
     inkscape:zoom="9.8333333"
     inkscape:cx="5.9661017"
     inkscape:cy="10"
     inkscape:window-x="-8"
     inkscape:window-y="-8"
     inkscape:window-maximized="1"
     inkscape:current-layer="svg4" />
  <path
     d="M 24.3335,26.7935 19.1265,21.648 19.188,21.5865 C 22.755,17.6095 25.297,13.038 26.7935,8.2 H 32.8 V 4.1 H 18.45 V 0 h -4.1 V 4.1 H 0 V 8.2 H 22.8985 C 21.525,12.136 19.352,15.8875 16.4,19.1675 14.4935,17.056 12.915,14.7395 11.6645,12.3 h -4.1 c 1.4965,3.3415 3.5465,6.4985 6.109,9.348 L 3.239,31.939 6.15,34.85 16.4,24.6 l 6.3755,6.3755 1.558,-4.182 M 35.875,16.4 h -4.1 L 22.55,41 h 4.1 l 2.296,-6.15 h 9.7375 L 41,41 h 4.1 L 35.875,16.4 m -5.371,14.35 3.321,-8.8765 3.321,8.8765 z"
     id="path2"
     inkscape:connector-curvature="0"
     style="stroke-width:1;fill:none;stroke:#1fa385;stroke-opacity:1" />
</svg>
