<svg width="38" height="45" version="1.1" viewBox="-1 -1 39.999 46.958" xmlns="http://www.w3.org/2000/svg"><path d="m18.999-0.049954-18.512 8.1819v12.273c0 11.352 7.8984 21.968 18.512 24.546 10.613-2.5773 18.512-13.193 18.512-24.546v-12.273l-18.512-8.1819m0 8.1819a6.1706 6.1364 0 0 1 6.1706 6.1364 6.1706 6.1364 0 0 1-6.1706 6.1364 6.1706 6.1364 0 0 1-6.1706-6.1364 6.1706 6.1364 0 0 1 6.1706-6.1364m10.552 24.546c-2.4888 3.7841-6.2118 6.6273-10.552 8.0183-4.34-1.3909-8.063-4.2341-10.552-8.0183-0.69934-1.0227-1.2958-2.0455-1.7895-3.1296 0-3.375 5.5741-6.1364 12.341-6.1364 6.7671 0 12.341 2.7 12.341 6.1364-0.49365 1.0841-1.0901 2.1068-1.7895 3.1296z" fill="none" stroke="#1fa385"/></svg>