<?xml version="1.0" encoding="UTF-8" standalone="no"?>
<svg
   xmlns:dc="http://purl.org/dc/elements/1.1/"
   xmlns:cc="http://creativecommons.org/ns#"
   xmlns:rdf="http://www.w3.org/1999/02/22-rdf-syntax-ns#"
   xmlns:svg="http://www.w3.org/2000/svg"
   xmlns="http://www.w3.org/2000/svg"
   xmlns:sodipodi="http://sodipodi.sourceforge.net/DTD/sodipodi-0.dtd"
   xmlns:inkscape="http://www.inkscape.org/namespaces/inkscape"
   version="1.1"
   width="20"
   height="19.51549"
   viewBox="-1 -1 22 21.51549"
   id="svg4"
   sodipodi:docname="icon-github.svg"
   inkscape:version="0.92.4 (5da689c313, 2019-01-14)">
  <metadata
     id="metadata10">
    <rdf:RDF>
      <cc:Work
         rdf:about="">
        <dc:format>image/svg+xml</dc:format>
        <dc:type
           rdf:resource="http://purl.org/dc/dcmitype/StillImage" />
        <dc:title></dc:title>
      </cc:Work>
    </rdf:RDF>
  </metadata>
  <defs
     id="defs8" />
  <sodipodi:namedview
     pagecolor="#ffffff"
     bordercolor="#666666"
     borderopacity="1"
     objecttolerance="10"
     gridtolerance="10"
     guidetolerance="10"
     inkscape:pageopacity="0"
     inkscape:pageshadow="2"
     inkscape:window-width="1920"
     inkscape:window-height="1027"
     id="namedview6"
     showgrid="false"
     fit-margin-top="0"
     fit-margin-left="0"
     fit-margin-right="0"
     fit-margin-bottom="0"
     inkscape:zoom="9.8333333"
     inkscape:cx="4.9661017"
     inkscape:cy="9.5154895"
     inkscape:window-x="-8"
     inkscape:window-y="-8"
     inkscape:window-maximized="1"
     inkscape:current-layer="svg4" />
  <path
     d="M 10,0 A 10,10 0 0 0 0,10 c 0,4.42 2.87,8.17 6.84,9.5 0.5,0.08 0.66,-0.23 0.66,-0.5 0,-0.23 0,-0.86 0,-1.69 C 4.73,17.91 4.14,15.97 4.14,15.97 3.68,14.81 3.03,14.5 3.03,14.5 2.12,13.88 3.1,13.9 3.1,13.9 c 1,0.07 1.53,1.03 1.53,1.03 C 5.5,16.45 6.97,16 7.54,15.76 7.63,15.11 7.89,14.67 8.17,14.42 5.95,14.17 3.62,13.31 3.62,9.5 3.62,8.39 4,7.5 4.65,6.79 4.55,6.54 4.2,5.5 4.75,4.15 c 0,0 0.84,-0.27 2.75,1.02 0.79,-0.22 1.65,-0.33 2.5,-0.33 0.85,0 1.71,0.11 2.5,0.33 1.91,-1.29 2.75,-1.02 2.75,-1.02 0.55,1.35 0.2,2.39 0.1,2.64 0.65,0.71 1.03,1.6 1.03,2.71 0,3.82 -2.34,4.66 -4.57,4.91 0.36,0.31 0.69,0.92 0.69,1.85 0,1.34 0,2.42 0,2.74 0,0.27 0.16,0.59 0.67,0.5 C 17.14,18.16 20,14.42 20,10 A 10,10 0 0 0 10,0 Z"
     id="path2"
     inkscape:connector-curvature="0"
     style="fill:#ffffff" />
</svg>
