<svg viewBox="-1 -1 43 43.05"><path fill="none" stroke="#2eccaa" d="M20.5.523A20.5 20.5 0 000 21.023c0 9.06 5.883 16.748 14.022 19.475 1.025.164 1.353-.472 1.353-1.025v-3.465c-5.678 1.23-6.888-2.747-6.888-2.747-.943-2.378-2.276-3.013-2.276-3.013-1.865-1.271.144-1.23.144-1.23 2.05.143 3.136 2.111 3.136 2.111 1.784 3.116 4.798 2.194 5.966 1.702.184-1.333.718-2.235 1.292-2.747-4.551-.513-9.328-2.276-9.328-10.086 0-2.276.779-4.1 2.111-5.556-.205-.512-.922-2.644.205-5.412 0 0 1.722-.553 5.638 2.091 1.62-.45 3.382-.676 5.125-.676 1.742 0 3.506.225 5.125.676 3.916-2.644 5.638-2.09 5.638-2.09 1.127 2.767.41 4.899.204 5.411 1.333 1.456 2.112 3.28 2.112 5.556 0 7.83-4.797 9.553-9.368 10.065.738.636 1.414 1.886 1.414 3.793v5.617c0 .553.328 1.21 1.374 1.025C35.137 37.75 41 30.084 41 21.023A20.5 20.5 0 0020.5.523z"/></svg>