<svg xmlns="http://www.w3.org/2000/svg" xmlns:svg="http://www.w3.org/2000/svg" id="svg4" width="18" height="18" version="1.1" viewBox="0 0 18 18"><metadata id="metadata10"/><path id="path2" fill="#fff" d="m 16,0 a 2,2 0 0 1 2,2 v 14 a 2,2 0 0 1 -2,2 H 2 A 2,2 0 0 1 0,16 V 2 A 2,2 0 0 1 2,0 H 16 M 15.5,15.5 V 10.2 A 3.26,3.26 0 0 0 12.24,6.94 c -0.85,0 -1.84,0.52 -2.32,1.3 V 7.13 H 7.13 v 8.37 h 2.79 v -4.93 c 0,-0.77 0.62,-1.4 1.39,-1.4 a 1.4,1.4 0 0 1 1.4,1.4 V 15.5 H 15.5 M 3.88,5.56 A 1.68,1.68 0 0 0 5.56,3.88 C 5.56,2.95 4.81,2.19 3.88,2.19 A 1.69,1.69 0 0 0 2.19,3.88 c 0,0.93 0.76,1.68 1.69,1.68 M 5.27,15.5 V 7.13 H 2.5 v 8.37 z"/></svg>