<?xml version="1.0" encoding="UTF-8" standalone="no"?>
<svg
   xmlns:dc="http://purl.org/dc/elements/1.1/"
   xmlns:cc="http://creativecommons.org/ns#"
   xmlns:rdf="http://www.w3.org/1999/02/22-rdf-syntax-ns#"
   xmlns:svg="http://www.w3.org/2000/svg"
   xmlns="http://www.w3.org/2000/svg"
   xmlns:sodipodi="http://sodipodi.sourceforge.net/DTD/sodipodi-0.dtd"
   xmlns:inkscape="http://www.inkscape.org/namespaces/inkscape"
   version="1.1"
   width="41"
   height="41"
   viewBox="-1 -1 42 42"
   id="svg4"
   sodipodi:docname="icon-api.svg"
   inkscape:version="0.92.4 (5da689c313, 2019-01-14)">
  <metadata
     id="metadata10">
    <rdf:RDF>
      <cc:Work
         rdf:about="">
        <dc:format>image/svg+xml</dc:format>
        <dc:type
           rdf:resource="http://purl.org/dc/dcmitype/StillImage" />
        <dc:title></dc:title>
      </cc:Work>
    </rdf:RDF>
  </metadata>
  <defs
     id="defs8" />
  <sodipodi:namedview
     pagecolor="#ffffff"
     bordercolor="#666666"
     borderopacity="1"
     objecttolerance="10"
     gridtolerance="10"
     guidetolerance="10"
     inkscape:pageopacity="0"
     inkscape:pageshadow="2"
     inkscape:window-width="1920"
     inkscape:window-height="1027"
     id="namedview6"
     showgrid="false"
     fit-margin-top="0"
     fit-margin-left="0"
     fit-margin-right="0"
     fit-margin-bottom="0"
     inkscape:zoom="9.8333333"
     inkscape:cx="4.9661017"
     inkscape:cy="10"
     inkscape:window-x="-8"
     inkscape:window-y="-8"
     inkscape:window-maximized="1"
     inkscape:current-layer="svg4" />
  <path
     d="m 32.8,18.45 h -6.519 c -0.861,-2.378 -3.116,-4.1 -5.781,-4.1 -2.665,0 -4.92,1.722 -5.781,4.1 H 8.2 c -0.6765,0 -4.1,-0.205 -4.1,-4.1 V 12.3 C 4.1,8.5485 7.257,8.2 8.2,8.2 h 20.869 c 0.861,2.378 3.116,4.1 5.781,4.1 A 6.15,6.15 0 0 0 41,6.15 6.15,6.15 0 0 0 34.85,0 C 32.185,0 29.93,1.722 29.069,4.1 H 8.2 C 4.8995,4.1 0,6.273 0,12.3 v 2.05 c 0,6.027 4.8995,8.2 8.2,8.2 h 6.519 c 0.861,2.378 3.116,4.1 5.781,4.1 2.665,0 4.92,-1.722 5.781,-4.1 H 32.8 c 0.6765,0 4.1,0.205 4.1,4.1 v 2.05 c 0,3.7515 -3.157,4.1 -4.1,4.1 H 11.931 C 11.07,30.422 8.815,28.7 6.15,28.7 A 6.15,6.15 0 0 0 0,34.85 6.15,6.15 0 0 0 6.15,41 c 2.665,0 4.92,-1.722 5.781,-4.1 H 32.8 c 3.3005,0 8.2,-2.1935 8.2,-8.2 v -2.05 c 0,-6.0065 -4.8995,-8.2 -8.2,-8.2 M 34.85,4.1 A 2.05,2.05 0 0 1 36.9,6.15 2.05,2.05 0 0 1 34.85,8.2 2.05,2.05 0 0 1 32.8,6.15 2.05,2.05 0 0 1 34.85,4.1 M 6.15,36.9 A 2.05,2.05 0 0 1 4.1,34.85 2.05,2.05 0 0 1 6.15,32.8 2.05,2.05 0 0 1 8.2,34.85 2.05,2.05 0 0 1 6.15,36.9 Z"
     id="path2"
     inkscape:connector-curvature="0"
     style="stroke-width:1;fill:none;stroke:#1fa385;stroke-opacity:1" />
</svg>
