<svg viewBox="-1 -1 43 43"><path fill="none" stroke="#1fa385" d="M7.175 10.25a3.075 3.075 0 003.075-3.075A3.075 3.075 0 007.175 4.1 3.075 3.075 0 004.1 7.175a3.075 3.075 0 003.075 3.075m32.615 9.389A4.104 4.104 0 0141 22.55a4.008 4.008 0 01-1.21 2.89L25.44 39.79A4.092 4.092 0 0122.55 41c-1.128 0-2.152-.471-2.911-1.21L1.209 21.34A4.008 4.008 0 010 18.45V4.1C0 1.825 1.825 0 4.1 0h14.35c1.127 0 2.152.451 2.89 1.189l18.45 18.45M22.55 36.9L36.9 22.55 19.475 5.125l-14.35 14.35L22.55 36.9m-5.966-22.734l2.891-2.891L30.75 22.55l-2.89 2.89-11.276-11.275m-5.125 5.126L14.35 16.4l8.2 8.2-2.89 2.89z"/></svg>