<svg width="41" height="41" version="1.1" viewBox="-1 -1 43 43.05" xmlns="http://www.w3.org/2000/svg"><path d="m20.5 0.52295a20.5 20.5 0 0 0-20.5 20.5c0 9.061 5.8835 16.748 14.022 19.475 1.025 0.164 1.353-0.4715 1.353-1.025v-3.4645c-5.6785 1.23-6.888-2.747-6.888-2.747-0.943-2.378-2.2755-3.0135-2.2755-3.0135-1.8655-1.271 0.1435-1.23 0.1435-1.23 2.05 0.1435 3.1365 2.1115 3.1365 2.1115 1.7835 3.116 4.797 2.1935 5.9655 1.7015 0.1845-1.3325 0.7175-2.2345 1.2915-2.747-4.551-0.5125-9.3275-2.2755-9.3275-10.086 0-2.2755 0.779-4.1 2.1115-5.5555-0.205-0.5125-0.9225-2.6445 0.205-5.412 0 0 1.722-0.5535 5.6375 2.091 1.6195-0.451 3.3825-0.6765 5.125-0.6765s3.5055 0.2255 5.125 0.6765c3.9155-2.6445 5.6375-2.091 5.6375-2.091 1.1275 2.7675 0.41 4.8995 0.205 5.412 1.3325 1.4555 2.1115 3.28 2.1115 5.5555 0 7.831-4.797 9.553-9.3685 10.066 0.738 0.6355 1.4145 1.886 1.4145 3.7925v5.617c0 0.5535 0.328 1.2095 1.3735 1.025 8.1385-2.747 14.002-10.414 14.002-19.475a20.5 20.5 0 0 0-20.5-20.5z" fill="none" stroke="#2eccaa"/></svg>