<svg width="42" height="42" viewBox="0 0 42 42" xmlns="http://www.w3.org/2000/svg"><path transform="translate(1 1)" d="m32 8c0 4.42-7.16 8-16 8s-16-3.58-16-8 7.16-8 16-8 16 3.58 16 8zm-7.74 16.86c-2.42 0.72-5.26 1.14-8.26 1.14-8.84 0-16-3.58-16-8v-6c0 4.42 7.16 8 16 8s16-3.58 16-8v6.06c-3.78 0.42-6.86 3.18-7.74 6.8zm-2.26 10.56c-1.86 0.38-3.88 0.58-6 0.58-8.84 0-16-3.58-16-8v-6c0 4.42 7.16 8 16 8 2.12 0 4.14-0.2 6-0.58zm16-8.42v1c1.1046 0 2 0.89543 2 2v8c0 1.1046-0.89543 2-2 2h-10c-1.1046 0-2-0.89543-2-2v-8c0-1.1046 0.89543-2 2-2v-1c0-2.7614 2.2386-5 5-5s5 2.2386 5 5zm-5-3c-1.6569 0-3 1.3431-3 3v1h6v-1c0-1.6569-1.3431-3-3-3z" fill="none" stroke="#1fa385"/></svg>