<svg viewBox="-1 -1 43 42"><path fill="none" stroke="#1fa385" d="M32.8 17.95h-6.519c-.861-2.378-3.116-4.1-5.781-4.1-2.665 0-4.92 1.722-5.781 4.1H8.2c-.677 0-4.1-.205-4.1-4.1V11.8c0-3.752 3.157-4.1 4.1-4.1h20.869c.861 2.378 3.116 4.1 5.781 4.1A6.15 6.15 0 0041 5.65 6.15 6.15 0 0034.85-.5c-2.665 0-4.92 1.722-5.781 4.1H8.2C4.9 3.6 0 5.773 0 11.8v2.05c0 6.027 4.9 8.2 8.2 8.2h6.519c.861 2.378 3.116 4.1 5.781 4.1 2.665 0 4.92-1.722 5.781-4.1H32.8c.676 0 4.1.205 4.1 4.1v2.05c0 3.752-3.157 4.1-4.1 4.1H11.931c-.861-2.378-3.116-4.1-5.781-4.1A6.15 6.15 0 000 34.35a6.15 6.15 0 006.15 6.15c2.665 0 4.92-1.722 5.781-4.1H32.8c3.3 0 8.2-2.193 8.2-8.2v-2.05c0-6.006-4.9-8.2-8.2-8.2M34.85 3.6a2.05 2.05 0 012.05 2.05 2.05 2.05 0 01-2.05 2.05 2.05 2.05 0 01-2.05-2.05 2.05 2.05 0 012.05-2.05M6.15 36.4a2.05 2.05 0 01-2.05-2.05 2.05 2.05 0 012.05-2.05 2.05 2.05 0 012.05 2.05 2.05 2.05 0 01-2.05 2.05z"/></svg>