<?xml version="1.0" encoding="UTF-8" standalone="no"?>
<svg
   xmlns:dc="http://purl.org/dc/elements/1.1/"
   xmlns:cc="http://creativecommons.org/ns#"
   xmlns:rdf="http://www.w3.org/1999/02/22-rdf-syntax-ns#"
   xmlns:svg="http://www.w3.org/2000/svg"
   xmlns="http://www.w3.org/2000/svg"
   xmlns:sodipodi="http://sodipodi.sourceforge.net/DTD/sodipodi-0.dtd"
   xmlns:inkscape="http://www.inkscape.org/namespaces/inkscape"
   width="23"
   height="23"
   viewBox="0 0 23 23"
   version="1.1"
   id="svg10"
   sodipodi:docname="icon-monero.svg"
   inkscape:version="0.92.4 (5da689c313, 2019-01-14)">
  <metadata
     id="metadata16">
    <rdf:RDF>
      <cc:Work
         rdf:about="">
        <dc:format>image/svg+xml</dc:format>
        <dc:type
           rdf:resource="http://purl.org/dc/dcmitype/StillImage" />
        <dc:title>7AFE0AC2-6252-40B2-95A6-45549388053D</dc:title>
      </cc:Work>
    </rdf:RDF>
  </metadata>
  <defs
     id="defs14" />
  <sodipodi:namedview
     pagecolor="#ffffff"
     bordercolor="#666666"
     borderopacity="1"
     objecttolerance="10"
     gridtolerance="10"
     guidetolerance="10"
     inkscape:pageopacity="0"
     inkscape:pageshadow="2"
     inkscape:window-width="1920"
     inkscape:window-height="1173"
     id="namedview12"
     showgrid="false"
     inkscape:zoom="10.727273"
     inkscape:cx="11.186441"
     inkscape:cy="11"
     inkscape:window-x="0"
     inkscape:window-y="27"
     inkscape:window-maximized="1"
     inkscape:current-layer="svg10" />
  <!-- Generator: sketchtool 54.1 (76490) - https://sketchapp.com -->
  <title
     id="title2">7AFE0AC2-6252-40B2-95A6-45549388053D</title>
  <desc
     id="desc4">Created with sketchtool.</desc>
  <g
     id="Weblate"
     style="fill:none;fill-rule:evenodd;stroke:none;stroke-width:1"
     transform="translate(0.5,0.5)">
    <g
       id="Donate"
       transform="translate(-346,-2776)"
       style="fill:#2eccaa;fill-rule:nonzero">
      <g
         id="monero"
         transform="translate(346,2776)">
        <path
           d="M 11,0 C 4.9344686,0 0,4.9344686 0,11 0,17.065531 4.9344686,22 11,22 17.065084,22 22,17.065531 22,11 22,4.9344686 17.065084,0 11,0 Z m 0,20.166667 c -3.3837891,0 -6.3383382,-1.848104 -7.9263916,-4.583334 H 8.25 V 10.002767 L 10.964193,14.795349 13.75,9.9636027 v 5.6197303 h 5.176392 C 17.338338,18.318563 14.384237,20.166667 11,20.166667 Z M 19.744141,13.75 H 15.583333 V 6.4166667 H 13.679057 L 10.978516,11.100484 8.3260905,6.4166667 H 6.4166667 V 13.75 H 2.2558594 C 1.9823812,12.881449 1.8333333,11.957845 1.8333333,11 1.8333333,5.945577 5.945577,1.8333333 11,1.8333333 c 5.054423,0 9.166667,4.1122437 9.166667,9.1666667 0,0.957845 -0.149048,1.881449 -0.422526,2.75 z"
           id="Shape"
           inkscape:connector-curvature="0" />
      </g>
    </g>
  </g>
</svg>
