<svg width="16" height="20" version="1.1" viewBox="0 0 16 20" xmlns="http://www.w3.org/2000/svg"><g fill="none" fill-rule="evenodd"><g transform="translate(-347 -2527)" fill="#2ECCAA" fill-rule="nonzero"><g transform="translate(347 2527)"><path d="m0.5 3h3.5v-3h2v3h1.5v-3h2v3c5.5 0 5.5 6 2.5 6.25 4-0.25 5 7.75-2.5 7.75v3h-2v-3h-1.5v3h-2v-3h-3.5l0.5-2h1c0.55228 0 1-0.44772 1-1v-8c0-0.55228-0.44772-1-1-1h-1.5v-2zm5.5 2v4s4.5 0.25 4.5-2-4.5-2-4.5-2zm0 5.5v4.5s5.5 0 5.5-2.25-5.5-2.25-5.5-2.25z"/></g></g></g></svg>