<?xml version="1.0" encoding="UTF-8" standalone="no"?>
<svg
   xmlns:dc="http://purl.org/dc/elements/1.1/"
   xmlns:cc="http://creativecommons.org/ns#"
   xmlns:rdf="http://www.w3.org/1999/02/22-rdf-syntax-ns#"
   xmlns:svg="http://www.w3.org/2000/svg"
   xmlns="http://www.w3.org/2000/svg"
   xmlns:sodipodi="http://sodipodi.sourceforge.net/DTD/sodipodi-0.dtd"
   xmlns:inkscape="http://www.inkscape.org/namespaces/inkscape"
   version="1.1"
   width="20"
   height="19.5"
   viewBox="-1 -1 22 21.498413"
   id="svg4"
   sodipodi:docname="icon-github.svg"
   inkscape:version="0.92.4 (5da689c313, 2019-01-14)">
  <metadata
     id="metadata10">
    <rdf:RDF>
      <cc:Work
         rdf:about="">
        <dc:format>image/svg+xml</dc:format>
        <dc:type
           rdf:resource="http://purl.org/dc/dcmitype/StillImage" />
        <dc:title></dc:title>
      </cc:Work>
    </rdf:RDF>
  </metadata>
  <defs
     id="defs8" />
  <sodipodi:namedview
     pagecolor="#ffffff"
     bordercolor="#666666"
     borderopacity="1"
     objecttolerance="10"
     gridtolerance="10"
     guidetolerance="10"
     inkscape:pageopacity="0"
     inkscape:pageshadow="2"
     inkscape:window-width="1920"
     inkscape:window-height="1173"
     id="namedview6"
     showgrid="false"
     fit-margin-top="0"
     fit-margin-left="0"
     fit-margin-right="0"
     fit-margin-bottom="0"
     inkscape:zoom="39.333333"
     inkscape:cx="10.588032"
     inkscape:cy="7.9873359"
     inkscape:window-x="0"
     inkscape:window-y="27"
     inkscape:window-maximized="1"
     inkscape:current-layer="svg4"
     inkscape:pagecheckerboard="true" />
  <path
     d="M 9.9999996,-0.95745886 A 10.972477,10.972477 0 0 0 -0.9724782,10.01502 c 0,4.849836 3.1491012,8.964516 7.5051751,10.423856 0.5486239,0.08779 0.7241835,-0.252368 0.7241835,-0.548624 0,-0.252367 0,-0.943634 0,-1.854349 C 4.2175039,18.694252 3.5701278,16.565591 3.5701278,16.565591 3.0653937,15.292783 2.3521826,14.952637 2.3521826,14.952637 c -0.9984954,-0.680294 0.076807,-0.658349 0.076807,-0.658349 1.097248,0.07681 1.6787893,1.130164 1.6787893,1.130164 0.9546055,1.667817 2.5675599,1.174056 3.1929911,0.910717 0.098753,-0.713211 0.3840367,-1.196 0.6912661,-1.470313 -2.4358899,-0.274311 -4.9924772,-1.217945 -4.9924772,-5.3984607 0,-1.2179452 0.4169542,-2.1944957 1.1301652,-2.9735417 C 4.0199996,6.2185418 3.6359628,5.0774039 4.2394492,3.5961195 c 0,0 0.9216881,-0.296257 3.0174314,1.1191926 0.8668258,-0.2413944 1.8104589,-0.3620917 2.743119,-0.3620917 0.9326604,0 1.8762924,0.1206973 2.7431194,0.3620917 2.095743,-1.4154496 3.017431,-1.1191926 3.017431,-1.1191926 0.603487,1.4812844 0.21945,2.6224223 0.109725,2.8967341 0.713212,0.779046 1.130165,1.7555965 1.130165,2.9735417 0,4.1914877 -2.56756,5.1131767 -5.014423,5.3874877 0.39501,0.340148 0.757102,1.009468 0.757102,2.02991 0,1.470312 0,2.655339 0,3.006459 0,0.296256 0.17556,0.647376 0.735156,0.548624 4.356074,-1.470313 7.494203,-5.57402 7.494203,-10.423856 A 10.972477,10.972477 0 0 0 9.9999996,-0.95745886 Z"
     id="path2"
     inkscape:connector-curvature="0"
     style="fill:#ffffff;stroke-width:1.09724784" />
</svg>
