<svg viewBox="-1 -1 43 43"><path fill="none" stroke="#1fa385" d="M36.47 27.49a17.458 17.458 0 000-13.98l-5.618 2.542a11.273 11.273 0 01.021 8.897l5.596 2.542M27.511 4.53a17.508 17.508 0 00-14.002 0l2.542 5.596a11.323 11.323 0 018.918.02l2.542-5.617M4.531 13.49a17.557 17.557 0 000 14.022l5.617-2.562a11.237 11.237 0 010-8.918L4.53 13.489m8.979 22.98a17.424 17.424 0 0014.001-.02l-2.542-5.596a11.273 11.273 0 01-8.897.02L13.51 36.47M20.5 0A20.5 20.5 0 0141 20.5 20.5 20.5 0 0120.5 41 20.5 20.5 0 010 20.5 20.5 20.5 0 0120.5 0m0 12.3a8.2 8.2 0 00-8.2 8.2 8.2 8.2 0 008.2 8.2 8.2 8.2 0 008.2-8.2 8.2 8.2 0 00-8.2-8.2z"/></svg>