<?xml version="1.0" encoding="UTF-8" standalone="no"?>
<svg
   xmlns:dc="http://purl.org/dc/elements/1.1/"
   xmlns:cc="http://creativecommons.org/ns#"
   xmlns:rdf="http://www.w3.org/1999/02/22-rdf-syntax-ns#"
   xmlns:svg="http://www.w3.org/2000/svg"
   xmlns="http://www.w3.org/2000/svg"
   xmlns:sodipodi="http://sodipodi.sourceforge.net/DTD/sodipodi-0.dtd"
   xmlns:inkscape="http://www.inkscape.org/namespaces/inkscape"
   version="1.1"
   width="40"
   height="35"
   viewBox="-1 -1 41.965501 37.010345"
   id="svg4"
   sodipodi:docname="icon-attribution.svg"
   inkscape:version="0.92.4 (5da689c313, 2019-01-14)">
  <metadata
     id="metadata10">
    <rdf:RDF>
      <cc:Work
         rdf:about="">
        <dc:format>image/svg+xml</dc:format>
        <dc:type
           rdf:resource="http://purl.org/dc/dcmitype/StillImage" />
        <dc:title></dc:title>
      </cc:Work>
    </rdf:RDF>
  </metadata>
  <defs
     id="defs8" />
  <sodipodi:namedview
     pagecolor="#ffffff"
     bordercolor="#666666"
     borderopacity="1"
     objecttolerance="10"
     gridtolerance="10"
     guidetolerance="10"
     inkscape:pageopacity="0"
     inkscape:pageshadow="2"
     inkscape:window-width="1920"
     inkscape:window-height="1173"
     id="namedview6"
     showgrid="false"
     fit-margin-top="0"
     fit-margin-left="0"
     fit-margin-right="0"
     fit-margin-bottom="0"
     inkscape:zoom="9.8333333"
     inkscape:cx="-21.511087"
     inkscape:cy="8.8054702"
     inkscape:window-x="0"
     inkscape:window-y="27"
     inkscape:window-maximized="1"
     inkscape:current-layer="svg4" />
  <path
     d="m 36.795581,17.908255 2.83588,2.871926 -13.227353,13.422689 -7.02893,-7.128894 2.835879,-2.871926 4.193051,4.2366 10.391473,-10.530395 m -22.484474,9.165721 6.076885,6.11048 H 0.13170873 v -4.073653 c 0,-4.501388 7.25174927,-8.147308 16.20502627,-8.147308 l 3.828438,0.224051 -5.854066,5.88643 M 16.336735,0.59522565 A 8.1025132,8.1473076 0 0 1 24.439249,8.7425333 8.1025132,8.1473076 0 0 1 16.336735,16.889841 8.1025132,8.1473076 0 0 1 8.2342219,8.7425333 8.1025132,8.1473076 0 0 1 16.336735,0.59522565 Z"
     id="path2"
     inkscape:connector-curvature="0"
     style="fill:none;stroke:#2eccaa;stroke-width:1;stroke-opacity:1" />
</svg>
