<svg width="40" height="35" version="1.1" viewBox="-1 -1 41.966 37.01" xmlns="http://www.w3.org/2000/svg"><path d="m36.796 17.908 2.8359 2.8719-13.227 13.423-7.0289-7.1289 2.8359-2.8719 4.1931 4.2366 10.391-10.53m-22.484 9.1657 6.0769 6.1105h-20.256v-4.0737c0-4.5014 7.2517-8.1473 16.205-8.1473l3.8284 0.22405-5.8541 5.8864m2.0256-26.479a8.1025 8.1473 0 0 1 8.1025 8.1473 8.1025 8.1473 0 0 1-8.1025 8.1473 8.1025 8.1473 0 0 1-8.1025-8.1473 8.1025 8.1473 0 0 1 8.1025-8.1473z" fill="none" stroke="#2eccaa"/></svg>