<svg viewBox="-1 -1 43.001 43.001"><path fill="none" stroke="#2eccaa" d="M1.223 17.609L13.077 5.735l3.465 3.486c-.492 1.743.308 3.65 1.908 4.573v11.362a4.069 4.069 0 00-2.051 3.548 4.102 4.102 0 004.101 4.101 4.102 4.102 0 004.102-4.101c0-1.518-.82-2.851-2.05-3.548v-9.967l4.244 4.286c-.143.308-.143.656-.143 1.025a4.102 4.102 0 004.101 4.102 4.102 4.102 0 004.102-4.102 4.102 4.102 0 00-4.102-4.101c-.369 0-.717 0-1.025.143l-5.27-5.27c.533-1.907-.452-4-2.359-4.799-.882-.328-1.805-.41-2.625-.185l-3.486-3.465 1.62-1.6a4.048 4.048 0 015.783 0l16.386 16.386a4.048 4.048 0 010 5.783L23.392 39.778a4.048 4.048 0 01-5.783 0L1.223 23.392a4.048 4.048 0 010-5.783z"/></svg>