<svg xmlns="http://www.w3.org/2000/svg" xmlns:svg="http://www.w3.org/2000/svg" id="svg4" width="41" height="42" version="1.1" viewBox="-1 -1 42.981 43.974"><metadata id="metadata10"/><path id="path2" fill="none" fill-opacity="1" stroke="#2eccaa" stroke-opacity="1" stroke-width="1" d="m 27.206284,32.763087 c 2.673511,0 4.851928,-2.177136 4.851928,-4.849076 0,-2.671939 -2.178417,-4.849075 -4.851928,-4.849075 -2.693315,0 -4.851928,2.177136 -4.851928,4.849075 0,2.67194 2.158613,4.849076 4.851928,4.849076 m 10.29797,-3.50321 2.93096,2.295889 c 0.25745,0.217714 0.336665,0.573972 0.158431,0.890647 l -2.772531,4.789699 c -0.178234,0.296882 -0.514898,0.415635 -0.851563,0.296882 l -3.445859,-1.38545 c -0.712936,0.55418 -1.505088,1.0094 -2.336847,1.365658 l -0.534702,3.661547 c -0.03961,0.336467 -0.336664,0.593765 -0.673329,0.593765 h -5.54506 c -0.356468,0 -0.633722,-0.257298 -0.693133,-0.593765 L 23.225723,37.513202 C 22.37416,37.156944 21.601812,36.701724 20.888876,36.147544 l -3.465664,1.38545 c -0.297057,0.118753 -0.673329,0 -0.831759,-0.296882 l -2.77253,-4.789699 c -0.178234,-0.316675 -0.09902,-0.672933 0.15843,-0.890647 l 2.930961,-2.295889 -0.09902,-1.345866 0.09902,-1.365658 -2.930961,-2.276096 c -0.257449,-0.217714 -0.336664,-0.593765 -0.15843,-0.890647 l 2.77253,-4.789699 c 0.15843,-0.316675 0.534702,-0.435428 0.831759,-0.316675 l 3.465664,1.405243 c 0.712936,-0.55418 1.485284,-1.029192 2.336847,-1.365658 l 0.514898,-3.68134 c 0.05941,-0.316674 0.336665,-0.573972 0.693133,-0.573972 h 5.54506 c 0.336665,0 0.633722,0.257298 0.673329,0.573972 l 0.534702,3.68134 c 0.831759,0.336466 1.623911,0.811478 2.336847,1.365658 l 3.445859,-1.405243 c 0.336665,-0.118753 0.673329,0 0.851563,0.316675 l 2.772531,4.789699 c 0.178234,0.296882 0.09902,0.672933 -0.158431,0.890647 l -2.93096,2.276096 0.09902,1.365658 -0.09902,1.345866 M 8.9669942,12.21884 c 1.7229298,0 3.1091948,-1.385451 3.1091948,-3.1073663 0,-1.721917 -1.386265,-3.127159 -3.1091948,-3.127159 a 3.1289985,3.1271591 0 0 0 -3.1289985,3.127159 c 0,1.7219153 1.4060689,3.1073663 3.1289985,3.1073663 M 15.58146,9.9823277 17.502427,11.446946 c 0.138627,0.138545 0.178234,0.376051 0.05941,0.573972 l -1.782341,3.087575 c -0.09902,0.197921 -0.336665,0.27709 -0.534703,0.197921 l -2.218024,-0.890646 -1.46548,0.870854 -0.376272,2.355266 c -0.03961,0.217713 -0.217842,0.37605 -0.435683,0.37605 H 7.1846532 c -0.2376454,0 -0.4158795,-0.158337 -0.4554871,-0.37605 L 6.4123055,15.286622 4.9072176,14.415768 2.6495858,15.306414 c -0.1782341,0.07917 -0.3960758,0 -0.5148985,-0.197921 L 0.3523464,12.020918 C 0.23352368,11.822997 0.29293504,11.585491 0.45136534,11.446946 L 2.3327252,9.9823277 2.2733142,9.1114737 2.3327252,8.2406187 0.45136534,6.7759997 C 0.29293504,6.6374547 0.23352368,6.3999497 0.3523464,6.2020277 L 2.1346873,3.1144527 C 2.25351,2.9165317 2.4713517,2.8373627 2.6495858,2.9165317 l 2.237828,0.890647 1.5248917,-0.870855 0.3168606,-2.35526503 c 0.039608,-0.217714 0.2178417,-0.376051 0.4554871,-0.376051 h 3.5646828 c 0.217841,0 0.396075,0.158337 0.435683,0.376051 l 0.376272,2.35526503 1.46548,0.870855 2.218024,-0.890647 c 0.198038,-0.07917 0.435684,0 0.534703,0.197921 l 1.782341,3.087575 c 0.118822,0.197922 0.07922,0.435427 -0.05941,0.573972 l -1.920967,1.464619 0.05941,0.870855 z"/></svg>