<svg viewBox="-1 -1 44.976 18.021"><path fill="none" stroke="#1fa385" d="M4.841 3.385c-.444 0-.832.167-1.091.463-.26.277-.37.684-.315 1.128l.925 5.532c.148 1.203 1.221 2.128 2.331 2.128h5.55c1.184 0 2.516-1.036 2.775-2.183l1.961-5.902c.074-.24.019-.592-.11-.814-.204-.222-.519-.352-.926-.352h-11.1m7.4 12.95h-5.55c-2.997 0-5.624-2.33-5.994-5.29l-.925-5.532C-.43 3.94.012 2.46.975 1.387A5.189 5.189 0 014.84-.315h11.1c1.536 0 2.923.648 3.811 1.776.204.278.389.574.537.907a5.763 5.763 0 012.386 0c.148-.333.333-.629.555-.907.87-1.128 2.257-1.776 3.811-1.776h11.1c1.499 0 2.905.63 3.867 1.702.943 1.073 1.387 2.553 1.202 4.052l-.943 5.68c-.352 2.886-2.997 5.217-5.976 5.217h-5.55c-2.886 0-5.698-2.202-6.4-4.995l-1.666-5.014a2.027 2.027 0 00-2.386 0l-1.702 5.143c-.666 2.683-3.46 4.866-6.346 4.866m14.8-12.95c-.407 0-.721.129-.925.351-.148.222-.185.573-.092.943l1.868 5.643c.333 1.277 1.665 2.313 2.85 2.313h5.55c1.09 0 2.182-.925 2.312-2.054l.943-5.68a1.293 1.293 0 00-.314-1.054c-.26-.296-.648-.463-1.092-.463z"/></svg>