<?xml version="1.0" encoding="UTF-8" standalone="no"?>
<svg
   xmlns:dc="http://purl.org/dc/elements/1.1/"
   xmlns:cc="http://creativecommons.org/ns#"
   xmlns:rdf="http://www.w3.org/1999/02/22-rdf-syntax-ns#"
   xmlns:svg="http://www.w3.org/2000/svg"
   xmlns="http://www.w3.org/2000/svg"
   xmlns:sodipodi="http://sodipodi.sourceforge.net/DTD/sodipodi-0.dtd"
   xmlns:inkscape="http://www.inkscape.org/namespaces/inkscape"
   version="1.1"
   width="41"
   height="40.006752"
   viewBox="-1 -1 43 42.006752"
   id="svg4"
   sodipodi:docname="icon-collaboration.svg"
   inkscape:version="0.92.4 (5da689c313, 2019-01-14)">
  <metadata
     id="metadata10">
    <rdf:RDF>
      <cc:Work
         rdf:about="">
        <dc:format>image/svg+xml</dc:format>
        <dc:type
           rdf:resource="http://purl.org/dc/dcmitype/StillImage" />
        <dc:title></dc:title>
      </cc:Work>
    </rdf:RDF>
  </metadata>
  <defs
     id="defs8" />
  <sodipodi:namedview
     pagecolor="#ffffff"
     bordercolor="#666666"
     borderopacity="1"
     objecttolerance="10"
     gridtolerance="10"
     guidetolerance="10"
     inkscape:pageopacity="0"
     inkscape:pageshadow="2"
     inkscape:window-width="1920"
     inkscape:window-height="1027"
     id="namedview6"
     showgrid="false"
     fit-margin-top="0"
     fit-margin-left="0"
     fit-margin-right="0"
     fit-margin-bottom="0"
     inkscape:zoom="9.8333333"
     inkscape:cx="4.9661017"
     inkscape:cy="9.5154896"
     inkscape:window-x="-8"
     inkscape:window-y="-8"
     inkscape:window-maximized="1"
     inkscape:current-layer="svg4" />
  <path
     d="M 20.5,0 A 20.5,20.5 0 0 0 0,20.5 c 0,9.061 5.8835,16.7485 14.022,19.475 1.025,0.164 1.353,-0.4715 1.353,-1.025 0,-0.4715 0,-1.763 0,-3.4645 -5.6785,1.23 -6.888,-2.747 -6.888,-2.747 C 7.544,30.3605 6.2115,29.725 6.2115,29.725 4.346,28.454 6.355,28.495 6.355,28.495 c 2.05,0.1435 3.1365,2.1115 3.1365,2.1115 1.7835,3.116 4.797,2.1935 5.9655,1.7015 0.1845,-1.3325 0.7175,-2.2345 1.2915,-2.747 -4.551,-0.5125 -9.3275,-2.2755 -9.3275,-10.086 0,-2.2755 0.779,-4.1 2.1115,-5.5555 -0.205,-0.5125 -0.9225,-2.6445 0.205,-5.412 0,0 1.722,-0.5535 5.6375,2.091 1.6195,-0.451 3.3825,-0.6765 5.125,-0.6765 1.7425,0 3.5055,0.2255 5.125,0.6765 3.9155,-2.6445 5.6375,-2.091 5.6375,-2.091 1.1275,2.7675 0.41,4.8995 0.205,5.412 1.3325,1.4555 2.1115,3.28 2.1115,5.5555 0,7.831 -4.797,9.553 -9.3685,10.0655 0.738,0.6355 1.4145,1.886 1.4145,3.7925 0,2.747 0,4.961 0,5.617 0,0.5535 0.328,1.2095 1.3735,1.025 C 35.137,37.228 41,29.561 41,20.5 A 20.5,20.5 0 0 0 20.5,0 Z"
     id="path2"
     inkscape:connector-curvature="0"
     style="stroke-width:1;fill:none;stroke:#2eccaa;stroke-opacity:1" />
</svg>
