<?xml version="1.0" encoding="UTF-8" standalone="no"?>
<svg
   xmlns:dc="http://purl.org/dc/elements/1.1/"
   xmlns:cc="http://creativecommons.org/ns#"
   xmlns:rdf="http://www.w3.org/1999/02/22-rdf-syntax-ns#"
   xmlns:svg="http://www.w3.org/2000/svg"
   xmlns="http://www.w3.org/2000/svg"
   xmlns:sodipodi="http://sodipodi.sourceforge.net/DTD/sodipodi-0.dtd"
   xmlns:inkscape="http://www.inkscape.org/namespaces/inkscape"
   version="1.1"
   width="38"
   height="45"
   viewBox="-1 -1 39.998747 46.957703"
   id="svg4"
   sodipodi:docname="icon-control.svg"
   inkscape:version="0.92.4 (5da689c313, 2019-01-14)">
  <metadata
     id="metadata10">
    <rdf:RDF>
      <cc:Work
         rdf:about="">
        <dc:format>image/svg+xml</dc:format>
        <dc:type
           rdf:resource="http://purl.org/dc/dcmitype/StillImage" />
        <dc:title></dc:title>
      </cc:Work>
    </rdf:RDF>
  </metadata>
  <defs
     id="defs8" />
  <sodipodi:namedview
     pagecolor="#ffffff"
     bordercolor="#666666"
     borderopacity="1"
     objecttolerance="10"
     gridtolerance="10"
     guidetolerance="10"
     inkscape:pageopacity="0"
     inkscape:pageshadow="2"
     inkscape:window-width="1920"
     inkscape:window-height="1173"
     id="namedview6"
     showgrid="false"
     fit-margin-top="0"
     fit-margin-left="0"
     fit-margin-right="0"
     fit-margin-bottom="0"
     inkscape:zoom="9.8333333"
     inkscape:cx="-19.940678"
     inkscape:cy="11.107752"
     inkscape:window-x="0"
     inkscape:window-y="27"
     inkscape:window-maximized="1"
     inkscape:current-layer="svg4" />
  <path
     d="M 18.999373,-0.04995424 0.4874605,8.1319378 V 20.404775 c 0,11.352375 7.8984161,21.968379 18.5119125,24.545675 10.613496,-2.577296 18.511913,-13.1933 18.511913,-24.545675 V 8.1319378 L 18.999373,-0.04995424 m 0,8.18189204 a 6.1706376,6.1364187 0 0 1 6.170637,6.1364182 6.1706376,6.1364187 0 0 1 -6.170637,6.136419 6.1706376,6.1364187 0 0 1 -6.170638,-6.136419 6.1706376,6.1364187 0 0 1 6.170638,-6.1364182 m 10.55179,24.5456752 c -2.488824,3.784124 -6.211775,6.627332 -10.55179,8.018253 C 14.659358,39.304945 10.936406,36.461737 8.447583,32.677613 7.7482441,31.654876 7.1517491,30.63214 6.6580981,29.548039 c 0,-3.37503 5.5741419,-6.136419 12.3412749,-6.136419 6.767132,0 12.341275,2.700025 12.341275,6.136419 -0.493651,1.084101 -1.090146,2.106837 -1.789485,3.129574 z"
     id="path2"
     inkscape:connector-curvature="0"
     style="fill:none;stroke:#1fa385;stroke-width:1;stroke-opacity:1" />
</svg>
