<svg xmlns="http://www.w3.org/2000/svg" xmlns:svg="http://www.w3.org/2000/svg" id="svg4" width="38" height="45" version="1.1" viewBox="-1 -1 39.999 46.958"><metadata id="metadata10"/><path id="path2" fill="none" stroke="#1fa385" stroke-opacity="1" stroke-width="1" d="M 18.999373,-0.04995424 0.4874605,8.1319378 V 20.404775 c 0,11.352375 7.8984161,21.968379 18.5119125,24.545675 10.613496,-2.577296 18.511913,-13.1933 18.511913,-24.545675 V 8.1319378 L 18.999373,-0.04995424 m 0,8.18189204 a 6.1706376,6.1364187 0 0 1 6.170637,6.1364182 6.1706376,6.1364187 0 0 1 -6.170637,6.136419 6.1706376,6.1364187 0 0 1 -6.170638,-6.136419 6.1706376,6.1364187 0 0 1 6.170638,-6.1364182 m 10.55179,24.5456752 c -2.488824,3.784124 -6.211775,6.627332 -10.55179,8.018253 C 14.659358,39.304945 10.936406,36.461737 8.447583,32.677613 7.7482441,31.654876 7.1517491,30.63214 6.6580981,29.548039 c 0,-3.37503 5.5741419,-6.136419 12.3412749,-6.136419 6.767132,0 12.341275,2.700025 12.341275,6.136419 -0.493651,1.084101 -1.090146,2.106837 -1.789485,3.129574 z"/></svg>