<svg xmlns="http://www.w3.org/2000/svg" xmlns:svg="http://www.w3.org/2000/svg" id="svg4" width="41" height="29" version="1.1" viewBox="-1 -1 42.979 31"><metadata id="metadata10"/><path id="path2" fill="none" stroke="#1fa385" stroke-opacity="1" stroke-width="1" d="M 14.275369,0 A 14.5,14.5 0 0 0 -0.22463075,14.5 14.5,14.5 0 0 0 14.275369,29 c 2.154286,0 4.267143,-0.497142 6.214286,-1.408571 C 22.436798,28.502858 24.549655,29 26.703941,29 A 14.5,14.5 0 0 0 41.203942,14.5 14.5,14.5 0 0 0 26.703942,0 C 24.549655,0 22.436798,0.4971429 20.489655,1.4085714 18.542512,0.4971429 16.429655,0 14.275369,0 m 0,4.1428572 c 0.704286,0 1.387858,0.062143 2.07143,0.2071429 C 13.695369,7.0635715 12.203942,10.709286 12.203942,14.5 c 0,3.790714 1.491428,7.436429 4.142857,10.129286 -0.683572,0.145 -1.367143,0.227857 -2.071429,0.227857 A 10.357143,10.357143 0 0 1 3.9182265,14.5 10.357143,10.357143 0 0 1 14.275369,4.1428572 m 12.428573,0 A 10.357143,10.357143 0 0 1 37.061085,14.5 10.357143,10.357143 0 0 1 26.703941,24.857143 c -0.704286,0 -1.387857,-0.06214 -2.071429,-0.207143 2.651429,-2.713571 4.142857,-6.359286 4.142857,-10.15 0,-3.790714 -1.491428,-7.4364285 -4.142857,-10.1292857 0.683573,-0.145 1.367143,-0.2278571 2.07143,-0.2278571 z"/></svg>