<?xml version="1.0" encoding="UTF-8" standalone="no"?>
<svg
   xmlns:dc="http://purl.org/dc/elements/1.1/"
   xmlns:cc="http://creativecommons.org/ns#"
   xmlns:rdf="http://www.w3.org/1999/02/22-rdf-syntax-ns#"
   xmlns:svg="http://www.w3.org/2000/svg"
   xmlns="http://www.w3.org/2000/svg"
   xmlns:sodipodi="http://sodipodi.sourceforge.net/DTD/sodipodi-0.dtd"
   xmlns:inkscape="http://www.inkscape.org/namespaces/inkscape"
   version="1.1"
   width="54"
   height="54"
   viewBox="-1 -1 56 56"
   id="svg4"
   sodipodi:docname="iocn-call.svg"
   inkscape:version="0.92.4 (5da689c313, 2019-01-14)">
  <metadata
     id="metadata10">
    <rdf:RDF>
      <cc:Work
         rdf:about="">
        <dc:format>image/svg+xml</dc:format>
        <dc:type
           rdf:resource="http://purl.org/dc/dcmitype/StillImage" />
        <dc:title></dc:title>
      </cc:Work>
    </rdf:RDF>
  </metadata>
  <defs
     id="defs8" />
  <sodipodi:namedview
     pagecolor="#ffffff"
     bordercolor="#666666"
     borderopacity="1"
     objecttolerance="10"
     gridtolerance="10"
     guidetolerance="10"
     inkscape:pageopacity="0"
     inkscape:pageshadow="2"
     inkscape:window-width="1920"
     inkscape:window-height="1027"
     id="namedview6"
     showgrid="false"
     fit-margin-top="0"
     fit-margin-left="0"
     fit-margin-right="0"
     fit-margin-bottom="0"
     inkscape:zoom="9.8333333"
     inkscape:cx="3.9661017"
     inkscape:cy="21.20339"
     inkscape:window-x="-8"
     inkscape:window-y="-8"
     inkscape:window-maximized="1"
     inkscape:current-layer="svg4" />
  <path
     d="m 36,27 h 6 A 15,15 0 0 0 27,12 v 6 a 9,9 0 0 1 9,9 m 12,0 h 6 C 54,12 41.91,0 27,0 v 6 c 11.58,0 21,9.39 21,21 m 3,10.5 c -3.75,0 -7.35,-0.6 -10.71,-1.71 -1.05,-0.33 -2.22,-0.09 -3.06,0.75 l -6.6,6.6 C 22.14,38.82 15.18,31.86 10.86,23.37 l 6.6,-6.6 C 18.3,15.93 18.54,14.76 18.21,13.71 17.1,10.35 16.5,6.75 16.5,3 a 3,3 0 0 0 -3,-3 H 3 A 3,3 0 0 0 0,3 51,51 0 0 0 51,54 3,3 0 0 0 54,51 V 40.5 a 3,3 0 0 0 -3,-3 z"
     id="path2"
     inkscape:connector-curvature="0"
     style="stroke-width:1;fill:#1fa385;fill-opacity:1" />
</svg>
