<svg xmlns="http://www.w3.org/2000/svg" xmlns:svg="http://www.w3.org/2000/svg" id="svg4" width="41" height="41" version="1.1" viewBox="-1 -1 43 43"><metadata id="metadata10"/><path id="path2" fill="none" stroke="#1fa385" stroke-opacity="1" stroke-width="1" d="m 36.4695,27.4905 c 1.9475,-4.4485 1.9475,-9.553 0,-13.981 l -5.617,2.542 c 1.23,2.829 1.23,6.0475 0.0205,8.897 l 5.5965,2.542 M 27.511,4.5305 c -4.4485,-1.9475 -9.553,-1.9475 -14.0015,0 l 2.542,5.5965 c 2.8495,-1.2095 6.068,-1.2095 8.9175,0.0205 l 2.542,-5.617 M 4.5305,13.489 c -1.9475,4.469 -1.9475,9.553 0,14.022 l 5.617,-2.5625 c -1.23,-2.829 -1.23,-6.068 0,-8.9175 l -5.617,-2.542 m 8.979,22.9805 c 4.4485,1.9475 9.553,1.9475 14.0015,-0.0205 l -2.542,-5.5965 c -2.829,1.23 -6.068,1.23 -8.897,0.0205 l -2.5625,5.5965 M 20.5,0 A 20.5,20.5 0 0 1 41,20.5 20.5,20.5 0 0 1 20.5,41 20.5,20.5 0 0 1 0,20.5 20.5,20.5 0 0 1 20.5,0 m 0,12.3 a 8.2,8.2 0 0 0 -8.2,8.2 8.2,8.2 0 0 0 8.2,8.2 8.2,8.2 0 0 0 8.2,-8.2 8.2,8.2 0 0 0 -8.2,-8.2 z"/></svg>