<?xml version="1.0" encoding="UTF-8" standalone="no"?>
<svg
   xmlns:dc="http://purl.org/dc/elements/1.1/"
   xmlns:cc="http://creativecommons.org/ns#"
   xmlns:rdf="http://www.w3.org/1999/02/22-rdf-syntax-ns#"
   xmlns:svg="http://www.w3.org/2000/svg"
   xmlns="http://www.w3.org/2000/svg"
   xmlns:sodipodi="http://sodipodi.sourceforge.net/DTD/sodipodi-0.dtd"
   xmlns:inkscape="http://www.inkscape.org/namespaces/inkscape"
   version="1.1"
   width="44.593853"
   height="35.109833"
   viewBox="-1 -1 46.593853 37.109833"
   id="svg4"
   sodipodi:docname="icon-glossary.svg"
   inkscape:version="0.92.4 (5da689c313, 2019-01-14)">
  <metadata
     id="metadata10">
    <rdf:RDF>
      <cc:Work
         rdf:about="">
        <dc:format>image/svg+xml</dc:format>
        <dc:type
           rdf:resource="http://purl.org/dc/dcmitype/StillImage" />
        <dc:title></dc:title>
      </cc:Work>
    </rdf:RDF>
  </metadata>
  <defs
     id="defs8" />
  <sodipodi:namedview
     pagecolor="#ffffff"
     bordercolor="#666666"
     borderopacity="1"
     objecttolerance="10"
     gridtolerance="10"
     guidetolerance="10"
     inkscape:pageopacity="0"
     inkscape:pageshadow="2"
     inkscape:window-width="1920"
     inkscape:window-height="1027"
     id="namedview6"
     showgrid="false"
     fit-margin-top="0"
     fit-margin-left="0"
     fit-margin-right="0"
     fit-margin-bottom="0"
     inkscape:zoom="9.8333333"
     inkscape:cx="-15.90678"
     inkscape:cy="10.10935"
     inkscape:window-x="-8"
     inkscape:window-y="-8"
     inkscape:window-maximized="1"
     inkscape:current-layer="svg4" />
  <path
     d="M 40.130776,1.500014 C 37.931268,0.800004 35.513791,0.5 33.19539,0.5 29.33139,0.5 25.170158,1.300011 22.296927,3.500043 19.423696,1.300011 15.262464,0.5 11.398463,0.5 7.5344627,0.5 3.3732313,1.300011 0.5,3.500043 v 29.300416 c 0,0.500007 0.4953847,1.000014 0.9907694,1.000014 0.1981539,0 0.2972308,-0.100002 0.4953847,-0.100002 2.6750774,-1.300018 6.539078,-2.200031 9.4123089,-2.200031 3.864001,0 8.025233,0.800012 10.898464,3.000043 2.675077,-1.700024 7.529847,-3.000043 10.898463,-3.000043 3.269539,0 6.638155,0.600009 9.41231,2.10003 0.198153,0.100001 0.29723,0.100001 0.495384,0.100001 0.495385,0 0.99077,-0.500007 0.99077,-1.000014 V 3.500043 C 42.90493,2.60003 41.61693,2.000021 40.130776,1.500014 m 0,27.000384 c -2.179693,-0.70001 -4.557539,-1.000015 -6.935386,-1.000015 -3.368616,0 -8.223386,1.300019 -10.898463,3.000043 V 7.500099 c 2.675077,-1.700024 7.529847,-3.000042 10.898463,-3.000042 2.377847,0 4.755693,0.300004 6.935386,1.000014 z"
     id="path2"
     inkscape:connector-curvature="0"
     style="fill:none;stroke:#1fa385;stroke-width:1;stroke-opacity:1" />
</svg>
