<svg xmlns="http://www.w3.org/2000/svg" xmlns:svg="http://www.w3.org/2000/svg" id="svg4" width="40" height="35" version="1.1" viewBox="-1 -1 41.966 37.01"><metadata id="metadata10"/><path id="path2" fill="none" stroke="#2eccaa" stroke-opacity="1" stroke-width="1" d="m 36.795581,17.908255 2.83588,2.871926 -13.227353,13.422689 -7.02893,-7.128894 2.835879,-2.871926 4.193051,4.2366 10.391473,-10.530395 m -22.484474,9.165721 6.076885,6.11048 H 0.13170873 v -4.073653 c 0,-4.501388 7.25174927,-8.147308 16.20502627,-8.147308 l 3.828438,0.224051 -5.854066,5.88643 M 16.336735,0.59522565 A 8.1025132,8.1473076 0 0 1 24.439249,8.7425333 8.1025132,8.1473076 0 0 1 16.336735,16.889841 8.1025132,8.1473076 0 0 1 8.2342219,8.7425333 8.1025132,8.1473076 0 0 1 16.336735,0.59522565 Z"/></svg>