<svg width="34" height="38" viewBox="0 0 34 38" xmlns="http://www.w3.org/2000/svg"><path transform="translate(0 1)" d="m5 13.32-3.84 5.06c-.48.62 0 1.62.84 1.62h3v6c0 2.22 1.78 4 4 4h2v6h14v-9.38c4.74-2.24 8-7.02 8-12.62 0-7.72-6.24-14-14-14-7.54 0-13.62 5.9-14 13.32zm14 7.68c-4.42 0-8-3.58-8-8 0-1.64.5-3.16 1.34-4.42l2.18 2.18c-.34.68-.52 1.44-.52 2.24 0 2.76 2.24 5 5 5v-3l4.5 4.5-4.5 4.5zm6.66-3.58-2.18-2.18c.34-.68.52-1.44.52-2.24 0-2.76-2.24-5-5-5v3l-4.5-4.5 4.5-4.5v3c4.42 0 8 3.58 8 8 0 1.64-.5 3.16-1.34 4.42z" fill="none" stroke="#1fa385"/></svg>