<svg viewBox="0 0 20.92 17"><path fill="#fff" d="M20.92 2c-.77.35-1.6.58-2.46.69.88-.53 1.56-1.37 1.88-2.38-.83.5-1.75.85-2.72 1.05C16.83.5 15.72 0 14.46 0c-2.35 0-4.27 1.92-4.27 4.29 0 .34.04.67.11.98C6.74 5.09 3.57 3.38 1.46.79c-.37.63-.58 1.37-.58 2.15 0 1.49.75 2.81 1.91 3.56-.71 0-1.37-.2-1.95-.5v.03c0 2.08 1.48 3.82 3.44 4.21a4.22 4.22 0 01-1.93.07 4.28 4.28 0 004 2.98 8.521 8.521 0 01-5.33 1.84c-.34 0-.68-.02-1.02-.06C1.9 16.29 4.16 17 6.58 17c7.88 0 12.21-6.54 12.21-12.21 0-.19 0-.37-.01-.56.84-.6 1.56-1.36 2.14-2.23z"/></svg>