<svg xmlns="http://www.w3.org/2000/svg" xmlns:svg="http://www.w3.org/2000/svg" id="svg4" width="33" height="41" version="1.1" viewBox="-1 -1 33 43"><metadata id="metadata10"/><path id="path2" fill="none" stroke="#1fa385" stroke-opacity="1" stroke-width="1" d="m 17.55,24.6 c -6.888,0 -9.143,2.7675 -9.881,4.592 2.1935,0.943 3.731,3.116 3.731,5.658 A 6.15,6.15 0 0 1 5.25,41 6.15,6.15 0 0 1 -0.9,34.85 c 0,-2.6855 1.7015,-4.961 4.1,-5.8015 V 11.9515 C 0.8015,11.111 -0.9,8.8355 -0.9,6.15 A 6.15,6.15 0 0 1 5.25,0 6.15,6.15 0 0 1 11.4,6.15 c 0,2.6855 -1.7015,4.961 -4.1,5.8015 V 22.796 c 1.804,-1.3325 4.428,-2.296 8.2,-2.296 5.4735,0 7.298,-2.747 7.8925,-4.5715 C 21.1785,15.006 19.6,12.8125 19.6,10.25 a 6.15,6.15 0 0 1 6.15,-6.15 6.15,6.15 0 0 1 6.15,6.15 c 0,2.747 -1.804,5.125 -4.2845,5.863 C 27.0825,19.0445 25.094,24.6 17.55,24.6 M 5.25,32.8 A 2.05,2.05 0 0 0 3.2,34.85 2.05,2.05 0 0 0 5.25,36.9 2.05,2.05 0 0 0 7.3,34.85 2.05,2.05 0 0 0 5.25,32.8 m 0,-28.7 A 2.05,2.05 0 0 0 3.2,6.15 2.05,2.05 0 0 0 5.25,8.2 2.05,2.05 0 0 0 7.3,6.15 2.05,2.05 0 0 0 5.25,4.1 m 20.5,4.1 A 2.05,2.05 0 0 0 23.7,10.25 2.05,2.05 0 0 0 25.75,12.3 2.05,2.05 0 0 0 27.8,10.25 2.05,2.05 0 0 0 25.75,8.2 Z"/></svg>