<?xml version="1.0" encoding="UTF-8" standalone="no"?>
<svg
   xmlns:dc="http://purl.org/dc/elements/1.1/"
   xmlns:cc="http://creativecommons.org/ns#"
   xmlns:rdf="http://www.w3.org/1999/02/22-rdf-syntax-ns#"
   xmlns:svg="http://www.w3.org/2000/svg"
   xmlns="http://www.w3.org/2000/svg"
   xmlns:sodipodi="http://sodipodi.sourceforge.net/DTD/sodipodi-0.dtd"
   xmlns:inkscape="http://www.inkscape.org/namespaces/inkscape"
   version="1.1"
   width="41.396931"
   height="42.563507"
   viewBox="-1 -1 43.39693 44.563507"
   id="svg4"
   sodipodi:docname="icon-localization.svg"
   inkscape:version="0.92.4 (5da689c313, 2019-01-14)">
  <metadata
     id="metadata10">
    <rdf:RDF>
      <cc:Work
         rdf:about="">
        <dc:format>image/svg+xml</dc:format>
        <dc:type
           rdf:resource="http://purl.org/dc/dcmitype/StillImage" />
        <dc:title></dc:title>
      </cc:Work>
    </rdf:RDF>
  </metadata>
  <defs
     id="defs8" />
  <sodipodi:namedview
     pagecolor="#ffffff"
     bordercolor="#666666"
     borderopacity="1"
     objecttolerance="10"
     gridtolerance="10"
     guidetolerance="10"
     inkscape:pageopacity="0"
     inkscape:pageshadow="2"
     inkscape:window-width="1920"
     inkscape:window-height="1027"
     id="namedview6"
     showgrid="false"
     fit-margin-top="0"
     fit-margin-left="0"
     fit-margin-right="0"
     fit-margin-bottom="0"
     inkscape:zoom="9.8333333"
     inkscape:cx="-17.217433"
     inkscape:cy="11.499999"
     inkscape:window-x="-8"
     inkscape:window-y="-8"
     inkscape:window-maximized="1"
     inkscape:current-layer="svg4" />
  <path
     d="m 27.414338,33.05808 c 2.673511,0 4.851928,-2.177136 4.851928,-4.849076 0,-2.671939 -2.178417,-4.849075 -4.851928,-4.849075 -2.693315,0 -4.851928,2.177136 -4.851928,4.849075 0,2.67194 2.158613,4.849076 4.851928,4.849076 m 10.29797,-3.50321 2.93096,2.295889 c 0.25745,0.217714 0.336665,0.573972 0.158431,0.890647 l -2.772531,4.789699 c -0.178234,0.296882 -0.514898,0.415635 -0.851563,0.296882 l -3.445859,-1.38545 c -0.712936,0.55418 -1.505088,1.0094 -2.336847,1.365658 l -0.534702,3.661547 c -0.03961,0.336467 -0.336664,0.593765 -0.673329,0.593765 h -5.54506 c -0.356468,0 -0.633722,-0.257298 -0.693133,-0.593765 L 23.433777,37.808195 C 22.582214,37.451937 21.809866,36.996717 21.09693,36.442537 l -3.465664,1.38545 c -0.297057,0.118753 -0.673329,0 -0.831759,-0.296882 l -2.77253,-4.789699 c -0.178234,-0.316675 -0.09902,-0.672933 0.15843,-0.890647 l 2.930961,-2.295889 -0.09902,-1.345866 0.09902,-1.365658 -2.930961,-2.276096 c -0.257449,-0.217714 -0.336664,-0.593765 -0.15843,-0.890647 l 2.77253,-4.789699 c 0.15843,-0.316675 0.534702,-0.435428 0.831759,-0.316675 l 3.465664,1.405243 c 0.712936,-0.55418 1.485284,-1.029192 2.336847,-1.365658 l 0.514898,-3.68134 c 0.05941,-0.316674 0.336665,-0.573972 0.693133,-0.573972 h 5.54506 c 0.336665,0 0.633722,0.257298 0.673329,0.573972 l 0.534702,3.68134 c 0.831759,0.336466 1.623911,0.811478 2.336847,1.365658 l 3.445859,-1.405243 c 0.336665,-0.118753 0.673329,0 0.851563,0.316675 l 2.772531,4.789699 c 0.178234,0.296882 0.09902,0.672933 -0.158431,0.890647 l -2.93096,2.276096 0.09902,1.365658 -0.09902,1.345866 M 9.1750484,12.513833 c 1.7229296,0 3.1091946,-1.385451 3.1091946,-3.107367 0,-1.721917 -1.386265,-3.127159 -3.1091946,-3.127159 A 3.1289985,3.1271591 0 0 0 6.0460499,9.406466 c 0,1.721916 1.4060689,3.107367 3.1289985,3.107367 m 6.6144656,-2.236513 1.920967,1.464619 c 0.138627,0.138545 0.178234,0.376051 0.05941,0.573972 l -1.782341,3.087575 c -0.09902,0.197921 -0.336665,0.27709 -0.534703,0.197921 l -2.218024,-0.890646 -1.46548,0.870854 -0.376272,2.355266 c -0.03961,0.217713 -0.217842,0.37605 -0.435683,0.37605 H 7.3927074 c -0.2376454,0 -0.4158795,-0.158337 -0.4554871,-0.37605 L 6.6203597,15.581615 5.1152718,14.710761 2.85764,15.601407 c -0.1782341,0.07917 -0.3960758,0 -0.5148985,-0.197921 L 0.56040061,12.315911 C 0.44157789,12.11799 0.50098925,11.880484 0.65941955,11.741939 L 2.5407794,10.27732 2.4813684,9.406466 2.5407794,8.535611 0.65941955,7.070992 C 0.50098925,6.932447 0.44157789,6.694942 0.56040061,6.49702 L 2.3427415,3.409445 C 2.4615642,3.211524 2.6794059,3.132355 2.85764,3.211524 L 5.095468,4.102171 6.6203597,3.231316 6.9372203,0.876051 C 6.9768283,0.658337 7.155062,0.5 7.3927074,0.5 H 10.95739 c 0.217841,0 0.396075,0.158337 0.435683,0.376051 l 0.376272,2.355265 1.46548,0.870855 2.218024,-0.890647 c 0.198038,-0.07917 0.435684,0 0.534703,0.197921 l 1.782341,3.087575 c 0.118822,0.197922 0.07922,0.435427 -0.05941,0.573972 l -1.920967,1.464619 0.05941,0.870855 z"
     id="path2"
     inkscape:connector-curvature="0"
     style="fill:none;fill-opacity:1;stroke:#2eccaa;stroke-width:1;stroke-opacity:1" />
</svg>
