<?xml version="1.0" encoding="UTF-8" standalone="no"?>
<svg
   xmlns:dc="http://purl.org/dc/elements/1.1/"
   xmlns:cc="http://creativecommons.org/ns#"
   xmlns:rdf="http://www.w3.org/1999/02/22-rdf-syntax-ns#"
   xmlns:svg="http://www.w3.org/2000/svg"
   xmlns="http://www.w3.org/2000/svg"
   xmlns:sodipodi="http://sodipodi.sourceforge.net/DTD/sodipodi-0.dtd"
   xmlns:inkscape="http://www.inkscape.org/namespaces/inkscape"
   version="1.1"
   width="43.528"
   height="16.65011"
   viewBox="-1 -1 44.528 17.65011"
   id="svg4"
   sodipodi:docname="icon-reviews.svg"
   inkscape:version="0.92.4 (5da689c313, 2019-01-14)">
  <metadata
     id="metadata10">
    <rdf:RDF>
      <cc:Work
         rdf:about="">
        <dc:format>image/svg+xml</dc:format>
        <dc:type
           rdf:resource="http://purl.org/dc/dcmitype/StillImage" />
        <dc:title></dc:title>
      </cc:Work>
    </rdf:RDF>
  </metadata>
  <defs
     id="defs8" />
  <sodipodi:namedview
     pagecolor="#ffffff"
     bordercolor="#666666"
     borderopacity="1"
     objecttolerance="10"
     gridtolerance="10"
     guidetolerance="10"
     inkscape:pageopacity="0"
     inkscape:pageshadow="2"
     inkscape:window-width="1920"
     inkscape:window-height="1027"
     id="namedview6"
     showgrid="false"
     fit-margin-top="0"
     fit-margin-left="0"
     fit-margin-right="0"
     fit-margin-bottom="0"
     inkscape:zoom="9.8333333"
     inkscape:cx="6.7323085"
     inkscape:cy="5.0000001"
     inkscape:window-x="-8"
     inkscape:window-y="-8"
     inkscape:window-maximized="1"
     inkscape:current-layer="svg4" />
  <path
     d="m 5.1175163,3.7000244 c -0.4440029,0 -0.8325055,0.1665011 -1.0915072,0.4625031 C 3.7670074,4.4400293 3.6560067,4.847032 3.7115071,5.2910349 l 0.9250061,5.5315361 c 0.1480009,1.202508 1.221008,2.127514 2.3310153,2.127514 h 5.5500365 c 1.184008,0 2.516017,-1.036006 2.775018,-2.183014 l 1.961013,-5.9015389 c 0.074,-0.2405016 0.0185,-0.5920039 -0.111,-0.8140054 C 16.939094,3.8295253 16.624592,3.7000244 16.21759,3.7000244 H 5.1175163 M 12.517565,16.65011 H 6.9675285 c -2.9970197,0 -5.624037,-2.331016 -5.99403947,-5.291035 L 0.04848293,5.8275384 C -0.15501842,4.2550281 0.28898451,2.7750183 1.2509909,1.7020112 2.2129972,0.6290041 3.6190064,0 5.1175163,0 H 16.21759 c 1.53551,0 2.923019,0.6475043 3.811025,1.7760117 0.203501,0.2775018 0.388503,0.5735038 0.536504,0.906506 0.795505,-0.1665011 1.60951,-0.1665011 2.386515,0 0.148001,-0.3330022 0.333003,-0.6290042 0.555004,-0.906506 C 24.376144,0.6475043 25.763653,0 27.317663,0 h 11.100073 c 1.49851,0 2.904519,0.6290041 3.866526,1.7020112 0.943506,1.0730071 1.387509,2.5530169 1.202508,4.0515267 l -0.943506,5.6795371 c -0.351503,2.886019 -2.99702,5.217035 -5.97554,5.217035 h -5.550037 c -2.886019,0 -5.698037,-2.201515 -6.401042,-4.995033 L 22.951634,6.6415438 c -0.703004,-0.5180034 -1.683511,-0.5180034 -2.386515,0 l -1.702012,5.1430342 c -0.666004,2.682517 -3.459523,4.865532 -6.345542,4.865532 M 27.317663,3.7000244 c -0.407003,0 -0.721505,0.1295009 -0.925006,0.3515023 -0.148001,0.2220015 -0.185001,0.5735038 -0.0925,0.9435062 L 28.16867,10.63757 c 0.333002,1.276509 1.665011,2.312515 2.849018,2.312515 h 5.550037 c 1.091507,0 2.183014,-0.925006 2.312515,-2.053513 L 39.823747,5.2170344 C 39.879247,4.847032 39.768247,4.4400293 39.509244,4.1625275 39.250243,3.8665255 38.86174,3.7000244 38.417737,3.7000244 Z"
     id="path2"
     inkscape:connector-curvature="0"
     style="stroke-width:1;fill:none;stroke:#1fa385;stroke-opacity:1" />
</svg>
