<?xml version="1.0" encoding="UTF-8" standalone="no"?>
<svg
   xmlns:dc="http://purl.org/dc/elements/1.1/"
   xmlns:cc="http://creativecommons.org/ns#"
   xmlns:rdf="http://www.w3.org/1999/02/22-rdf-syntax-ns#"
   xmlns:svg="http://www.w3.org/2000/svg"
   xmlns="http://www.w3.org/2000/svg"
   xmlns:sodipodi="http://sodipodi.sourceforge.net/DTD/sodipodi-0.dtd"
   xmlns:inkscape="http://www.inkscape.org/namespaces/inkscape"
   version="1.1"
   width="20"
   height="19.5"
   viewBox="-1 -1 22 21.498413"
   id="svg4"
   sodipodi:docname="icon-github.svg"
   inkscape:version="0.92.4 (5da689c313, 2019-01-14)">
  <metadata
     id="metadata10">
    <rdf:RDF>
      <cc:Work
         rdf:about="">
        <dc:format>image/svg+xml</dc:format>
        <dc:type
           rdf:resource="http://purl.org/dc/dcmitype/StillImage" />
        <dc:title></dc:title>
      </cc:Work>
    </rdf:RDF>
  </metadata>
  <defs
     id="defs8" />
  <sodipodi:namedview
     pagecolor="#ffffff"
     bordercolor="#666666"
     borderopacity="1"
     objecttolerance="10"
     gridtolerance="10"
     guidetolerance="10"
     inkscape:pageopacity="0"
     inkscape:pageshadow="2"
     inkscape:window-width="1920"
     inkscape:window-height="1173"
     id="namedview6"
     showgrid="false"
     fit-margin-top="0"
     fit-margin-left="0"
     fit-margin-right="0"
     fit-margin-bottom="0"
     inkscape:zoom="39.333333"
     inkscape:cx="4.486337"
     inkscape:cy="9.9195393"
     inkscape:window-x="0"
     inkscape:window-y="27"
     inkscape:window-maximized="1"
     inkscape:current-layer="svg4"
     inkscape:pagecheckerboard="true" />
  <path
     d="M 9.9999999,-1.0675386 A 11.08529,11.08529 0 0 0 -1.0852908,10.017754 c 0,4.899698 3.1814785,9.056682 7.5823391,10.531027 0.5542645,0.0887 0.7316291,-0.254963 0.7316291,-0.554265 0,-0.254961 0,-0.953336 0,-1.873415 C 4.1580519,18.786219 3.5040198,16.635672 3.5040198,16.635672 2.9940963,15.349777 2.2735523,15.006135 2.2735523,15.006135 c -1.0087614,-0.687289 0.077596,-0.665119 0.077596,-0.665119 1.1085293,0.0776 1.6960496,1.141785 1.6960496,1.141785 0.9644202,1.684965 2.5939582,1.186128 3.2258197,0.920079 0.099769,-0.720542 0.3879855,-1.208295 0.6983736,-1.485428 -2.4609343,-0.277131 -5.0438069,-1.230467 -5.0438069,-5.4539644 0,-1.2304673 0.4212411,-2.2170581 1.1417849,-3.0041138 -0.1108526,-0.2771321 -0.498838,-1.4300026 0.1108533,-2.9265167 0,0 0.9311642,-0.299303 3.0484548,1.1306995 0.8757381,-0.2438763 1.829073,-0.3658146 2.7713223,-0.3658146 0.9422504,0 1.8955844,0.1219383 2.7713224,0.3658146 2.11729,-1.4300025 3.048455,-1.1306995 3.048455,-1.1306995 0.609692,1.4965141 0.221706,2.6493846 0.110854,2.9265167 0.720543,0.7870557 1.141784,1.7736465 1.141784,3.0041138 0,4.2345814 -2.593958,5.1657454 -5.065979,5.4428784 0.399072,0.343645 0.764886,1.019847 0.764886,2.050781 0,1.485429 0,2.682638 0,3.037369 0,0.299302 0.177366,0.654031 0.742715,0.554265 4.40086,-1.485431 7.571254,-5.631329 7.571254,-10.531027 A 11.08529,11.08529 0 0 0 9.9999999,-1.0675386 Z"
     id="path2"
     inkscape:connector-curvature="0"
     style="fill:#ffffff;stroke-width:1.10852909" />
</svg>
