<?xml version="1.0" encoding="UTF-8" standalone="no"?>
<svg
   xmlns:dc="http://purl.org/dc/elements/1.1/"
   xmlns:cc="http://creativecommons.org/ns#"
   xmlns:rdf="http://www.w3.org/1999/02/22-rdf-syntax-ns#"
   xmlns:svg="http://www.w3.org/2000/svg"
   xmlns="http://www.w3.org/2000/svg"
   xmlns:sodipodi="http://sodipodi.sourceforge.net/DTD/sodipodi-0.dtd"
   xmlns:inkscape="http://www.inkscape.org/namespaces/inkscape"
   version="1.1"
   width="38.023827"
   height="45.97226"
   viewBox="-1 -1 40.023827 47.97226"
   id="svg4"
   sodipodi:docname="icon-control.svg"
   inkscape:version="0.92.4 (5da689c313, 2019-01-14)">
  <metadata
     id="metadata10">
    <rdf:RDF>
      <cc:Work
         rdf:about="">
        <dc:format>image/svg+xml</dc:format>
        <dc:type
           rdf:resource="http://purl.org/dc/dcmitype/StillImage" />
        <dc:title></dc:title>
      </cc:Work>
    </rdf:RDF>
  </metadata>
  <defs
     id="defs8" />
  <sodipodi:namedview
     pagecolor="#ffffff"
     bordercolor="#666666"
     borderopacity="1"
     objecttolerance="10"
     gridtolerance="10"
     guidetolerance="10"
     inkscape:pageopacity="0"
     inkscape:pageshadow="2"
     inkscape:window-width="1920"
     inkscape:window-height="1027"
     id="namedview6"
     showgrid="false"
     fit-margin-top="0"
     fit-margin-left="0"
     fit-margin-right="0"
     fit-margin-bottom="0"
     inkscape:zoom="9.8333333"
     inkscape:cx="4.4661017"
     inkscape:cy="11.514532"
     inkscape:window-x="-8"
     inkscape:window-y="-8"
     inkscape:window-maximized="1"
     inkscape:current-layer="svg4" />
  <path
     d="M 19.011913,0.45732312 0.5,8.6392151 V 20.912052 c 0,11.352375 7.8984161,21.968379 18.511913,24.545675 10.613496,-2.577296 18.511913,-13.1933 18.511913,-24.545675 V 8.6392151 L 19.011913,0.45732312 m 0,8.18189198 a 6.1706376,6.1364187 0 0 1 6.170637,6.1364179 6.1706376,6.1364187 0 0 1 -6.170637,6.136419 6.1706376,6.1364187 0 0 1 -6.170638,-6.136419 6.1706376,6.1364187 0 0 1 6.170638,-6.1364179 M 29.563703,33.18489 c -2.488824,3.784124 -6.211775,6.627332 -10.55179,8.018253 C 14.671898,39.812222 10.948946,36.969014 8.4601225,33.18489 7.7607836,32.162153 7.1642886,31.139417 6.6706376,30.055316 c 0,-3.37503 5.5741424,-6.136419 12.3412754,-6.136419 6.767132,0 12.341275,2.700025 12.341275,6.136419 -0.493651,1.084101 -1.090146,2.106837 -1.789485,3.129574 z"
     id="path2"
     inkscape:connector-curvature="0"
     style="fill:none;stroke:#1fa385;stroke-width:1;stroke-opacity:1" />
</svg>
