<svg xmlns="http://www.w3.org/2000/svg" xmlns:svg="http://www.w3.org/2000/svg" id="svg4" width="41" height="41" version="1.1" viewBox="-1 -1 43 43.05"><metadata id="metadata10"/><path id="path2" fill="none" stroke="#2eccaa" stroke-opacity="1" stroke-width="1" d="m 20.5,0.522947 a 20.5,20.5 0 0 0 -20.5,20.5 c 0,9.061 5.8835,16.7485 14.022,19.475 1.025,0.164 1.353,-0.4715 1.353,-1.025 0,-0.4715 0,-1.763 0,-3.4645 -5.6785,1.23 -6.888,-2.747 -6.888,-2.747 -0.943,-2.378 -2.2755,-3.0135 -2.2755,-3.0135 -1.8655,-1.271 0.1435,-1.23 0.1435,-1.23 2.05,0.1435 3.1365,2.1115 3.1365,2.1115 1.7835,3.116 4.797,2.1935 5.9655,1.7015 0.1845,-1.3325 0.7175,-2.2345 1.2915,-2.747 -4.551,-0.5125 -9.3275,-2.2755 -9.3275,-10.086 0,-2.2755 0.779,-4.1 2.1115,-5.5555 -0.205,-0.5125 -0.9225,-2.6445 0.205,-5.412 0,0 1.722,-0.5535 5.6375,2.091 1.6195,-0.451 3.3825,-0.6765 5.125,-0.6765 1.7425,0 3.5055,0.2255 5.125,0.6765 3.9155,-2.6445 5.6375,-2.091 5.6375,-2.091 1.1275,2.7675 0.41,4.8995 0.205,5.412 1.3325,1.4555 2.1115,3.28 2.1115,5.5555 0,7.831 -4.797,9.553 -9.3685,10.0655 0.738,0.6355 1.4145,1.886 1.4145,3.7925 0,2.747 0,4.961 0,5.617 0,0.5535 0.328,1.2095 1.3735,1.025 C 35.137,37.750947 41,30.083947 41,21.022947 a 20.5,20.5 0 0 0 -20.5,-20.5 z"/></svg>