<svg version="1.1" viewBox="0 0 24 24" xmlns="http://www.w3.org/2000/svg"><path d="m11 1h-8c-1.1 0-2 0.9-2 2v12l3-3h5v-1c0-2.2 1.79-4 4-4v-4c0-1.1-0.9-2-2-2m0 3h-1.5c-0.34 1.19-0.96 2.3-1.82 3.26l-0.02 0.02 1.26 1.25-0.37 1.01-1.55-1.54-2.5 2.5-0.69-0.73 2.53-2.49c-0.62-0.69-1.12-1.46-1.48-2.28h0.99c0.31 0.6 0.69 1.17 1.15 1.68 0.72-0.8 1.24-1.71 1.57-2.68h-5.57v-1h3.5v-1h1v1h3.5v1m10 5h-8c-1.1 0-2 0.9-2 2v7c0 1.1 0.9 2 2 2h7l3 3v-12c0-1.1-0.9-2-2-2m-1.37 10-0.85-2.25h-3.56l-0.84 2.25h-1.5l3.37-9h1.5l3.38 9h-1.5m-2.63-7 1.22 3.25h-2.43l1.21-3.25z" fill="#1fa385"/></svg>