<svg xmlns="http://www.w3.org/2000/svg" xmlns:xlink="http://www.w3.org/1999/xlink" width="112" height="70" version="1.1" viewBox="0 0 112 70"><title>D6217437-86C0-4006-9893-9D142DB5871E</title><desc>Created with sketchtool.</desc><g id="Weblate" fill="none" fill-rule="evenodd" stroke="none" stroke-width="1"><g id="Home" fill="#2A3744" fill-rule="nonzero" transform="translate(-799.000000, -798.000000)"><g id="Users" transform="translate(345.000000, 730.000000)"><g id="LogoOpenSuse" transform="translate(454.000000, 68.000000)"><path id="path22" d="M91.4025346,38.6902297 C91.4630583,40.3260993 92.1481868,41.8443799 93.3441354,42.9580163 C94.5407757,44.075457 96.1022875,44.6526803 97.7391947,44.6008028 C101.115035,44.4801012 103.767357,41.6302989 103.651497,38.2582633 C103.587861,36.6223937 102.903078,35.1041131 101.709896,33.9942811 C100.513256,32.8702692 98.9555484,32.2927 97.3110326,32.348036 C93.9393429,32.4721961 91.2897875,35.3154273 91.4025346,38.6902297 Z M107.777485,32.658955 C108.055894,32.8429471 108.260292,32.995121 108.346408,33.0290143 L108.439442,33.1739253 C108.203918,34.6541625 105.997742,41.8305459 104.329017,43.5559906 C103.869382,44.0263463 103.501052,44.489785 102.755746,44.9259016 C96.7189377,48.4431941 82.3979891,50.5663661 81.7270405,50.663204 L81.6129101,50.6317317 L81.5700247,50.5279767 C81.5700247,50.5279767 81.5146887,47.5605854 81.5063883,47.2289155 C80.0437895,47.720368 69.4113291,51.1546566 59.4442836,51.5005064 C50.9917144,51.7975914 38.6818824,52.8908226 22.3705682,42.8608325 L21.8881077,42.5606348 C14.2140464,37.7737277 8.91562747,31.8704174 6.14606225,25.0125617 C5.27728755,22.8544589 4.10900692,17.9848937 5.26691206,13.4027297 C5.76562747,11.3999135 6.69561759,9.38741349 7.94932312,7.58588187 C10.7832164,3.51522969 15.5386512,0.814142735 20.6586117,0.357966846 C27.8886018,-0.288772285 33.3627125,2.95841151 35.3098468,9.03879689 C36.6486314,13.2336091 35.3098468,19.3890439 30.1777816,22.5293601 C26.0033745,25.085536 21.5145899,24.5045083 18.9106868,22.7818305 C16.6515958,21.283955 15.3722974,18.9567317 15.3947777,16.4005558 C15.447001,11.8664649 19.3526828,9.45658345 22.1613291,9.4493206 C22.9771887,9.4493206 23.7965069,9.59111902 24.7202717,9.89200835 C25.0491749,9.99230479 25.3583646,10.1164649 25.6993725,10.3274332 L25.8062401,10.3900321 L25.873335,10.4349925 L25.8508547,10.4215044 C26.4910227,10.857621 26.8759536,11.5669589 26.8759536,12.3274827 C26.8759536,12.5349925 26.8469022,12.7452692 26.787416,12.9569293 C26.455746,14.1051506 25.3213587,14.7999629 24.1458152,14.5858819 L23.9870702,14.5481842 L23.7722974,14.4824728 L23.4606868,14.3752593 C22.8139476,14.2161684 22.3297579,14.2023344 22.2263488,14.1988759 C21.8974457,14.2199728 20.2809437,14.7041625 20.2809437,16.4745676 L20.2809437,16.4987771 C20.2809437,17.1489748 20.5417144,17.6051506 20.6855879,17.8545083 C21.1884536,18.6430459 22.5652816,19.4170578 24.4256077,19.2552 C26.8669615,19.0438858 28.627337,17.7919095 29.7931966,15.4301012 C30.8753607,13.2343008 30.5921097,10.5332139 29.0634536,8.55460716 C27.5451729,6.59398463 24.8423567,5.76083246 21.2479397,6.14783839 C17.6230879,6.54867831 14.5592045,8.63449847 12.8424061,11.8816823 C11.1629595,15.0558917 11.0713093,18.8190834 12.605499,21.7100419 C16.2746196,28.6370676 23.2051038,28.564785 27.0053014,27.9080163 C32.6288192,26.932374 39.0263488,21.7449728 41.2954694,15.7552 C41.6620702,14.8003087 41.8488291,14.0435894 42.0120702,13.3511981 L42.2569318,12.3171072 L48.6101927,9.21518028 L48.6931966,9.15258147 L48.8474457,9.16676131 L48.8754595,9.34971586 C48.8360326,9.49186013 48.7436907,9.62259135 48.5970504,11.4006052 C48.4763488,12.978372 48.2304496,17.2976902 50.4051532,19.4381546 C51.2493725,20.2747653 52.5359338,21.021455 53.5520405,21.2604372 C57.7160721,22.2775815 62.5991255,21.5758522 67.2155287,16.2321269 C69.6056966,13.4718997 70.7708646,12.2133522 71.3553508,11.6499629 L71.5594022,11.4659708 L71.7994219,11.2864748 C71.9910227,11.182374 79.7384042,7.613204 79.7384042,7.613204 L79.8978409,7.65124748 L79.9009536,7.81690953 C79.8494219,7.875704 74.9902322,14.1556447 75.8552026,19.326791 C76.5361808,23.4451704 79.8141453,23.0723443 84.3482362,22.5604866 C85.8284733,22.3875617 87.5134536,22.1938858 89.25792,22.1551506 C94.1285227,22.12437 99.3754101,23.0235795 102.609106,24.4381052 C104.701151,25.3476902 106.036131,25.9529273 106.872742,26.713451 C107.173631,26.9628087 107.329264,27.367453 107.492159,27.8028779 L107.605944,28.0902791 C107.741171,28.4433917 107.94038,29.1869688 108.027535,29.5947257 C108.062811,29.7742218 108.083562,29.9640933 107.955252,30.0647356 L107.507722,29.9817317 C106.087663,29.1271368 102.538207,27.5089056 99.2194318,27.4397356 C95.0989773,27.3563858 86.8041156,31.5830163 85.9394911,32.032621 L85.8561413,32.1291131 C85.6524358,32.6271368 84.4070306,35.5699728 84.1407263,36.1925024 C90.1135524,32.2570775 95.0675049,30.0816823 98.859748,29.746208 C103.081537,29.3702692 106.372297,31.6739748 107.777831,32.658955 L107.777485,32.658955 L107.777485,32.658955 Z M98.3866255,38.123036 C97.3383547,38.123036 96.4917144,38.6902297 96.4917144,39.3853878 C96.4917144,40.087117 97.3383547,40.6511981 98.3866255,40.6511981 C99.4348962,40.6511981 100.283958,40.087117 100.283958,39.3853878 C100.283266,38.6902297 99.4342045,38.123036 98.3866255,38.123036 L98.3866255,38.123036 Z M97.687663,42.7961585 C96.5425543,42.8373147 95.4569318,42.4326704 94.6268923,41.6545083 C93.7971986,40.8763463 93.3078211,39.8221961 93.2732362,38.6805459 C93.1936907,36.3215044 95.0408745,34.3370182 97.3943824,34.2502099 C98.5387994,34.2156249 99.6299555,34.6202692 100.464837,35.3984313 C101.297989,36.1803977 101.777337,37.2352396 101.813651,38.3723937 C101.893197,40.7307435 100.046705,42.7124629 97.687663,42.7961585 Z" transform="translate(56.610707, 25.982007) scale(-1, 1) rotate(-180.000000) translate(-56.610707, -25.982007)"/><path id="path26" d="M46.8899358,65.0599506 C44.1978409,65.0599506 42.7172579,62.7842589 42.7172579,61.2106423 L42.7172579,59.1908794 C42.7172579,56.8736858 44.6104397,55.4380632 46.3659733,55.4380632 L52.5286709,55.4380632 C53.3051038,55.4380632 53.4676532,54.929664 53.4676532,54.5008103 L53.4676532,53.1973024 C53.4676532,53.0589625 53.4396393,51.8069862 52.5286709,51.8069862 L44.1234832,51.8069862 C43.2882559,51.8069862 42.6844022,51.2259585 42.6844022,50.430504 L42.6844022,50.0704743 C42.6844022,49.2781324 43.2882559,48.7005632 44.1234832,48.7005632 L52.9851927,48.7005632 C55.3016947,48.7005632 56.7964575,50.3122233 56.7964575,52.808913 L56.7964575,54.9884585 C56.7964575,57.3329743 55.112169,58.3808992 53.4396393,58.3808992 L47.3758547,58.3808992 C46.4628113,58.3808992 46.0491749,59.0656818 46.0491749,59.5498715 L46.0491749,60.7534289 C46.0491749,61.5108399 46.5558449,61.9500692 47.4412204,61.9500692 L54.1534733,61.9500692 C54.9765958,61.9500692 55.5960128,62.5414723 55.5960128,63.3234387 L55.5960128,63.6831225 C55.5960128,64.4678557 54.9662204,65.0599506 54.1258053,65.0599506 L46.8899358,65.0599506 Z" transform="translate(49.740430, 56.880257) scale(-1, 1) rotate(-180.000000) translate(-49.740430, -56.880257)"/><path id="path30" d="M72.0893478,65.155751 C71.2935474,65.155751 70.6523419,64.5090119 70.6523419,63.7132115 L70.6523419,53.3937451 C70.6523419,52.5668182 69.9779348,51.9027866 69.1613834,51.9027866 L64.4768478,51.9027866 C63.6575296,51.9027866 62.986581,52.5668182 62.986581,53.3937451 L62.986581,63.7132115 C62.986581,64.5090119 62.3398419,65.155751 61.5447332,65.155751 L61.09167,65.155751 C60.2841107,65.155751 59.6491304,64.5186957 59.6491304,63.7132115 L59.6491304,53.0029348 C59.6491304,50.5093577 61.6114822,48.7005632 64.3142984,48.7005632 L69.3239328,48.7005632 C72.0232905,48.7005632 73.9842589,50.5090119 73.9842589,53.0029348 L73.9842589,63.7132115 C73.9842589,64.5186957 73.3516996,65.155751 72.5455237,65.155751 L72.0893478,65.155751 Z" transform="translate(66.816695, 56.928157) scale(-1, 1) rotate(-180.000000) translate(-66.816695, -56.928157)"/><path id="path34" d="M81.0580632,65.0599506 C78.3673518,65.0599506 76.8822727,62.7842589 76.8822727,61.2106423 L76.8822727,59.1908794 C76.8822727,56.8736858 78.7792589,55.4380632 80.53583,55.4380632 L86.6967984,55.4380632 C87.4742688,55.4380632 87.6375099,54.929664 87.6375099,54.5008103 L87.6375099,53.1973024 C87.6375099,53.0589625 87.609496,51.8069862 86.6967984,51.8069862 L78.2878063,51.8069862 C77.4563834,51.8069862 76.8490711,51.2259585 76.8490711,50.430504 L76.8490711,50.0704743 C76.8490711,49.2781324 77.4563834,48.7005632 78.2878063,48.7005632 L87.1529743,48.7005632 C89.470168,48.7005632 90.9711561,50.3122233 90.9711561,52.808913 L90.9711561,54.9884585 C90.9711561,57.3329743 89.2820257,58.3808992 87.609496,58.3808992 L81.5457115,58.3808992 C80.6305929,58.3808992 80.2179941,59.0656818 80.2179941,59.5498715 L80.2179941,60.7534289 C80.2179941,61.5108399 80.7243182,61.9500692 81.6100395,61.9500692 L88.3260968,61.9500692 C89.1471443,61.9500692 89.7641403,62.5414723 89.7641403,63.3234387 L89.7641403,63.6831225 C89.7641403,64.4678557 89.1350395,65.0599506 88.2908202,65.0599506 L81.0580632,65.0599506 Z" transform="translate(83.910114, 56.880257) scale(-1, 1) rotate(-180.000000) translate(-83.910114, -56.880257)"/><path id="path38" d="M95.2258004,65.0575296 C94.4268874,65.0575296 93.8233794,64.4654348 93.8233794,63.6807016 L93.8233794,50.0683992 C93.8233794,49.2871245 94.4130534,48.698834 95.1943281,48.698834 L106.041561,48.698834 C106.876789,48.698834 107.480296,49.2764032 107.480296,50.0683992 L107.480296,50.4287747 C107.480296,51.2242292 106.876789,51.8052569 106.041561,51.8052569 L97.1577174,51.8052569 L97.1577174,55.2706719 L103.667302,55.2706719 C104.5008,55.2706719 105.106383,55.8551581 105.106383,56.6475 L105.106383,57.0071838 C105.106383,57.8029842 104.5008,58.3805534 103.667302,58.3805534 L97.1577174,58.3805534 L97.1577174,61.9493775 L105.590227,61.9493775 C106.422342,61.9493775 107.028962,62.5231423 107.028962,63.322747 L107.028962,63.6824308 C107.028962,64.4782312 106.422342,65.0592589 105.590227,65.0592589 L95.2258004,65.0592589 L95.2258004,65.0575296 Z" transform="translate(100.651838, 56.879046) scale(-1, 1) rotate(-180.000000) translate(-100.651838, -56.879046)"/><path id="path42" d="M2.30090415,57.7826828 L2.30090415,62.4689476 C2.30090415,63.018503 2.75223814,63.4681077 3.30421443,63.4681077 L5.89047925,63.4681077 C6.43035079,63.4681077 6.89033103,63.0084733 6.89033103,62.4689476 L6.89033103,57.7826828 C6.89033103,57.2293231 6.44245553,56.7800642 5.89047925,56.7800642 L3.28484684,56.7800642 C2.73148715,56.7800642 2.30090415,57.2196393 2.30090415,57.7826828 L2.30090415,57.7826828 Z M3.01923419,65.0731966 C1.65969862,65.0731966 0.553325099,64.0152421 0.553325099,62.7110425 L0.553325099,57.5789773 C0.553325099,56.2540267 1.62407609,55.1749753 2.93657609,55.1749753 L6.25638834,55.1749753 C7.56888834,55.1749753 8.63963933,56.2540267 8.63963933,57.5789773 L8.63963933,62.7110425 C8.63963933,64.0145504 7.53257411,65.0731966 6.17373024,65.0731966 L3.01888834,65.0731966 L3.01923419,65.0731966 Z" transform="translate(4.596482, 60.124086) scale(-1, 1) rotate(-180.000000) translate(-4.596482, -60.124086)"/><path id="path46" d="M12.8339674,62.3017638 L12.8339674,66.7843231 C12.8339674,67.4037401 13.3181571,67.8872381 13.9365366,67.8872381 L16.3612895,67.8872381 C16.9803607,67.8872381 17.4638587,67.4030484 17.4638587,66.7843231 L17.4638587,62.3017638 C17.4638587,61.693414 16.9675642,61.1991947 16.3612895,61.1991947 L13.9365366,61.1991947 C13.3295702,61.1991947 12.8339674,61.693414 12.8339674,62.3017638 Z M16.1548172,69.5514674 C15.1978508,69.5514674 14.4760623,69.2094219 13.8967638,68.9292836 C13.5436512,68.7598172 13.23792,68.6138686 13.000667,68.6138686 C12.8934536,68.6138686 12.8018034,68.6622875 12.7533844,68.741833 L12.5323864,69.1637698 C12.4773962,69.2747875 12.2560524,69.4919812 11.9824852,69.4919812 L11.6542737,69.4919812 C11.3388587,69.4919812 11.0863883,69.2087302 11.0863883,68.8632263 L11.0863883,55.8454397 C11.0863883,55.437337 11.4083745,55.1156966 11.8161314,55.1156966 L12.1000741,55.1156966 C12.5047184,55.1156966 12.8332757,55.4407955 12.8332757,55.8454397 L12.8332757,60.1647579 C12.8332757,60.2927223 12.9166255,60.4310623 13.000667,60.4310623 C13.23792,60.4310623 13.5436512,60.2920306 13.8967638,60.1301729 C14.4760623,59.8638686 15.1978508,59.5356571 16.1548172,59.5356571 L16.4612401,59.5356571 C18.1559042,59.5356571 19.2104002,60.5043824 19.2104002,62.0603607 L19.2104002,67.0295306 C19.2104002,68.5616453 18.1334239,69.5507757 16.4612401,69.5507757 L16.1548172,69.5507757 L16.1548172,69.5514674 Z" transform="translate(15.148394, 62.333582) scale(-1, 1) rotate(-180.000000) translate(-15.148394, -62.333582)"/><path id="path50" d="M23.4041403,62.4839921 C23.4041403,63.0342391 23.8367984,63.4658597 24.3873913,63.4658597 L27.0538933,63.4658597 C27.6034486,63.4658597 28.0323024,63.0342391 28.0323024,62.4839921 L28.0323024,60.8934289 L23.4034486,60.8934289 C23.4041403,61.1009387 23.4041403,62.4839921 23.4041403,62.4839921 Z M24.1217787,65.0709486 C22.7622431,65.0709486 21.6589822,64.0133399 21.6589822,62.7091403 L21.6589822,57.6151186 C21.6589822,56.2939723 22.7314625,55.1737648 23.9969269,55.1737648 L27.4218775,55.1737648 C27.8455435,55.1737648 28.1516206,55.4670455 28.1516206,55.8658103 L28.1516206,56.0902668 C28.1516206,56.4911067 27.8455435,56.7785079 27.4218775,56.7785079 L24.6080435,56.7785079 C23.8195059,56.7785079 23.4034486,57.1662055 23.4034486,57.9032115 L23.4034486,59.3934783 L28.479832,59.3934783 C29.2963834,59.3934783 29.7791897,59.891502 29.7791897,60.7353755 L29.7791897,62.7101779 C29.7791897,64.0136858 28.6738538,65.072332 27.3201976,65.072332 L24.1217787,65.072332 L24.1217787,65.0709486 Z" transform="translate(25.719086, 60.123048) scale(-1, 1) rotate(-180.000000) translate(-25.719086, -60.123048)"/><path id="path54" d="M36.8311709,65.072332 C35.8769713,65.072332 35.1569121,64.7302866 34.5758844,64.452915 C34.2144713,64.2831028 33.9056275,64.1347332 33.653503,64.1347332 C33.5424852,64.1347332 33.4975247,64.1485672 33.4114081,64.2976285 L33.2104694,64.6642292 C33.0953014,64.8959486 32.8995504,65.0128458 32.6349753,65.0128458 L32.3527619,65.0128458 C32.0120998,65.0128458 31.7634338,64.7472332 31.7634338,64.3837451 L31.7634338,55.8450593 C31.7634338,55.4407609 32.082999,55.1156621 32.4949061,55.1156621 L32.7767737,55.1156621 C33.181418,55.1156621 33.5113587,55.4442194 33.5113587,55.8450593 L33.5113587,62.3051877 C33.5113587,62.9104249 34.0059239,63.4077569 34.6111611,63.4077569 L37.0369516,63.4077569 C37.643918,63.4077569 38.1384832,62.9104249 38.1384832,62.3051877 L38.1384832,55.8450593 C38.1384832,55.4407609 38.4597777,55.1156621 38.8682263,55.1156621 L39.1532065,55.1156621 C39.5578508,55.1156621 39.8864081,55.4442194 39.8864081,55.8450593 L39.8864081,62.5507411 C39.8864081,64.0832016 38.809086,65.072332 37.1355188,65.072332 L36.8311709,65.072332 Z" transform="translate(35.824921, 60.093997) scale(-1, 1) rotate(-180.000000) translate(-35.824921, -60.093997)"/><path id="path58" d="M109.639713,63.1684289 L109.813676,63.1684289 C110.012194,63.1684289 110.180277,63.2400198 110.180277,63.4267787 C110.180277,63.5588933 110.084476,63.6913538 109.813676,63.6913538 C109.735514,63.6913538 109.681561,63.6851285 109.639713,63.6785573 L109.639713,63.1684289 Z M109.639713,62.3332016 L109.399348,62.3332016 L109.399348,63.840415 C109.525583,63.8587451 109.645939,63.8767292 109.825781,63.8767292 C110.054733,63.8767292 110.204486,63.829002 110.294061,63.7629447 C110.384674,63.6972332 110.433093,63.5955534 110.433093,63.4502964 C110.433093,63.2528162 110.300978,63.1324605 110.138775,63.0840415 L110.138775,63.0712451 C110.271235,63.0477273 110.36081,62.9277174 110.391245,62.7049901 C110.427559,62.4701581 110.462836,62.380583 110.487045,62.3325099 L110.234921,62.3325099 C110.198261,62.380583 110.162638,62.5189229 110.132895,62.7170949 C110.096581,62.9086957 110.000435,62.98167 109.808488,62.98167 L109.640405,62.98167 L109.640405,62.3332016 L109.639713,62.3332016 Z M109.892184,64.2613142 C109.297668,64.2613142 108.811057,63.7508399 108.811057,63.1200099 C108.811057,62.4770751 109.297668,61.9728261 109.898063,61.9728261 C110.498458,61.9662549 110.97919,62.4770751 110.97919,63.1137846 C110.97919,63.7508399 110.498458,64.2613142 109.898063,64.2613142 L109.892184,64.2613142 Z M109.898063,64.4712451 C110.636798,64.4712451 111.225435,63.8708498 111.225435,63.1193182 C111.225435,62.3567194 110.636453,61.7625494 109.892184,61.7625494 C109.153103,61.7625494 108.552708,62.3567194 108.552708,63.1193182 C108.552708,63.8701581 109.153103,64.4712451 109.892184,64.4712451 L109.898063,64.4712451 Z" transform="translate(109.889071, 63.116897) scale(-1, 1) rotate(-180.000000) translate(-109.889071, -63.116897)"/></g></g></g></g></svg>