<svg width="238" height="34" xmlns="http://www.w3.org/2000/svg"><g fill="none" fill-rule="evenodd"><g transform="translate(-1001 -816)" fill="#2A3744" fill-rule="nonzero"><g transform="translate(345 730)"><g transform="translate(656 86)"><g transform="translate(0 4.703)" fill-opacity=".7"><path d="M3.608 5.901h8.574c2.576 0 4.468.734 5.675 2.2 1.207 1.467 1.599 3.51 1.175 6.132a10.311 10.311 0 01-.93 2.961 9.533 9.533 0 01-1.77 2.463c-.872.894-1.848 1.535-2.928 1.922-1.081.386-2.463.58-4.146.58H5.44l-.95 5.879H.029L3.609 5.902zM7.5 9.403L6 18.688h2.712c1.798 0 3.13-.366 3.997-1.101s1.439-1.958 1.716-3.67c.266-1.65.111-2.815-.464-3.495-.576-.679-1.711-1.019-3.405-1.019H7.5zM24.038.022h4.425l-.95 5.88h3.937c2.478 0 4.195.47 5.153 1.408.957.939 1.268 2.451.93 4.54l-1.666 10.308h-4.492l1.585-9.811c.18-1.116.093-1.874-.262-2.277-.355-.401-1.098-.602-2.228-.602h-3.533l-2.05 12.69H20.46L24.038.024M42.353 5.901h8.574c2.577 0 4.468.734 5.675 2.2 1.207 1.467 1.599 3.51 1.175 6.132a10.327 10.327 0 01-.93 2.961 9.554 9.554 0 01-1.77 2.463c-.872.894-1.848 1.535-2.928 1.922-1.08.386-2.462.58-4.146.58h-3.818l-.95 5.879h-4.46l3.578-22.136zm3.893 3.502l-1.5 9.285h2.712c1.797 0 3.13-.366 3.996-1.101.867-.735 1.44-1.958 1.716-3.67.267-1.65.112-2.815-.464-3.495-.576-.679-1.711-1.019-3.404-1.019h-3.056z"/></g><g transform="translate(60.946)"><path d="M4.369.021h8.576l3.768 20.582L27.133.021h8.544l-4.335 26.822h-5.725l3.848-20.892-10.507 20.892h-6.204L8.808 5.732 5.982 26.843H.034L4.369.021M45.969 22.502h4.33L52.78 7.144h5.383l-3.098 19.169c-.421 2.606-1.363 4.537-2.825 5.791-1.462 1.254-3.491 1.881-6.085 1.881H35.6l.645-3.99h9.628c1.033 0 1.866-.241 2.499-.724.632-.483 1.023-1.182 1.17-2.1l.054-.33h-4.764c-3.047 0-5.125-.58-6.234-1.742S37.156 22 37.593 19.287l1.964-12.143h5.321L42.98 18.886c-.24 1.486-.168 2.46.219 2.922.385.462 1.308.694 2.77.694M72.659.02h6.197l7.512 26.823h-6.5l-1.52-6.385H66.278l-3.508 6.385h-6.198L72.66.02zm2.011 5.327L68.94 15.67h8.275L74.67 5.347zM106.66 26.843H96.32c-3.124 0-5.419-.888-6.884-2.665-1.464-1.777-1.939-4.254-1.425-7.43.21-1.303.586-2.499 1.128-3.588a11.56 11.56 0 012.145-2.985c1.057-1.083 2.244-1.859 3.561-2.327 1.317-.469 2.99-.703 5.018-.703h4.618L105.63.02h5.364l-4.335 26.822zm-4.68-4.224l1.816-11.23h-3.256c-2.183 0-3.802.44-4.86 1.323-1.057.883-1.753 2.353-2.085 4.41-.323 1.997-.132 3.412.572 4.246.705.834 2.079 1.251 4.123 1.251h3.69zM114.52 7.145h20.669c2.997 0 5.065.566 6.204 1.696 1.139 1.132 1.503 2.968 1.093 5.51l-2.02 12.491h-5.422l1.91-11.816c.234-1.448.162-2.404-.216-2.867-.379-.462-1.272-.694-2.68-.694h-3.02l-2.485 15.377h-5.504l2.485-15.377h-6.29l-2.485 15.377h-5.423l3.184-19.698M154.47 4.906h-5.645l.79-4.885h5.644l-.789 4.885zm-3.546 21.937h-5.644l3.183-19.698h5.645l-3.184 19.698zM158.76 7.145h10.127c3.06 0 5.156.557 6.286 1.669 1.13 1.113 1.487 2.959 1.07 5.537l-2.019 12.491h-5.383l1.917-11.852c.237-1.473.155-2.429-.247-2.866-.402-.439-1.315-.658-2.738-.658h-4.329l-2.485 15.377h-5.382l3.183-19.698"/></g></g></g></g></g></svg>