<svg xmlns="http://www.w3.org/2000/svg" xmlns:xlink="http://www.w3.org/1999/xlink" width="98" height="80" version="1.1" viewBox="0 0 98 80"><title>CA12D451-8EAD-40B8-9E12-3158523A5A9C</title><desc>Created with sketchtool.</desc><g id="Weblate" fill="none" fill-rule="evenodd" stroke="none" stroke-width="1"><g id="Home" fill="#2A3744" transform="translate(-611.000000, -793.000000)"><g id="Users" transform="translate(345.000000, 730.000000)"><g id="LogoSonicPi" transform="translate(266.000000, 63.000000)"><path id="Fill-1" fill-opacity=".7" d="M31.0457467,16.1829508 L31.8375867,15.3888525 C31.8375867,15.3888525 49.86828,28.8996721 49.5442267,42.7829508 C49.1927333,57.8478689 40.3008667,66.6747541 31.8375867,72.7659016 L31.3684933,72.1481967 C31.3684933,72.1481967 45.1472933,60.437377 43.7563467,41.7822951 C43.7563467,41.7822951 43.85696,27.8354098 31.0457467,16.1829508"/><path id="Fill-2" fill-opacity=".7" d="M50.5118133,8.66163934 L51.41864,7.7095082 C51.41864,7.7095082 72.0744267,23.9081967 71.70268,40.5534426 C71.2995733,58.6163934 61.1134533,69.2 51.41864,76.5029508 L50.8809467,75.7619672 C50.8809467,75.7619672 66.6648267,61.7213115 65.0726533,39.3540984 C65.0726533,39.3540984 65.18764,22.6321311 50.5118133,8.66163934"/><path id="Fill-4" fill-opacity=".7" d="M71.7072533,1.10163934 L72.8113867,0 C72.8113867,0 97.9516533,18.735082 97.5002,37.9862295 C97.0095467,58.8767213 84.6118933,71.117377 72.8113867,79.5632787 L72.1574,78.7062295 C72.1574,78.7062295 91.3686667,62.4668852 89.4302267,36.5986885 C89.4302267,36.5986885 89.57004,17.2590164 71.7072533,1.10163934"/><path id="Fill-6" d="M0.527893333,31.5429508 L1.84697333,28.6740984 L31.0457467,28.6740984 L33.20044,28.0557377 L31.3096933,31.2780328 L25.5048267,31.5429508 L21.59136,53.2577049 C21.59136,53.2577049 21.2392133,55.5527869 22.0310533,56.0386885 C22.8228933,56.5239344 25.24088,55.4203279 27.3080267,52.6839344 L28.2756133,54.2288525 C28.2756133,54.2288525 26.0764933,57.2301639 23.7898267,58.9954098 C21.50316,60.7606557 19.0407467,61.9081967 16.8644933,61.2904918 C14.6875867,60.6727869 15.7864933,56.3914754 15.7864933,56.3914754 L20.09588,31.6308197 L10.4219733,31.6308197 L5.32074667,60.7606557 L0,60.7606557 L5.10122667,31.6308197 L0.527893333,31.5429508"/></g></g></g></g></svg>