<svg width="213.27" height="66.914" version="1.1" viewBox="0 0 213.27 66.914" xmlns="http://www.w3.org/2000/svg"><path d="m9.3495 20.847 0.80664-0.80664 13.418 13.418-13.418 13.418-0.80664-0.80859 12.611-12.609z" fill="#fff"/><path d="m9.3495 20.847v25.221l12.611-12.609z" fill="#c8c8c8"/><path d="m20.779 9.4152-10.623 10.625 13.418 13.418-13.418 13.418 10.623 10.623 24.043-24.041z" fill="#5a5959" style="paint-order:stroke fill markers"/><path d="m20.285 36.747-8.8737 8.8659 13.09-2.8893z" fill="#6a6a6a"/><path d="m66.219 41.704q1.9347 0 3.3303-0.63434 1.3955-0.66606 2.918-2.0933l2.4105 2.4739q-3.5206 3.9012-8.5636 3.9012-5.0113 0-8.3415-3.2351-3.2986-3.2351-3.2986-8.183 0-4.9478 3.362-8.2464 3.3937-3.2986 8.5318-3.2986 5.1699 0 8.627 3.806l-2.3788 2.6008q-1.5858-1.5224-3.0131-2.125-1.3955-0.60262-3.2986-0.60262-3.362 0-5.6456 2.1885-2.2836 2.1568-2.2836 5.5505 0 3.362 2.2519 5.6456 2.2836 2.2519 5.3919 2.2519z" fill="#5a5959"/><path d="m82.395 40.657q1.5224 1.5224 3.8377 1.5224t3.806-1.5224q1.5224-1.5541 1.5224-3.9963t-1.5224-3.9646q-1.4907-1.5541-3.806-1.5541t-3.8377 1.5541q-1.4907 1.5224-1.4907 3.9646t1.4907 3.9963zm10.181 2.1885q-2.5374 2.5056-6.3434 2.5056t-6.3434-2.5056q-2.5374-2.5374-2.5374-6.1848t2.5374-6.1531q2.5374-2.5374 6.3434-2.5374t6.3434 2.5374q2.5374 2.5056 2.5374 6.1531 0 3.6474-2.5374 6.1848z" fill="#5a5959"/><path d="m102.69 45.097h-3.5523v-23.534h3.5523z" fill="#5a5959"/><path d="m111.38 45.097h-3.5523v-23.534h3.5523z" fill="#5a5959"/><path d="m130.19 45.097h-3.2351v-2.2519q-2.0933 2.5056-5.6139 2.5056-2.6325 0-4.3769-1.4907-1.7127-1.4907-1.7127-3.9646 0-2.5056 1.8396-3.7426t4.9796-1.237h4.599v-0.63434q0-3.362-3.7426-3.362-2.347 0-4.8844 1.7127l-1.5858-2.2202q3.0766-2.4422 6.9777-2.4422 2.9814 0 4.8527 1.5224 1.903 1.4907 1.903 4.7258zm-3.5523-6.2799v-1.4273h-3.9963q-3.8378 0-3.8378 2.4105 0 1.237 0.95151 1.903 0.95151 0.63434 2.6325 0.63434 1.7127 0 2.9814-0.95151t1.2687-2.5691z" fill="#5a5959"/><path d="m144.18 27.97q3.3937 0 5.8042 2.3471 2.4105 2.347 2.4105 6.2482t-2.4105 6.3434q-2.3788 2.4422-5.5822 2.4422-3.1717 0-5.709-2.7911v2.5374h-3.5523v-23.534h3.5523v9.6102q2.0933-3.2034 5.487-3.2034zm-5.5505 8.7222q0 2.4105 1.459 3.9646 1.459 1.5224 3.5523 1.5224t3.6474-1.5224 1.5541-3.9329q0-2.4422-1.5224-4.028-1.5224-1.6176-3.6474-1.6176t-3.584 1.6176q-1.459 1.5858-1.459 3.9963z" fill="#5a5959"/><path d="m160.39 40.657q1.5224 1.5224 3.8377 1.5224t3.806-1.5224q1.5224-1.5541 1.5224-3.9963t-1.5224-3.9646q-1.4907-1.5541-3.806-1.5541t-3.8377 1.5541q-1.4907 1.5224-1.4907 3.9646t1.4907 3.9963zm10.181 2.1885q-2.5374 2.5056-6.3434 2.5056t-6.3434-2.5056q-2.5374-2.5374-2.5374-6.1848t2.5374-6.1531q2.5374-2.5374 6.3434-2.5374t6.3434 2.5374q2.5374 2.5056 2.5374 6.1531 0 3.6474-2.5374 6.1848z" fill="#5a5959"/><path d="m185.98 31.554q-2.6325 0-3.9646 1.7127t-1.3321 4.599v7.2315h-3.5523v-16.873h3.5523v3.3937q0.85635-1.5858 2.3153-2.6008 1.4907-1.0149 3.14-1.0467l0.0317 3.584q-0.0951 0-0.19031 0z" fill="#5a5959"/><path d="m203.24 45.097h-3.2351v-2.2519q-2.0933 2.5056-5.6139 2.5056-2.6325 0-4.3769-1.4907-1.7127-1.4907-1.7127-3.9646 0-2.5056 1.8396-3.7426t4.9796-1.237h4.599v-0.63434q0-3.362-3.7426-3.362-2.347 0-4.8844 1.7127l-1.5858-2.2202q3.0765-2.4422 6.9777-2.4422 2.9814 0 4.8527 1.5224 1.903 1.4907 1.903 4.7258zm-3.5523-6.2799v-1.4273h-3.9963q-3.8377 0-3.8377 2.4105 0 1.237 0.95151 1.903 0.95151 0.63434 2.6325 0.63434 1.7127 0 2.9814-0.95151t1.2687-2.5691z" fill="#5a5959"/><path d="m207.9 28.224 3.6157 5.5505 3.7426-5.5505h4.2184l-5.8994 8.2464 6.1531 8.627h-4.3769l-4.028-5.6139-3.9329 5.6139h-4.1549l5.9945-8.5953-5.6773-8.2781z" display="none" fill="#fff"/><path d="m14.012 57.499 3.6157 5.5505 3.7426-5.5505h4.2183l-5.8994 8.2464 6.1531 8.627h-4.3769l-4.028-5.6139-3.9329 5.6139h-4.1549l5.9945-8.5953-5.6773-8.2781z" display="none" fill="#fff"/><path d="m14.012-7.4582 3.6157 5.5505 3.7426-5.5505h4.2183l-5.8994 8.2464 6.1531 8.627h-4.3769l-4.028-5.6139-3.9329 5.6139h-4.1549l5.9945-8.5953-5.6773-8.2781z" display="none" fill="#fff"/><path d="m-2.4809 28.224 3.6157 5.5505 3.7426-5.5505h4.2183l-5.8994 8.2464 6.1531 8.627h-4.3769l-4.028-5.6139-3.9329 5.6139h-4.1549l5.9945-8.5953-5.6773-8.2781z" display="none" fill="#fff"/></svg>