<svg width="98" height="80" version="1.1" viewBox="0 0 98 80" xmlns="http://www.w3.org/2000/svg"><g fill="none" fill-rule="evenodd"><g transform="translate(-611 -793)" fill="#2A3744"><g transform="translate(345 730)"><g transform="translate(266 63)"><path d="m31.046 16.183 0.79184-0.7941s18.031 13.511 17.707 27.394c-0.35149 15.065-9.2434 23.892-17.707 29.983l-0.46909-0.6177s13.779-11.711 12.388-30.366c0 0 0.10061-13.947-12.711-25.599" fill-opacity=".7"/><path d="m50.512 8.6616 0.90683-0.95213s20.656 16.199 20.284 32.844c-0.40311 18.063-10.589 28.647-20.284 35.95l-0.53769-0.74098s15.784-14.041 14.192-36.408c0 0 0.11499-16.722-14.561-30.692" fill-opacity=".7"/><path d="m71.707 1.1016 1.1041-1.1016s25.14 18.735 24.689 37.986c-0.49065 20.89-12.888 33.131-24.689 41.577l-0.65399-0.85705s19.211-16.239 17.273-42.108c0 0 0.13981-19.34-17.723-35.497" fill-opacity=".7"/><path d="m0.52789 31.543 1.3191-2.8689h29.199l2.1547-0.61836-1.8907 3.2223-5.8049 0.26492-3.9135 21.715s-0.35215 2.2951 0.43969 2.781c0.79184 0.48525 3.2098-0.61836 5.277-3.3548l0.96759 1.5449s-2.1991 3.0013-4.4858 4.7666c-2.2867 1.7652-4.7491 2.9128-6.9253 2.2951-2.1769-0.6177-1.078-4.899-1.078-4.899l4.3094-24.761h-9.6739l-5.1012 29.13h-5.3207l5.1012-29.13-4.5733-0.087869"/></g></g></g></g></svg>