<svg width="239.29" height="57.706" version="1.1" xmlns="http://www.w3.org/2000/svg"><defs><style type="text/css">.str0 {stroke:#1F1A17;stroke-width:3}
    .fil0 {fill:none}</style><style type="text/css">.str0 {stroke:#1F1A17;stroke-width:0.0762}
    .fil0 {fill:none}
    .fil1 {fill:none;fill-rule:nonzero}</style><style type="text/css">.str0 {stroke:#000000;stroke-width:63}
    .str1 {stroke:#09098F;stroke-width:63}
    .fil5 {fill:none}
    .fil1 {fill:#000000}
    .fil2 {fill:#000000}
    .fil3 {fill:#4D66CC}
    .fil0 {fill:#576ECD}
    .fil4 {fill:#89A1D4}</style><style type="text/css">.str0 {stroke:#1F1A17;stroke-width:3}
    .fil0 {fill:none}</style><style type="text/css">.str0 {stroke:#1F1A17;stroke-width:0.0762}
    .fil0 {fill:none}
    .fil1 {fill:none;fill-rule:nonzero}</style><style type="text/css">.str0 {stroke:#000000;stroke-width:63}
    .str1 {stroke:#09098F;stroke-width:63}
    .fil5 {fill:none}
    .fil1 {fill:#000000}
    .fil2 {fill:#000000}
    .fil3 {fill:#4D66CC}
    .fil0 {fill:#576ECD}
    .fil4 {fill:#89A1D4}</style></defs><g transform="translate(-523 -2204)"><g transform="matrix(.58426 0 0 .58667 218.88 935.5)" aria-label="LibreOffice"><path d="m633.61 2213.5v-38.916h-8.9182v46.483h28.579v-7.567z" fill="#808080"/><path d="m662.95 2175.7c-2.8376 0-5.1347 2.0945-5.1347 4.7294s2.2971 4.7294 5.1347 4.7294 5.1347-2.0945 5.1347-4.7294-2.2971-4.7294-5.1347-4.7294zm-4.4591 45.402h8.9182v-32.565h-8.9182z" fill="#808080"/><path d="m681.58 2171.5h-8.9182v49.658h7.4994l0.67562-5.5401c1.4188 3.9186 5.2699 6.2157 9.7965 6.2157 8.5804 0 14.729-6.5535 14.729-17.431 0-9.3235-5.1347-16.485-13.512-16.485-4.4591 0-8.1075 1.7567-10.269 5.6077zm0 32.227c0-5.2698 3.1754-8.3777 6.8238-8.3777 5.4725 0 7.7697 4.324 7.7697 9.729 0 6.5535-3.1079 9.9316-7.3643 9.9316-3.5808 0-7.2292-3.1754-7.2292-8.1074z" fill="#808080"/><path d="m716.78 2188.5h-7.4994v32.565h8.9182v-15.945c0-5.4726 2.0944-9.4587 6.2833-9.4587 1.6215 0 2.6349 0.1351 3.7159 0.608l0.33781-7.9048c-0.74319-0.3378-2.0944-0.5405-3.243-0.5405-3.1079 0-6.6887 2.4323-7.8372 6.1482z" fill="#808080"/><path d="m757.7 2212.7c-2.4322 1.2837-5.3374 2.0269-8.9182 2.0269-4.8645 0-7.9048-2.2971-8.3777-6.6211h19.796c0.20268-1.081 0.33781-2.635 0.33781-3.7835 0-8.9182-4.0537-16.418-13.377-16.418-8.7155 0-15.269 6.8914-15.269 17.972 0 10.675 6.2157 15.945 15.134 15.945 4.9996 0 8.7155-0.9459 11.283-2.3647zm-17.228-11.013c0.5405-4.4592 3.0403-6.8914 6.2833-6.8914 4.1213 0 5.6752 3.1079 5.6752 6.8914z" fill="#808080"/><path d="m786.5 2173.9c-12.702 0-21.485 9.256-21.485 23.917s8.7831 23.917 21.485 23.917 21.485-9.256 21.485-23.917-8.7831-23.917-21.485-23.917zm0 4.8645c8.175 0 15.269 6.2157 15.269 19.053 0 12.837-7.094 19.052-15.269 19.052s-15.269-6.2157-15.269-19.052c0-12.837 7.094-19.053 15.269-19.053z" fill="#2a3744"/><path d="m815.06 2189.1h-4.5267v4.324h4.5267v27.7h5.5401v-27.7h8.175v-4.324h-8.175v-3.7835c0-6.8914 3.6484-9.9317 7.6345-9.9317 1.8917 0 3.0403 0.2703 4.1213 0.6756l0.33781-4.5942c-1.081-0.4054-2.7025-0.6756-4.5267-0.6756-8.0399 0-13.107 5.3374-13.107 15.269z" fill="#2a3744"/><path d="m831.11 2189.1h-4.5267v4.324h4.5267v27.7h5.5401v-27.7h8.175v-4.324h-8.175v-3.7835c0-6.8914 3.6484-9.9317 7.6345-9.9317 1.8917 0 3.0403 0.2703 4.1213 0.6756l0.33781-4.5942c-1.081-0.4054-2.7025-0.6756-4.5267-0.6756-8.0399 0-13.107 5.3374-13.107 15.269z" fill="#2a3744"/><path d="m852.71 2177c-1.8917 0-3.4457 1.5539-3.4457 3.4457 0 1.8917 1.5539 3.4457 3.4457 3.4457s3.4457-1.554 3.4457-3.4457c0-1.8918-1.5539-3.4457-3.4457-3.4457zm-2.77 44.118h5.5401v-32.295h-5.5401z" fill="#2a3744"/><path d="m884.42 2215.7c-2.0269 1.0134-4.5267 1.6215-6.8238 1.6215-6.8238 0-10.81-4.324-10.81-12.364 0-8.3102 4.7294-12.229 10.742-12.229 2.8376 0 5.2699 0.6757 7.2292 1.7567l0.47293-4.8645c-1.8242-0.8783-4.6618-1.4864-7.9048-1.4864-8.7155 0-16.62 5.9455-16.62 17.228 0 11.215 6.8914 16.418 15.674 16.418 3.3106 0 6.2833-0.6756 8.5128-1.5539z" fill="#2a3744"/><path d="m912.73 2215c-2.2971 1.4188-5.3374 2.3647-8.175 2.3647-6.486 0-9.8641-3.1754-10.202-10.472h20.201c0.20268-1.081 0.27025-1.7567 0.27025-2.7701 0-8.7831-3.4457-15.945-11.823-15.945-8.7155 0-14.458 6.8914-14.458 17.701 0 10.54 5.7428 15.945 14.661 15.945 3.7835 0 7.3643-0.8783 9.7965-2.2295zm-18.242-12.634c0.47294-5.6753 3.4457-9.4587 7.9048-9.4587 4.932 0 6.8238 4.1888 6.8238 9.4587z" fill="#2a3744"/></g><g transform="matrix(.57421 0 0 .59693 218.88 935.5)" fill="#2a3744" aria-label="The Document Foundation"><path d="m649.55 2195.9v-2.0183h-13.96v2.0183h5.8305v17.155h2.2986v-17.155z"/><path d="m653.76 2192.5h-2.2986v20.603h2.2986v-7.4844c0-2.3266 1.4856-4.1766 3.2796-4.1766 2.1023 0 2.9713 1.4856 2.9713 3.3918v8.2692h2.2986v-8.942c0-2.747-1.5698-4.7373-4.457-4.7373-1.5978 0-3.3077 0.8129-4.0926 2.663z"/><path d="m675.26 2210.5c-0.95306 0.5887-2.2145 0.9811-3.3918 0.9811-2.691 0-4.0926-1.3175-4.2327-4.3448h8.3813c0.0841-0.4485 0.11212-0.7288 0.11212-1.1493 0-3.6441-1.4296-6.6154-4.9055-6.6154-3.616 0-5.9987 2.8592-5.9987 7.3442 0 4.3729 2.3826 6.6154 6.0828 6.6154 1.5697 0 3.0554-0.3644 4.0645-0.9251zm-7.5684-5.2418c0.19622-2.3546 1.4296-3.9244 3.2796-3.9244 2.0463 0 2.8312 1.738 2.8312 3.9244z"/><path d="m685.91 2213c1.1212 0.2242 2.8872 0.3644 3.9524 0.3644 6.5873 0 11.409-3.7282 11.409-10.316 0-5.6623-3.4759-9.5306-10.68-9.5306-1.2334 0-2.9993 0.1401-4.6812 0.3364zm2.2986-17.295c0.84094-0.1121 1.6819-0.1682 2.2986-0.1682 5.4941 0 8.2692 2.8031 8.2692 7.7927 0 5.1297-3.7282 8.0169-8.7457 8.0169-0.42047 0-1.2053-0.056-1.822-0.1401z"/><path d="m709.71 2199.4c-3.8122 0-6.2229 2.8032-6.2229 6.9798 0 4.1767 2.4107 6.9798 6.2229 6.9798s6.2229-2.8031 6.2229-6.9798c0-4.1766-2.4107-6.9798-6.2229-6.9798zm0 1.8501c2.4387 0 3.7001 2.2425 3.7001 5.1297s-1.2614 5.1297-3.7001 5.1297-3.7001-2.2425-3.7001-5.1297 1.2614-5.1297 3.7001-5.1297z"/><path d="m727.9 2210.8c-0.84094 0.4204-1.8781 0.6727-2.8312 0.6727-2.8312 0-4.485-1.794-4.485-5.1297 0-3.4478 1.9622-5.0736 4.457-5.0736 1.1773 0 2.1864 0.2803 2.9993 0.7288l0.19621-2.0183c-0.75684-0.3644-1.9342-0.6167-3.2796-0.6167-3.616 0-6.8957 2.4668-6.8957 7.148 0 4.6532 2.8592 6.8116 6.5032 6.8116 1.3735 0 2.6069-0.2803 3.5319-0.6447z"/><path d="m741.75 2199.7h-2.2986v7.4844c0 2.3266-1.4857 4.1766-3.2796 4.1766-2.1023 0-2.9713-1.4856-2.9713-3.3917v-8.2693h-2.2986v8.942c0 2.7471 1.5698 4.7373 4.457 4.7373 1.6258 0 3.3918-0.841 4.1486-2.8031l0.16819 2.5228h2.0743z"/><path d="m747.75 2199.7h-2.0743v13.399h2.2986v-7.4844c0-2.3266 1.3175-4.1766 3.0274-4.1766 1.9622 0 2.663 1.4296 2.663 3.4198v8.2412h2.2986v-7.4844c0-2.3266 1.3175-4.1766 3.0274-4.1766 1.9622 0 2.663 1.4296 2.663 3.4198v8.2412h2.2986v-8.914c0-2.691-1.3175-4.7653-4.1486-4.7653-1.7379 0-3.1675 0.897-4.1206 2.8312-0.50456-1.6819-1.766-2.8312-3.8683-2.8312-1.6538 0-3.1956 0.869-3.8963 2.7471z"/><path d="m776.9 2210.5c-0.95306 0.5887-2.2145 0.9811-3.3918 0.9811-2.691 0-4.0926-1.3175-4.2327-4.3448h8.3813c0.0841-0.4485 0.11212-0.7288 0.11212-1.1493 0-3.6441-1.4296-6.6154-4.9055-6.6154-3.616 0-5.9987 2.8592-5.9987 7.3442 0 4.3729 2.3827 6.6154 6.0828 6.6154 1.5698 0 3.0554-0.3644 4.0645-0.9251zm-7.5684-5.2418c0.19622-2.3546 1.4296-3.9244 3.2796-3.9244 2.0463 0 2.8312 1.738 2.8312 3.9244z"/><path d="m783.01 2199.7h-2.0743v13.399h2.2986v-7.4844c0-2.3266 1.4857-4.1766 3.2796-4.1766 2.1023 0 2.9713 1.4856 2.9713 3.3918v8.2692h2.2986v-8.942c0-2.747-1.5698-4.7373-4.457-4.7373-1.6258 0-3.3918 0.841-4.1486 2.8032z"/><path d="m798.73 2199.8v-3.532h-2.2986v3.532h-2.1023v1.794h2.1023v7.7926c0 2.9153 1.5698 3.9805 3.8122 3.9805 0.78488 0 1.5978-0.1682 2.1023-0.4205l-0.11212-1.7099c-0.47653 0.1962-0.98109 0.2523-1.4857 0.2523-1.2053 0-2.0182-0.7008-2.0182-2.2705v-7.6245h3.616v-1.794z"/><path d="m821.86 2195.9v-2.0183h-10.259v19.173h2.2986v-7.7647h7.0639v-2.0182h-7.0639v-7.3722z"/><path d="m829.62 2199.4c-3.8122 0-6.2229 2.8032-6.2229 6.9798 0 4.1767 2.4107 6.9798 6.2229 6.9798s6.2229-2.8031 6.2229-6.9798c0-4.1766-2.4107-6.9798-6.2229-6.9798zm0 1.8501c2.4387 0 3.7001 2.2425 3.7001 5.1297s-1.2614 5.1297-3.7001 5.1297-3.7001-2.2425-3.7001-5.1297 1.2614-5.1297 3.7001-5.1297z"/><path d="m849.61 2199.7h-2.2986v7.4844c0 2.3266-1.4856 4.1766-3.2796 4.1766-2.1023 0-2.9713-1.4856-2.9713-3.3917v-8.2693h-2.2986v8.942c0 2.7471 1.5698 4.7373 4.457 4.7373 1.6258 0 3.3918-0.841 4.1486-2.8031l0.16818 2.5228h2.0743z"/><path d="m855.61 2199.7h-2.0743v13.399h2.2986v-7.4844c0-2.3266 1.4856-4.1766 3.2796-4.1766 2.1023 0 2.9713 1.4856 2.9713 3.3918v8.2692h2.2986v-8.942c0-2.747-1.5698-4.7373-4.457-4.7373-1.6258 0-3.3918 0.841-4.1486 2.8032z"/><path d="m879.49 2192.5h-2.2986v9.2784c-0.50456-1.3455-1.9622-2.3547-3.7842-2.3547-3.56 0-6.1108 2.9433-6.1108 7.148 0 4.0645 2.3266 6.8116 5.7464 6.8116 1.9342 0 3.3918-1.0932 4.2047-2.7191l0.16819 2.4388h2.0743zm-2.2986 14.772c0 2.3266-1.822 4.1206-3.6721 4.1206-2.4107 0-3.7001-2.2425-3.7001-4.9335 0-3.1395 1.6258-5.1017 3.7842-5.1017 2.0182 0 3.588 1.9341 3.588 4.4569z"/><path d="m884.03 2202.3c1.1212-0.6728 2.4387-1.0091 3.4478-1.0091 1.9622 0 3.0274 0.897 3.0274 2.691v1.0371c-0.50457-0.1121-1.2334-0.1682-1.8781-0.1682-3.2236 0-5.8585 1.5417-5.8585 4.5971 0 2.6069 1.9061 3.8964 3.9244 3.8964 1.766 0 3.0554-0.8129 3.8403-2.2706l0.25228 1.9903h2.0182v-8.8859c0-2.9713-1.3735-4.7934-4.7653-4.7934-1.5137 0-3.0554 0.3925-4.1486 1.0092zm6.4752 5.5782c0 2.2145-1.4857 3.6721-3.0834 3.6721-1.2894 0-2.1864-0.869-2.1864-2.2425 0-1.6258 1.4576-2.7471 3.616-2.7471 0.58866 0 1.2054 0.056 1.6538 0.1682z"/><path d="m899.76 2199.8v-3.532h-2.2986v3.532h-2.1023v1.794h2.1023v7.7926c0 2.9153 1.5697 3.9805 3.8122 3.9805 0.78487 0 1.5978-0.1682 2.1023-0.4205l-0.11213-1.7099c-0.47653 0.1962-0.98109 0.2523-1.4856 0.2523-1.2053 0-2.0182-0.7008-2.0182-2.2705v-7.6245h3.616v-1.794z"/><path d="m907.16 2194.8c-0.78487 0-1.4296 0.6447-1.4296 1.4296s0.64472 1.4296 1.4296 1.4296 1.4296-0.6447 1.4296-1.4296-0.64472-1.4296-1.4296-1.4296zm-1.1493 18.304h2.2986v-13.399h-2.2986z"/><path d="m917.56 2199.4c-3.8122 0-6.2229 2.8032-6.2229 6.9798 0 4.1767 2.4107 6.9798 6.2229 6.9798s6.2229-2.8031 6.2229-6.9798c0-4.1766-2.4107-6.9798-6.2229-6.9798zm0 1.8501c2.4387 0 3.7001 2.2425 3.7001 5.1297s-1.2614 5.1297-3.7001 5.1297-3.7001-2.2425-3.7001-5.1297 1.2614-5.1297 3.7001-5.1297z"/><path d="m928.88 2199.7h-2.0743v13.399h2.2986v-7.4844c0-2.3266 1.4856-4.1766 3.2796-4.1766 2.1023 0 2.9713 1.4856 2.9713 3.3918v8.2692h2.2986v-8.942c0-2.747-1.5698-4.7373-4.457-4.7373-1.6258 0-3.3918 0.841-4.1486 2.8032z"/></g><path d="m555.18 2211.1c-0.44182-0.011-0.87708 0.2652-1.0498 0.6664-0.17271 0.4012-0.0719 0.902 0.24314 1.2077l9.4823 9.5123c0.30582 0.3064 0.80376 0.4079 1.2076 0.2463s0.68938-0.5767 0.6924-1.0065v-9.53c1e-3 -0.5742-0.52918-1.0972-1.1113-1.0962z" color="#000000" fill="#2a3744" fill-rule="evenodd" style="text-decoration-line:none;text-indent:0;text-transform:none"/><path d="m529.11 2211.1c-0.58317 0.01-1.1077 0.5416-1.1067 1.1248v43.416c-1e-3 0.5832 0.52357 1.1163 1.1067 1.1248h35.524c0.58922 0 1.1258-0.5356 1.1249-1.1248v-27.958c2e-3 -0.2951-0.11854-0.589-0.32658-0.7983l-15.367-15.44c-0.20625-0.2146-0.50068-0.3417-0.79829-0.3447z" color="#000000" fill="#fff" fill-rule="evenodd" style="text-decoration-line:none;text-indent:0;text-transform:none"/><path d="m529.11 2211.1a1.123 1.123 0 0 0-1.1067 1.1248v43.416a1.123 1.123 0 0 0 1.1067 1.1248h35.524a1.123 1.123 0 0 0 1.1249-1.1248v-27.958a1.123 1.123 0 0 0-0.32658-0.7983l-15.367-15.44a1.123 1.123 0 0 0-0.79829-0.3447zm1.1249 2.2497h18.56l14.714 14.786v26.38h-33.274z" color="#000000" fill="#2a3744" fill-rule="evenodd" style="text-decoration-line:none;text-indent:0;text-transform:none"/></g></svg>