<svg width="60" height="25" class="icon icon-card_apay" icon="card_apay" viewBox="0 0 60 25" fill="none" xmlns="http://www.w3.org/2000/svg"><path d="M10.9631 3.17615C10.2599 4.00827 9.1348 4.6646 8.00967 4.57084C7.86903 3.44571 8.41987 2.25026 9.06448 1.51189C9.76768 0.656325 10.9983 0.0468804 11.9945 0C12.1117 1.17201 11.6546 2.32058 10.9631 3.17615ZM11.9828 4.79352C10.3537 4.69976 8.959 5.71941 8.18547 5.71941C7.40022 5.71941 6.21649 4.8404 4.92728 4.86384C3.25131 4.88728 1.69254 5.83661 0.836972 7.3485C-0.921041 10.3723 0.379889 14.8494 2.0793 17.3106C2.91143 18.5295 3.90764 19.8656 5.22029 19.8187C6.46262 19.7718 6.95486 19.01 8.45503 19.01C9.96692 19.01 10.4006 19.8187 11.7132 19.7952C13.0727 19.7718 13.9283 18.5763 14.7604 17.3575C15.7098 15.9745 16.0965 14.6267 16.12 14.5564C16.0965 14.5329 13.4947 13.5367 13.4712 10.5364C13.4478 8.02827 15.5222 6.83282 15.616 6.7625C14.444 5.02792 12.6157 4.8404 11.9828 4.79352ZM21.394 1.39469V19.6663H24.2303V13.4195H28.1565C31.7429 13.4195 34.2627 10.9583 34.2627 7.39538C34.2627 3.83247 31.7897 1.39469 28.2503 1.39469H21.394V1.39469ZM24.2303 3.78559H27.5002C29.9614 3.78559 31.3678 5.09824 31.3678 7.4071C31.3678 9.71596 29.9614 11.0403 27.4885 11.0403H24.2303V3.78559V3.78559ZM39.443 19.807C41.2244 19.807 42.8769 18.9045 43.627 17.4747H43.6856V19.6663H46.3109V10.5715C46.3109 7.9345 44.2013 6.23509 40.9548 6.23509C37.9428 6.23509 35.716 7.95794 35.6339 10.3254H38.1889C38.3999 9.20027 39.443 8.46191 40.8728 8.46191C42.6074 8.46191 43.5801 9.2706 43.5801 10.759V11.767L40.0407 11.9779C36.7473 12.1772 34.9659 13.525 34.9659 15.869C34.9659 18.2365 36.8059 19.807 39.443 19.807ZM40.2048 17.6387C38.6929 17.6387 37.7318 16.9121 37.7318 15.7987C37.7318 14.6501 38.6577 13.9821 40.4274 13.8766L43.5801 13.6774V14.7087C43.5801 16.4199 42.1269 17.6387 40.2048 17.6387ZM49.8152 24.6356C52.5812 24.6356 53.8821 23.5808 55.019 20.3812L60 6.41089H57.1169L53.7766 17.2051H53.718L50.3778 6.41089H47.4126L52.2179 19.7132L51.96 20.5219C51.5264 21.8931 50.8232 22.4205 49.5691 22.4205C49.3464 22.4205 48.9128 22.3971 48.737 22.3737V24.5653C48.9011 24.6122 49.6043 24.6356 49.8152 24.6356Z" fill="#000000"></path></svg>
