<svg width="100" height="74" version="1.1" viewBox="0 0 100 74" xmlns="http://www.w3.org/2000/svg"><defs><linearGradient id="linearGradient-1" x2="68.26%" y1="38.057%" y2="38.057%"><stop stop-color="#00D2E6" offset="0"/><stop stop-color="#2ECCAA" offset="1"/></linearGradient><linearGradient id="linearGradient-2" x1="17.275%" x2="79%" y1="59.719%" y2="30.635%"><stop stop-opacity="0" offset="0"/><stop offset=".51413"/><stop stop-opacity="0" offset="1"/></linearGradient><linearGradient id="linearGradient-3" x1="100%" x2="31.855%" y1="39.719%" y2="39.719%"><stop stop-color="#1FA385" offset="0"/><stop stop-color="#2ECCAA" offset="1"/></linearGradient></defs><g fill="none" fill-rule="evenodd"><g transform="translate(-315 -40)"><g transform="translate(315 40)"><path d="m63.624 55.803c-1.4442-0.0072665-2.8833-0.3012-4.2399-0.89234-3.0558-1.3313-5.7467-3.8456-7.9358-7.2474 0.62428-1.1097 1.1869-2.2587 1.6892-3.4267 2.2025-5.1216 3.25-10.73 3.3304-16.297-0.011671-0.11041-0.020814-0.22122-0.027622-0.33242l-0.0060301-0.28566c-0.004863-2.1827-0.3373-4.3949-1.0883-6.4544-0.86522-2.3729-2.2444-4.7477-4.4325-5.6739-0.3976-0.16798-0.81581-0.23851-1.2321-0.22868-2.7524-5.1444-2.84-10.074 0-14.769 0.050575 0 0.10309 1.9646e-4 0.15367 5.8939e-4 3.3506 0.036935 6.67 1.0709 9.5106 2.8768 7.7346 4.9175 11.591 14.5 11.676 23.909 0.0011671 0.11041-1.946e-4 0.22063-0.0035014 0.33084h0.043378c-0.011277 9.9434-2.4024 20.027-7.4375 28.489zm-17.15 15.608c-7.2239 2.9712-15.614 2.8118-22.775-0.5125-8.2379-3.8238-14.532-11.256-18.409-19.739-6.6311-14.511-6.7829-31.858-0.49408-46.591 4.7229 1.8894 8.9226-1.1198 8.9226-1.1198s-0.009726 4.6303 4.4739 6.9525c-4.6004 10.778-4.4895 23.583 0.1206 34.086 2.2195 5.0536 5.6099 9.7595 10.309 12.421 1.6774 0.9498 3.5205 1.563 5.4165 1.7931 0.0070182 0.01097 0.014041 0.021938 0.021067 0.032902 3.3483 5.2245 7.5661 9.5784 12.414 12.677z" fill="url(#linearGradient-1)" fill-rule="nonzero"/><path d="m63.621 55.807c-1.4435-0.0075456-2.8818-0.30148-4.2377-0.89233-3.0563-1.3315-5.7476-3.8464-7.9368-7.249 0.62471-1.1102 1.1877-2.2599 1.6903-3.4286 0.66409-1.5442 1.2231-3.1324 1.6822-4.7505 1.064-3.7489 15.191 1.009 13.036 7.1855-1.1119 3.1865-2.5197 6.2546-4.2338 9.135zm-17.151 15.606c-7.2232 2.9698-15.612 2.8099-22.771-0.51389-8.2379-3.8238 0.2237-16.652 4.9233-13.99 1.6766 0.94939 3.5189 1.5625 5.4141 1.7928 0.0078348 0.012249 0.015675 0.024495 0.02352 0.036736 3.3475 5.2233 7.5642 9.5764 12.41 12.675z" fill="url(#linearGradient-2)" opacity=".7" style="mix-blend-mode:soft-light"/><path d="m28.381 27.314c-0.0033068-0.11022-0.0046684-0.22043-0.0035013-0.33084 0.085004-9.4086 3.9413-18.992 11.676-23.909 2.8406-1.8059 6.16-2.8399 9.5106-2.8768 0.050575-3.9293e-4 0.10309-5.8939e-4 0.15367-5.8939e-4v14.769c-0.41627-0.0098232-0.83448 0.060707-1.2321 0.22868-2.1881 0.92613-3.5673 3.301-4.4325 5.6739-0.75104 2.0595-1.0835 4.2717-1.0883 6.4544l-0.00603 0.28566c-0.0068082 0.1112-0.015951 0.222-0.027622 0.33242 0.080336 5.5668 1.1278 11.175 3.3304 16.297 2.4667 5.736 6.3876 11.013 11.924 13.424 4.1763 1.8198 8.8059 1.3906 12.591-0.75285 4.6996-2.6613 8.09-7.3672 10.309-12.421 4.6101-10.503 4.721-23.308 0.1206-34.086 4.4837-2.3222 4.4739-6.9525 4.4739-6.9525s4.1997 3.0092 8.9226 1.1198c6.2888 14.733 6.1371 32.08-0.49408 46.591-3.8768 8.4835-10.171 15.916-18.409 19.739-7.3333 3.4045-15.956 3.4896-23.296 0.29194-6.5951-2.8745-11.959-8.0532-15.818-14.075-5.5893-8.7214-8.2361-19.339-8.248-29.802h0.043378z" fill="url(#linearGradient-3)" fill-rule="nonzero"/></g></g></g></svg>