<svg width="112" height="70" version="1.1" viewBox="0 0 112 70" xmlns="http://www.w3.org/2000/svg"><g fill="none" fill-rule="evenodd"><g transform="translate(-799 -798)" fill="#2A3744" fill-rule="nonzero"><g transform="translate(345 730)"><g transform="translate(454 68)"><path transform="translate(56.611 25.982) scale(-1 1) rotate(180) translate(-56.611 -25.982)" d="m91.403 38.69c0.060524 1.6359 0.74565 3.1542 1.9416 4.2678 1.1966 1.1174 2.7582 1.6947 4.3951 1.6428 3.3758-0.1207 6.0282-2.9705 5.9123-6.3425-0.063636-1.6359-0.74842-3.1542-1.9416-4.264-1.1966-1.124-2.7543-1.7016-4.3989-1.6462-3.3717 0.12416-6.0212 2.9674-5.9085 6.3422zm16.375-6.0313c0.27841 0.18399 0.48281 0.33617 0.56892 0.37006l0.093034 0.14491c-0.23552 1.4802-2.4417 8.6566-4.1104 10.382-0.45964 0.47036-0.82796 0.93379-1.5733 1.3699-6.0368 3.5173-20.358 5.6405-21.029 5.7373l-0.11413-0.031472-0.042885-0.10376s-0.055336-2.9674-0.063636-3.2991c-1.4626 0.49145-12.095 3.9257-22.062 4.2716-8.4526 0.29708-20.762 1.3903-37.074-8.6397l-0.48246-0.3002c-7.6741-4.7869-12.972-10.69-15.742-17.548-0.86877-2.1581-2.0371-7.0277-0.87915-11.61 0.49872-2.0028 1.4287-4.0153 2.6824-5.8168 2.8339-4.0707 7.5893-6.7717 12.709-7.2279 7.23-0.64674 12.704 2.6004 14.651 8.6808 1.3388 4.1948 0 10.35-5.1321 13.491-4.1744 2.5562-8.6632 1.9751-11.267 0.25247-2.2591-1.4979-3.5384-3.8251-3.5159-6.3813 0.052223-4.5341 3.9579-6.944 6.7666-6.9512 0.81586 0 1.6352 0.1418 2.5589 0.44269 0.3289 0.1003 0.63809 0.22446 0.9791 0.43542l0.10687 0.062599 0.067095 0.04496-0.02248-0.013488c0.64017 0.43612 1.0251 1.1455 1.0251 1.906 0 0.20751-0.029051 0.41779-0.088538 0.62945-0.33167 1.1482-1.4661 1.843-2.6416 1.629l-0.15874-0.037698-0.21477-0.065711-0.31161-0.10721c-0.64674-0.15909-1.1309-0.17292-1.2343-0.17638-0.3289 0.021097-1.9454 0.50529-1.9454 2.2757v0.02421c0 0.6502 0.26077 1.1064 0.40464 1.3557 0.50287 0.78854 1.8797 1.5625 3.74 1.4007 2.4414-0.21131 4.2017-1.4633 5.3676-3.8251 1.0822-2.1958 0.79891-4.8969-0.72974-6.8755-1.5183-1.9606-4.2211-2.7938-7.8155-2.4068-3.6249 0.40084-6.6887 2.4867-8.4055 5.7338-1.6794 3.1742-1.7711 6.9374-0.23691 9.8284 3.6691 6.927 10.6 6.8547 14.4 6.198 5.6235-0.97564 12.021-6.163 14.29-12.153 0.3666-0.95489 0.55336-1.7116 0.7166-2.404l0.24486-1.0341 6.3533-3.1019 0.083004-0.062599 0.15425 0.01418 0.028014 0.18295c-0.039427 0.14214-0.13177 0.27288-0.27841 2.0509-0.1207 1.5778-0.3666 5.8971 1.8081 8.0375 0.84422 0.83661 2.1308 1.5833 3.1469 1.8223 4.164 1.0171 9.0471 0.31542 13.663-5.0283 2.3902-2.7602 3.5553-4.0188 4.1398-4.5822l0.20405-0.18399 0.24002-0.1795c0.1916-0.1041 7.939-3.6733 7.939-3.6733l0.15944 0.038043 0.0031127 0.16566c-0.051532 0.058794-4.9107 6.3387-4.0458 11.51 0.68098 4.1184 3.9589 3.7456 8.493 3.2337 1.4802-0.17292 3.1652-0.3666 4.9097-0.40534 4.8706-0.030781 10.117 0.86843 13.351 2.283 2.092 0.90958 3.427 1.5148 4.2636 2.2753 0.30089 0.24936 0.45652 0.654 0.61942 1.0894l0.11378 0.2874c0.13523 0.35311 0.33444 1.0967 0.42159 1.5044 0.035276 0.1795 0.056027 0.36937-0.072283 0.47001l-0.44753-0.083004c-1.4201-0.85459-4.9695-2.4728-8.2883-2.542-4.1205-0.08335-12.415 4.1433-13.28 4.5929l-0.08335 0.096492c-0.20371 0.49802-1.4491 3.4409-1.7154 4.0634 5.9728-3.9354 10.927-6.1108 14.719-6.4463 4.2218-0.37594 7.5125 1.9278 8.9181 2.9127h-3.46e-4zm-9.3909 5.4641c-1.0483 0-1.8949 0.56719-1.8949 1.2624 0 0.70173 0.84664 1.2658 1.8949 1.2658 1.0483 0 1.8973-0.56408 1.8973-1.2658-6.92e-4 -0.69516-0.84975-1.2624-1.8973-1.2624zm-0.69896 4.6731c-1.1451 0.041156-2.2307-0.36349-3.0608-1.1417-0.82969-0.77816-1.3191-1.8323-1.3537-2.974-0.079546-2.359 1.7676-4.3435 4.1211-4.4303 1.1444-0.034585 2.2356 0.37006 3.0705 1.1482 0.83315 0.78197 1.3125 1.8368 1.3488 2.974 0.079546 2.3583-1.7669 4.3401-4.126 4.4238z"/><path transform="translate(49.74 56.88) scale(-1 1) rotate(180) translate(-49.74 -56.88)" d="m46.89 65.06c-2.6921 0-4.1727-2.2757-4.1727-3.8493v-2.0198c0-2.3172 1.8932-3.7528 3.6487-3.7528h6.1627c0.77643 0 0.93898-0.5084 0.93898-0.93725v-1.3035c0-0.13834-0.028014-1.3903-0.93898-1.3903h-8.4052c-0.83523 0-1.4391-0.58103-1.4391-1.3765v-0.36003c0-0.79234 0.60385-1.3699 1.4391-1.3699h8.8617c2.3165 0 3.8113 1.6117 3.8113 4.1083v2.1795c0 2.3445-1.6843 3.3924-3.3568 3.3924h-6.0638c-0.91304 0-1.3267 0.68478-1.3267 1.169v1.2036c0 0.75741 0.50667 1.1966 1.392 1.1966h6.7123c0.82312 0 1.4425 0.5914 1.4425 1.3734v0.35968c0 0.78473-0.62979 1.3768-1.4702 1.3768h-7.2359z"/><path transform="translate(66.817 56.928) scale(-1 1) rotate(180) translate(-66.817 -56.928)" d="m72.089 65.156c-0.7958 0-1.437-0.64674-1.437-1.4425v-10.319c0-0.82693-0.67441-1.491-1.491-1.491h-4.6845c-0.81932 0-1.4903 0.66403-1.4903 1.491v10.319c0 0.7958-0.64674 1.4425-1.4418 1.4425h-0.45306c-0.80756 0-1.4425-0.63706-1.4425-1.4425v-10.71c0-2.4936 1.9624-4.3024 4.6652-4.3024h5.0096c2.6994 0 4.6603 1.8084 4.6603 4.3024v10.71c0 0.80548-0.63256 1.4425-1.4387 1.4425h-0.45618z"/><path transform="translate(83.91 56.88) scale(-1 1) rotate(180) translate(-83.91 -56.88)" d="m81.058 65.06c-2.6907 0-4.1758-2.2757-4.1758-3.8493v-2.0198c0-2.3172 1.897-3.7528 3.6536-3.7528h6.161c0.77747 0 0.94071-0.5084 0.94071-0.93725v-1.3035c0-0.13834-0.028014-1.3903-0.94071-1.3903h-8.409c-0.83142 0-1.4387-0.58103-1.4387-1.3765v-0.36003c0-0.79234 0.60731-1.3699 1.4387-1.3699h8.8652c2.3172 0 3.8182 1.6117 3.8182 4.1083v2.1795c0 2.3445-1.6891 3.3924-3.3617 3.3924h-6.0638c-0.91512 0-1.3277 0.68478-1.3277 1.169v1.2036c0 0.75741 0.50632 1.1966 1.392 1.1966h6.7161c0.82105 0 1.438 0.5914 1.438 1.3734v0.35968c0 0.78473-0.6291 1.3768-1.4733 1.3768h-7.2328z"/><path transform="translate(100.65 56.879) scale(-1 1) rotate(180) translate(-100.65 -56.879)" d="m95.226 65.058c-0.79891 0-1.4024-0.59209-1.4024-1.3768v-13.612c0-0.78127 0.58967-1.3696 1.3709-1.3696h10.847c0.83523 0 1.4387 0.57757 1.4387 1.3696v0.36038c0 0.79545-0.60351 1.3765-1.4387 1.3765h-8.8838v3.4654h6.5096c0.8335 0 1.4391 0.58449 1.4391 1.3768v0.35968c0 0.7958-0.60558 1.3734-1.4391 1.3734h-6.5096v3.5688h8.4325c0.83212 0 1.4387 0.57376 1.4387 1.3734v0.35968c0 0.7958-0.60662 1.3768-1.4387 1.3768h-10.364v-0.0017293z"/><path transform="translate(4.5965 60.124) scale(-1 1) rotate(180) translate(-4.5965 -60.124)" d="m2.3009 57.783v4.6863c0 0.54956 0.45133 0.99916 1.0033 0.99916h2.5863c0.53987 0 0.99985-0.45963 0.99985-0.99916v-4.6863c0-0.55336-0.44788-1.0026-0.99985-1.0026h-2.6056c-0.55336 0-0.98394 0.43958-0.98394 1.0026zm0.71833 7.2905c-1.3595 0-2.4659-1.058-2.4659-2.3622v-5.1321c0-1.325 1.0708-2.404 2.3833-2.404h3.3198c1.3125 0 2.3833 1.0791 2.3833 2.404v5.1321c0 1.3035-1.1071 2.3622-2.4659 2.3622h-3.1548 3.4585e-4z"/><path transform="translate(15.148 62.334) scale(-1 1) rotate(180) translate(-15.148 -62.334)" d="m12.834 62.302v4.4826c0 0.61942 0.48419 1.1029 1.1026 1.1029h2.4248c0.61907 0 1.1026-0.48419 1.1026-1.1029v-4.4826c0-0.60835-0.49629-1.1026-1.1026-1.1026h-2.4248c-0.60697 0-1.1026 0.49422-1.1026 1.1026zm3.3208 7.2497c-0.95697 0-1.6788-0.34205-2.2581-0.62218-0.35311-0.16947-0.65884-0.31542-0.8961-0.31542-0.10721 0-0.19886 0.048419-0.24728 0.12796l-0.221 0.42194c-0.05499 0.11102-0.27633 0.32821-0.5499 0.32821h-0.32821c-0.31542 0-0.56789-0.28325-0.56789-0.62875v-13.018c0-0.4081 0.32199-0.72974 0.72974-0.72974h0.28394c0.40464 0 0.7332 0.3251 0.7332 0.72974v4.3193c0 0.12796 0.08335 0.2663 0.16739 0.2663 0.23725 0 0.54298-0.13903 0.8961-0.30089 0.5793-0.2663 1.3011-0.59452 2.2581-0.59452h0.30642c1.6947 0 2.7492 0.96873 2.7492 2.5247v4.9692c0 1.5321-1.077 2.5212-2.7492 2.5212h-0.30642v6.917e-4z"/><path transform="translate(25.719 60.123) scale(-1 1) rotate(180) translate(-25.719 -60.123)" d="m23.404 62.484c0 0.55025 0.43266 0.98187 0.98325 0.98187h2.6665c0.54956 0 0.97841-0.43162 0.97841-0.98187v-1.5906h-4.6289c6.917e-4 0.20751 6.917e-4 1.5906 6.917e-4 1.5906zm0.71764 2.587c-1.3595 0-2.4628-1.0576-2.4628-2.3618v-5.094c0-1.3211 1.0725-2.4414 2.3379-2.4414h3.425c0.42367 0 0.72974 0.29328 0.72974 0.69205v0.22446c0 0.40084-0.30608 0.68824-0.72974 0.68824h-2.8138c-0.78854 0-1.2046 0.3877-1.2046 1.1247v1.4903h5.0764c0.81655 0 1.2994 0.49802 1.2994 1.3419v1.9748c0 1.3035-1.1053 2.3622-2.459 2.3622h-3.1984v-0.0013834z"/><path transform="translate(35.825 60.094) scale(-1 1) rotate(180) translate(-35.825 -60.094)" d="m36.831 65.072c-0.9542 0-1.6743-0.34205-2.2553-0.61942-0.36141-0.16981-0.67026-0.31818-0.92238-0.31818-0.11102 0-0.15598 0.013834-0.24209 0.1629l-0.20094 0.3666c-0.11517 0.23172-0.31092 0.34862-0.57549 0.34862h-0.28221c-0.34066 0-0.58933-0.26561-0.58933-0.6291v-8.5387c0-0.4043 0.31957-0.7294 0.73147-0.7294h0.28187c0.40464 0 0.73458 0.32856 0.73458 0.7294v6.4601c0 0.60524 0.49457 1.1026 1.0998 1.1026h2.4258c0.60697 0 1.1015-0.49733 1.1015-1.1026v-6.4601c0-0.4043 0.32129-0.7294 0.72974-0.7294h0.28498c0.40464 0 0.7332 0.32856 0.7332 0.7294v6.7057c0 1.5325-1.0773 2.5216-2.7509 2.5216h-0.30435z"/><path transform="translate(109.89 63.117) scale(-1 1) rotate(180) translate(-109.89 -63.117)" d="m109.64 63.168h0.17396c0.19852 0 0.3666 0.071591 0.3666 0.25835 0 0.13211-0.095801 0.26458-0.3666 0.26458-0.078162 0-0.13212-0.0062253-0.17396-0.012796v-0.51013zm0-0.83523h-0.24036v1.5072c0.12624 0.01833 0.24659 0.036314 0.42643 0.036314 0.22895 0 0.3787-0.047727 0.46828-0.11378 0.090613-0.065712 0.13903-0.16739 0.13903-0.31265 0-0.19748-0.13212-0.31784-0.29432-0.36625v-0.012796c0.13246-0.023518 0.22204-0.14353 0.25247-0.36626 0.036314-0.23483 0.071591-0.32441 0.0958-0.37248h-0.25212c-0.03666 0.048073-0.072283 0.18641-0.10203 0.38458-0.036314 0.1916-0.13246 0.26458-0.32441 0.26458h-0.16808v-0.64847h-6.92e-4zm0.25247 1.9281c-0.59452 0-1.0811-0.51047-1.0811-1.1413 0-0.64293 0.48661-1.1472 1.087-1.1472 0.6004-0.0065712 1.0811 0.50425 1.0811 1.141 0 0.63706-0.48073 1.1475-1.0811 1.1475h-0.005879zm0.005879 0.20993c0.73874 0 1.3274-0.6004 1.3274-1.3519 0-0.7626-0.58898-1.3568-1.3333-1.3568-0.73908 0-1.3395 0.59417-1.3395 1.3568 0 0.75084 0.6004 1.3519 1.3395 1.3519h0.005879z"/></g></g></g></g></svg>