<svg viewBox="0 0 246 60"><g fill="#2A3744"><path d="M91.758 21.507c-1.602-.007-3.69.073-5.495 1.807-.721.692-.99 1.899-.99 2.931v11.05c0 .323.112.594.332.814.22.213.487.322.794.322h2.217c.307 0 .567-.11.78-.322.22-.22.33-.49.33-.813v-4.958h7.58c.308 0 .563-.104.775-.317.22-.22.332-.482.332-.788v-1.125c0-.3-.111-.555-.332-.775a1.032 1.032 0 00-.774-.331h-7.58v-2.255c-.054-1.819 1.22-1.9 1.977-1.9h7.513c.306 0 .567-.103.779-.316.22-.22.331-.487.331-.794v-1.11c0-.307-.11-.569-.331-.789a1.043 1.043 0 00-.78-.331h-7.458zm61.427 0a.702.702 0 00-.516.214.695.695 0 00-.2.516v3.624c-1.275-.401-2.416-.6-3.415-.6-1.936 0-3.48.578-4.628 1.734-1.141 1.15-1.71 2.805-1.71 4.968 0 2.156.55 3.811 1.651 4.968 1.11 1.156 2.487 1.733 4.131 1.733 1.645 0 3.093-.438 4.336-1.32v.366c0 .204.066.38.2.52a.69.69 0 00.516.2h2.27a.695.695 0 00.517-.2.712.712 0 00.214-.52V22.237a.677.677 0 00-.214-.516.677.677 0 00-.517-.214h-2.635zm46.3 0c-.307 0-.573.11-.794.331-.22.22-.331.482-.331.789V37.32c0 .307.11.569.331.79.22.212.487.32.794.32h10.148c1.755 0 3.234-.443 4.438-1.324 1.212-.89 1.822-2.184 1.822-3.891 0-1.707-.76-2.97-2.27-3.78 1.062-.865 1.593-1.872 1.593-3.029 0-1.164-.309-2.12-.93-2.868-1.118-1.353-2.855-2.031-5.208-2.031h-9.593zm3.328 3.2h6.313c.496 0 .895.149 1.194.448.299.299.448.716.448 1.251 0 .527-.15.938-.448 1.237-.3.291-.698.439-1.194.439h-6.313v-3.375zm-92.23.555c-1.205 0-2.181.14-2.929.423-.74.276-1.511.704-2.314 1.286v-.745a.695.695 0 00-.2-.516.688.688 0 00-.52-.215h-2.646a.702.702 0 00-.517.215.695.695 0 00-.2.516V37.71c0 .212.067.387.2.52.134.135.304.2.517.2h2.645a.685.685 0 00.507-.2.687.687 0 00.214-.52v-7.54c.968-1.163 1.983-1.748 3.045-1.748l1.817.069h.38a.707.707 0 00.521-.2.673.673 0 00.21-.516v-1.797a.664.664 0 00-.21-.507.684.684 0 00-.52-.21zm8.193 0c-2.164 0-3.856.579-5.076 1.743-1.22 1.157-1.827 2.819-1.827 4.982 0 2.156.605 3.805 1.817 4.953 1.212 1.149 2.905 1.724 5.077 1.724 4.304.008 6.454-1.117 6.454-3.375a.673.673 0 00-.209-.516.688.688 0 00-.521-.214h-1.759c-.567.008-1.042.249-1.427.72-.386.473-1.102.707-2.149.707-1.046 0-1.81-.222-2.29-.663-.472-.44-.749-1.14-.828-2.108h8.891a.695.695 0 00.517-.2.733.733 0 00.214-.536v-.672c0-2.108-.605-3.725-1.817-4.85-1.212-1.133-2.903-1.695-5.067-1.695zm15.356 0c-2.164 0-3.857.579-5.077 1.743-1.22 1.157-1.826 2.819-1.826 4.982 0 2.156.605 3.805 1.817 4.953 1.212 1.149 2.904 1.724 5.076 1.724 4.305.008 6.455-1.117 6.455-3.375a.677.677 0 00-.214-.516.677.677 0 00-.517-.214h-1.758c-.567.008-1.042.249-1.428.72-.385.473-1.102.707-2.148.707-1.047 0-1.815-.222-2.295-.663-.472-.44-.744-1.14-.823-2.108h8.886a.707.707 0 00.735-.736v-.672c0-2.108-.605-3.725-1.817-4.85-1.212-1.133-2.902-1.695-5.066-1.695zm31.299 0c-2.298 0-4.058.562-5.286 1.695-1.228 1.125-1.841 2.795-1.841 5.006 0 2.203.613 3.869 1.841 5.002 1.228 1.133 2.988 1.7 5.286 1.7 2.306 0 4.072-.567 5.3-1.7 1.228-1.133 1.842-2.8 1.842-5.002 0-2.21-.614-3.881-1.842-5.006-1.228-1.133-2.994-1.695-5.3-1.695zm16.653 0c-.772 0-1.432.149-1.983.448-.543.29-1.1.71-1.666 1.261v-.745a.695.695 0 00-.2-.516.688.688 0 00-.521-.215h-2.646a.702.702 0 00-.516.215.689.689 0 00-.2.516l.084 11.484c.002.212-.018.387.116.52a.69.69 0 00.516.2h2.646a.685.685 0 00.506-.2.687.687 0 00.215-.52V29.8c.802-1.124 1.64-1.684 2.514-1.684 1.369-.008 2.055.931 2.055 2.82v6.774c0 .204.066.38.2.52.142.135.319.2.531.2h2.63a.685.685 0 00.508-.2.688.688 0 00.214-.52v-6.775c0-.338-.021-.674-.068-1.013.889-1.203 1.747-1.806 2.582-1.806 1.369-.008 2.055.931 2.055 2.82v6.774c0 .204.066.38.2.52.142.135.319.2.531.2h2.631a.707.707 0 00.521-.2.706.706 0 00.2-.52v-6.775c0-1.935-.448-3.365-1.345-4.285-.889-.929-2.106-1.388-3.649-1.388-1.534-.008-3.032.746-4.496 2.264-.944-1.51-2.332-2.264-4.165-2.264zm42.266 0c-2.298 0-4.058.562-5.285 1.695-1.228 1.125-1.842 2.795-1.842 5.006 0 2.203.614 3.869 1.842 5.002 1.227 1.133 2.987 1.7 5.285 1.7 2.306 0 4.073-.567 5.3-1.7 1.228-1.133 1.842-2.8 1.842-5.002 0-2.21-.614-3.881-1.841-5.006-1.228-1.133-2.995-1.695-5.3-1.695zm8.004.233a.507.507 0 00-.404.166c-.22.252-.203.541.049.872l3.834 5.415-4.107 5.44c-.126.142-.19.272-.19.39 0 .11.017.209.049.287.063.244.231.366.506.366h2.514c.724 0 1.336-.35 1.832-1.043l2.28-3.068 2.265 3.068c.504.693 1.118 1.043 1.842 1.043h2.513c.276 0 .444-.122.507-.366a.626.626 0 00.049-.272c0-.126-.064-.263-.19-.405l-4.107-5.44 3.834-5.415c.252-.33.27-.62.049-.872a.496.496 0 00-.4-.166h-2.562c-.764 0-1.377.346-1.842 1.038l-1.958 2.975-1.963-2.975c-.465-.692-1.079-1.037-1.842-1.038h-2.558zM118.767 27.94c1.747 0 2.659.925 2.737 2.781h-5.49c.094-1.856 1.013-2.78 2.753-2.78zm15.355 0c1.747 0 2.66.925 2.738 2.781h-5.49c.094-1.856 1.013-2.78 2.752-2.78zm31.309 0c1.054 0 1.826.318 2.314.955.496.637.745 1.653.745 3.053s-.25 2.424-.745 3.069c-.488.645-1.26.969-2.314.969-1.047 0-1.812-.324-2.3-.97-.488-.644-.735-1.667-.735-3.068 0-1.4.247-2.416.735-3.053s1.253-.955 2.3-.955zm58.92 0c1.054 0 1.825.318 2.313.955.496.637.746 1.653.746 3.053s-.25 2.424-.746 3.069c-.488.645-1.26.969-2.314.969-1.046 0-1.811-.324-2.3-.97-.487-.644-.735-1.667-.735-3.068 0-1.4.248-2.416.736-3.053s1.253-.955 2.3-.955zm-74.445.176c.693 0 1.548.157 2.563.472v6.17c-1.133.709-2.129 1.062-2.987 1.062-.85 0-1.49-.307-1.914-.92-.425-.614-.638-1.592-.638-2.937 0-1.345.223-2.321.672-2.927.449-.614 1.218-.92 2.304-.92zm52.907 3.068h6.752c.606 0 1.07.179 1.393.54.323.362.482.861.482 1.49 0 .63-.16 1.124-.482 1.486-.323.362-.787.54-1.393.54h-6.752v-4.056z"/><path fill-opacity=".7" d="M6.255.117C4.34.171 2.643.757 1.55 2.012c-3.42 3.921.345 7.568 1.652 12.526 1.745 6.616-.24 13.656 5.056 18.287 1.825 1.595 4.027 2.015 6.144 2.211-2.783 3.277-4.46 7.822-3.547 12.492 1.599 8.174 9.68 13.615 17.694 12.248 4.57-.78 8.249-3.58 10.25-7.402a.18.18 0 01.317 0c2.001 3.822 5.68 6.623 10.25 7.402 8.013 1.367 16.06-4.074 17.66-12.248.913-4.67-.73-9.215-3.513-12.492 2.116-.196 4.285-.616 6.109-2.21 5.296-4.632 3.312-11.672 5.057-18.288 1.307-4.958 5.067-8.605 1.646-12.526C75.23.758 73.574.17 71.657.117 67.44-.002 63.047 1.69 58.597 3.8c-4.452 2.11-9.363 5.731-12.453 9.609L57.55 20.03 39.51 30.501l-1.578 19.865-.41-20.78-2.133-1.238-1.569 19.686-.41-20.835-2.138-1.242-1.564 19.749-.419-20.898-2.124-1.232-1.573 19.797-.414-20.956-2.12-1.228-1.578 19.856-.414-21.015 10.922-6.34c-3.126-4.008-8.226-7.783-12.67-9.892C14.871 1.69 10.552.023 6.254.117z"/></g></svg>