<svg width="60" height="24" class="icon icon-card_gpay" icon="card_gpay" viewBox="0 0 60 24" fill="none" xmlns="http://www.w3.org/2000/svg"><path d="M28.3599 11.6261V18.5989H26.1106V1.35435H31.9588C33.3833 1.35435 34.7329 1.87919 35.7826 2.85388C36.8322 3.7536 37.3571 5.10317 37.3571 6.52773C37.3571 7.95228 36.8322 9.22688 35.7826 10.2016C34.7329 11.1763 33.4583 11.7011 31.9588 11.7011L28.3599 11.6261ZM28.3599 3.45369V9.45181H32.1087C32.9334 9.45181 33.7582 9.1519 34.283 8.55209C35.4826 7.42744 35.4826 5.55303 34.358 4.42839L34.283 4.35341C33.6832 3.7536 32.9334 3.37872 32.1087 3.45369H28.3599Z" fill="#000000"></path><path d="M42.5306 6.45285C44.18 6.45285 45.4546 6.90271 46.4293 7.80243C47.404 8.70214 47.8539 9.90176 47.8539 11.4013V18.599H45.7545V16.9495H45.6796C44.7798 18.2991 43.5052 18.9739 42.0057 18.9739C40.7311 18.9739 39.6065 18.599 38.7068 17.8493C37.882 17.0995 37.3572 16.0498 37.3572 14.9252C37.3572 13.7256 37.807 12.7509 38.7068 12.0011C39.6065 11.2513 40.8811 10.9514 42.3806 10.9514C43.7302 10.9514 44.7798 11.1764 45.6046 11.7012V11.1764C45.6046 10.4266 45.3047 9.67684 44.7049 9.22698C44.1051 8.70214 43.3553 8.40224 42.5306 8.40224C41.256 8.40224 40.2813 8.92707 39.6065 9.97674L37.6571 8.77712C38.8567 7.20261 40.4312 6.45285 42.5306 6.45285ZM39.6814 15.0002C39.6814 15.6 39.9814 16.1248 40.4312 16.4247C40.956 16.7996 41.5559 17.0245 42.1557 17.0245C43.0554 17.0245 43.9551 16.6496 44.6299 15.9749C45.3797 15.3001 45.7545 14.4753 45.7545 13.5756C45.0797 13.0508 44.1051 12.7509 42.8305 12.7509C41.9307 12.7509 41.181 12.9758 40.5812 13.4257C39.9814 13.8005 39.6814 14.3254 39.6814 15.0002Z" fill="#000000"></path><path d="M60.0001 6.82701L52.5774 23.8467H50.3281L53.1022 17.9235L48.2288 6.90199H50.628L54.1519 15.3743H54.2269L57.6758 6.90199H60.0001V6.82701Z" fill="#000000"></path><path d="M19.438 10.1254C19.438 9.45057 19.363 8.77579 19.2881 8.101H9.91602V11.9248H15.2393C15.0144 13.1244 14.3396 14.2491 13.29 14.9239V17.3981H16.5139C18.3883 15.6736 19.438 13.1244 19.438 10.1254Z" fill="#4285F4"></path><path d="M9.91631 19.7981C12.6155 19.7981 14.8647 18.8984 16.5142 17.3989L13.2902 14.9247C12.3905 15.5245 11.2659 15.8994 9.91631 15.8994C7.36711 15.8994 5.11782 14.1749 4.36805 11.7757H1.06909V14.3249C2.79355 17.6988 6.16749 19.7981 9.91631 19.7981Z" fill="#34A853"></path><path d="M4.36737 11.777C3.91752 10.5774 3.91752 9.22782 4.36737 7.95322V5.40402H1.06841C-0.356138 8.17815 -0.356138 11.4771 1.06841 14.3262L4.36737 11.777Z" fill="#FBBC04"></path><path d="M9.91555 3.90281C11.3401 3.90281 12.6897 4.42764 13.7393 5.40233L16.5884 2.55323C14.789 0.903751 12.3898 -0.0709426 9.99052 0.00403384C6.2417 0.00403384 2.79279 2.10337 1.14331 5.47731L4.44227 8.02651C5.11706 5.62726 7.36635 3.90281 9.91555 3.90281Z" fill="#EA4335"></path></svg>
