<svg width="246" height="60" version="1.1" viewBox="0 0 246 60" xmlns="http://www.w3.org/2000/svg"><g fill="none" fill-rule="evenodd"><g transform="translate(-1329 -803)" fill="#2A3744" fill-rule="nonzero"><g transform="translate(345 730)"><g transform="translate(984 73)"><path d="m91.758 21.507c-1.6022-0.007013-3.6893 0.073387-5.4952 1.8068-0.7211 0.69226-0.98894 1.899-0.98896 2.9318v11.05c0 0.32257 0.11109 0.59305 0.33127 0.8133 0.22051 0.21243 0.48718 0.32143 0.79409 0.32143h2.2166c0.30689 0 0.56702-0.109 0.77947-0.32143 0.22032-0.22025 0.33127-0.49075 0.33127-0.8133v-4.9578h7.5803c0.30689 0 0.56198-0.10412 0.77459-0.31655 0.22018-0.22027 0.33127-0.48215 0.33127-0.78896v-1.125c0-0.29892-0.11109-0.55404-0.33127-0.77436-0.21261-0.22027-0.4677-0.33115-0.77459-0.33117h-7.5803v-2.2549c-0.053269-1.8187 1.2201-1.8993 1.9779-1.8993h7.5121c0.30689 1.56e-5 0.56702-0.10417 0.77947-0.31657 0.22032-0.22027 0.33127-0.487 0.33127-0.79382v-1.1104c0-0.30681-0.11093-0.56868-0.33127-0.78898-0.21245-0.22025-0.47258-0.33114-0.77947-0.33117h-6.8009c-0.2069 0-0.42879 0.0015584-0.65768 0zm61.427 0c-0.20461 3.12e-5 -0.37475 0.072701-0.51638 0.21429-0.1338 0.13376-0.19976 0.30385-0.19975 0.51625v3.6234c-1.2749-0.40122-2.4156-0.59902-3.4151-0.59903-1.9359 1.56e-5 -3.4791 0.57732-4.6281 1.7338-1.1411 1.1486-1.71 2.8041-1.71 4.9675 0 2.1556 0.54976 3.8111 1.6515 4.9675 1.1096 1.1565 2.4864 1.7338 4.1312 1.7338 1.6447 0 3.0924-0.43869 4.3358-1.3198v0.36527c0 0.20455 0.065959 0.3795 0.19975 0.52111 0.13377 0.13373 0.30391 0.19967 0.5164 0.19967h2.2702c0.21247 0 0.38259-0.065938 0.5164-0.19967 0.14164-0.14162 0.21434-0.31657 0.21435-0.52111v-15.472c-1.6e-5 -0.2124-0.072709-0.38249-0.21435-0.51625-0.1338-0.14158-0.30393-0.21425-0.5164-0.21429h-2.6356zm46.3 0c-0.30691 3.12e-5 -0.57374 0.11091-0.79408 0.33117-0.22036 0.2203-0.33127 0.48217-0.33127 0.78898v14.693c0 0.30681 0.11092 0.56869 0.33127 0.78896 0.22034 0.21242 0.48717 0.32143 0.79408 0.32143h10.148c1.7549 0 3.234-0.44356 4.4381-1.3247 1.2119-0.88898 1.822-2.1841 1.822-3.8912-1.6e-5 -1.7071-0.75925-2.9689-2.2702-3.7792 1.0624-0.86536 1.593-1.8727 1.593-3.0292-1.6e-5 -1.1643-0.30881-2.1211-0.93048-2.8685-1.1175-1.3531-2.8548-2.0308-5.2078-2.0309h-9.5923zm3.3274 3.1997h6.3137c0.49577 1.56e-5 0.8945 0.14911 1.1936 0.44805 0.29904 0.29896 0.44819 0.71668 0.44819 1.2516 0 0.5271-0.14916 0.93807-0.44819 1.237-0.29905 0.2911-0.69778 0.43833-1.1936 0.43833h-6.3137v-3.375zm-92.231 0.55519c-1.2041 1.56e-5 -2.1803 0.14049-2.9279 0.42371-0.73975 0.27535-1.5114 0.70356-2.3141 1.2857v-0.74514c0-0.2124-0.065958-0.38249-0.19973-0.51623-0.13379-0.1416-0.30881-0.21427-0.52128-0.21429h-2.6453c-0.20461 1.55e-5 -0.37474 0.072686-0.51638 0.21429-0.13379 0.13375-0.19975 0.30383-0.19975 0.51623v11.484c0 0.21242 0.065959 0.38737 0.19975 0.52111 0.13377 0.13373 0.30391 0.19967 0.51638 0.19967h2.6453c0.20461 0 0.37287-0.065938 0.50665-0.19967 0.14164-0.13375 0.21435-0.3087 0.21435-0.52111v-7.539c0.96794-1.1643 1.9824-1.7484 3.0448-1.7484l1.8171 0.068197h0.37999c0.21247 0 0.38747-0.065938 0.52128-0.19968 0.14163-0.13373 0.20946-0.30382 0.20947-0.51623v-1.7971c-1.5e-5 -0.20455-0.067845-0.37275-0.20947-0.50649-0.1338-0.1416-0.30881-0.20941-0.52128-0.20942zm8.1942 0c-2.1641 1.56e-5 -3.8565 0.57919-5.0763 1.7435-1.2198 1.1565-1.8269 2.8187-1.8269 4.9821 0 2.1556 0.60522 3.8043 1.8171 4.9529 1.2119 1.1486 2.9043 1.724 5.0763 1.724 4.3046 0.0077922 6.455-1.1172 6.455-3.375 0-0.21242-0.067829-0.3825-0.20947-0.51625-0.1338-0.1416-0.30881-0.21427-0.52126-0.21429h-1.7587c-0.56663 0.007948-1.0418 0.24877-1.4274 0.72078-0.3856 0.47204-1.1018 0.70618-2.1484 0.70618-1.0467 0-1.8096-0.22178-2.2897-0.66234-0.47218-0.44056-0.74949-1.1411-0.82818-2.1088h8.8908c0.21247 1.56e-5 0.38261-0.065922 0.51641-0.19967 0.14163-0.1416 0.21434-0.3233 0.21435-0.53571v-0.67208c-1.6e-5 -2.1084-0.60524-3.7256-1.8171-4.8506-1.2119-1.1328-2.9024-1.6948-5.0665-1.6948zm15.356 0c-2.1641 1.56e-5 -3.8565 0.57919-5.0763 1.7435-1.2198 1.1565-1.8269 2.8187-1.8269 4.9821 0 2.1556 0.60523 3.8043 1.8171 4.9529 1.2119 1.1486 2.9043 1.724 5.0763 1.724 4.3046 0.0077922 6.455-1.1172 6.455-3.375 0-0.21242-0.072709-0.3825-0.21435-0.51625-0.13379-0.1416-0.30393-0.21427-0.51638-0.21429h-1.7587c-0.56663 0.007948-1.0418 0.24877-1.4274 0.72078-0.3856 0.47204-1.1018 0.70618-2.1484 0.70618-1.0467 0-1.8145-0.22178-2.2946-0.66234-0.47217-0.44056-0.74461-1.1411-0.8233-2.1088h8.8859c0.21247 1.56e-5 0.38747-0.065922 0.52128-0.19967 0.14163-0.1416 0.21434-0.3233 0.21435-0.53571v-0.67208c-1.5e-5 -2.1084-0.60524-3.7256-1.8171-4.8506-1.2119-1.1328-2.9024-1.6948-5.0665-1.6948zm31.299 0c-2.2979 1.56e-5 -4.0581 0.56196-5.2858 1.6948-1.2276 1.125-1.8415 2.7959-1.8415 5.0065 0 2.2028 0.61385 3.8688 1.8415 5.0016 1.2276 1.1328 2.9879 1.6997 5.2858 1.6997 2.3058 0 4.0727-0.56682 5.3004-1.6997 1.2276-1.1329 1.8415-2.7989 1.8415-5.0016-1.6e-5 -2.2106-0.61386-3.8815-1.8415-5.0065-1.2277-1.1328-2.9946-1.6948-5.3004-1.6948zm16.653 0c-0.77122 1.56e-5 -1.4319 0.14911-1.9828 0.44805-0.54301 0.2911-1.0995 0.71068-1.6661 1.2614v-0.74514c0-0.2124-0.065959-0.38249-0.19973-0.51623-0.13379-0.1416-0.30881-0.21427-0.52128-0.21429h-2.6453c-0.20461 1.55e-5 -0.37474 0.072686-0.51638 0.21429-0.13379 0.13375-0.2013 0.30383-0.19975 0.51623l0.083925 11.484c0.001559 0.21242-0.017967 0.38737 0.11582 0.52111 0.13377 0.13373 0.30392 0.19967 0.51638 0.19967h2.6453c0.20461 0 0.37287-0.065938 0.50665-0.19967 0.14164-0.13375 0.21435-0.3087 0.21435-0.52111v-7.9091c0.8027-1.125 1.6402-1.685 2.5138-1.6851 1.3693-0.0077922 2.0558 0.93171 2.0558 2.8198v6.7744c-1.5e-5 0.20455 0.065943 0.3795 0.19975 0.52111 0.14163 0.13373 0.31852 0.19967 0.531 0.19967h2.6307c0.20459 0 0.37285-0.065938 0.50665-0.19967 0.14164-0.13375 0.21434-0.3087 0.21435-0.52111v-6.7744c-1.5e-5 -0.33828-0.020999-0.67468-0.068203-1.013 0.88925-1.2036 1.7478-1.8068 2.582-1.8068 1.3693-0.0077922 2.0558 0.93171 2.0558 2.8198v6.7744c-1.5e-5 0.20455 0.065943 0.3795 0.19975 0.52111 0.14163 0.13373 0.31851 0.19967 0.531 0.19967h2.6307c0.21245 0 0.38746-0.065938 0.52128-0.19967 0.13376-0.13375 0.19972-0.3087 0.19973-0.52111v-6.7744c0-1.9353-0.44748-3.3653-1.3446-4.2857-0.88928-0.92829-2.1065-1.388-3.6489-1.388-1.5346-0.0077922-3.0328 0.74628-4.4966 2.2646-0.94436-1.5105-2.3317-2.2646-4.1653-2.2646zm42.267 0c-2.2979 1.56e-5 -4.0581 0.56196-5.2858 1.6948-1.2276 1.125-1.8415 2.7959-1.8415 5.0065 0 2.2028 0.61385 3.8688 1.8415 5.0016 1.2276 1.1328 2.9879 1.6997 5.2858 1.6997 2.3058 0 4.0727-0.56682 5.3004-1.6997 1.2276-1.1329 1.8415-2.7989 1.8415-5.0016-1.6e-5 -2.2106-0.61386-3.8815-1.8415-5.0065-1.2277-1.1328-2.9946-1.6948-5.3004-1.6948zm8.0042 0.23377c-0.17314 1.55e-5 -0.30992 0.055465-0.40436 0.16558-0.22034 0.25177-0.2031 0.54136 0.048732 0.87175l3.834 5.4156-4.1068 5.4399c-0.12592 0.14162-0.19 0.27161-0.19 0.38961 0 0.11014 0.017242 0.20866 0.048717 0.28733 0.06295 0.24388 0.23122 0.36527 0.50665 0.36527h2.5138c0.724 0 1.336-0.3499 1.8317-1.0422l2.2799-3.0682 2.2653 3.0682c0.50363 0.69231 1.1175 1.0422 1.8415 1.0422h2.5138c0.27543 0 0.44369-0.12139 0.50665-0.36527 0.031475-0.06293 0.048717-0.15471 0.048732-0.27273-1.5e-5 -0.12586-0.064103-0.2626-0.19-0.40421l-4.1068-5.4399 3.834-5.4156c0.25182-0.33039 0.26906-0.61998 0.048716-0.87175-0.094455-0.11012-0.22636-0.16557-0.39948-0.16558h-2.5625c-0.76336 1.55e-5 -1.3772 0.34505-1.8415 1.0373l-1.9584 2.9757-1.9633-2.9757c-0.46431-0.69228-1.0782-1.0373-1.8415-1.0373h-2.5576zm-113.59 2.4448c1.747 1.55e-5 2.6592 0.92422 2.7379 2.7808h-5.4904c0.094424-1.8566 1.0133-2.7808 2.7525-2.7808zm15.356 0c1.747 1.55e-5 2.6592 0.92422 2.7379 2.7808h-5.4904c0.094425-1.8566 1.0133-2.7808 2.7525-2.7808zm31.309 0c1.0545 1.55e-5 1.8261 0.31733 2.3141 0.95455 0.49577 0.63725 0.74536 1.6532 0.74536 3.0536s-0.24958 2.4231-0.74536 3.0682c-0.48792 0.6451-1.2595 0.96915-2.3141 0.96915-1.0467 0-1.8115-0.32405-2.2994-0.96915s-0.73562-1.6678-0.73562-3.0682c0-1.4003 0.2477-2.4163 0.73562-3.0536 0.48792-0.63722 1.2528-0.95453 2.2994-0.95455zm58.92 0c1.0545 1.55e-5 1.8261 0.31733 2.3141 0.95455 0.49577 0.63725 0.74536 1.6532 0.74536 3.0536s-0.24958 2.4231-0.74536 3.0682c-0.48792 0.6451-1.2595 0.96915-2.3141 0.96915-1.0467 0-1.8115-0.32405-2.2994-0.96915-0.48792-0.6451-0.73562-1.6678-0.73562-3.0682 0-1.4003 0.2477-2.4163 0.73562-3.0536 0.48792-0.63722 1.2528-0.95453 2.2994-0.95455zm-74.444 0.17532c0.69251 1.56e-5 1.5473 0.15773 2.5625 0.47241v6.1704c-1.1332 0.70805-2.1286 1.0617-2.9863 1.0617-0.84992 0-1.4896-0.30683-1.9146-0.92045-0.42497-0.61364-0.6382-1.5914-0.6382-2.9367s0.22372-2.3212 0.67231-2.9269c0.44855-0.61364 1.2183-0.92045 2.3043-0.92046zm52.906 3.0682h6.7521c0.60594 0 1.0706 0.17871 1.3933 0.54059 0.32264 0.36189 0.48229 0.8609 0.4823 1.4902-1.6e-5 0.62938-0.15967 1.1235-0.4823 1.4854-0.32267 0.36189-0.78736 0.54059-1.3933 0.54058h-6.7521v-4.0568z"/><path d="m6.2552 0.11732c-1.9166 0.053673-3.6119 0.64027-4.706 1.8945-3.4204 3.9213 0.34467 7.5679 1.6515 12.526 1.745 6.6159-0.23951 13.656 5.0568 18.287 1.8241 1.5948 4.0268 2.015 6.1432 2.211-2.7824 3.2773-4.46 7.8221-3.5466 12.492 1.5988 8.1736 9.6807 13.615 17.694 12.248 4.5709-0.77994 8.2488-3.5797 10.25-7.4026 0.072854-0.12614 0.24348-0.12672 0.31666 0 2.0014 3.822 5.6798 6.6228 10.25 7.4026 8.0132 1.3668 16.061-4.0748 17.66-12.248 0.91342-4.6698-0.73008-9.2145-3.5125-12.492 2.1163-0.19608 4.2849-0.61624 6.1091-2.211 5.2963-4.6316 3.3118-11.671 5.0568-18.287 1.3068-4.958 5.067-8.6047 1.6466-12.526-1.0942-1.2542-2.7505-1.8408-4.6671-1.8945-4.217-0.11892-8.6098 1.5725-13.061 3.6818-4.4512 2.1094-9.3622 5.7312-12.452 9.6088l11.405 6.6234-18.04 10.471-1.5784 19.865-0.40922-20.781-2.1338-1.237-1.5687 19.685-0.40922-20.834-2.1387-1.2419-1.5638 19.748-0.41896-20.898-2.124-1.2321-1.5736 19.797-0.41409-20.956-2.1192-1.2273-1.5784 19.856-0.41409-21.015 10.922-6.3409c-3.1266-4.0078-8.2267-7.7822-12.671-9.8912s-8.763-3.7759-13.061-3.6818z" fill-opacity=".7"/></g></g></g></g></svg>