<?xml version="1.0" encoding="UTF-8" standalone="no"?>
<svg
   xmlns:dc="http://purl.org/dc/elements/1.1/"
   xmlns:cc="http://creativecommons.org/ns#"
   xmlns:rdf="http://www.w3.org/1999/02/22-rdf-syntax-ns#"
   xmlns:svg="http://www.w3.org/2000/svg"
   xmlns="http://www.w3.org/2000/svg"
   xmlns:xlink="http://www.w3.org/1999/xlink"
   xmlns:sodipodi="http://sodipodi.sourceforge.net/DTD/sodipodi-0.dtd"
   xmlns:inkscape="http://www.inkscape.org/namespaces/inkscape"
   width="239.28922"
   height="57.705601"
   id="svg2"
   version="1.1"
   inkscape:version="1.0.1 (3bc2e813f5, 2020-09-07)"
   sodipodi:docname="logo-libreoffice.svg">
  <title
     id="title5171">LibreOffice Initial Artwork</title>
  <sodipodi:namedview
     id="base"
     pagecolor="#ffffff"
     bordercolor="#666666"
     borderopacity="1.0"
     inkscape:pageopacity="0"
     inkscape:pageshadow="2"
     inkscape:zoom="4"
     inkscape:cx="114.9737"
     inkscape:cy="18.301582"
     inkscape:document-units="px"
     inkscape:current-layer="layer1"
     showgrid="false"
     inkscape:window-width="1920"
     inkscape:window-height="1136"
     inkscape:window-x="0"
     inkscape:window-y="27"
     inkscape:window-maximized="1"
     showguides="true"
     inkscape:guide-bbox="true"
     width="551px"
     inkscape:showpageshadow="false"
     inkscape:document-rotation="0"
     fit-margin-top="5"
     fit-margin-left="5"
     fit-margin-right="5"
     fit-margin-bottom="5"
     lock-margins="true">
    <inkscape:grid
       id="grid10649"
       type="xygrid"
       empspacing="5"
       visible="true"
       enabled="true"
       snapvisiblegridlinesonly="true"
       originx="-548"
       originy="-462.30244" />
  </sodipodi:namedview>
  <defs
     id="defs4">
    <linearGradient
       id="linearGradient4274">
      <stop
         id="stop4276"
         offset="0"
         style="stop-color:#333333;stop-opacity:1" />
      <stop
         id="stop4278"
         offset="1"
         style="stop-color:#808080;stop-opacity:1" />
    </linearGradient>
    <linearGradient
       id="linearGradient4266">
      <stop
         style="stop-color:#333333;stop-opacity:1"
         offset="0"
         id="stop4268" />
      <stop
         style="stop-color:#666666;stop-opacity:1"
         offset="1"
         id="stop4270" />
    </linearGradient>
    <linearGradient
       id="linearGradient4162">
      <stop
         id="stop4164"
         offset="0"
         style="stop-color:#333333;stop-opacity:1" />
      <stop
         id="stop4166"
         offset="1"
         style="stop-color:#999999;stop-opacity:1" />
    </linearGradient>
    <linearGradient
       id="linearGradient4154"
       inkscape:collect="always">
      <stop
         id="stop4156"
         offset="0"
         style="stop-color:#4d4d4d;stop-opacity:1" />
      <stop
         id="stop4158"
         offset="1"
         style="stop-color:#666666;stop-opacity:1" />
    </linearGradient>
    <linearGradient
       inkscape:collect="always"
       id="linearGradient4148">
      <stop
         style="stop-color:#333333;stop-opacity:1"
         offset="0"
         id="stop4150" />
      <stop
         style="stop-color:#4d4d4d;stop-opacity:1"
         offset="1"
         id="stop4152" />
    </linearGradient>
    <linearGradient
       inkscape:collect="always"
       id="linearGradient4076">
      <stop
         style="stop-color:#18a303;stop-opacity:1"
         offset="0"
         id="stop4078" />
      <stop
         style="stop-color:#92e285;stop-opacity:1"
         offset="1"
         id="stop4080" />
    </linearGradient>
    <linearGradient
       id="linearGradient4374"
       inkscape:collect="always">
      <stop
         id="stop4376"
         offset="0"
         style="stop-color:#000000;stop-opacity:1" />
      <stop
         id="stop4378"
         offset="1"
         style="stop-color:#666666;stop-opacity:1" />
    </linearGradient>
    <linearGradient
       id="linearGradient4366"
       inkscape:collect="always">
      <stop
         id="stop4368"
         offset="0"
         style="stop-color:#18a303;stop-opacity:1" />
      <stop
         id="stop4370"
         offset="1"
         style="stop-color:#1bce00;stop-opacity:1" />
    </linearGradient>
    <linearGradient
       inkscape:collect="always"
       id="linearGradient4307">
      <stop
         style="stop-color:#000000;stop-opacity:1"
         offset="0"
         id="stop4309" />
      <stop
         style="stop-color:#666666;stop-opacity:1"
         offset="1"
         id="stop4311" />
    </linearGradient>
    <style
       id="style51071-8"
       type="text/css">
   
    .str0 {stroke:#1F1A17;stroke-width:3}
    .fil0 {fill:none}
   
  </style>
    <style
       type="text/css"
       id="style2031-6">
   
    .str0 {stroke:#1F1A17;stroke-width:0.0762}
    .fil0 {fill:none}
    .fil1 {fill:none;fill-rule:nonzero}
   
  </style>
    <style
       type="text/css"
       id="style5368-2">
   
    .str0 {stroke:#000000;stroke-width:63}
    .str1 {stroke:#09098F;stroke-width:63}
    .fil5 {fill:none}
    .fil1 {fill:#000000}
    .fil2 {fill:#000000}
    .fil3 {fill:#4D66CC}
    .fil0 {fill:#576ECD}
    .fil4 {fill:#89A1D4}
   
  </style>
    <style
       id="style51071"
       type="text/css">
   
    .str0 {stroke:#1F1A17;stroke-width:3}
    .fil0 {fill:none}
   
  </style>
    <style
       type="text/css"
       id="style2031">
   
    .str0 {stroke:#1F1A17;stroke-width:0.0762}
    .fil0 {fill:none}
    .fil1 {fill:none;fill-rule:nonzero}
   
  </style>
    <style
       type="text/css"
       id="style5368">
   
    .str0 {stroke:#000000;stroke-width:63}
    .str1 {stroke:#09098F;stroke-width:63}
    .fil5 {fill:none}
    .fil1 {fill:#000000}
    .fil2 {fill:#000000}
    .fil3 {fill:#4D66CC}
    .fil0 {fill:#576ECD}
    .fil4 {fill:#89A1D4}
   
  </style>
    <linearGradient
       inkscape:collect="always"
       xlink:href="#linearGradient4154"
       id="linearGradient4380"
       gradientUnits="userSpaceOnUse"
       x1="158.4942"
       y1="2022.2076"
       x2="158.4942"
       y2="1982.2323" />
    <linearGradient
       inkscape:collect="always"
       xlink:href="#linearGradient4307"
       id="linearGradient4525"
       gradientUnits="userSpaceOnUse"
       x1="158.4942"
       y1="2022.2076"
       x2="158.4942"
       y2="1982.2323" />
    <linearGradient
       inkscape:collect="always"
       xlink:href="#linearGradient4374"
       id="linearGradient4527"
       gradientUnits="userSpaceOnUse"
       x1="158.4942"
       y1="2053.0254"
       x2="158.4942"
       y2="1982.2323" />
    <linearGradient
       inkscape:collect="always"
       xlink:href="#linearGradient4374"
       id="linearGradient4529"
       gradientUnits="userSpaceOnUse"
       x1="158.4942"
       y1="2053.0254"
       x2="158.4942"
       y2="1982.2323" />
    <linearGradient
       inkscape:collect="always"
       xlink:href="#linearGradient4366"
       id="linearGradient4531"
       gradientUnits="userSpaceOnUse"
       x1="160.76947"
       y1="2011.2181"
       x2="160.76947"
       y2="1972.8456"
       gradientTransform="translate(541.11319)" />
    <filter
       id="filter4026"
       inkscape:label="Inner Shadow Rest"
       inkscape:menu="Shadows and Glows"
       inkscape:menu-tooltip="Adds a colorizable drop shadow inside"
       color-interpolation-filters="sRGB">
      <feGaussianBlur
         id="feGaussianBlur4028"
         stdDeviation="1"
         result="result8" />
      <feOffset
         id="feOffset4030"
         dx="1"
         dy="1"
         result="result11" />
      <feComposite
         id="feComposite4032"
         in2="result11"
         result="result6"
         in="SourceGraphic"
         operator="in" />
      <feFlood
         id="feFlood4034"
         result="result10"
         in="result6"
         flood-opacity="1"
         flood-color="rgb(51,51,51)" />
      <feBlend
         id="feBlend4036"
         in2="result10"
         mode="normal"
         in="result6"
         result="result12" />
      <feComposite
         id="feComposite4038"
         in2="SourceGraphic"
         result="result2"
         operator="in" />
    </filter>
    <linearGradient
       inkscape:collect="always"
       xlink:href="#linearGradient4076"
       id="linearGradient4094"
       gradientUnits="userSpaceOnUse"
       x1="160.76947"
       y1="2011.2181"
       x2="160.76947"
       y2="1972.8456" />
    <filter
       color-interpolation-filters="sRGB"
       inkscape:menu-tooltip="Adds a colorizable drop shadow inside"
       inkscape:menu="Shadows and Glows"
       inkscape:label="Inner Shadow Libre"
       id="filter4195">
      <feGaussianBlur
         result="result8"
         stdDeviation="1"
         id="feGaussianBlur4197" />
      <feOffset
         result="result11"
         dy="1"
         dx="1"
         id="feOffset4199" />
      <feComposite
         operator="in"
         in="SourceGraphic"
         result="result6"
         in2="result11"
         id="feComposite4201" />
      <feFlood
         flood-color="rgb(16,104,2)"
         flood-opacity="1"
         in="result6"
         result="result10"
         id="feFlood4203" />
      <feBlend
         result="result12"
         in="result6"
         mode="normal"
         in2="result10"
         id="feBlend4205" />
      <feComposite
         operator="in"
         result="result2"
         in2="SourceGraphic"
         id="feComposite4207" />
    </filter>
    <linearGradient
       inkscape:collect="always"
       xlink:href="#linearGradient4162"
       id="linearGradient4209"
       gradientUnits="userSpaceOnUse"
       x1="158.4942"
       y1="2017.2126"
       x2="158.4942"
       y2="1982.7227" />
    <filter
       color-interpolation-filters="sRGB"
       inkscape:menu-tooltip="Adds a colorizable drop shadow inside"
       inkscape:menu="Shadows and Glows"
       inkscape:label="Inner Shadow Document Symbol"
       id="filter4225">
      <feGaussianBlur
         result="result8"
         stdDeviation="4"
         id="feGaussianBlur4227" />
      <feOffset
         result="result11"
         dy="1"
         dx="1"
         id="feOffset4229" />
      <feComposite
         operator="in"
         in="SourceGraphic"
         result="result6"
         in2="result11"
         id="feComposite4231" />
      <feFlood
         flood-color="rgb(255,255,255)"
         flood-opacity="1"
         in="result6"
         result="result10"
         id="feFlood4233" />
      <feBlend
         result="result12"
         in="result6"
         mode="normal"
         in2="result10"
         id="feBlend4235" />
      <feComposite
         operator="in"
         result="result2"
         in2="SourceGraphic"
         id="feComposite4237" />
    </filter>
    <linearGradient
       inkscape:collect="always"
       xlink:href="#linearGradient4266"
       id="linearGradient4272"
       gradientUnits="userSpaceOnUse"
       x1="158.4942"
       y1="2017.2126"
       x2="158.4942"
       y2="1982.7227" />
    <inkscape:perspective
       id="perspective3727"
       inkscape:persp3d-origin="0.5 : -91.961069 : 1"
       inkscape:vp_z="1 : -91.794369 : 1"
       inkscape:vp_y="0 : 1000 : 0"
       inkscape:vp_x="0 : -91.794369 : 1"
       sodipodi:type="inkscape:persp3d" />
    <inkscape:perspective
       id="perspective3740"
       inkscape:persp3d-origin="0.5 : -91.961069 : 1"
       inkscape:vp_z="1 : -91.794369 : 1"
       inkscape:vp_y="0 : 1000 : 0"
       inkscape:vp_x="0 : -91.794369 : 1"
       sodipodi:type="inkscape:persp3d" />
    <inkscape:perspective
       id="perspective3753"
       inkscape:persp3d-origin="0.5 : -91.961069 : 1"
       inkscape:vp_z="1 : -91.794369 : 1"
       inkscape:vp_y="0 : 1000 : 0"
       inkscape:vp_x="0 : -91.794369 : 1"
       sodipodi:type="inkscape:persp3d" />
    <inkscape:perspective
       id="perspective3766"
       inkscape:persp3d-origin="0.5 : -91.961069 : 1"
       inkscape:vp_z="1 : -91.794369 : 1"
       inkscape:vp_y="0 : 1000 : 0"
       inkscape:vp_x="0 : -91.794369 : 1"
       sodipodi:type="inkscape:persp3d" />
    <linearGradient
       inkscape:collect="always"
       xlink:href="#linearGradient4148"
       id="linearGradient4558"
       gradientUnits="userSpaceOnUse"
       x1="158.4942"
       y1="2053.0254"
       x2="158.4942"
       y2="1982.2323" />
  </defs>
  <metadata
     id="metadata7">
    <rdf:RDF>
      <cc:Work
         rdf:about="">
        <dc:format>image/svg+xml</dc:format>
        <dc:type
           rdf:resource="http://purl.org/dc/dcmitype/StillImage" />
        <dc:title>LibreOffice Initial Artwork</dc:title>
        <cc:license
           rdf:resource="http://creativecommons.org/licenses/by-nc-sa/4.0/" />
        <dc:date>2010-10-17</dc:date>
        <dc:creator>
          <cc:Agent>
            <dc:title>The Document Foundation Team</dc:title>
          </cc:Agent>
        </dc:creator>
        <dc:publisher>
          <cc:Agent>
            <dc:title>The Document Foundation</dc:title>
          </cc:Agent>
        </dc:publisher>
        <dc:subject>
          <rdf:Bag>
            <rdf:li>Logo</rdf:li>
            <rdf:li>Branding</rdf:li>
            <rdf:li>Artwork</rdf:li>
          </rdf:Bag>
        </dc:subject>
      </cc:Work>
      <cc:License
         rdf:about="http://creativecommons.org/licenses/by-nc-sa/4.0/">
        <cc:permits
           rdf:resource="http://creativecommons.org/ns#Reproduction" />
        <cc:permits
           rdf:resource="http://creativecommons.org/ns#Distribution" />
        <cc:requires
           rdf:resource="http://creativecommons.org/ns#Notice" />
        <cc:requires
           rdf:resource="http://creativecommons.org/ns#Attribution" />
        <cc:prohibits
           rdf:resource="http://creativecommons.org/ns#CommercialUse" />
        <cc:permits
           rdf:resource="http://creativecommons.org/ns#DerivativeWorks" />
        <cc:requires
           rdf:resource="http://creativecommons.org/ns#ShareAlike" />
      </cc:License>
    </rdf:RDF>
  </metadata>
  <g
     inkscape:groupmode="layer"
     id="layer4"
     inkscape:label="Background"
     style="display:inline"
     transform="translate(-523,-465.30264)" />
  <g
     id="layer1"
     inkscape:groupmode="layer"
     inkscape:label="Foreground"
     transform="translate(-523,-2204.0271)"
     style="display:inline">
    <g
       id="text10617"
       style="font-style:normal;font-variant:normal;font-weight:normal;font-stretch:normal;font-size:14px;font-family:Vegur;-inkscape-font-specification:Vegur;fill:#128902;fill-opacity:1;stroke:none"
       transform="matrix(0.58546292,0,0,0.58546292,218.87558,935.49937)" />
    <g
       aria-label="LibreOffice"
       transform="matrix(0.58425859,0,0,0.58666973,218.87558,935.49937)"
       id="text5514"
       style="font-style:normal;font-variant:normal;font-weight:normal;font-stretch:normal;line-height:0%;font-family:Vegur;-inkscape-font-specification:Vegur;fill:#128902;fill-opacity:1;stroke:none">
      <path
         d="m 633.60951,2213.5414 v -38.9159 h -8.91822 v 46.4829 h 28.57885 v -7.567 z"
         style="fill:#808080;fill-opacity:1"
         id="path3369" />
      <path
         d="m 662.95271,2175.7065 c -2.83762,0 -5.13473,2.0945 -5.13473,4.7294 0,2.6349 2.29711,4.7294 5.13473,4.7294 2.83762,0 5.13474,-2.0945 5.13474,-4.7294 0,-2.6349 -2.29712,-4.7294 -5.13474,-4.7294 z m -4.45911,45.4019 h 8.91822 v -32.565 h -8.91822 z"
         style="fill:#808080;fill-opacity:1"
         id="path3371" />
      <path
         d="m 681.58142,2171.4501 h -8.91822 v 49.6583 h 7.49942 l 0.67562,-5.5401 c 1.41881,3.9186 5.26986,6.2157 9.79653,6.2157 8.58041,0 14.72858,-6.5535 14.72858,-17.4311 0,-9.3235 -5.13473,-16.4852 -13.51246,-16.4852 -4.45911,0 -8.10747,1.7567 -10.26947,5.6077 z m 0,32.2272 c 0,-5.2698 3.17543,-8.3777 6.8238,-8.3777 5.47254,0 7.76966,4.324 7.76966,9.729 0,6.5535 -3.10786,9.9316 -7.36429,9.9316 -3.5808,0 -7.22917,-3.1754 -7.22917,-8.1074 z"
         style="fill:#808080;fill-opacity:1"
         id="path3373" />
      <path
         d="m 716.78409,2188.5434 h -7.49942 v 32.565 h 8.91823 v -15.9447 c 0,-5.4726 2.09443,-9.4587 6.28329,-9.4587 1.62149,0 2.63493,0.1351 3.71593,0.608 l 0.33781,-7.9048 c -0.74319,-0.3378 -2.09443,-0.5405 -3.24299,-0.5405 -3.10787,0 -6.68867,2.4323 -7.83723,6.1482 z"
         style="fill:#808080;fill-opacity:1"
         id="path3375" />
      <path
         d="m 757.70023,2212.6631 c -2.43224,1.2837 -5.33742,2.0269 -8.91822,2.0269 -4.86449,0 -7.90479,-2.2971 -8.37773,-6.6211 h 19.79576 c 0.20268,-1.081 0.33781,-2.635 0.33781,-3.7835 0,-8.9182 -4.05374,-16.4177 -13.37734,-16.4177 -8.71553,0 -15.26908,6.8914 -15.26908,17.9716 0,10.6749 6.21573,15.9447 15.13396,15.9447 4.99961,0 8.71553,-0.9459 11.2829,-2.3647 z m -17.22839,-11.0126 c 0.5405,-4.4592 3.04031,-6.8914 6.2833,-6.8914 4.1213,0 5.67523,3.1079 5.67523,6.8914 z"
         style="fill:#808080;fill-opacity:1"
         id="path3377" />
      <path
         d="m 786.50287,2173.9499 c -12.70171,0 -21.48481,9.256 -21.48481,23.9171 0,14.661 8.7831,23.917 21.48481,23.917 12.70171,0 21.48481,-9.256 21.48481,-23.917 0,-14.6611 -8.7831,-23.9171 -21.48481,-23.9171 z m 0,4.8645 c 8.17504,0 15.26908,6.2157 15.26908,19.0526 0,12.8368 -7.09404,19.0525 -15.26908,19.0525 -8.17504,0 -15.26908,-6.2157 -15.26908,-19.0525 0,-12.8369 7.09404,-19.0526 15.26908,-19.0526 z"
         style="font-weight:normal;-inkscape-font-specification:'Andale Mono';fill:#2a3744;fill-opacity:1"
         id="path3379" />
      <path
         d="m 815.05783,2189.0839 h -4.52667 v 4.324 h 4.52667 v 27.7005 h 5.54011 v -27.7005 h 8.17504 v -4.324 h -8.17504 v -3.7835 c 0,-6.8914 3.64836,-9.9317 7.63454,-9.9317 1.89174,0 3.0403,0.2703 4.1213,0.6756 l 0.33781,-4.5942 c -1.081,-0.4054 -2.70249,-0.6756 -4.52667,-0.6756 -8.03992,0 -13.10709,5.3374 -13.10709,15.2691 z"
         style="font-weight:normal;-inkscape-font-specification:'Andale Mono';fill:#2a3744;fill-opacity:1"
         id="path3381" />
      <path
         d="m 831.11392,2189.0839 h -4.52667 v 4.324 h 4.52667 v 27.7005 h 5.54011 v -27.7005 h 8.17504 v -4.324 h -8.17504 v -3.7835 c 0,-6.8914 3.64836,-9.9317 7.63454,-9.9317 1.89174,0 3.0403,0.2703 4.1213,0.6756 l 0.33781,-4.5942 c -1.08099,-0.4054 -2.70249,-0.6756 -4.52667,-0.6756 -8.03992,0 -13.10709,5.3374 -13.10709,15.2691 z"
         style="font-weight:normal;-inkscape-font-specification:'Andale Mono';fill:#2a3744;fill-opacity:1"
         id="path3383" />
      <path
         d="m 852.71258,2176.9902 c -1.89174,0 -3.44568,1.5539 -3.44568,3.4457 0,1.8917 1.55394,3.4457 3.44568,3.4457 1.89175,0 3.44568,-1.554 3.44568,-3.4457 0,-1.8918 -1.55393,-3.4457 -3.44568,-3.4457 z m -2.77005,44.1182 h 5.54011 v -32.2948 h -5.54011 z"
         style="font-weight:normal;-inkscape-font-specification:'Andale Mono';fill:#2a3744;fill-opacity:1"
         id="path3385" />
      <path
         d="m 884.4218,2215.7034 c -2.02687,1.0134 -4.52668,1.6215 -6.8238,1.6215 -6.82379,0 -10.80996,-4.324 -10.80996,-12.3639 0,-8.3102 4.72936,-12.2288 10.7424,-12.2288 2.83762,0 5.26986,0.6757 7.22917,1.7567 l 0.47293,-4.8645 c -1.82418,-0.8783 -4.6618,-1.4864 -7.90479,-1.4864 -8.71553,0 -16.62032,5.9455 -16.62032,17.2284 0,11.2153 6.89135,16.4176 15.67445,16.4176 3.31055,0 6.2833,-0.6756 8.51285,-1.5539 z"
         style="font-weight:normal;-inkscape-font-specification:'Andale Mono';fill:#2a3744;fill-opacity:1"
         id="path3387" />
      <path
         d="m 912.72769,2214.9602 c -2.29711,1.4188 -5.33742,2.3647 -8.17503,2.3647 -6.48599,0 -9.8641,-3.1754 -10.20191,-10.4721 h 20.20113 c 0.20268,-1.081 0.27025,-1.7567 0.27025,-2.7701 0,-8.7831 -3.44568,-15.9447 -11.82341,-15.9447 -8.71553,0 -14.45833,6.8914 -14.45833,17.7013 0,10.5397 5.7428,15.9447 14.66102,15.9447 3.78349,0 7.36429,-0.8783 9.79653,-2.2295 z m -18.24182,-12.6341 c 0.47294,-5.6753 3.44568,-9.4587 7.90479,-9.4587 4.93205,0 6.82379,4.1888 6.82379,9.4587 z"
         style="font-weight:normal;-inkscape-font-specification:'Andale Mono';fill:#2a3744;fill-opacity:1"
         id="path3389" />
    </g>
    <g
       aria-label="The Document Foundation"
       transform="matrix(0.57421215,0,0,0.59693413,218.87558,935.49937)"
       id="text5524"
       style="font-style:normal;font-variant:normal;font-weight:normal;font-stretch:normal;line-height:0%;font-family:Vegur;-inkscape-font-specification:'Andale Mono';fill:#2a3744;fill-opacity:1;stroke:none">
      <path
         d="m 649.55227,2195.9299 v -2.0183 h -13.95954 v 2.0183 h 5.83049 v 17.1551 h 2.29856 v -17.1551 z"
         style="font-weight:normal;font-size:28.0312px;line-height:1.25;-inkscape-font-specification:'Andale Mono';fill:#2a3744;fill-opacity:1"
         id="path3326" />
      <path
         d="m 653.75694,2192.482 h -2.29856 v 20.603 h 2.29856 v -7.4844 c 0,-2.3266 1.48565,-4.1766 3.27965,-4.1766 2.10234,0 2.97131,1.4856 2.97131,3.3918 v 8.2692 h 2.29856 v -8.942 c 0,-2.747 -1.56975,-4.7373 -4.45697,-4.7373 -1.59777,0 -3.30768,0.8129 -4.09255,2.663 z"
         style="font-weight:normal;font-size:28.0312px;line-height:1.25;-inkscape-font-specification:'Andale Mono';fill:#2a3744;fill-opacity:1"
         id="path3328" />
      <path
         d="m 675.25684,2210.5341 c -0.95306,0.5887 -2.21447,0.9811 -3.39178,0.9811 -2.69099,0 -4.09255,-1.3175 -4.23271,-4.3448 h 8.38133 c 0.0841,-0.4485 0.11212,-0.7288 0.11212,-1.1493 0,-3.6441 -1.42959,-6.6154 -4.90546,-6.6154 -3.61602,0 -5.99867,2.8592 -5.99867,7.3442 0,4.3729 2.38265,6.6154 6.08277,6.6154 1.56974,0 3.0554,-0.3644 4.06452,-0.9251 z m -7.56843,-5.2418 c 0.19622,-2.3546 1.42959,-3.9244 3.27965,-3.9244 2.04628,0 2.83115,1.738 2.83115,3.9244 z"
         style="font-weight:normal;font-size:28.0312px;line-height:1.25;-inkscape-font-specification:'Andale Mono';fill:#2a3744;fill-opacity:1"
         id="path3330" />
      <path
         d="m 685.90866,2213.0009 c 1.12125,0.2242 2.88721,0.3644 3.9524,0.3644 6.58733,0 11.4087,-3.7282 11.4087,-10.3155 0,-5.6623 -3.47587,-9.5306 -10.67989,-9.5306 -1.23337,0 -2.99934,0.1401 -4.68121,0.3364 z m 2.29856,-17.2953 c 0.84094,-0.1121 1.68187,-0.1682 2.29856,-0.1682 5.49411,0 8.2692,2.8031 8.2692,7.7927 0,5.1297 -3.72815,8.0169 -8.74573,8.0169 -0.42047,0 -1.20534,-0.056 -1.82203,-0.1401 z"
         style="font-weight:normal;font-size:28.0312px;line-height:1.25;-inkscape-font-specification:'Andale Mono';fill:#2a3744;fill-opacity:1"
         id="path3332" />
      <path
         d="m 709.70712,2199.4057 c -3.81224,0 -6.22293,2.8032 -6.22293,6.9798 0,4.1767 2.41069,6.9798 6.22293,6.9798 3.81224,0 6.22292,-2.8031 6.22292,-6.9798 0,-4.1766 -2.41068,-6.9798 -6.22292,-6.9798 z m 0,1.8501 c 2.43871,0 3.70012,2.2425 3.70012,5.1297 0,2.8872 -1.26141,5.1297 -3.70012,5.1297 -2.43872,0 -3.70012,-2.2425 -3.70012,-5.1297 0,-2.8872 1.2614,-5.1297 3.70012,-5.1297 z"
         style="font-weight:normal;font-size:28.0312px;line-height:1.25;-inkscape-font-specification:'Andale Mono';fill:#2a3744;fill-opacity:1"
         id="path3334" />
      <path
         d="m 727.89933,2210.8425 c -0.84094,0.4204 -1.87809,0.6727 -2.83115,0.6727 -2.83115,0 -4.48499,-1.794 -4.48499,-5.1297 0,-3.4478 1.96218,-5.0736 4.45696,-5.0736 1.17731,0 2.18643,0.2803 2.99934,0.7288 l 0.19621,-2.0183 c -0.75684,-0.3644 -1.93415,-0.6167 -3.27965,-0.6167 -3.61602,0 -6.89567,2.4668 -6.89567,7.148 0,4.6532 2.85918,6.8116 6.50324,6.8116 1.37353,0 2.6069,-0.2803 3.53193,-0.6447 z"
         style="font-weight:normal;font-size:28.0312px;line-height:1.25;-inkscape-font-specification:'Andale Mono';fill:#2a3744;fill-opacity:1"
         id="path3336" />
      <path
         d="m 741.74669,2199.686 h -2.29855 v 7.4844 c 0,2.3266 -1.48566,4.1766 -3.27965,4.1766 -2.10234,0 -2.97131,-1.4856 -2.97131,-3.3917 v -8.2693 h -2.29856 v 8.942 c 0,2.7471 1.56975,4.7373 4.45696,4.7373 1.62581,0 3.39178,-0.841 4.14862,-2.8031 l 0.16819,2.5228 h 2.0743 z"
         style="font-weight:normal;font-size:28.0312px;line-height:1.25;-inkscape-font-specification:'Andale Mono';fill:#2a3744;fill-opacity:1"
         id="path3338" />
      <path
         d="m 747.74534,2199.686 h -2.07431 v 13.399 h 2.29856 v -7.4844 c 0,-2.3266 1.31747,-4.1766 3.02737,-4.1766 1.96218,0 2.66296,1.4296 2.66296,3.4198 v 8.2412 h 2.29856 v -7.4844 c 0,-2.3266 1.31747,-4.1766 3.02737,-4.1766 1.96219,0 2.66297,1.4296 2.66297,3.4198 v 8.2412 h 2.29855 v -8.914 c 0,-2.691 -1.31746,-4.7653 -4.14861,-4.7653 -1.73794,0 -3.16753,0.897 -4.12059,2.8312 -0.50456,-1.6819 -1.76597,-2.8312 -3.86831,-2.8312 -1.65384,0 -3.19555,0.869 -3.89633,2.7471 z"
         style="font-weight:normal;font-size:28.0312px;line-height:1.25;-inkscape-font-specification:'Andale Mono';fill:#2a3744;fill-opacity:1"
         id="path3340" />
      <path
         d="m 776.89773,2210.5341 c -0.95306,0.5887 -2.21446,0.9811 -3.39177,0.9811 -2.691,0 -4.09256,-1.3175 -4.23271,-4.3448 h 8.38133 c 0.0841,-0.4485 0.11212,-0.7288 0.11212,-1.1493 0,-3.6441 -1.42959,-6.6154 -4.90546,-6.6154 -3.61602,0 -5.99868,2.8592 -5.99868,7.3442 0,4.3729 2.38266,6.6154 6.08277,6.6154 1.56975,0 3.05541,-0.3644 4.06453,-0.9251 z m -7.56842,-5.2418 c 0.19622,-2.3546 1.42959,-3.9244 3.27965,-3.9244 2.04628,0 2.83115,1.738 2.83115,3.9244 z"
         style="font-weight:normal;font-size:28.0312px;line-height:1.25;-inkscape-font-specification:'Andale Mono';fill:#2a3744;fill-opacity:1"
         id="path3342" />
      <path
         d="m 783.00852,2199.686 h -2.07431 v 13.399 h 2.29856 v -7.4844 c 0,-2.3266 1.48566,-4.1766 3.27965,-4.1766 2.10234,0 2.97131,1.4856 2.97131,3.3918 v 8.2692 h 2.29856 v -8.942 c 0,-2.747 -1.56975,-4.7373 -4.45696,-4.7373 -1.62581,0 -3.39178,0.841 -4.14862,2.8032 z"
         style="font-weight:normal;font-size:28.0312px;line-height:1.25;-inkscape-font-specification:'Andale Mono';fill:#2a3744;fill-opacity:1"
         id="path3344" />
      <path
         d="m 798.73399,2199.7982 v -3.532 h -2.29856 v 3.532 h -2.10234 v 1.794 h 2.10234 v 7.7926 c 0,2.9153 1.56975,3.9805 3.81224,3.9805 0.78488,0 1.59778,-0.1682 2.10234,-0.4205 l -0.11212,-1.7099 c -0.47653,0.1962 -0.98109,0.2523 -1.48566,0.2523 -1.20534,0 -2.01824,-0.7008 -2.01824,-2.2705 v -7.6245 h 3.61602 v -1.794 z"
         style="font-weight:normal;font-size:28.0312px;line-height:1.25;-inkscape-font-specification:'Andale Mono';fill:#2a3744;fill-opacity:1"
         id="path3346" />
      <path
         d="m 821.85968,2195.9299 v -2.0183 h -10.25941 v 19.1734 h 2.29855 v -7.7647 h 7.06387 v -2.0182 h -7.06387 v -7.3722 z"
         style="font-weight:normal;font-size:28.0312px;line-height:1.25;-inkscape-font-specification:'Andale Mono';fill:#2a3744;fill-opacity:1"
         id="path3348" />
      <path
         d="m 829.62432,2199.4057 c -3.81224,0 -6.22292,2.8032 -6.22292,6.9798 0,4.1767 2.41068,6.9798 6.22292,6.9798 3.81225,0 6.22293,-2.8031 6.22293,-6.9798 0,-4.1766 -2.41068,-6.9798 -6.22293,-6.9798 z m 0,1.8501 c 2.43872,0 3.70012,2.2425 3.70012,5.1297 0,2.8872 -1.2614,5.1297 -3.70012,5.1297 -2.43871,0 -3.70011,-2.2425 -3.70011,-5.1297 0,-2.8872 1.2614,-5.1297 3.70011,-5.1297 z"
         style="font-weight:normal;font-size:28.0312px;line-height:1.25;-inkscape-font-specification:'Andale Mono';fill:#2a3744;fill-opacity:1"
         id="path3350" />
      <path
         d="m 849.61053,2199.686 h -2.29856 v 7.4844 c 0,2.3266 -1.48565,4.1766 -3.27965,4.1766 -2.10234,0 -2.9713,-1.4856 -2.9713,-3.3917 v -8.2693 h -2.29856 v 8.942 c 0,2.7471 1.56975,4.7373 4.45696,4.7373 1.62581,0 3.39177,-0.841 4.14862,-2.8031 l 0.16818,2.5228 h 2.07431 z"
         style="font-weight:normal;font-size:28.0312px;line-height:1.25;-inkscape-font-specification:'Andale Mono';fill:#2a3744;fill-opacity:1"
         id="path3352" />
      <path
         d="m 855.60917,2199.686 h -2.07431 v 13.399 h 2.29856 v -7.4844 c 0,-2.3266 1.48565,-4.1766 3.27965,-4.1766 2.10234,0 2.97131,1.4856 2.97131,3.3918 v 8.2692 h 2.29856 v -8.942 c 0,-2.747 -1.56975,-4.7373 -4.45696,-4.7373 -1.62581,0 -3.39178,0.841 -4.14862,2.8032 z"
         style="font-weight:normal;font-size:28.0312px;line-height:1.25;-inkscape-font-specification:'Andale Mono';fill:#2a3744;fill-opacity:1"
         id="path3354" />
      <path
         d="m 879.49173,2192.482 h -2.29856 v 9.2784 c -0.50456,-1.3455 -1.96218,-2.3547 -3.78421,-2.3547 -3.55996,0 -6.1108,2.9433 -6.1108,7.148 0,4.0645 2.32659,6.8116 5.74639,6.8116 1.93416,0 3.39178,-1.0932 4.20468,-2.7191 l 0.16819,2.4388 h 2.07431 z m -2.29856,14.7725 c 0,2.3266 -1.82203,4.1206 -3.67209,4.1206 -2.41068,0 -3.70012,-2.2425 -3.70012,-4.9335 0,-3.1395 1.62581,-5.1017 3.78422,-5.1017 2.01824,0 3.58799,1.9341 3.58799,4.4569 z"
         style="font-weight:normal;font-size:28.0312px;line-height:1.25;-inkscape-font-specification:'Andale Mono';fill:#2a3744;fill-opacity:1"
         id="path3356" />
      <path
         d="m 884.03276,2202.321 c 1.12125,-0.6728 2.43871,-1.0091 3.44784,-1.0091 1.96218,0 3.02737,0.897 3.02737,2.691 v 1.0371 c -0.50457,-0.1121 -1.23338,-0.1682 -1.87809,-0.1682 -3.22359,0 -5.85853,1.5417 -5.85853,4.5971 0,2.6069 1.90613,3.8964 3.92437,3.8964 1.76597,0 3.0554,-0.8129 3.84028,-2.2706 l 0.25228,1.9903 h 2.01824 v -8.8859 c 0,-2.9713 -1.37352,-4.7934 -4.7653,-4.7934 -1.51368,0 -3.0554,0.3925 -4.14862,1.0092 z m 6.47521,5.5782 c 0,2.2145 -1.48566,3.6721 -3.08344,3.6721 -1.28943,0 -2.18643,-0.869 -2.18643,-2.2425 0,-1.6258 1.45762,-2.7471 3.61602,-2.7471 0.58866,0 1.20535,0.056 1.65385,0.1682 z"
         style="font-weight:normal;font-size:28.0312px;line-height:1.25;-inkscape-font-specification:'Andale Mono';fill:#2a3744;fill-opacity:1"
         id="path3358" />
      <path
         d="m 899.75823,2199.7982 v -3.532 h -2.29855 v 3.532 h -2.10234 v 1.794 h 2.10234 v 7.7926 c 0,2.9153 1.56974,3.9805 3.81224,3.9805 0.78487,0 1.59778,-0.1682 2.10234,-0.4205 l -0.11213,-1.7099 c -0.47653,0.1962 -0.98109,0.2523 -1.48565,0.2523 -1.20534,0 -2.01825,-0.7008 -2.01825,-2.2705 v -7.6245 h 3.61603 v -1.794 z"
         style="font-weight:normal;font-size:28.0312px;line-height:1.25;-inkscape-font-specification:'Andale Mono';fill:#2a3744;fill-opacity:1"
         id="path3360" />
      <path
         d="m 907.15843,2194.7806 c -0.78487,0 -1.42959,0.6447 -1.42959,1.4296 0,0.7849 0.64472,1.4296 1.42959,1.4296 0.78487,0 1.42959,-0.6447 1.42959,-1.4296 0,-0.7849 -0.64472,-1.4296 -1.42959,-1.4296 z m -1.14928,18.3044 h 2.29856 v -13.399 h -2.29856 z"
         style="font-weight:normal;font-size:28.0312px;line-height:1.25;-inkscape-font-specification:'Andale Mono';fill:#2a3744;fill-opacity:1"
         id="path3362" />
      <path
         d="m 917.55795,2199.4057 c -3.81224,0 -6.22293,2.8032 -6.22293,6.9798 0,4.1767 2.41069,6.9798 6.22293,6.9798 3.81224,0 6.22293,-2.8031 6.22293,-6.9798 0,-4.1766 -2.41069,-6.9798 -6.22293,-6.9798 z m 0,1.8501 c 2.43871,0 3.70012,2.2425 3.70012,5.1297 0,2.8872 -1.26141,5.1297 -3.70012,5.1297 -2.43872,0 -3.70012,-2.2425 -3.70012,-5.1297 0,-2.8872 1.2614,-5.1297 3.70012,-5.1297 z"
         style="font-weight:normal;font-size:28.0312px;line-height:1.25;-inkscape-font-specification:'Andale Mono';fill:#2a3744;fill-opacity:1"
         id="path3364" />
      <path
         d="m 928.88253,2199.686 h -2.07431 v 13.399 h 2.29856 v -7.4844 c 0,-2.3266 1.48565,-4.1766 3.27965,-4.1766 2.10234,0 2.97131,1.4856 2.97131,3.3918 v 8.2692 h 2.29856 v -8.942 c 0,-2.747 -1.56975,-4.7373 -4.45696,-4.7373 -1.62581,0 -3.39178,0.841 -4.14862,2.8032 z"
         style="font-weight:normal;font-size:28.0312px;line-height:1.25;-inkscape-font-specification:'Andale Mono';fill:#2a3744;fill-opacity:1"
         id="path3366" />
    </g>
    <path
       style="color:#000000;font-style:normal;font-variant:normal;font-weight:normal;font-stretch:normal;font-size:medium;line-height:normal;font-family:'Andale Mono';-inkscape-font-specification:'Andale Mono';text-indent:0;text-align:start;text-decoration:none;text-decoration-line:none;letter-spacing:normal;word-spacing:normal;text-transform:none;writing-mode:lr-tb;direction:ltr;text-anchor:start;display:inline;overflow:visible;visibility:visible;fill:#2a3744;fill-opacity:1;fill-rule:evenodd;stroke:none;stroke-width:2.26471;marker:none;enable-background:accumulate"
       d="m 555.17976,2211.0624 c -0.44182,-0.011 -0.87708,0.2652 -1.04977,0.6664 -0.17271,0.4012 -0.0719,0.902 0.24314,1.2077 l 9.48231,9.5123 c 0.30582,0.3064 0.80376,0.4079 1.20764,0.2463 0.40388,-0.1616 0.68938,-0.5767 0.6924,-1.0065 v -9.53 c 10e-4,-0.5742 -0.52918,-1.0972 -1.11134,-1.0962 z"
       id="path5530"
       sodipodi:nodetypes="csccscccc"
       inkscape:export-xdpi="90"
       inkscape:export-ydpi="90" />
    <path
       inkscape:export-ydpi="90"
       inkscape:export-xdpi="90"
       id="path5532"
       d="m 529.10672,2211.0621 c -0.58317,0.01 -1.10774,0.5416 -1.10672,1.1248 v 43.4161 c -10e-4,0.5832 0.52357,1.1163 1.10672,1.1248 h 35.52388 c 0.58922,0 1.1258,-0.5356 1.12487,-1.1248 v -27.9583 c 0.002,-0.2951 -0.11854,-0.589 -0.32658,-0.7983 l -15.36707,-15.4396 c -0.20625,-0.2146 -0.50068,-0.3417 -0.79829,-0.3447 z"
       style="color:#000000;font-style:normal;font-variant:normal;font-weight:normal;font-stretch:normal;font-size:medium;line-height:normal;font-family:'Andale Mono';-inkscape-font-specification:'Andale Mono';text-indent:0;text-align:start;text-decoration:none;text-decoration-line:none;letter-spacing:normal;word-spacing:normal;text-transform:none;writing-mode:lr-tb;direction:ltr;text-anchor:start;display:inline;overflow:visible;visibility:visible;fill:#ffffff;fill-opacity:1;fill-rule:evenodd;stroke:none;stroke-width:2.26471;marker:none;enable-background:accumulate"
       sodipodi:nodetypes="ccccccccccc" />
    <path
       style="color:#000000;font-style:normal;font-variant:normal;font-weight:normal;font-stretch:normal;font-size:medium;line-height:normal;font-family:'Andale Mono';-inkscape-font-specification:'Andale Mono';text-indent:0;text-align:start;text-decoration:none;text-decoration-line:none;letter-spacing:normal;word-spacing:normal;text-transform:none;writing-mode:lr-tb;direction:ltr;text-anchor:start;display:inline;overflow:visible;visibility:visible;fill:#2a3744;fill-opacity:1;fill-rule:evenodd;stroke:none;stroke-width:2.26471;marker:none;enable-background:accumulate"
       d="M 529.10672,2211.0621 A 1.1230115,1.1230115 0 0 0 528,2212.1869 v 43.4161 a 1.1230115,1.1230115 0 0 0 1.10672,1.1248 h 35.52388 a 1.1230115,1.1230115 0 0 0 1.12487,-1.1248 v -27.9583 a 1.1230115,1.1230115 0 0 0 -0.32658,-0.7983 l -15.36707,-15.4396 a 1.1230115,1.1230115 0 0 0 -0.79829,-0.3447 z m 1.12486,2.2497 h 18.56023 l 14.71393,14.7865 v 26.3798 h -33.27416 z"
       id="path5534"
       inkscape:export-xdpi="90"
       inkscape:export-ydpi="90" />
  </g>
  <g
     inkscape:groupmode="layer"
     id="layer5"
     inkscape:label="Information"
     style="display:inline"
     transform="translate(-523,-465.30264)" />
</svg>
