<svg viewBox="0 0 100 74"><defs><linearGradient id="a" x1="0%" x2="68.26%" y1="38.057%" y2="38.057%"><stop offset="0%" stop-color="#00D2E6"/><stop offset="100%" stop-color="#2ECCAA"/></linearGradient><linearGradient id="b" x1="17.275%" x2="79%" y1="59.719%" y2="30.635%"><stop offset="0%" stop-opacity="0"/><stop offset="51.413%"/><stop offset="100%" stop-opacity="0"/></linearGradient><linearGradient id="c" x1="100%" x2="31.855%" y1="39.719%" y2="39.719%"><stop offset="0%" stop-color="#1FA385"/><stop offset="100%" stop-color="#2ECCAA"/></linearGradient></defs><g fill="none" fill-rule="evenodd"><path fill="url(#a)" fill-rule="nonzero" d="M63.624 55.803a10.727 10.727 0 01-4.24-.892c-3.056-1.331-5.747-3.846-7.936-7.248a36.005 36.005 0 001.69-3.426c2.202-5.122 3.25-10.73 3.33-16.297a7.552 7.552 0 01-.028-.332l-.006-.286c-.005-2.183-.337-4.395-1.088-6.454-.866-2.373-2.245-4.748-4.433-5.674a2.97 2.97 0 00-1.232-.229c-2.752-5.144-2.84-10.074 0-14.769l.154.001c3.35.037 6.67 1.071 9.51 2.877 7.735 4.917 11.591 14.5 11.676 23.909.001.11 0 .22-.003.33h.043c-.011 9.944-2.402 20.028-7.437 28.49zm-17.15 15.608c-7.224 2.971-15.614 2.812-22.775-.512-8.238-3.824-14.532-11.256-18.41-19.74-6.63-14.51-6.782-31.857-.493-46.59 4.723 1.889 8.922-1.12 8.922-1.12s-.01 4.63 4.474 6.952c-4.6 10.778-4.49 23.583.12 34.086 2.22 5.054 5.61 9.76 10.31 12.421 1.678.95 3.52 1.563 5.417 1.793l.021.033c3.348 5.225 7.566 9.579 12.414 12.677z"/><path fill="url(#b)" d="M63.621 55.807a10.727 10.727 0 01-4.237-.893c-3.057-1.331-5.748-3.846-7.937-7.249a36.003 36.003 0 001.69-3.428 38.888 38.888 0 001.682-4.75c1.064-3.75 15.191 1.008 13.036 7.185a50.188 50.188 0 01-4.234 9.135zm-17.15 15.606c-7.224 2.97-15.612 2.81-22.772-.514-8.238-3.824.224-16.652 4.923-13.99a14.572 14.572 0 005.414 1.792l.024.037c3.347 5.223 7.564 9.576 12.41 12.675z" opacity=".7" style="mix-blend-mode:soft-light"/><path fill="url(#c)" fill-rule="nonzero" d="M28.381 27.314a8.154 8.154 0 01-.003-.331c.085-9.409 3.941-18.992 11.676-23.91 2.84-1.805 6.16-2.839 9.51-2.876h.154v14.768a2.97 2.97 0 00-1.232.229c-2.188.926-3.567 3.3-4.433 5.674-.75 2.06-1.083 4.271-1.088 6.454l-.006.286a7.553 7.553 0 01-.028.332c.08 5.567 1.128 11.175 3.33 16.297 2.467 5.736 6.388 11.012 11.924 13.424 4.177 1.82 8.806 1.39 12.592-.753 4.7-2.661 8.09-7.367 10.309-12.42 4.61-10.504 4.721-23.309.12-34.087 4.484-2.322 4.475-6.952 4.475-6.952s4.2 3.009 8.922 1.12c6.289 14.733 6.137 32.08-.494 46.59-3.877 8.484-10.171 15.916-18.41 19.74-7.333 3.404-15.956 3.49-23.295.292-6.595-2.875-11.959-8.054-15.818-14.075-5.59-8.722-8.236-19.34-8.248-29.802h.043z"/></g></svg>