<svg width="176" height="60" version="1.1" viewBox="0 0 176 60" xmlns="http://www.w3.org/2000/svg"><g fill="none" fill-rule="evenodd"><g transform="translate(-345 -803)" fill="#2A3744" fill-rule="nonzero"><g transform="translate(345 730)"><g transform="translate(0 73)"><path id="Path" transform="translate(23.736 13.765) scale(-1 1) rotate(180) translate(-23.736 -13.765)" d="m8.0684 13.93c-4.2674-7.3817-7.8033-13.495-7.8382-13.6-0.034836-0.086843 2.5256-0.15632 6.166-0.15632h6.2008l4.7377 8.1633 4.7203 8.1633 19.021 0.10421 2.3863 4.1337c1.3064 2.2753 2.6824 4.6895 3.0656 5.3669l0.71414 1.2505-15.711-0.017369h-15.694l-7.7685-13.409z" fill-opacity=".7"/><path id="Path" transform="translate(47.398 30.074) scale(-1 1) rotate(180) translate(-47.398 -30.074)" d="m44.211 43.734c-4.2849-7.4338-7.7859-13.6-7.7859-13.721 0-0.31264 15.432-26.973 15.607-27.008 0.08709-0.017369 1.5502 2.3795 3.2398 5.3148l3.1004 5.3322-3.501 6.0617c-1.9334 3.3348-4.0758 7.0169-4.7551 8.1806l-1.2367 2.119 4.4939 7.729c2.456 4.2553 4.581 7.9375 4.7203 8.198 0.24385 0.46895 0.13934 0.69475-2.8217 5.8011-1.6896 2.9353-3.1178 5.3669-3.1701 5.4016-0.052254 0.052106-3.5881-5.9748-7.8904-13.409z"/><path id="Path" transform="translate(167.36 29.11) scale(-1 1) rotate(180) translate(-167.36 -29.11)" d="m165.86 40.071c-2.2818-0.5558-4.1455-1.9279-5.0338-3.7169-0.43545-0.90317-0.50512-1.2332-0.50512-2.7442 0-1.5805 0.052254-1.8237 0.53996-2.7269 0.53996-0.95527 1.6025-2.0148 2.4908-2.4837 0.26127-0.13895 1.4283-0.57316 2.5953-0.97264 3.623-1.2505 4.1629-1.65 4.1629-3.1264 0-1.0595-0.33094-1.5284-1.376-1.9279-1.6025-0.6079-3.8668-0.069474-5.3822 1.3026l-0.7664 0.69475-1.7244-1.7195-1.7418-1.7195 0.64447-0.57316c3.0482-2.6574 9.0052-3.2827 12.419-1.2853 1.5676 0.92054 2.6476 2.4663 3.0482 4.3943 0.41804 2.0321-0.087091 3.96-1.3586 5.2627-1.0799 1.0942-1.8812 1.5284-4.3894 2.4142-3.5359 1.2505-3.9365 1.5284-3.9365 2.7269 0 0.97264 0.34836 1.459 1.3586 1.8411 1.5154 0.57316 3.7797 0.069474 4.9642-1.1116l0.43545-0.43422 0.97541 1.0421c0.53996 0.57316 1.2889 1.3721 1.6547 1.789l0.66189 0.76422-0.59222 0.50369c-0.7664 0.64264-2.4908 1.4416-3.8842 1.8063-1.3238 0.34737-3.832 0.33-5.2603 0z"/><path id="Path" transform="translate(77.662 29.179) scale(-1 1) rotate(180) translate(-77.662 -29.179)" d="m69.084 39.826c-0.052254-0.069474-0.10451-1.0942-0.10451-2.2927v-2.1537h6.0266l0.052254-8.4412 0.034836-8.4238 5.2254-0.10421v16.969h6.0266v4.568h-8.5697c-4.7029 0-8.622-0.069474-8.6916-0.12158z"/><path id="Path" transform="translate(97.603 29.432) scale(-1 1) rotate(180) translate(-97.603 -29.432)" d="m88.436 40.175c-0.069672-0.13895-0.069672-3.5258-0.034836-7.5206 0.087091-7.7811 0.12193-8.0938 1.1148-10.004 0.5748-1.1637 2.1773-2.64 3.5185-3.2653 4.1803-1.98 9.789-0.83369 12.228 2.4663 1.5154 2.0495 1.5676 2.3621 1.5676 11.046v7.5554h-5.121v-6.8085c0-3.9774-0.08709-7.1211-0.1916-7.6075-0.24385-1.0247-0.7664-1.8237-1.6025-2.3795-0.55738-0.38211-0.85349-0.45158-2.2295-0.45158-1.4109 0-1.6547 0.052106-2.3166 0.48632-0.47029 0.31264-0.90574 0.81633-1.1844 1.3721-0.41803 0.86843-0.43545 0.95527-0.52254 8.0938l-0.087091 7.1906-2.5256 0.052106c-2.1076 0.052106-2.5256 0-2.6127-0.22579z"/><path transform="translate(119.79 29.19) scale(-1 1) rotate(180) translate(-119.79 -29.19)" d="m111.17 39.866c-0.069672-0.086843-0.12193-4.9327-0.12193-10.786v-10.63h5.1035l0.052255 4.2379 0.052254 4.2379 1.6373 0.10421 4.7029-8.5801h3.0133c1.6547 0 2.9785 0.052106 2.9262 0.12158-0.034836 0.086843-1.2367 2.0495-2.665 4.3769-1.4109 2.3274-2.6301 4.3422-2.665 4.4637-0.069672 0.15632 0.22644 0.36474 0.7664 0.59053 1.1322 0.46895 2.334 1.5979 2.9437 2.7442 0.41803 0.79896 0.48771 1.1463 0.48771 2.6574 0 2.0842-0.43545 3.2306-1.6373 4.3595-1.916 1.7369-3.1353 2.0148-9.4232 2.1363-2.7695 0.052106-5.0861 0.034737-5.1732-0.034737zm9.2839-4.2901c1.6199-0.41685 2.3863-2.0321 1.585-3.3348-0.62705-0.99001-1.4457-1.2853-3.8146-1.3721l-2.0553-0.069474v4.9674h1.7418c0.958 0 2.1076-0.086843 2.543-0.19105z"/><path transform="translate(139.92 29.19) scale(-1 1) rotate(180) translate(-139.92 -29.19)" d="m131.28 39.866c-0.069673-0.086843-0.12193-4.9327-0.12193-10.786v-10.63h5.121v8.5628h0.78382c0.45287 0 0.88832-0.10421 0.99283-0.22579s1.1496-1.9974 2.334-4.1511 2.1947-3.9774 2.2644-4.0643c0.069672-0.069474 1.4631-0.12158 3.083-0.086843l2.9437 0.052106-2.7346 4.4637c-1.498 2.449-2.7172 4.4985-2.7172 4.5506s0.3832 0.26053 0.85349 0.45158c1.1844 0.48632 2.4734 1.7369 2.9959 2.9006 0.60963 1.3374 0.60963 3.8037 0 5.1759-0.47029 1.0421-1.585 2.1884-2.6998 2.7616-1.6373 0.83369-2.6476 0.95527-7.9252 1.0595-2.7695 0.052106-5.0861 0.034737-5.1732-0.034737zm9.2839-4.2901c0.45287-0.12158 1.0103-0.43422 1.3064-0.74685 0.43545-0.45158 0.52254-0.69475 0.52254-1.459 0-0.81633-0.069672-0.97264-0.66189-1.5284-0.85349-0.78159-1.6721-0.99001-3.7623-0.99001h-1.6896v4.9153h1.7418c0.958 0 2.1076-0.086843 2.543-0.19105z"/><path transform="translate(153.93 29.171) scale(-1 1) rotate(180) translate(-153.93 -29.171)" d="m151.4 39.809c-0.069672-0.069475-0.12193-4.9153-0.12193-10.769v-10.63h5.2952v21.52h-2.5256c-1.3934 0-2.5953-0.069474-2.6476-0.12158z"/><path transform="translate(23.605 46.409) scale(-1 1) rotate(180) translate(-23.605 -46.409)" d="m0.6134 58.932c0.33094-0.57316 1.7418-3.0395 3.1527-5.4711l2.5605-4.4116h9.5103l9.5103-0.017369 4.6681-8.1112 4.6681-8.0938h6.2531c3.4488 0 6.2705 0.034737 6.2705 0.10421s-3.5185 6.1832-7.8207 13.582l-7.8207 13.478h-31.562l0.60963-1.0595z"/></g></g></g></g></svg>