<?xml version="1.0" encoding="UTF-8" standalone="no"?>
<svg
   xmlns:dc="http://purl.org/dc/elements/1.1/"
   xmlns:cc="http://creativecommons.org/ns#"
   xmlns:rdf="http://www.w3.org/1999/02/22-rdf-syntax-ns#"
   xmlns:svg="http://www.w3.org/2000/svg"
   xmlns="http://www.w3.org/2000/svg"
   xmlns:sodipodi="http://sodipodi.sourceforge.net/DTD/sodipodi-0.dtd"
   xmlns:inkscape="http://www.inkscape.org/namespaces/inkscape"
   width="178.40997"
   height="61.198711"
   viewBox="-1.8 -1.8 34.479818 11.824194"
   version="1.1"
   id="svg952"
   sodipodi:docname="logo-fedora.svg"
   inkscape:version="1.0.1 (3bc2e813f5, 2020-09-07)">
  <metadata
     id="metadata958">
    <rdf:RDF>
      <cc:Work
         rdf:about="">
        <dc:format>image/svg+xml</dc:format>
        <dc:type
           rdf:resource="http://purl.org/dc/dcmitype/StillImage" />
        <dc:title></dc:title>
      </cc:Work>
    </rdf:RDF>
  </metadata>
  <defs
     id="defs956" />
  <sodipodi:namedview
     pagecolor="#ffffff"
     bordercolor="#666666"
     borderopacity="1"
     objecttolerance="10"
     gridtolerance="10"
     guidetolerance="10"
     inkscape:pageopacity="0"
     inkscape:pageshadow="2"
     inkscape:window-width="1920"
     inkscape:window-height="1136"
     id="namedview954"
     showgrid="false"
     lock-margins="true"
     fit-margin-top="5"
     fit-margin-left="5"
     fit-margin-right="5"
     fit-margin-bottom="5"
     inkscape:zoom="1.4814453"
     inkscape:cx="128.8135"
     inkscape:cy="-96.926866"
     inkscape:window-x="0"
     inkscape:window-y="27"
     inkscape:window-maximized="1"
     inkscape:current-layer="svg952" />
  <path
     d="m 31.713509,1.9103496 c 0,-1.50681516 -1.238936,-2.74575198 -2.762493,-2.74575198 -1.523557,0 -2.745751,1.23893682 -2.745751,2.74575198 v 0 2.1430255 0 c 0,0.3348471 0.267878,0.6194682 0.619467,0.6194682 v 0 0 h 2.126284 c 1.523557,0 2.762493,-1.2389372 2.762493,-2.7624937"
     fill="#072b61"
     id="path946"
     style="fill:#383838;fill-opacity:1;stroke-width:0.167425" />
  <path
     d="m 29.771393,-0.18244924 c -0.719924,0 -1.305907,0.58598368 -1.305907,1.28916384 V 1.7931521 H 27.77905 c -0.70318,0 -1.289165,0.5692412 -1.289165,1.289164 0,0.7199225 0.585985,1.2891637 1.289165,1.2891637 0.719921,0 1.305904,-0.5692412 1.305904,-1.2891637 V 2.3958787 h 0.686439 c 0.70318,0 1.289163,-0.5692413 1.289163,-1.2891641 0,-0.70318016 -0.585983,-1.28916384 -1.289163,-1.28916384 z m 0,0.60272598 c 0.368332,0 0.669697,0.3181055 0.669697,0.68643786 0,0.3850749 -0.301365,0.6864375 -0.669697,0.6864375 h -0.01675 -0.569241 c -0.06697,0 -0.100452,-0.050228 -0.100452,-0.100454 V 1.1067146 c 0,-0.36833236 0.301364,-0.68643786 0.686439,-0.68643786 z M 12.024462,2.1614853 c -0.267878,0 -0.485529,0.200908 -0.485529,0.4855291 V 5.2253423 C 11.287797,4.7732976 10.752042,4.455192 10.099088,4.455192 c -1.3059067,0 -2.1765106,0.9878006 -2.1765106,2.2937066 0,1.3226494 0.9040895,2.3104499 2.1765106,2.3104499 0.56924,0 1.071512,-0.2343933 1.356133,-0.6529534 l 0.117198,0.2846208 c 0.06697,0.1841658 0.251134,0.3181061 0.468786,0.3181061 0.267878,0 0.485528,-0.2176512 0.485528,-0.4855298 v 0 -5.8765778 c 0,-0.2846211 -0.21765,-0.4855291 -0.502271,-0.4855291 z m -10.0119475,0 c -1.02128569,0 -1.84166266,0.8371193 -1.84166266,1.8416621 v 0.5859837 h -0.60272595 c -0.21765103,0 -0.40181729,0.1841665 -0.40181729,0.4018178 0,0.2176503 0.18416626,0.4353014 0.40181729,0.4353014 h 0.60272595 v 3.0973419 c 0,0.2678786 0.21765106,0.4855298 0.48552923,0.4855298 0.28462064,0 0.50227163,-0.2176512 0.50227163,-0.4855298 V 5.4262503 h 0.652953 c 0.2343935,0 0.4185598,-0.2176511 0.4185598,-0.4353014 0,-0.2176513 -0.1841663,-0.4018178 -0.4185598,-0.4018178 H 1.1586527 V 4.0031474 c 0,-0.4687868 0.3850748,-0.9208313 0.8538618,-0.9208313 0.050227,0 0.083713,0 0.133939,0.016746 0.2678783,0.033483 0.519014,-0.083713 0.5524988,-0.3515905 C 2.7491794,2.4795901 2.5482709,2.2284552 2.2803926,2.1949699 2.1966807,2.1782276 2.0962263,2.1614853 2.0125145,2.1614853 Z M 27.77905,2.3958787 h 0.585982 c 0.06697,0 0.100453,0.050228 0.100453,0.100454 v 0.5859838 c 0,0.3850754 -0.301363,0.686438 -0.686438,0.686438 -0.368333,0 -0.686439,-0.3013626 -0.686439,-0.686438 0,-0.3683326 0.318106,-0.6864373 0.686439,-0.6864373 z m 3.16431,1.6240117 v 0.033484 h 0.05023 v 0.1506807 h 0.03348 V 4.0533736 h 0.05023 v -0.033483 z m 0.150682,0 v 0.184166 h 0.03348 v -0.1004541 -0.016746 0.016746 l 0.05023,0.1004541 0.05023,-0.1004541 v -0.033482 0.033482 0.1004541 h 0.03348 v -0.184166 h -0.03348 l -0.03348,0.083712 -0.01675,0.033483 v -0.033483 l -0.05022,-0.083712 z M 4.9089476,4.455192 c -1.2891639,0 -2.2769648,1.021286 -2.2769648,2.2937066 0,1.2891638 1.0212855,2.3104499 2.2937071,2.3104499 0.7031802,0 1.4231028,-0.301363 1.8416628,-0.7534074 0.083712,-0.1004516 0.133939,-0.2176503 0.1506813,-0.3181053 0,-0.08371 -0.033484,-0.1674245 -0.083711,-0.2343939 C 6.7506113,7.6529903 6.6334142,7.5860191 6.4994752,7.5860191 c -0.083712,0 -0.167424,0.01675 -0.2343936,0.08371 -0.3515901,0.35159 -0.786892,0.5692403 -1.3059062,0.5692403 -0.7199227,0 -1.2556791,-0.5190137 -1.3059064,-1.1887095 3.0973422,0 3.0973422,0 3.0973422,0 0.184166,0 0.3683325,-0.1171968 0.3683325,-0.3181052 0,-1.2891641 -0.9543162,-2.2769645 -2.2099955,-2.2769645 z m 10.7151264,0 c -1.289163,0 -2.310447,1.021286 -2.310447,2.2937066 0,1.2891638 1.021284,2.3104499 2.310447,2.3104499 1.272424,0 2.293708,-1.0212861 2.293708,-2.3104499 0,-1.2724206 -1.021284,-2.2937066 -2.293708,-2.2937066 z m 5.608701,0 c -0.669695,0 -1.121739,0.200909 -1.506814,0.7031803 L 19.675731,4.9239789 C 19.642251,4.6728433 19.441337,4.4886766 19.1902,4.4886766 c -0.267878,0 -0.485528,0.2176512 -0.485528,0.5022723 v 0 3.5326433 c 0,0.2678786 0.21765,0.4855298 0.485528,0.4855298 0.26788,0 0.502271,-0.2176512 0.502271,-0.4855298 V 6.6317028 c 0,-0.8706046 0.736666,-1.3059062 1.5403,-1.3059062 0.234395,0 0.435302,-0.2009088 0.435302,-0.4353022 0,-0.2511357 -0.200907,-0.4353024 -0.435301,-0.4353024 z m 2.896434,0 c -1.289165,0 -2.31045,1.021286 -2.31045,2.2937066 0,1.2891638 1.004543,2.3104499 2.209996,2.3104499 0.619467,0 1.155223,-0.3181061 1.389617,-0.6362103 l 0.13394,0.301363 c 0.05023,0.1674227 0.217651,0.2846208 0.41856,0.2846208 0.251134,0 0.452044,-0.200909 0.452044,-0.4520463 V 7.38511 6.7488986 c 0,-1.2221938 -0.870604,-2.2937066 -2.293707,-2.2937066 z M 4.9089476,5.2755691 c 0.652953,0 1.1384826,0.4687869 1.2221945,1.088255 0,0 -0.9543164,0 -2.4611312,0 0.1004539,-0.6362104 0.5524986,-1.088255 1.2389367,-1.088255 z m 5.3240784,0.050228 c 0.803636,0 1.305907,0.6194681 1.305907,1.4231025 0,0.820378 -0.502271,1.423103 -1.305907,1.423103 -0.8036334,0 -1.3226478,-0.6362106 -1.3226478,-1.423103 0,-0.7701499 0.5190144,-1.4231025 1.3226478,-1.4231025 z m 5.391048,0 c 0.786894,0 1.32265,0.6529526 1.32265,1.4231025 0,0.7868924 -0.535756,1.423103 -1.32265,1.423103 -0.803633,0 -1.339389,-0.6362106 -1.339389,-1.423103 0,-0.7701499 0.535756,-1.4231025 1.339389,-1.4231025 z m 8.505135,0 c 0.803634,0 1.322648,0.6529526 1.322648,1.4231025 0,0.7868924 -0.519014,1.423103 -1.322648,1.423103 -0.803635,0 -1.322649,-0.6362106 -1.322649,-1.423103 0,-0.7701499 0.519014,-1.4231025 1.322649,-1.4231025 z m 2.427646,3.0638554 v 0.03349 h 0.05023 v 0.1506806 h 0.03349 V 8.4231428 h 0.05023 v -0.03349 z m 0.150681,0 v 0.1841668 h 0.03348 V 8.4733684 8.4566144 l 0.01675,0.016754 0.03348,0.1004513 0.05023,-0.1004513 v -0.016754 0.016754 0.1004513 h 0.03348 V 8.3896529 h -0.03348 l -0.03348,0.083716 -0.01675,0.033481 v -0.033481 l -0.05023,-0.083716 z"
     fill="#0a57a4"
     id="path948"
     style="fill:#737373;fill-opacity:1;stroke-width:0.167425" />
  <path
     d="m 28.465486,1.7931521 v -0.6864375 0 c 0,-0.70318016 0.585983,-1.28916384 1.289164,-1.28916384 0.117197,0 0.184167,0.0167428 0.284621,0.0334847 0.15068,0.0502284 0.267877,0.16742399 0.267877,0.30136308 0,0.1674241 -0.117197,0.2846206 -0.301361,0.2846206 -0.08372,0 -0.117197,-0.016743 -0.251137,-0.016743 -0.368333,0 -0.669696,0.3181054 -0.669696,0.68643776 v 0.5859839 0 c 0,0.066966 0.03348,0.1004541 0.08371,0.1004541 v 0 h 0.452044 c 0.167424,0 0.301363,0.1339397 0.301363,0.3013632 0,0.1674244 -0.133939,0.3013633 -0.301363,0.3013633 h -0.535756 v 0.6864374 0 c 0,0.7199225 -0.585984,1.2891639 -1.305906,1.2891639 -0.100451,0 -0.184167,0 -0.284621,-0.033484 -0.133938,-0.033483 -0.251135,-0.1506813 -0.251135,-0.3013625 0,-0.1674244 0.117197,-0.284621 0.301363,-0.284621 0.08371,0 0.117196,0.016746 0.234393,0.016746 0.385075,0 0.686438,-0.3013625 0.686438,-0.6864379 V 2.4963358 c 0,-0.050228 -0.03348,-0.100454 -0.100452,-0.100454 v 0 h -0.435303 c -0.167423,0 -0.301363,-0.133939 -0.301363,-0.3013633 0,-0.1674235 0.13394,-0.3013632 0.301363,-0.3013632 h 0.535757"
     fill="#ffffff"
     id="path950"
     style="stroke-width:0.167425" />
</svg>
