<svg width="178" height="62" version="1.1" xmlns="http://www.w3.org/2000/svg"><path d="m29.329 7.0112c-13.243 0-23.976 10.733-23.983 23.973h-4e-3v18.565h4e-3c0.0066 3.0058 2.4425 5.4395 5.4499 5.4395h18.543c13.245-0.008435 23.973-10.74 23.973-23.983 1.4e-5 -13.249-10.734-23.994-23.983-23.994zm41.948 9.6836c-5.0706 0-8.3238 3.8529-8.3534 7.458v20.899c-0.0066 2.5767 3.9184 2.5767 3.9126 0v-13.948h4.0214c0.9409 0 1.7441-0.68173 1.7441-1.7752 0-1.0935-0.86057-1.7545-1.7441-1.7545h-4.0214v-3.2141c0-2.0573 1.6096-3.7712 4.8495-3.7316 1.1269 0.01488 1.5241 0.28737 1.9357 0.53826 2.2469 1.4883 4.4082-1.9576 2.0547-3.2762-1.4434-0.8832-2.7901-1.1955-4.3991-1.1955zm-37.087 0.19155c4.0281 0 7.8306 3.0847 7.8306 7.339 0 0.39452 2e-3 0.78947-0.06217 1.237-0.11158 1.1319-1.1459 1.9451-2.2721 1.7856-1.1262-0.16143-1.8904-1.231-1.6821-2.3497 0.01913-0.1277 0.0259-0.32819 0.0259-0.67279 0-2.4122-1.9737-3.3435-3.8402-3.3435-1.8654 0-3.546 1.5688-3.5504 3.3435 0.03222 2.0527 0 4.0897 0 6.1382l3.4625-0.02591c2.7028-0.05599 2.7336 4.0163 0.03122 3.9955l-3.4935 0.0259c-0.0084 1.6511 0.01275 1.3525 4e-3 2.1841 0 0 0.02929 2.0195-0.03095 3.5504-0.41786 4.4963-4.2461 8.0893-8.845 8.0893-4.8743 0-8.8915-3.9846-8.8915-8.8709 0.14636-5.0268 4.1543-8.98 9.2021-8.933l2.8156-0.02119v3.9904l-2.8156 0.02591h-0.01488c-2.7744 0.08209-5.1509 1.9665-5.1962 4.9375 0 2.707 2.1867 4.8755 4.9011 4.8755 2.71 0 4.8805-1.9724 4.8805-4.8701l-4e-3 -15.108c0.0013-0.28045 0.01063-0.50324 0.04138-0.81257 0.45765-3.6955 3.7636-6.5109 7.5045-6.5109zm79.947 0.18116c-1.2204-0.06536-2.118 1.1434-1.9305 2.2928v8.902c-3.8698-3.2444-10.169-3.0181-13.741 0.57448-3.6127 3.219-4.2992 9.0533-1.6717 13.073 1.93 3.035 5.4601 5.2025 9.0987 5.0308 2.2879-0.02119 4.5549-1.0098 6.3141-2.4686-0.18052 1.1518 0.7095 2.3719 1.9408 2.298 1.2087 0.05387 2.1471-1.1388 1.9616-2.2928-0.0212-8.5603 0.0212-17.121-0.0212-25.681-0.0626-0.96195-0.98074-1.7555-1.9407-1.7286h-4e-3zm15.118 8.7156a10.688 10.601 0 0 0-10.688 10.6 10.688 10.601 0 0 0 10.688 10.605 10.688 10.601 0 0 0 10.688-10.605 10.688 10.601 0 0 0-10.688-10.6zm34.909 0.09312c-2.6679 0-4.5908 0.79232-5.9934 1.7959-2.1262 1.5222 0.16143 4.7051 2.2876 3.1829 0.96771-0.69243 1.6865-1.061 3.7057-1.061 2.5133 0.05048 4.5338 0.9927 4.5338 2.8725-1.3475 0.85265-7.2052 1.5596-10.351 3.3486-3.1458 1.789-2.981 4.0469-2.981 5.5119 0 3.2137 3.3905 5.3826 6.3246 5.3826s4.1786-0.61558 7.0492-2.5825v0.55897c-0.0927 2.6996 4.0108 2.6996 3.918 0v-11.536c0.0128-4.7847-3.4196-7.4006-8.493-7.4735zm-19.46 0.04138c-1.6979 0-1.9808 1.4016-1.9719 1.9667v17.017c-0.0464 1.1 0.86325 2.0133 2.003 2.0133 1.1397 0 2.0494-0.91332 2.0029-2.0133 0 0 0.0301-6.3313 0-10.382-0.0302-4.051 3.2676-4.9271 4.4146-4.9271 0.85191 0 1.5349 0.47563 2.21 0.45029 1.0019-0.03773 1.8218-0.71087 1.8218-1.8891-0.0301-1.9033-2.3619-2.1727-4.0834-2.1375-1.7217 0.0352-3.1766 0.56276-4.4355 1.3146 0 0-0.26366-1.4129-1.9615-1.4129zm-60.114 0.04138c-1.2997-0.09991-2.7355 0.1084-4.3165 0.71941-3.8261 1.4787-6.4225 5.1118-6.4331 9.5954-0.0106 4.6968 3.2759 10.757 10.092 10.801 4.5848 0.03009 6.8775-1.6824 8.1153-2.8466 0.82102-0.72756 0.8817-1.9919 0.1294-2.7896-0.75382-0.79926-2.0188-0.81887-2.7947-0.04138-0.92388 0.86793-2.2849 2.157-6.1433 1.7286-1.6556-0.18328-3.4328-1.5283-4.0265-2.5568l12.639-5.3775c0.96666-0.42948 1.4132-1.5507 1.004-2.5256-1.6926-3.3305-4.3663-6.4076-8.2652-6.7076zm44.665 3.7937a6.6854 6.6315 0 0 1 6.6868 6.6298 6.6854 6.6315 0 0 1-6.6868 6.6352 6.6854 6.6315 0 0 1-6.6868-6.6352 6.6854 6.6315 0 0 1 6.6868-6.6298zm-23.596 0.10352c3.4937-0.09121 6.6127 3.0544 6.547 6.516 0.0734 3.4648-3.0565 6.6051-6.547 6.516-3.319 0.08803-6.3621-2.7232-6.5315-6.0193-0.35345-3.3977 2.4369-6.7122 5.8536-6.9819 0.22538-0.02205 0.45134-0.03122 0.67798-0.03122zm-22.058 0.10352c1.9008 2e-3 3.6941 0.9821 4.6063 2.5619l-10.522 4.4924c-0.75114-2.8033 2.3316-6.0989 4.011-6.7127 0.62954-0.23005 1.271-0.34218 1.9046-0.3416zm85.231 6.5625c-6.6e-4 1.2687 0.0191 1.6353-0.0149 2.9035-9e-3 1.5231-0.96486 2.2276-1.9667 2.8102-1.0018 0.58276-3.0389 1.0931-4.2181 1.149-1.3601 0.04497-3.1607-0.26059-3.2556-1.8736 6.6e-4 -0.97361 0.47289-1.5789 1.2473-2.2513 1.8338-1.3758 4.3151-1.8363 8.2085-2.7378z" fill="#737373" stroke-width=".23145"/></svg>