<svg width="238" height="34" version="1.1" viewBox="0 0 238 34" xmlns="http://www.w3.org/2000/svg"><g fill="none" fill-rule="evenodd"><g transform="translate(-1001 -816)" fill="#2A3744" fill-rule="nonzero"><g transform="translate(345 730)"><g transform="translate(656 86)"><g transform="translate(0 4.7028)" fill-opacity=".7"><path d="m3.6078 5.9014h8.574c2.5762 0 4.468 0.73342 5.6753 2.1998 1.2069 1.4668 1.5985 3.5107 1.1747 6.1319-0.17374 1.0753-0.48373 2.0622-0.9302 2.9611-0.44666 0.89888-1.0365 1.7201-1.7697 2.4631-0.87181 0.89407-1.8477 1.5346-2.9283 1.9212-1.0806 0.38651-2.4625 0.57979-4.1455 0.57979h-3.819l-0.95021 5.8795h-4.4591l3.5778-22.136zm3.8927 3.502-1.5006 9.2851h2.7121c1.7977 0 3.13-0.36697 3.9974-1.1019 0.86671-0.73497 1.4384-1.9578 1.7152-3.6692 0.26673-1.6503 0.11163-2.815-0.4639-3.4949-0.57598-0.67926-1.7109-1.0191-3.4049-1.0191h-3.0552z"/><path d="m24.038 0.021932h4.4254l-0.95021 5.8795h3.937c2.4779 0 4.1951 0.46965 5.1525 1.4081 0.95765 0.93905 1.268 2.4518 0.93056 4.5397l-1.6663 10.309h-4.4924l1.5858-9.8117c0.18058-1.1154 0.093075-1.874-0.2621-2.2761-0.3552-0.4016-1.0984-0.60292-2.2287-0.60292h-3.5321l-2.0511 12.691h-4.4262l3.5778-22.136"/><path d="m42.353 5.9014h8.5739c2.5768 0 4.468 0.73342 5.6753 2.1998 1.2071 1.4668 1.5986 3.5107 1.1751 6.1319-0.17374 1.0753-0.48399 2.0622-0.92995 2.9611-0.44698 0.89888-1.0373 1.7201-1.77 2.4631-0.87207 0.89407-1.8479 1.5346-2.9285 1.9212-1.0804 0.38651-2.4623 0.57979-4.1458 0.57979h-3.8184l-0.95021 5.8795h-4.4588l3.5774-22.136zm3.8932 3.502-1.5006 9.2851h2.7121c1.7976 0 3.1298-0.36697 3.9967-1.1019 0.8669-0.73497 1.4389-1.9578 1.7156-3.6692 0.26654-1.6503 0.1117-2.815-0.46416-3.4949-0.57598-0.67926-1.7109-1.0191-3.4043-1.0191h-3.0552z"/></g><g transform="translate(60.946)"><polyline points="4.369 0.021 12.945 0.021 16.713 20.603 27.133 0.021 35.677 0.021 31.342 26.843 25.617 26.843 29.465 5.951 18.958 26.843 12.754 26.843 8.808 5.732 5.982 26.843 0.034 26.843 4.369 0.021"/><path d="m45.969 22.502h4.3297l2.4816-15.358h5.3823l-3.098 19.169c-0.42056 2.6061-1.3627 4.5365-2.8249 5.791-1.4622 1.2539-3.4908 1.8814-6.0851 1.8814h-10.554l0.64514-3.9903h9.628c1.0332 0 1.8662-0.24144 2.499-0.72385 0.63197-0.48326 1.0231-1.1827 1.1711-2.0994l0.053656-0.33004h-4.7641c-3.0474 0-5.1256-0.5809-6.234-1.7427-1.1091-1.1617-1.4437-3.0991-1.006-5.812l1.9632-12.143h5.3216l-1.8979 11.742c-0.23987 1.4854-0.1679 2.4592 0.21825 2.9218 0.38538 0.46255 1.3088 0.69371 2.7709 0.69371"/><path d="m72.659 0.02061h6.1975l7.511 26.822h-6.4996l-1.5193-6.3844h-12.072l-3.5072 6.3844h-6.1983l16.088-26.822zm2.0114 5.326-5.7311 10.324h8.2756l-2.5444-10.324z"/><path d="m106.66 26.843h-10.34c-3.1245 0-5.4188-0.88836-6.8838-2.6654-1.4642-1.7767-1.9387-4.2536-1.4255-7.43 0.21074-1.3023 0.5865-2.4982 1.1281-3.5872 0.54157-1.0894 1.2565-2.0843 2.1454-2.9851 1.0568-1.083 2.244-1.8589 3.5608-2.3275 1.3168-0.4687 2.9898-0.7029 5.018-0.7029h4.6178l1.1511-7.124h5.3629l-4.3352 26.822zm-4.6798-4.2238 1.8156-11.231h-3.2553c-2.1831 0-3.8029 0.44161-4.8609 1.3239-1.0564 0.88291-1.7523 2.3531-2.0846 4.4103-0.32281 1.9969-0.13204 3.4121 0.57236 4.246 0.70438 0.83393 2.0785 1.2509 4.1222 1.2509h3.6905z"/><path d="m114.52 7.1446h20.669c2.9968 0 5.0651 0.56603 6.2043 1.6968 1.1384 1.1314 1.5031 2.968 1.0925 5.51l-2.0191 12.491h-5.4228l1.9093-11.816c0.23452-1.4486 0.1626-2.4042-0.21503-2.8671-0.37915-0.46256-1.2722-0.69403-2.6806-0.69403h-3.0193l-2.4853 15.377h-5.5038l2.4853-15.377h-6.2902l-2.4853 15.377h-5.4228l3.1841-19.698"/><path d="m154.47 4.9062h-5.6447l0.78949-4.8856h5.6447l-0.78949 4.8856zm-3.5457 21.937h-5.6447l3.1833-19.698h5.6447l-3.1833 19.698z"/><path d="m158.76 7.1446h10.127c3.0606 0 5.1562 0.55693 6.286 1.6694 1.1298 1.1131 1.4867 2.9589 1.0699 5.5374l-2.0184 12.491h-5.3831l1.9162-11.852c0.23782-1.4732 0.15577-2.4289-0.24615-2.8668-0.40196-0.4385-1.315-0.65783-2.7382-0.65783h-4.3289l-2.4853 15.377h-5.3823l3.1833-19.698"/></g></g></g></g></g></svg>