<svg viewBox="0 0 238 34"><g fill="#2A3744"><path fill-opacity=".7" d="M3.608 10.604h8.574c2.576 0 4.468.734 5.675 2.2 1.207 1.467 1.599 3.51 1.175 6.132a10.31 10.31 0 01-.93 2.961 9.532 9.532 0 01-1.77 2.463c-.872.894-1.848 1.535-2.928 1.922-1.08.386-2.463.58-4.146.58H5.44l-.95 5.879H.03l3.578-22.138zM7.5 14.106L6 23.391h2.712c1.798 0 3.13-.367 3.997-1.101.867-.735 1.439-1.958 1.716-3.67.266-1.65.111-2.815-.464-3.495-.576-.679-1.711-1.019-3.405-1.019H7.5zm16.538-9.381h4.425l-.95 5.88h3.937c2.478 0 4.195.47 5.152 1.408.958.939 1.268 2.451.931 4.54l-1.666 10.308h-4.493l1.586-9.811c.18-1.116.093-1.874-.262-2.276-.355-.402-1.098-.603-2.229-.603h-3.532l-2.05 12.69H20.46l3.578-22.136m18.315 5.88h8.574c2.577 0 4.468.733 5.675 2.2 1.207 1.466 1.599 3.51 1.175 6.131a10.326 10.326 0 01-.93 2.961 9.553 9.553 0 01-1.77 2.463c-.872.894-1.847 1.535-2.928 1.922-1.08.386-2.462.58-4.146.58h-3.818l-.95 5.879h-4.46l3.579-22.138zm3.893 3.501l-1.5 9.285h2.712c1.797 0 3.13-.367 3.996-1.101.867-.735 1.44-1.958 1.716-3.67.266-1.65.112-2.815-.464-3.495-.576-.679-1.711-1.019-3.405-1.019h-3.055z"/><path d="M65.315.021h8.576l3.768 20.582L88.079.021h8.544l-4.335 26.822h-5.725l3.848-20.892-10.507 20.892H73.7L69.754 5.732l-2.826 21.111H60.98L65.315.021m41.6 22.481h4.33l2.481-15.357h5.383l-3.098 19.169c-.421 2.606-1.363 4.536-2.825 5.79-1.463 1.255-3.491 1.882-6.085 1.882H96.546l.645-3.99h9.628c1.033 0 1.866-.241 2.5-.724.631-.483 1.022-1.183 1.17-2.1l.054-.33h-4.764c-3.048 0-5.126-.58-6.234-1.742-1.11-1.162-1.444-3.099-1.006-5.812l1.963-12.143h5.322l-1.898 11.742c-.24 1.485-.168 2.459.218 2.921.385.463 1.309.694 2.77.694M133.605.021h6.198l7.511 26.822h-6.5l-1.519-6.385h-12.073l-3.507 6.385h-6.198L133.605.02zm2.012 5.326l-5.732 10.323h8.275l-2.544-10.323zm31.989 21.496h-10.34c-3.125 0-5.419-.889-6.884-2.666-1.464-1.776-1.939-4.253-1.425-7.43.21-1.302.586-2.498 1.128-3.587a11.56 11.56 0 012.145-2.985c1.057-1.083 2.244-1.859 3.56-2.327 1.318-.47 2.99-.703 5.019-.703h4.618L166.576.02h5.364l-4.335 26.822zm-4.68-4.224l1.815-11.231h-3.255c-2.183 0-3.803.442-4.86 1.324-1.057.883-1.753 2.353-2.085 4.41-.323 1.997-.132 3.412.572 4.246.704.834 2.078 1.251 4.122 1.251h3.69zm12.54-15.474h20.67c2.996 0 5.064.566 6.203 1.696 1.139 1.132 1.503 2.968 1.093 5.51l-2.02 12.492h-5.422l1.91-11.816c.234-1.449.162-2.404-.216-2.867-.379-.463-1.272-.694-2.68-.694h-3.02l-2.485 15.377h-5.504l2.485-15.377h-6.29l-2.485 15.377h-5.423l3.184-19.698m39.95-2.239h-5.644l.79-4.885h5.644l-.79 4.885zm-3.545 21.937h-5.645l3.183-19.698h5.645l-3.183 19.698zm7.839-19.698h10.127c3.06 0 5.156.557 6.286 1.67 1.13 1.112 1.487 2.958 1.07 5.536l-2.019 12.492h-5.383l1.916-11.853c.238-1.473.156-2.428-.246-2.866-.402-.439-1.315-.658-2.738-.658h-4.329l-2.485 15.377h-5.382l3.183-19.698"/></g></svg>