<svg viewBox="0 0 176 60"><g fill="#2A3744"><path fill-opacity=".7" d="M8.068 13.6C3.801 20.98.265 27.095.23 27.2c-.035.086 2.526.156 6.166.156h6.201l4.738-8.164 4.72-8.163 9.51-.052 9.51-.052 2.387-4.134a1528.87 1528.87 0 003.066-5.367l.714-1.25L31.53.19H15.837L8.068 13.6z"/><path d="M44.21 16.413c-4.284 7.434-7.785 13.6-7.785 13.722 0 .312 15.432 26.973 15.607 27.008.087.017 1.55-2.38 3.24-5.315l3.1-5.332-3.501-6.062a4209.324 4209.324 0 00-4.755-8.18l-1.237-2.12 4.494-7.728c2.456-4.256 4.58-7.938 4.72-8.198.244-.47.14-.695-2.822-5.802-1.69-2.935-3.117-5.366-3.17-5.401-.052-.052-3.588 5.975-7.89 13.408zm121.65 1.737c-2.283.556-4.146 1.928-5.035 3.717-.435.903-.505 1.233-.505 2.744 0 1.581.052 1.824.54 2.727.54.956 1.603 2.015 2.49 2.484.262.139 1.43.573 2.596.973 3.623 1.25 4.163 1.65 4.163 3.126 0 1.06-.33 1.528-1.376 1.928-1.602.608-3.867.07-5.382-1.303l-.767-.694-1.724 1.719-1.742 1.72.645.573c3.048 2.657 9.005 3.282 12.419 1.285 1.567-.92 2.647-2.466 3.048-4.394.418-2.032-.087-3.96-1.359-5.263-1.08-1.094-1.88-1.528-4.389-2.414-3.536-1.25-3.936-1.529-3.936-2.727 0-.973.348-1.46 1.358-1.841 1.516-.573 3.78-.07 4.964 1.111l.436.435.975-1.043a90.648 90.648 0 001.655-1.788l.662-.765-.592-.503c-.767-.643-2.491-1.442-3.885-1.807-1.323-.347-3.832-.33-5.26 0zm-96.776.382c-.052.07-.104 1.095-.104 2.293v2.154h6.026l.052 8.44.035 8.425 2.613.052 2.613.052V22.979h6.026V18.41h-8.57c-4.702 0-8.621.07-8.691.121zm19.352.157c-.07.139-.07 3.526-.035 7.52.087 7.781.122 8.094 1.114 10.005.575 1.163 2.178 2.64 3.519 3.265 4.18 1.98 9.789.834 12.227-2.466 1.516-2.05 1.568-2.363 1.568-11.047v-7.555h-5.12v6.808c0 3.978-.088 7.121-.192 7.608-.244 1.025-.767 1.823-1.603 2.38-.557.381-.853.45-2.23.45-1.41 0-1.654-.051-2.316-.485-.47-.313-.906-.817-1.184-1.373-.419-.868-.436-.955-.523-8.093l-.087-7.191-2.526-.052c-2.107-.052-2.525 0-2.612.226zm22.73-.174c-.07.087-.122 4.933-.122 10.786v10.63h5.103l.053-4.238.052-4.238.819-.052.819-.053 2.351 4.29 2.351 4.29h3.014c1.655 0 2.978-.052 2.926-.121-.035-.087-1.237-2.05-2.665-4.377-1.41-2.327-2.63-4.342-2.665-4.464-.07-.156.227-.364.766-.59 1.133-.47 2.335-1.598 2.944-2.744.418-.8.488-1.147.488-2.658 0-2.084-.436-3.23-1.637-4.36-1.916-1.736-3.136-2.014-9.424-2.136-2.77-.052-5.086-.034-5.173.035zm9.284 4.29c1.62.417 2.386 2.032 1.585 3.335-.627.99-1.446 1.285-3.814 1.372l-2.056.07v-4.968h1.742c.958 0 2.108.087 2.543.191zm10.834-4.29c-.07.087-.122 4.933-.122 10.786v10.63h5.121v-8.563h.784c.453 0 .888.104.993.226.104.121 1.15 1.997 2.334 4.15 1.184 2.154 2.194 3.978 2.264 4.065.07.07 1.463.122 3.083.087l2.944-.052-2.735-4.464c-1.498-2.449-2.717-4.499-2.717-4.55 0-.053.383-.261.853-.452 1.185-.487 2.474-1.737 2.996-2.9.61-1.338.61-3.804 0-5.177-.47-1.042-1.585-2.188-2.7-2.761-1.637-.834-2.647-.956-7.925-1.06-2.77-.052-5.086-.034-5.173.035zm9.284 4.29c.453.122 1.01.434 1.306.747.436.452.523.695.523 1.459 0 .816-.07.973-.662 1.528-.854.782-1.672.99-3.762.99h-1.69v-4.915h1.742c.958 0 2.108.087 2.543.191zm10.834-4.273c-.07.07-.122 4.916-.122 10.769v10.63h5.295V18.41h-2.525c-1.394 0-2.596.07-2.648.121zM.613 33.886c.331.573 1.742 3.04 3.153 5.471l2.56 4.412h9.51l9.511.017 4.668 8.112 4.668 8.093h6.253c3.45 0 6.27-.034 6.27-.104 0-.07-3.518-6.183-7.82-13.582l-7.82-13.478H.003l.61 1.06z"/></g></svg>