<svg viewBox="0 0 164.775 35.511"><path fill="#1a1f71" d="M58.634 2.539c-4.812.589-8.365 2.759-9.86 6.038-.552 1.198-.72 2.013-.72 3.486-.01 1.129.03 1.384.266 2.042.414 1.149.866 1.836 1.89 2.857 1.112 1.12 2.096 1.787 4.458 3.014 2.047 1.07 2.273 1.208 3.011 1.925.916.874 1.044 1.846.394 2.827-1.397 2.072-6.348 2.2-10.747.265-.57-.245-1.043-.441-1.053-.432-.01.02-.324 1.444-.698 3.172-.492 2.297-.64 3.161-.551 3.22.56.363 3.73 1.11 5.57 1.306 1.496.167 4.468.137 5.737-.05 3.7-.549 6.623-2.08 8.316-4.358 1.752-2.357 2.214-5.94 1.083-8.297-.955-1.993-2.244-3.093-6.053-5.145-2.244-1.207-3.08-1.777-3.474-2.346-.935-1.345.07-2.838 2.244-3.348.856-.207 2.884-.197 4.114.01.797.127 3.07.805 3.72 1.1.216.107 1.535-5.99 1.318-6.128-.295-.196-2.253-.726-3.611-.981-.837-.157-4.527-.275-5.354-.177zM.019 3.246c-.01.147-.02.334-.02.432-.009.127.286.245 1.359.51 3.356.845 6.16 2.013 6.918 2.858.217.255.492.716.59 1.01.1.305 1.536 5.794 3.2 12.205l3.01 11.645h8.021l6.033-14.374c3.326-7.904 6.042-14.414 6.042-14.463 0-.04-1.771-.069-3.936-.049l-3.937.02-2.371 5.979c-1.3 3.29-3.051 7.698-3.888 9.789-.826 2.101-1.525 3.77-1.535 3.711-.02-.049-.758-3.917-1.643-8.581-1.752-9.288-1.732-9.23-2.608-10.034-.246-.226-.67-.52-.935-.639-.483-.215-.561-.225-7.381-.255L.039 2.98zm38.411-.128c-.079.197-6.15 28.591-6.15 28.729 0 .078 1.042.108 3.749.108h3.74l3.04-14.198c1.683-7.805 3.07-14.325 3.09-14.482l.04-.284h-3.73c-2.893 0-3.75.029-3.78.127zm41.018-.019c-.58.166-1.437.765-1.761 1.227-.197.275-2.667 6.038-5.935 13.814a8163.439 8163.439 0 00-5.688 13.579l-.088.236 3.946.01h3.956l.768-2.14.777-2.141 4.813-.03 4.812-.03.453 2.17.452 2.16h3.494c1.92 0 3.484-.01 3.484-.019 0-.02-1.368-6.52-3.031-14.462L86.878 3.04l-3.562-.01c-1.959-.01-3.69.02-3.868.069zm3.199 13.078c.6 2.857 1.092 5.252 1.092 5.33 0 .119-.541.138-3.06.138-2.402 0-3.051-.02-3.012-.127.03-.069.905-2.474 1.949-5.351 1.043-2.877 1.909-5.214 1.919-5.204.02.02.521 2.366 1.112 5.214z"/><g fill="none"><path fill="#ff5f00" d="M128.091 3.797h15.615v27.917h-15.615z"/><path fill="#eb001b" d="M129.082 17.758a17.69 17.69 0 016.816-13.96c-7.317-5.722-17.824-4.889-24.138 1.912a17.686 17.686 0 000 24.09c6.314 6.8 16.821 7.634 24.138 1.913a17.69 17.69 0 01-6.816-13.956z"/><path fill="#f79e1b" d="M164.774 17.758c0 6.798-3.901 12.998-10.047 15.968a17.922 17.922 0 01-18.829-2.012 17.72 17.72 0 006.82-13.958 17.72 17.72 0 00-6.82-13.96 17.922 17.922 0 0118.83-2.01c6.146 2.97 10.047 9.171 10.047 15.968zm-1.705 11.424v-.925h.233v-.192h-.59v.192h.253v.925zm1.145 0v-1.116h-.178l-.208.798-.209-.798h-.158v1.117h.129v-.838l.193.726h.134l.193-.726v.846z"/></g></svg>