<svg width="112" height="70" xmlns="http://www.w3.org/2000/svg"><g fill="none" fill-rule="evenodd"><g transform="translate(-799 -798)" fill="#2A3744" fill-rule="nonzero"><g transform="translate(345 730)"><g transform="translate(454 68)"><path d="M91.403 13.274a6.098 6.098 0 011.942-4.268 6.108 6.108 0 014.395-1.643c3.376.121 6.028 2.97 5.912 6.343a6.106 6.106 0 01-1.942 4.264 6.065 6.065 0 01-4.398 1.646c-3.372-.124-6.022-2.967-5.909-6.342zm16.375 6.031c.278-.184.483-.336.569-.37l.093-.145c-.236-1.48-2.442-8.656-4.11-10.382-.46-.47-.828-.933-1.574-1.37-6.037-3.517-20.358-5.64-21.029-5.737l-.114.032-.043.103s-.055 2.968-.063 3.3C80.044 4.243 69.412.81 59.445.463 50.992.167 38.683-.926 22.37 9.104l-.483.3C14.214 14.19 8.916 20.094 6.146 26.952c-.869 2.158-2.037 7.027-.879 11.61.499 2.003 1.429 4.015 2.682 5.817 2.834 4.07 7.59 6.771 12.71 7.227 7.23.647 12.703-2.6 14.65-8.68 1.34-4.195 0-10.35-5.132-13.491-4.174-2.557-8.663-1.975-11.267-.253-2.259 1.498-3.538 3.825-3.516 6.381.053 4.535 3.958 6.944 6.767 6.952.816 0 1.635-.142 2.559-.443.329-.1.638-.224.979-.435l.107-.063.067-.045-.023.014a2.31 2.31 0 001.026-1.906 2.304 2.304 0 00-2.73-2.258l-.16.037-.214.065-.312.108c-.646.159-1.13.173-1.234.176-.329-.021-1.945-.505-1.945-2.276v-.024c0-.65.26-1.106.404-1.356.503-.788 1.88-1.562 3.74-1.4 2.442.211 4.202 1.463 5.368 3.825 1.082 2.196.799 4.897-.73 6.875-1.518 1.961-4.221 2.794-7.815 2.407-3.625-.4-6.69-2.487-8.406-5.734-1.68-3.174-1.771-6.937-.237-9.828 3.67-6.927 10.6-6.855 14.4-6.198 5.624.976 12.021 6.163 14.29 12.153.367.955.554 1.712.717 2.404l.245 1.034 6.353 3.102.083.063.154-.015.028-.183c-.04-.142-.132-.272-.278-2.05-.12-1.578-.367-5.898 1.808-8.038.844-.837 2.13-1.583 3.147-1.822 4.164-1.017 9.047-.316 13.663 5.028 2.39 2.76 3.555 4.019 4.14 4.582l.204.184.24.18c.191.104 7.939 3.673 7.939 3.673l.16-.038.002-.166c-.051-.058-4.91-6.338-4.046-11.51.681-4.118 3.96-3.745 8.493-3.233 1.48.173 3.166.366 4.91.405 4.87.03 10.117-.868 13.351-2.283 2.092-.91 3.427-1.515 4.264-2.275.3-.25.456-.654.62-1.09l.113-.287c.135-.353.334-1.097.422-1.505.035-.18.056-.369-.073-.47l-.447.083c-1.42.855-4.97 2.473-8.289 2.542-4.12.084-12.415-4.143-13.28-4.592l-.083-.097c-.204-.498-1.449-3.44-1.715-4.063 5.972 3.935 10.927 6.11 14.719 6.446 4.221.376 7.512-1.928 8.918-2.913zm-9.39-5.464c-1.05 0-1.896-.567-1.896-1.262 0-.702.847-1.266 1.895-1.266s1.897.564 1.897 1.266c0 .695-.85 1.262-1.897 1.262zm-.7-4.673a4.217 4.217 0 00-3.06 1.142 4.235 4.235 0 00-1.354 2.974 4.29 4.29 0 004.12 4.43 4.282 4.282 0 003.071-1.148 4.238 4.238 0 001.349-2.974 4.283 4.283 0 00-4.126-4.424z"/><path d="M46.89 48.7c-2.692 0-4.173 2.276-4.173 3.85v2.02a3.708 3.708 0 003.649 3.752h6.163c.776 0 .939.508.939.937v1.304c0 .138-.028 1.39-.94 1.39h-8.404c-.836 0-1.44.581-1.44 1.376v.36c0 .793.604 1.37 1.44 1.37h8.861c2.317 0 3.811-1.611 3.811-4.108v-2.18c0-2.344-1.684-3.392-3.356-3.392h-6.064c-.913 0-1.327-.685-1.327-1.169v-1.203c0-.758.507-1.197 1.392-1.197h6.712c.824 0 1.443-.591 1.443-1.373v-.36c0-.785-.63-1.377-1.47-1.377H46.89zM72.089 48.7c-.796 0-1.437.647-1.437 1.442v10.32c0 .826-.674 1.49-1.491 1.49h-4.684a1.49 1.49 0 01-1.49-1.49v-10.32c0-.795-.648-1.442-1.443-1.442h-.453a1.43 1.43 0 00-1.442 1.442v10.71c0 2.494 1.962 4.303 4.665 4.303h5.01c2.699 0 4.66-1.808 4.66-4.302v-10.71c0-.806-.633-1.443-1.439-1.443h-.456zM81.058 48.7c-2.69 0-4.176 2.276-4.176 3.85v2.02a3.71 3.71 0 003.654 3.752h6.16c.778 0 .942.508.942.937v1.304c0 .138-.029 1.39-.941 1.39h-8.41c-.83 0-1.438.581-1.438 1.376v.36c0 .793.607 1.37 1.439 1.37h8.865c2.317 0 3.818-1.611 3.818-4.108v-2.18c0-2.344-1.689-3.392-3.361-3.392h-6.064c-.915 0-1.328-.685-1.328-1.169v-1.203c0-.758.506-1.197 1.392-1.197h6.716c.821 0 1.438-.591 1.438-1.373v-.36c0-.785-.629-1.377-1.473-1.377h-7.233zM95.226 48.7c-.799 0-1.402.592-1.402 1.377v13.612c0 .781.59 1.37 1.37 1.37h10.848c.835 0 1.438-.578 1.438-1.37v-.36c0-.796-.603-1.377-1.438-1.377h-8.884v-3.465h6.51c.833 0 1.438-.585 1.438-1.377v-.36c0-.796-.605-1.373-1.439-1.373h-6.51v-3.57h8.433c.832 0 1.439-.573 1.439-1.373v-.36c0-.795-.607-1.376-1.439-1.376H95.226v.002zM2.3 62.465v-4.686c0-.55.452-1 1.004-1h2.587c.54 0 1 .46 1 1v4.686c0 .553-.449 1.003-1 1.003H3.285a.981.981 0 01-.984-1.003zm.72-7.29c-1.36 0-2.467 1.058-2.467 2.362v5.132c0 1.325 1.071 2.404 2.384 2.404h3.32c1.312 0 2.383-1.08 2.383-2.404v-5.132c0-1.304-1.107-2.362-2.466-2.362H3.019zM12.834 62.366v-4.483c0-.619.484-1.102 1.103-1.102h2.424c.62 0 1.103.484 1.103 1.102v4.483c0 .608-.496 1.103-1.103 1.103h-2.424a1.104 1.104 0 01-1.103-1.103zm3.32-7.25c-.956 0-1.678.342-2.257.622-.353.17-.66.316-.896.316a.282.282 0 01-.248-.128l-.22-.422c-.056-.111-.277-.328-.55-.328h-.329c-.315 0-.568.283-.568.629v13.018c0 .408.322.73.73.73h.284a.73.73 0 00.733-.73v-4.32c0-.128.084-.266.168-.266.237 0 .543.139.896.3.579.267 1.3.595 2.258.595h.306c1.695 0 2.75-.968 2.75-2.524v-4.97c0-1.532-1.078-2.52-2.75-2.52h-.306v-.001zM23.404 57.762c0-.55.433-.982.983-.982h2.667a.97.97 0 01.978.982v1.59h-4.629l.001-1.59zm.718-2.587c-1.36 0-2.463 1.058-2.463 2.362v5.094c0 1.32 1.072 2.441 2.338 2.441h3.425c.423 0 .73-.293.73-.692v-.224c0-.401-.307-.689-.73-.689h-2.814c-.789 0-1.205-.387-1.205-1.124v-1.49h5.077c.816 0 1.3-.499 1.3-1.342v-1.975c0-1.304-1.106-2.362-2.46-2.362h-3.198zM36.831 55.116c-.954 0-1.674.342-2.255.62-.362.17-.67.318-.923.318-.11 0-.156-.014-.242-.163l-.2-.367a.6.6 0 00-.576-.349h-.282c-.341 0-.59.266-.59.63v8.538c0 .405.32.73.732.73h.282a.734.734 0 00.734-.73v-6.46c0-.605.495-1.102 1.1-1.102h2.426c.607 0 1.101.497 1.101 1.102v6.46c0 .405.322.73.73.73h.285a.733.733 0 00.733-.73v-6.705c0-1.533-1.077-2.522-2.75-2.522h-.305zM109.64 63.066h.174c.198 0 .367-.072.367-.258 0-.132-.096-.265-.367-.265-.078 0-.132.006-.174.013v.51zm0 .835h-.24v-1.507c.126-.018.246-.036.426-.036.229 0 .379.047.468.113.091.066.14.168.14.313 0 .198-.133.318-.295.366v.013c.133.024.222.144.253.366.036.235.071.325.095.373h-.252c-.036-.048-.072-.186-.102-.385-.036-.191-.132-.264-.324-.264h-.168v.648h-.001zm.252-1.928c-.594 0-1.08.51-1.08 1.141 0 .643.486 1.148 1.086 1.148.6.006 1.081-.505 1.081-1.141 0-.637-.48-1.148-1.08-1.148h-.007zm.006-.21c.74 0 1.328.6 1.328 1.352 0 .763-.59 1.357-1.334 1.357a1.34 1.34 0 01-1.34-1.357c0-.75.601-1.352 1.34-1.352h.006z"/></g></g></g></g></svg>