<svg xmlns="http://www.w3.org/2000/svg" width="176" height="60"><g fill="none" fill-rule="evenodd"><g fill="#2A3744" fill-rule="nonzero" transform="translate(-345 -803)"><g transform="translate(345 730)"><g transform="translate(0 73)"><path fill-opacity=".7" d="M8.068 13.6C3.801 20.982.265 27.095.23 27.2c-.035.087 2.526.156 6.166.156h6.201l4.738-8.163 4.72-8.163 19.021-.104 2.386-4.134c1.307-2.275 2.683-4.69 3.066-5.367l.714-1.25-15.711.017H15.837L8.069 13.6z"/><path d="M44.211 16.414c-4.285 7.434-7.786 13.6-7.786 13.721 0 .313 15.432 26.973 15.607 27.008.087.017 1.55-2.38 3.24-5.315l3.1-5.332-3.5-6.062a4204.815 4204.815 0 00-4.756-8.18l-1.236-2.12 4.493-7.728c2.456-4.256 4.581-7.938 4.72-8.198.245-.47.14-.695-2.821-5.801-1.69-2.936-3.118-5.367-3.17-5.402-.052-.052-3.588 5.975-7.89 13.409zM165.86 18.149c-2.282.556-4.146 1.928-5.034 3.717-.435.903-.505 1.233-.505 2.744 0 1.58.052 1.824.54 2.727.54.955 1.603 2.015 2.49 2.484.262.139 1.43.573 2.596.972 3.623 1.25 4.163 1.65 4.163 3.127 0 1.06-.33 1.528-1.376 1.928-1.602.608-3.867.07-5.382-1.303l-.767-.695-1.724 1.72-1.742 1.72.645.572c3.048 2.658 9.005 3.283 12.419 1.286 1.567-.92 2.647-2.467 3.048-4.395.418-2.032-.087-3.96-1.359-5.262-1.08-1.094-1.88-1.529-4.39-2.414-3.535-1.251-3.936-1.529-3.936-2.727 0-.973.349-1.46 1.359-1.841 1.515-.574 3.78-.07 4.964 1.111l.436.434.975-1.042a90.538 90.538 0 001.655-1.789l.662-.764-.593-.504c-.766-.642-2.49-1.441-3.884-1.806-1.324-.347-3.832-.33-5.26 0zM69.084 18.532c-.052.07-.105 1.094-.105 2.293v2.153h6.027l.052 8.442.035 8.423 5.226.105v-16.97h6.026v-4.567h-8.57c-4.702 0-8.622.07-8.691.121zM88.436 18.689c-.07.139-.07 3.526-.035 7.52.087 7.782.122 8.094 1.115 10.005.575 1.163 2.177 2.64 3.518 3.265 4.18 1.98 9.79.834 12.228-2.466 1.516-2.05 1.568-2.362 1.568-11.046V18.41h-5.12v6.809c0 3.977-.088 7.12-.193 7.607-.243 1.025-.766 1.824-1.602 2.38-.557.382-.854.451-2.23.451-1.41 0-1.654-.052-2.316-.486-.47-.313-.906-.816-1.185-1.372-.418-.869-.435-.955-.522-8.094l-.087-7.19-2.526-.053c-2.107-.052-2.525 0-2.612.226zM111.17 18.514c-.07.087-.122 4.933-.122 10.786v10.63h5.104l.052-4.238.052-4.238 1.637-.104 4.703 8.58h3.014c1.654 0 2.978-.052 2.926-.121-.035-.087-1.237-2.05-2.665-4.377-1.411-2.328-2.63-4.343-2.665-4.464-.07-.156.226-.365.766-.59 1.132-.47 2.334-1.599 2.944-2.745.418-.799.488-1.146.488-2.657 0-2.084-.436-3.23-1.638-4.36-1.916-1.737-3.135-2.015-9.423-2.136-2.77-.052-5.086-.035-5.173.035zm9.284 4.29c1.62.417 2.386 2.032 1.585 3.335-.627.99-1.446 1.285-3.815 1.372l-2.055.07v-4.968h1.742c.958 0 2.107.087 2.543.191zM131.28 18.514c-.07.087-.122 4.933-.122 10.786v10.63h5.121v-8.563h.784c.453 0 .888.104.993.226s1.15 1.997 2.334 4.151 2.194 3.977 2.264 4.064c.07.07 1.463.122 3.083.087l2.944-.052-2.735-4.464c-1.498-2.449-2.717-4.498-2.717-4.55s.383-.26.854-.452c1.184-.486 2.473-1.737 2.995-2.9.61-1.338.61-3.804 0-5.176-.47-1.042-1.585-2.189-2.7-2.762-1.637-.834-2.647-.955-7.925-1.06-2.77-.051-5.086-.034-5.173.035zm9.284 4.29c.453.122 1.01.434 1.306.747.436.452.523.695.523 1.459 0 .816-.07.973-.662 1.528-.854.782-1.672.99-3.762.99h-1.69v-4.915h1.742c.958 0 2.107.087 2.543.191zM151.4 18.533c-.07.07-.122 4.915-.122 10.769v10.63h5.295v-21.52h-2.525c-1.394 0-2.596.07-2.648.122zM.613 33.886c.331.573 1.742 3.04 3.153 5.471l2.56 4.412h9.51l9.511.017 4.668 8.111 4.668 8.094h6.253c3.45 0 6.271-.035 6.271-.104s-3.519-6.183-7.82-13.582l-7.821-13.478H.004l.61 1.06z"/></g></g></g></g></svg>