<svg viewBox="0 0 112 70"><g fill="#2A3744"><path d="M91.403 13.274a6.098 6.098 0 011.941-4.268 6.108 6.108 0 014.395-1.643c3.376.12 6.028 2.97 5.912 6.343a6.106 6.106 0 01-1.941 4.264 6.066 6.066 0 01-4.399 1.646c-3.372-.124-6.021-2.967-5.908-6.342zm16.374 6.031c.279-.184.483-.336.57-.37l.092-.145c-.235-1.48-2.441-8.657-4.11-10.382-.46-.47-.828-.934-1.573-1.37-6.037-3.517-20.358-5.64-21.029-5.737l-.114.031-.043.104s-.055 2.967-.064 3.3C80.044 4.243 69.411.808 59.444.463c-8.452-.298-20.762-1.39-37.073 8.64l-.483.3C14.214 14.19 8.916 20.093 6.146 26.95c-.869 2.159-2.037 7.028-.88 11.61.5 2.003 1.43 4.016 2.683 5.817 2.834 4.07 7.59 6.772 12.71 7.228 7.23.647 12.704-2.6 14.65-8.68 1.34-4.196 0-10.351-5.131-13.491-4.175-2.557-8.663-1.975-11.267-.253-2.26 1.498-3.539 3.825-3.516 6.381.052 4.535 3.958 6.944 6.766 6.952.816 0 1.636-.142 2.56-.443.328-.1.637-.224.978-.435l.107-.063.067-.045-.022.014a2.31 2.31 0 001.025-1.906 2.304 2.304 0 00-2.73-2.258l-.159.037-.215.066-.311.107a5.929 5.929 0 01-1.235.176c-.329-.021-1.945-.505-1.945-2.276v-.024c0-.65.26-1.106.405-1.355.502-.789 1.88-1.563 3.74-1.401 2.441.211 4.201 1.463 5.367 3.825 1.082 2.196.8 4.897-.73 6.875-1.518 1.961-4.22 2.794-7.815 2.407-3.625-.4-6.689-2.486-8.406-5.734-1.679-3.174-1.77-6.937-.237-9.828 3.67-6.927 10.6-6.855 14.4-6.198 5.624.976 12.021 6.163 14.29 12.153.367.955.554 1.711.717 2.404l.245 1.034 6.353 3.102.083.062.154-.014.028-.183c-.039-.142-.131-.273-.278-2.05-.12-1.578-.367-5.898 1.808-8.038.844-.837 2.13-1.583 3.147-1.822 4.164-1.018 9.047-.316 13.664 5.028 2.39 2.76 3.555 4.019 4.14 4.582l.203.184.24.18c.192.104 7.94 3.673 7.94 3.673l.159-.038.003-.166c-.052-.059-4.91-6.339-4.046-11.51.681-4.118 3.96-3.745 8.493-3.233 1.48.172 3.165.366 4.91.405 4.87.03 10.117-.869 13.351-2.283 2.092-.91 3.427-1.515 4.264-2.275.3-.25.456-.654.62-1.09l.113-.287c.135-.353.334-1.097.422-1.505.035-.18.056-.37-.073-.47l-.447.083c-1.42.855-4.97 2.473-8.289 2.542-4.12.084-12.415-4.143-13.28-4.593l-.083-.096a728.109 728.109 0 00-1.715-4.063c5.973 3.935 10.927 6.11 14.719 6.446 4.222.376 7.512-1.928 8.918-2.913zm-9.39-5.464c-1.049 0-1.895-.567-1.895-1.262 0-.702.846-1.266 1.895-1.266 1.048 0 1.897.564 1.897 1.266 0 .695-.85 1.262-1.897 1.262zm-.7-4.673a4.217 4.217 0 00-3.06 1.142 4.235 4.235 0 00-1.354 2.973 4.29 4.29 0 004.121 4.43 4.282 4.282 0 003.07-1.147 4.238 4.238 0 001.35-2.974 4.283 4.283 0 00-4.126-4.424z"/><path d="M46.89 48.7c-2.692 0-4.173 2.276-4.173 3.85v2.02a3.708 3.708 0 003.649 3.752h6.163c.776 0 .939.509.939.938v1.303c0 .139-.028 1.39-.94 1.39h-8.405c-.835 0-1.439.582-1.439 1.377v.36c0 .792.604 1.37 1.44 1.37h8.861c2.317 0 3.811-1.612 3.811-4.108v-2.18c0-2.344-1.684-3.392-3.356-3.392h-6.064c-.913 0-1.327-.685-1.327-1.17v-1.203c0-.757.507-1.197 1.392-1.197h6.712c.824 0 1.443-.591 1.443-1.373v-.36c0-.784-.63-1.376-1.47-1.376H46.89zm25.2 0a1.44 1.44 0 00-1.438 1.443v10.32c0 .826-.674 1.49-1.49 1.49h-4.685a1.49 1.49 0 01-1.49-1.49v-10.32c0-.796-.647-1.442-1.442-1.442h-.453a1.43 1.43 0 00-1.443 1.442v10.71c0 2.494 1.962 4.303 4.665 4.303h5.01c2.7 0 4.66-1.809 4.66-4.303v-10.71c0-.805-.632-1.442-1.438-1.442h-.457zm8.968 0c-2.69 0-4.176 2.276-4.176 3.85v2.02a3.71 3.71 0 003.654 3.752h6.16c.778 0 .942.509.942.938v1.303c0 .139-.029 1.39-.941 1.39h-8.41c-.83 0-1.438.582-1.438 1.377v.36c0 .792.607 1.37 1.439 1.37h8.865c2.317 0 3.818-1.612 3.818-4.108v-2.18c0-2.344-1.689-3.392-3.362-3.392h-6.063c-.915 0-1.328-.685-1.328-1.17v-1.203c0-.757.506-1.197 1.392-1.197h6.716c.821 0 1.438-.591 1.438-1.373v-.36c0-.784-.629-1.376-1.473-1.376h-7.233zm14.168 0c-.8 0-1.403.593-1.403 1.377V63.69c0 .781.59 1.37 1.371 1.37h10.848c.835 0 1.438-.578 1.438-1.37v-.36c0-.796-.603-1.377-1.438-1.377h-8.884v-3.466h6.51c.833 0 1.438-.584 1.438-1.376v-.36c0-.796-.605-1.373-1.439-1.373h-6.51v-3.57h8.433c.832 0 1.439-.573 1.439-1.373v-.36c0-.795-.607-1.376-1.439-1.376H95.226v.002zM2.3 62.465V57.78c0-.55.452-.999 1.004-.999H5.89c.54 0 1 .46 1 1v4.685c0 .554-.448 1.003-1 1.003H3.285a.981.981 0 01-.984-1.003zm.72-7.29c-1.36 0-2.467 1.058-2.467 2.362v5.132c0 1.325 1.071 2.404 2.384 2.404h3.32c1.312 0 2.383-1.079 2.383-2.404v-5.132c0-1.303-1.107-2.362-2.466-2.362H3.019zm9.814 7.19v-4.482c0-.62.484-1.103 1.103-1.103h2.424c.62 0 1.103.484 1.103 1.103v4.482c0 .609-.496 1.103-1.103 1.103h-2.424a1.104 1.104 0 01-1.103-1.103zm3.32-7.25c-.956 0-1.678.343-2.257.623-.353.17-.66.315-.896.315a.282.282 0 01-.248-.128l-.22-.422c-.056-.11-.277-.328-.55-.328h-.329c-.315 0-.568.283-.568.629v13.018c0 .408.322.73.73.73h.284a.73.73 0 00.733-.73v-4.32c0-.128.084-.266.168-.266.237 0 .543.14.896.301.58.266 1.3.595 2.258.595h.306c1.695 0 2.75-.97 2.75-2.525v-4.97c0-1.531-1.078-2.52-2.75-2.52h-.306v-.001zm7.25 2.647c0-.55.433-.982.983-.982h2.667a.97.97 0 01.978.982v1.59h-4.629l.001-1.59zm.718-2.587c-1.36 0-2.463 1.058-2.463 2.362v5.094c0 1.321 1.072 2.441 2.338 2.441h3.425c.424 0 .73-.293.73-.692v-.224c0-.401-.306-.688-.73-.688h-2.814c-.788 0-1.205-.388-1.205-1.125v-1.49h5.077c.816 0 1.3-.498 1.3-1.342v-1.975c0-1.304-1.106-2.362-2.46-2.362h-3.198v.001zm12.709-.059c-.954 0-1.674.342-2.255.62-.362.169-.67.317-.922.317-.112 0-.156-.014-.243-.163l-.2-.366a.6.6 0 00-.576-.349h-.282c-.34 0-.59.266-.59.63v8.538c0 .404.32.73.732.73h.282a.734.734 0 00.734-.73v-6.46c0-.605.495-1.103 1.1-1.103h2.426c.607 0 1.101.498 1.101 1.103v6.46c0 .404.322.73.73.73h.285a.733.733 0 00.733-.73v-6.706c0-1.532-1.077-2.521-2.75-2.521h-.305zm72.809 7.949h.174c.198 0 .366-.071.366-.258 0-.132-.096-.265-.366-.265-.078 0-.132.007-.174.013v.51zm0 .836h-.24v-1.508c.126-.018.246-.036.426-.036.229 0 .378.048.468.114.09.066.14.167.14.312 0 .198-.133.318-.295.367v.013c.132.023.222.143.252.366.037.235.072.324.096.372h-.252c-.037-.048-.072-.186-.102-.384-.036-.192-.133-.265-.325-.265h-.168v.649zm.252-1.929c-.594 0-1.08.511-1.08 1.142 0 .643.486 1.147 1.086 1.147.6.007 1.081-.504 1.081-1.141s-.48-1.148-1.08-1.148h-.007zm.006-.21c.739 0 1.327.6 1.327 1.352 0 .763-.589 1.357-1.333 1.357a1.34 1.34 0 01-1.34-1.357c0-.75.601-1.351 1.34-1.351h.006z"/></g></svg>