<svg width="178.41" height="61.199" version="1.1" viewBox="-1.8 -1.8 34.48 11.824" xmlns="http://www.w3.org/2000/svg"><path d="m31.714 1.9103c0-1.5068-1.2389-2.7458-2.7625-2.7458s-2.7458 1.2389-2.7458 2.7458v2.143c0 0.33485 0.26788 0.61947 0.61947 0.61947h2.1263c1.5236 0 2.7625-1.2389 2.7625-2.7625" fill="#383838" stroke-width=".16742"/><path d="m29.771-0.18245c-0.71992 0-1.3059 0.58598-1.3059 1.2892v0.68644h-0.68644c-0.70318 0-1.2892 0.56924-1.2892 1.2892 0 0.71992 0.58598 1.2892 1.2892 1.2892 0.71992 0 1.3059-0.56924 1.3059-1.2892v-0.68644h0.68644c0.70318 0 1.2892-0.56924 1.2892-1.2892 0-0.70318-0.58598-1.2892-1.2892-1.2892zm0 0.60273c0.36833 0 0.6697 0.31811 0.6697 0.68644 0 0.38507-0.30136 0.68644-0.6697 0.68644h-0.58599c-0.06697 0-0.10045-0.050228-0.10045-0.10045v-0.58598c0-0.36833 0.30136-0.68644 0.68644-0.68644zm-17.747 1.7412c-0.26788 0-0.48553 0.20091-0.48553 0.48553v2.5783c-0.25114-0.45204-0.78689-0.77015-1.4398-0.77015-1.3059 0-2.1765 0.9878-2.1765 2.2937 0 1.3226 0.90409 2.3104 2.1765 2.3104 0.56924 0 1.0715-0.23439 1.3561-0.65295l0.1172 0.28462c0.06697 0.18417 0.25113 0.31811 0.46879 0.31811 0.26788 0 0.48553-0.21765 0.48553-0.48553v-5.8766c0-0.28462-0.21765-0.48553-0.50227-0.48553zm-10.012 0c-1.0213 0-1.8417 0.83712-1.8417 1.8417v0.58598h-0.60273c-0.21765 0-0.40182 0.18417-0.40182 0.40182s0.18417 0.4353 0.40182 0.4353h0.60273v3.0973c0 0.26788 0.21765 0.48553 0.48553 0.48553 0.28462 0 0.50227-0.21765 0.50227-0.48553v-3.0973h0.65295c0.23439 0 0.41856-0.21765 0.41856-0.4353s-0.18417-0.40182-0.41856-0.40182h-0.65295v-0.58598c0-0.46879 0.38507-0.92083 0.85386-0.92083 0.050227 0 0.083713 0 0.13394 0.016746 0.26788 0.033483 0.51901-0.083713 0.5525-0.35159 0.050227-0.26788-0.15068-0.51902-0.41856-0.5525-0.083712-0.016742-0.18417-0.033485-0.26788-0.033485zm25.767 0.23439h0.58598c0.06697 0 0.10045 0.050228 0.10045 0.10045v0.58598c0 0.38508-0.30136 0.68644-0.68644 0.68644-0.36833 0-0.68644-0.30136-0.68644-0.68644 0-0.36833 0.31811-0.68644 0.68644-0.68644zm3.1643 1.624v0.033484h0.05023v0.15068h0.03348v-0.15068h0.05023v-0.033483zm0.15068 0v0.18417h0.03348v-0.1172 0.016746l0.05023 0.10045 0.05023-0.10045v-0.033482 0.13394h0.03348v-0.18417h-0.03348l-0.03348 0.083712-0.01675 0.033483v-0.033483l-0.05022-0.083712zm-26.185 0.4353c-1.2892 0-2.277 1.0213-2.277 2.2937 0 1.2892 1.0213 2.3104 2.2937 2.3104 0.70318 0 1.4231-0.30136 1.8417-0.75341 0.083712-0.10045 0.13394-0.21765 0.15068-0.31811 0-0.08371-0.033484-0.16742-0.083711-0.23439-0.083712-0.10045-0.20091-0.16742-0.33485-0.16742-0.083712 0-0.16742 0.01675-0.23439 0.08371-0.35159 0.35159-0.78689 0.56924-1.3059 0.56924-0.71992 0-1.2557-0.51901-1.3059-1.1887h3.0973c0.18417 0 0.36833-0.1172 0.36833-0.31811 0-1.2892-0.95432-2.277-2.21-2.277zm10.715 0c-1.2892 0-2.3104 1.0213-2.3104 2.2937 0 1.2892 1.0213 2.3104 2.3104 2.3104 1.2724 0 2.2937-1.0213 2.2937-2.3104 0-1.2724-1.0213-2.2937-2.2937-2.2937zm5.6087 0c-0.6697 0-1.1217 0.20091-1.5068 0.70318l-0.05023-0.23439c-0.03348-0.25114-0.23439-0.4353-0.48553-0.4353-0.26788 0-0.48553 0.21765-0.48553 0.50227v3.5326c0 0.26788 0.21765 0.48553 0.48553 0.48553s0.50227-0.21765 0.50227-0.48553v-1.8919c0-0.8706 0.73667-1.3059 1.5403-1.3059 0.2344 0 0.4353-0.20091 0.4353-0.4353 0-0.25114-0.20091-0.4353-0.4353-0.4353zm2.8964 0c-1.2892 0-2.3104 1.0213-2.3104 2.2937 0 1.2892 1.0045 2.3104 2.21 2.3104 0.61947 0 1.1552-0.31811 1.3896-0.63621l0.13394 0.30136c0.05023 0.16742 0.21765 0.28462 0.41856 0.28462 0.25113 0 0.45204-0.20091 0.45204-0.45205v-1.8082c0-1.2222-0.8706-2.2937-2.2937-2.2937zm-19.22 0.82038c0.65295 0 1.1385 0.46879 1.2222 1.0883h-2.4611c0.10045-0.63621 0.5525-1.0883 1.2389-1.0883zm5.3241 0.050228c0.80364 0 1.3059 0.61947 1.3059 1.4231 0 0.82038-0.50227 1.4231-1.3059 1.4231s-1.3226-0.63621-1.3226-1.4231c0-0.77015 0.51901-1.4231 1.3226-1.4231zm5.391 0c0.78689 0 1.3226 0.65295 1.3226 1.4231 0 0.78689-0.53576 1.4231-1.3226 1.4231-0.80363 0-1.3394-0.63621-1.3394-1.4231 0-0.77015 0.53576-1.4231 1.3394-1.4231zm8.5051 0c0.80363 0 1.3226 0.65295 1.3226 1.4231 0 0.78689-0.51901 1.4231-1.3226 1.4231-0.80364 0-1.3226-0.63621-1.3226-1.4231 0-0.77015 0.51901-1.4231 1.3226-1.4231zm2.4276 3.0639v0.03349h0.05023v0.15068h0.03349v-0.15068h0.05023v-0.03349zm0.15068 0v0.18417h0.03348v-0.1172l0.01675 0.016754 0.03348 0.10045 0.05023-0.10045v-0.016754 0.11721h0.03348v-0.18417h-0.03348l-0.03348 0.083716-0.01675 0.033481v-0.033481l-0.05023-0.083716z" fill="#737373" stroke-width=".16742"/><path d="m28.465 1.7932v-0.68644c0-0.70318 0.58598-1.2892 1.2892-1.2892 0.1172 0 0.18417 0.016743 0.28462 0.033485 0.15068 0.050228 0.26788 0.16742 0.26788 0.30136 0 0.16742-0.1172 0.28462-0.30136 0.28462-0.08372 0-0.1172-0.016743-0.25114-0.016743-0.36833 0-0.6697 0.31811-0.6697 0.68644v0.58598c0 0.066966 0.03348 0.10045 0.08371 0.10045h0.45204c0.16742 0 0.30136 0.13394 0.30136 0.30136s-0.13394 0.30136-0.30136 0.30136h-0.53576v0.68644c0 0.71992-0.58598 1.2892-1.3059 1.2892-0.10045 0-0.18417 0-0.28462-0.033484-0.13394-0.033483-0.25114-0.15068-0.25114-0.30136 0-0.16742 0.1172-0.28462 0.30136-0.28462 0.08371 0 0.1172 0.016746 0.23439 0.016746 0.38508 0 0.68644-0.30136 0.68644-0.68644v-0.58598c0-0.050228-0.03348-0.10045-0.10045-0.10045h-0.4353c-0.16742 0-0.30136-0.13394-0.30136-0.30136s0.13394-0.30136 0.30136-0.30136h0.53576" fill="#fff" stroke-width=".16742"/></svg>