<?xml version="1.0" encoding="UTF-8" standalone="no"?>
<svg
   xmlns:dc="http://purl.org/dc/elements/1.1/"
   xmlns:cc="http://creativecommons.org/ns#"
   xmlns:rdf="http://www.w3.org/1999/02/22-rdf-syntax-ns#"
   xmlns:svg="http://www.w3.org/2000/svg"
   xmlns="http://www.w3.org/2000/svg"
   xmlns:sodipodi="http://sodipodi.sourceforge.net/DTD/sodipodi-0.dtd"
   xmlns:inkscape="http://www.inkscape.org/namespaces/inkscape"
   inkscape:version="1.0.1 (3bc2e813f5, 2020-09-07)"
   sodipodi:docname="logo-collabora.svg"
   id="svg44"
   xml:space="preserve"
   viewBox="0 0 213.27259 66.914479"
   version="1.1"
   height="66.914482"
   width="213.2726"><sodipodi:namedview
   pagecolor="#ffffff"
   bordercolor="#666666"
   borderopacity="1"
   objecttolerance="10"
   gridtolerance="10"
   guidetolerance="10"
   inkscape:pageopacity="0"
   inkscape:pageshadow="2"
   inkscape:window-width="1920"
   inkscape:window-height="1136"
   id="namedview50"
   showgrid="false"
   inkscape:zoom="7.1129625"
   inkscape:cx="75.369285"
   inkscape:cy="33.457241"
   inkscape:window-x="0"
   inkscape:window-y="27"
   inkscape:window-maximized="1"
   inkscape:current-layer="svg44"
   inkscape:document-rotation="0" /><metadata
   id="metadata50"><rdf:RDF><cc:Work
       rdf:about=""><dc:format>image/svg+xml</dc:format><dc:type
         rdf:resource="http://purl.org/dc/dcmitype/StillImage" /><dc:title></dc:title></cc:Work></rdf:RDF></metadata><defs
   id="defs48"><marker
   inkscape:stockid="TriangleOutS"
   orient="auto"
   refY="0"
   refX="0"
   id="TriangleOutS"
   style="overflow:visible"
   inkscape:isstock="true"><path
     id="path1029"
     d="M 5.77,0 -2.88,5 V -5 Z"
     style="fill:#504999;fill-opacity:1;fill-rule:evenodd;stroke:#504999;stroke-width:1pt;stroke-opacity:1"
     transform="scale(0.2)"
     inkscape:connector-curvature="0" /></marker><marker
   inkscape:stockid="TriangleOutM"
   orient="auto"
   refY="0"
   refX="0"
   id="TriangleOutM"
   style="overflow:visible"
   inkscape:isstock="true"><path
     id="path1026"
     d="M 5.77,0 -2.88,5 V -5 Z"
     style="fill:#000000;fill-opacity:1;fill-rule:evenodd;stroke:#000000;stroke-width:1pt;stroke-opacity:1"
     transform="scale(0.4)"
     inkscape:connector-curvature="0" /></marker><marker
   inkscape:isstock="true"
   style="overflow:visible"
   id="marker1067"
   refX="0"
   refY="0"
   orient="auto"
   inkscape:stockid="TriangleOutS"><path
     transform="scale(0.2)"
     style="fill:#504999;fill-opacity:1;fill-rule:evenodd;stroke:#504999;stroke-width:1pt;stroke-opacity:1"
     d="M 5.77,0 -2.88,5 V -5 Z"
     id="path1065"
     inkscape:connector-curvature="0" /></marker><marker
   inkscape:stockid="TriangleOutM"
   orient="auto"
   refY="0"
   refX="0"
   id="TriangleOutM-3"
   style="overflow:visible"
   inkscape:isstock="true"><path
     id="path1026-63"
     d="M 5.77,0 -2.88,5 V -5 Z"
     style="fill:#000000;fill-opacity:1;fill-rule:evenodd;stroke:#000000;stroke-width:1pt;stroke-opacity:1"
     transform="scale(0.4)"
     inkscape:connector-curvature="0" /></marker><marker
   inkscape:isstock="true"
   style="overflow:visible"
   id="TriangleOutS-3"
   refX="0"
   refY="0"
   orient="auto"
   inkscape:stockid="TriangleOutS"><path
     transform="scale(0.2)"
     style="fill:#504999;fill-opacity:1;fill-rule:evenodd;stroke:#504999;stroke-width:1pt;stroke-opacity:1"
     d="M 5.77,0 -2.88,5 V -5 Z"
     id="path1029-4"
     inkscape:connector-curvature="0" /></marker><marker
   inkscape:isstock="true"
   style="overflow:visible"
   id="TriangleOutM-5"
   refX="0"
   refY="0"
   orient="auto"
   inkscape:stockid="TriangleOutM"><path
     transform="scale(0.4)"
     style="fill:#000000;fill-opacity:1;fill-rule:evenodd;stroke:#000000;stroke-width:1pt;stroke-opacity:1"
     d="M 5.77,0 -2.88,5 V -5 Z"
     id="path1026-6"
     inkscape:connector-curvature="0" /></marker><marker
   inkscape:isstock="true"
   style="overflow:visible"
   id="TriangleOutS-7"
   refX="0"
   refY="0"
   orient="auto"
   inkscape:stockid="TriangleOutS"><path
     transform="scale(0.2)"
     style="fill:#504999;fill-opacity:1;fill-rule:evenodd;stroke:#504999;stroke-width:1pt;stroke-opacity:1"
     d="M 5.77,0 -2.88,5 V -5 Z"
     id="path1029-0"
     inkscape:connector-curvature="0" /></marker><marker
   inkscape:isstock="true"
   style="overflow:visible"
   id="TriangleOutM-6"
   refX="0"
   refY="0"
   orient="auto"
   inkscape:stockid="TriangleOutM"><path
     transform="scale(0.4)"
     style="fill:#000000;fill-opacity:1;fill-rule:evenodd;stroke:#000000;stroke-width:1pt;stroke-opacity:1"
     d="M 5.77,0 -2.88,5 V -5 Z"
     id="path1026-0"
     inkscape:connector-curvature="0" /></marker><marker
   inkscape:isstock="true"
   style="overflow:visible"
   id="TriangleOutS-2"
   refX="0"
   refY="0"
   orient="auto"
   inkscape:stockid="TriangleOutS"><path
     inkscape:connector-curvature="0"
     transform="scale(0.2)"
     style="fill:#504999;fill-opacity:1;fill-rule:evenodd;stroke:#504999;stroke-width:1pt;stroke-opacity:1"
     d="M 5.77,0 -2.88,5 V -5 Z"
     id="path1029-2" /></marker><marker
   inkscape:isstock="true"
   style="overflow:visible"
   id="TriangleOutM-7"
   refX="0"
   refY="0"
   orient="auto"
   inkscape:stockid="TriangleOutM"><path
     inkscape:connector-curvature="0"
     transform="scale(0.4)"
     style="fill:#000000;fill-opacity:1;fill-rule:evenodd;stroke:#000000;stroke-width:1pt;stroke-opacity:1"
     d="M 5.77,0 -2.88,5 V -5 Z"
     id="path1026-03" /></marker><marker
   inkscape:stockid="TriangleOutS"
   orient="auto"
   refY="0"
   refX="0"
   id="marker1067-6"
   style="overflow:visible"
   inkscape:isstock="true"><path
     inkscape:connector-curvature="0"
     id="path1065-3"
     d="M 5.77,0 -2.88,5 V -5 Z"
     style="fill:#504999;fill-opacity:1;fill-rule:evenodd;stroke:#504999;stroke-width:1pt;stroke-opacity:1"
     transform="scale(0.2)" /></marker><marker
   inkscape:isstock="true"
   style="overflow:visible"
   id="TriangleOutM-79"
   refX="0"
   refY="0"
   orient="auto"
   inkscape:stockid="TriangleOutM"><path
     inkscape:connector-curvature="0"
     transform="scale(0.4)"
     style="fill:#000000;fill-opacity:1;fill-rule:evenodd;stroke:#000000;stroke-width:1pt;stroke-opacity:1"
     d="M 5.77,0 -2.88,5 V -5 Z"
     id="path1026-7" /></marker> </defs> <g
   id="g1207"
   inkscape:label="guidelines" /><path
   style="font-size:28.0163px;line-height:1.25;font-family:'Segoe UI';-inkscape-font-specification:'Segoe UI';letter-spacing:0px;word-spacing:0px;fill:#ffffff;fill-opacity:1;stroke:none;stroke-width:1px;stroke-linecap:butt;stroke-linejoin:miter;stroke-opacity:1"
   d="M 9.349495,20.846885 10.156135,20.040244 23.574112,33.458217 10.156135,46.876191 9.349495,46.067597 21.96083,33.458217 Z"
   id="path864-6"
   inkscape:connector-curvature="0" /><path
   d="M 9.349521,20.846878 V 46.067581 L 21.960849,33.458206 Z"
   style="font-size:28.0163px;line-height:1.25;font-family:'Segoe UI';-inkscape-font-specification:'Segoe UI';letter-spacing:0px;word-spacing:0px;fill:#c8c8c8;fill-opacity:1;stroke:none;stroke-width:0.999999px;stroke-linecap:butt;stroke-linejoin:miter;stroke-opacity:1"
   id="path866-3"
   inkscape:connector-curvature="0" /><path
   sodipodi:nodetypes="ccccccc"
   d="M 20.779208,9.4152373 10.156161,20.040238 23.57413,33.458206 10.156161,46.876175 20.779208,57.499222 44.822177,33.458206 Z"
   style="font-size:28.0163px;line-height:1.25;font-family:'Segoe UI';-inkscape-font-specification:'Segoe UI';letter-spacing:0px;word-spacing:0px;fill:#5a5959;fill-opacity:1;stroke:none;stroke-width:6.00001;stroke-linejoin:round;paint-order:stroke fill markers"
   id="path868-5"
   inkscape:connector-curvature="0" /><path
   sodipodi:nodetypes="cccc"
   d="m 20.285068,36.747269 -8.873675,8.865852 13.090471,-2.88929 z"
   style="font-size:28.0163px;line-height:1.25;font-family:'Segoe UI';-inkscape-font-specification:'Segoe UI';letter-spacing:0px;word-spacing:0px;fill:#6a6a6a;fill-opacity:1;stroke:none;stroke-width:1.68107"
   id="path870-0"
   inkscape:connector-curvature="0" /><path
   d="m 66.219202,41.703637 q 1.934731,0 3.330276,-0.634338 1.395543,-0.666056 2.917955,-2.093316 l 2.410485,2.473918 q -3.520577,3.901181 -8.563565,3.901181 -5.011271,0 -8.341547,-3.235125 -3.298558,-3.235125 -3.298558,-8.182962 0,-4.947838 3.361992,-8.246396 3.393709,-3.298558 8.531848,-3.298558 5.169856,0 8.626999,3.806028 l -2.378768,2.600787 q -1.585845,-1.522412 -3.013106,-2.125033 -1.395544,-0.602621 -3.298559,-0.602621 -3.361992,0 -5.645609,2.188466 -2.283618,2.15675 -2.283618,5.55046 0,3.361992 2.251901,5.645609 2.283617,2.2519 5.391874,2.2519 z"
   style="font-style:normal;font-variant:normal;font-weight:normal;font-stretch:normal;font-size:28.0163px;line-height:1.25;font-family:Montserrat;-inkscape-font-specification:Montserrat;letter-spacing:0px;word-spacing:0px;fill:#5a5959;fill-opacity:1;stroke-width:0.999999"
   id="path946"
   inkscape:connector-curvature="0" /><path
   d="m 82.394726,40.656979 q 1.52241,1.522411 3.837745,1.522411 2.315334,0 3.806029,-1.522411 1.522411,-1.554128 1.522411,-3.996331 0,-2.442201 -1.522411,-3.964613 -1.490695,-1.554129 -3.806029,-1.554129 -2.315335,0 -3.837745,1.554129 -1.490696,1.522412 -1.490696,3.964613 0,2.442203 1.490696,3.996331 z m 10.181126,2.188467 q -2.537352,2.505636 -6.343381,2.505636 -3.806029,0 -6.343381,-2.505636 -2.537353,-2.537353 -2.537353,-6.184798 0,-3.647444 2.537353,-6.153079 2.537352,-2.537353 6.343381,-2.537353 3.806029,0 6.343381,2.537353 2.537352,2.505635 2.537352,6.153079 0,3.647445 -2.537352,6.184798 z"
   style="font-style:normal;font-variant:normal;font-weight:normal;font-stretch:normal;font-size:28.0163px;line-height:1.25;font-family:Montserrat;-inkscape-font-specification:Montserrat;letter-spacing:0px;word-spacing:0px;fill:#5a5959;fill-opacity:1;stroke-width:0.999999"
   id="path948"
   inkscape:connector-curvature="0" /><path
   d="M 102.6935,45.097346 H 99.141206 V 21.563401 h 3.552294 z"
   style="font-style:normal;font-variant:normal;font-weight:normal;font-stretch:normal;font-size:28.0163px;line-height:1.25;font-family:Montserrat;-inkscape-font-specification:Montserrat;letter-spacing:0px;word-spacing:0px;fill:#5a5959;fill-opacity:1;stroke-width:0.999999"
   id="path950"
   inkscape:connector-curvature="0" /><path
   d="m 111.38388,45.097346 h -3.55229 V 21.563401 h 3.55229 z"
   style="font-style:normal;font-variant:normal;font-weight:normal;font-stretch:normal;font-size:28.0163px;line-height:1.25;font-family:Montserrat;-inkscape-font-specification:Montserrat;letter-spacing:0px;word-spacing:0px;fill:#5a5959;fill-opacity:1;stroke-width:0.999999"
   id="path952"
   inkscape:connector-curvature="0" /><path
   d="m 130.19194,45.097346 h -3.23512 v -2.2519 q -2.09332,2.505636 -5.61389,2.505636 -2.6325,0 -4.37694,-1.490696 -1.71271,-1.490694 -1.71271,-3.964613 0,-2.505636 1.83959,-3.742595 1.83957,-1.236959 4.97955,-1.236959 h 4.59895 v -0.634338 q 0,-3.361992 -3.74259,-3.361992 -2.34705,0 -4.88441,1.712713 l -1.58585,-2.220184 q 3.07655,-2.442202 6.97773,-2.442202 2.98139,0 4.85268,1.522412 1.90301,1.490694 1.90301,4.725819 z m -3.55229,-6.279948 v -1.427261 h -3.99633 q -3.83775,0 -3.83775,2.410485 0,1.23696 0.95151,1.903015 0.95151,0.634339 2.6325,0.634339 1.71272,0 2.98139,-0.951508 1.26868,-0.951507 1.26868,-2.56907 z"
   style="font-style:normal;font-variant:normal;font-weight:normal;font-stretch:normal;font-size:28.0163px;line-height:1.25;font-family:Montserrat;-inkscape-font-specification:Montserrat;letter-spacing:0px;word-spacing:0px;fill:#5a5959;fill-opacity:1;stroke-width:0.999999"
   id="path954"
   inkscape:connector-curvature="0" /><path
   d="m 144.1791,27.970216 q 3.3937,0 5.80419,2.347052 2.41048,2.34705 2.41048,6.24823 0,3.90118 -2.41048,6.343381 -2.37876,2.442203 -5.58218,2.442203 -3.17168,0 -5.70904,-2.791089 v 2.537353 h -3.55229 V 21.563401 h 3.55229 v 9.610223 q 2.09332,-3.203408 5.48703,-3.203408 z m -5.55047,8.72215 q 0,2.410485 1.45898,3.964613 1.45898,1.522411 3.55229,1.522411 2.09333,0 3.64745,-1.522411 1.55413,-1.522411 1.55413,-3.932896 0,-2.442202 -1.52241,-4.028048 -1.52241,-1.617562 -3.64745,-1.617562 -2.12503,0 -3.58401,1.617562 -1.45898,1.585846 -1.45898,3.996331 z"
   style="font-style:normal;font-variant:normal;font-weight:normal;font-stretch:normal;font-size:28.0163px;line-height:1.25;font-family:Montserrat;-inkscape-font-specification:Montserrat;letter-spacing:0px;word-spacing:0px;fill:#5a5959;fill-opacity:1;stroke-width:0.999999"
   id="path956"
   inkscape:connector-curvature="0" /><path
   d="m 160.38641,40.656979 q 1.52241,1.522411 3.83774,1.522411 2.31534,0 3.80604,-1.522411 1.52241,-1.554128 1.52241,-3.996331 0,-2.442201 -1.52241,-3.964613 -1.4907,-1.554129 -3.80604,-1.554129 -2.31533,0 -3.83774,1.554129 -1.4907,1.522412 -1.4907,3.964613 0,2.442203 1.4907,3.996331 z m 10.18113,2.188467 q -2.53735,2.505636 -6.34339,2.505636 -3.80603,0 -6.34338,-2.505636 -2.53735,-2.537353 -2.53735,-6.184798 0,-3.647444 2.53735,-6.153079 2.53735,-2.537353 6.34338,-2.537353 3.80604,0 6.34339,2.537353 2.53735,2.505635 2.53735,6.153079 0,3.647445 -2.53735,6.184798 z"
   style="font-style:normal;font-variant:normal;font-weight:normal;font-stretch:normal;font-size:28.0163px;line-height:1.25;font-family:Montserrat;-inkscape-font-specification:Montserrat;letter-spacing:0px;word-spacing:0px;fill:#5a5959;fill-opacity:1;stroke-width:0.999999"
   id="path958"
   inkscape:connector-curvature="0" /><path
   d="m 185.9819,31.554227 q -2.6325,0 -3.96461,1.712713 -1.33211,1.712712 -1.33211,4.598951 v 7.231455 h -3.5523 V 28.223951 h 3.5523 v 3.393709 q 0.85635,-1.585845 2.31533,-2.600786 1.4907,-1.014941 3.13998,-1.046658 l 0.0317,3.584011 q -0.0951,0 -0.19031,0 z"
   style="font-style:normal;font-variant:normal;font-weight:normal;font-stretch:normal;font-size:28.0163px;line-height:1.25;font-family:Montserrat;-inkscape-font-specification:Montserrat;letter-spacing:0px;word-spacing:0px;fill:#5a5959;fill-opacity:1;stroke-width:0.999999"
   id="path960"
   inkscape:connector-curvature="0" /><path
   d="m 203.23585,45.097346 h -3.23513 v -2.2519 q -2.09331,2.505636 -5.61388,2.505636 -2.6325,0 -4.37694,-1.490696 -1.71272,-1.490694 -1.71272,-3.964613 0,-2.505636 1.83959,-3.742595 1.83958,-1.236959 4.97955,-1.236959 h 4.59896 v -0.634338 q 0,-3.361992 -3.7426,-3.361992 -2.34705,0 -4.88441,1.712713 l -1.58584,-2.220184 q 3.07654,-2.442202 6.97772,-2.442202 2.98139,0 4.85269,1.522412 1.90301,1.490694 1.90301,4.725819 z m -3.55229,-6.279948 v -1.427261 h -3.99634 q -3.83774,0 -3.83774,2.410485 0,1.23696 0.95151,1.903015 0.95151,0.634339 2.6325,0.634339 1.71271,0 2.98139,-0.951508 1.26868,-0.951507 1.26868,-2.56907 z"
   style="font-style:normal;font-variant:normal;font-weight:normal;font-stretch:normal;font-size:28.0163px;line-height:1.25;font-family:Montserrat;-inkscape-font-specification:Montserrat;letter-spacing:0px;word-spacing:0px;fill:#5a5959;fill-opacity:1;stroke-width:0.999999"
   id="path962"
   inkscape:connector-curvature="0" /><path
   d="m 207.89823,28.22395 3.61574,5.550463 3.74259,-5.550463 h 4.21835 l -5.89935,8.246399 6.15308,8.627 h -4.37694 l -4.02804,-5.613893 -3.9329,5.613893 h -4.15491 l 5.99449,-8.595281 -5.67733,-8.278118 z"
   style="font-style:normal;font-variant:normal;font-weight:normal;font-stretch:normal;font-size:25.0182px;line-height:1.25;font-family:Montserrat;-inkscape-font-specification:Montserrat;letter-spacing:0px;word-spacing:0px;display:none;fill:#ffffff;fill-opacity:1;stroke-width:0.999999"
   id="guides-right-x"
   inkscape:connector-curvature="0"
   inkscape:label="guides-right-x" /><path
   inkscape:connector-curvature="0"
   id="guides-bottom-x"
   style="font-style:normal;font-variant:normal;font-weight:normal;font-stretch:normal;font-size:25.0182px;line-height:1.25;font-family:Montserrat;-inkscape-font-specification:Montserrat;letter-spacing:0px;word-spacing:0px;display:none;fill:#ffffff;fill-opacity:1;stroke-width:0.999999"
   d="m 14.01188,57.499242 3.615734,5.550463 3.742596,-5.550463 h 4.218345 l -5.89935,8.246399 6.153085,8.627 h -4.376939 l -4.028041,-5.613893 -3.9329,5.613893 H 9.3494954 L 15.343986,65.77736 9.6666615,57.499242 Z"
   inkscape:label="guides-bottom-x" /><path
   d="m 14.01188,-7.4581628 3.615734,5.5504631 3.742596,-5.5504631 h 4.218345 L 19.689205,0.78823575 25.84229,9.4152362 H 21.465351 L 17.43731,3.801343 13.50441,9.4152362 H 9.3494954 L 15.343986,0.81995463 9.6666615,-7.4581628 Z"
   style="font-style:normal;font-variant:normal;font-weight:normal;font-stretch:normal;font-size:25.0182px;line-height:1.25;font-family:Montserrat;-inkscape-font-specification:Montserrat;letter-spacing:0px;word-spacing:0px;display:none;fill:#ffffff;fill-opacity:1;stroke-width:0.999999"
   id="guides-top-x"
   inkscape:connector-curvature="0"
   inkscape:label="guides-top-x" /><path
   d="M -2.4809151,28.22395 1.134819,33.774413 4.877415,28.22395 h 4.2183453 l -5.8993504,8.246399 6.1530855,8.627 H 4.9725558 L 0.94451486,39.483456 -2.9883853,45.097349 h -4.1549142 l 5.994491,-8.595281 -5.6773249,-8.278118 z"
   style="font-style:normal;font-variant:normal;font-weight:normal;font-stretch:normal;font-size:25.0182px;line-height:1.25;font-family:Montserrat;-inkscape-font-specification:Montserrat;letter-spacing:0px;word-spacing:0px;display:none;fill:#ffffff;fill-opacity:1;stroke-width:0.999999"
   id="guides-left-x"
   inkscape:connector-curvature="0"
   inkscape:label="guides-left-x" /></svg>
