<svg viewBox="0 0 98 80"><g fill="#2A3744" fill-rule="evenodd"><path fill-opacity=".7" d="M31.046 16.183l.792-.794s18.03 13.51 17.706 27.394c-.351 15.065-9.243 23.892-17.706 29.983l-.47-.618s13.78-11.71 12.388-30.366c0 0 .101-13.947-12.71-25.599m19.466-7.521l.907-.952s20.655 16.198 20.284 32.843C71.3 58.616 61.113 69.2 51.419 76.503l-.538-.741s15.784-14.04 14.192-36.408c0 0 .115-16.722-14.561-30.692"/><path fill-opacity=".7" d="M71.707 1.102L72.811 0s25.14 18.735 24.69 37.986c-.491 20.89-12.89 33.131-24.69 41.577l-.654-.857S91.37 62.466 89.43 36.6c0 0 .14-19.34-17.723-35.497"/><path d="M.528 31.543l1.319-2.869h29.199l2.154-.618-1.89 3.222-5.805.265-3.914 21.715s-.352 2.295.44 2.78c.792.486 3.21-.618 5.277-3.354l.968 1.545s-2.2 3.001-4.486 4.766c-2.287 1.766-4.75 2.913-6.926 2.295-2.176-.617-1.078-4.899-1.078-4.899l4.31-24.76h-9.674L5.321 60.76H0l5.101-29.13-4.573-.088"/></g></svg>