<svg width="246" height="60" xmlns="http://www.w3.org/2000/svg"><g fill="none" fill-rule="evenodd"><g transform="translate(-1329 -803)" fill="#2A3744" fill-rule="nonzero"><g transform="translate(345 730)"><g transform="translate(984 73)"><path d="M91.758 21.507c-1.602-.007-3.69.073-5.495 1.807-.721.692-.99 1.899-.99 2.932v11.05c0 .322.112.593.332.813.22.212.487.321.794.321h2.217c.307 0 .567-.109.78-.321.22-.22.33-.49.33-.813v-4.958h7.58c.308 0 .563-.104.775-.317.22-.22.332-.482.332-.789v-1.125c0-.299-.111-.554-.332-.774a1.032 1.032 0 00-.774-.331h-7.58v-2.255c-.054-1.819 1.22-1.9 1.977-1.9h7.513c.306 0 .567-.104.779-.316.22-.22.331-.487.331-.794v-1.11c0-.307-.11-.569-.331-.79a1.043 1.043 0 00-.78-.33h-7.458zm61.427 0a.702.702 0 00-.516.214.695.695 0 00-.2.517v3.623c-1.275-.401-2.416-.6-3.415-.6-1.936 0-3.48.578-4.628 1.735-1.141 1.148-1.71 2.804-1.71 4.967 0 2.156.55 3.811 1.651 4.968 1.11 1.156 2.487 1.734 4.131 1.734 1.645 0 3.093-.44 4.336-1.32v.365c0 .205.066.38.2.521.134.134.304.2.516.2h2.27a.695.695 0 00.517-.2.712.712 0 00.214-.521V22.238a.677.677 0 00-.214-.516.677.677 0 00-.516-.215h-2.636zm46.3 0c-.307 0-.574.11-.794.331-.22.22-.331.482-.331.79V37.32c0 .307.11.569.33.79.221.212.488.32.795.32h10.148c1.755 0 3.234-.443 4.438-1.324 1.212-.89 1.822-2.184 1.822-3.891 0-1.707-.76-2.97-2.27-3.78 1.062-.865 1.593-1.872 1.593-3.029 0-1.164-.309-2.12-.93-2.868-1.118-1.353-2.855-2.031-5.208-2.031h-9.593zm3.327 3.2h6.314c.496 0 .895.149 1.194.448.299.299.448.716.448 1.251 0 .527-.15.938-.448 1.237-.3.291-.698.439-1.194.439h-6.314v-3.375zm-92.23.555c-1.205 0-2.18.14-2.928.424-.74.275-1.512.703-2.315 1.285v-.745a.695.695 0 00-.2-.516.688.688 0 00-.52-.214h-2.646a.702.702 0 00-.516.214.695.695 0 00-.2.516V37.71c0 .213.066.388.2.521.133.134.304.2.516.2h2.645a.685.685 0 00.507-.2.687.687 0 00.214-.52v-7.54c.968-1.164 1.983-1.748 3.045-1.748l1.817.068h.38a.707.707 0 00.522-.2.673.673 0 00.209-.516v-1.797a.664.664 0 00-.21-.507.684.684 0 00-.52-.209zm8.194 0c-2.164 0-3.857.58-5.077 1.743-1.22 1.157-1.827 2.82-1.827 4.982 0 2.156.606 3.805 1.818 4.953 1.211 1.149 2.904 1.724 5.076 1.724 4.304.008 6.455-1.117 6.455-3.375a.673.673 0 00-.21-.516.688.688 0 00-.52-.214h-1.76c-.566.008-1.041.249-1.427.72-.386.473-1.102.707-2.148.707-1.047 0-1.81-.222-2.29-.663-.472-.44-.75-1.14-.828-2.108h8.89a.695.695 0 00.517-.2.733.733 0 00.214-.536v-.672c0-2.108-.605-3.725-1.817-4.85-1.212-1.133-2.902-1.695-5.066-1.695zm15.356 0c-2.164 0-3.857.58-5.077 1.743-1.22 1.157-1.827 2.82-1.827 4.982 0 2.156.606 3.805 1.818 4.953 1.211 1.149 2.904 1.724 5.076 1.724 4.304.008 6.455-1.117 6.455-3.375a.677.677 0 00-.215-.516.677.677 0 00-.516-.214h-1.759c-.566.008-1.041.249-1.427.72-.386.473-1.102.707-2.148.707-1.047 0-1.815-.222-2.295-.663-.472-.44-.745-1.14-.823-2.108h8.886a.707.707 0 00.735-.736v-.672c0-2.108-.605-3.725-1.817-4.85-1.212-1.133-2.902-1.695-5.066-1.695zm31.299 0c-2.298 0-4.058.562-5.286 1.695-1.228 1.125-1.842 2.796-1.842 5.006 0 2.203.614 3.869 1.842 5.002 1.227 1.133 2.988 1.7 5.286 1.7 2.305 0 4.072-.567 5.3-1.7 1.228-1.133 1.842-2.8 1.842-5.002 0-2.21-.614-3.881-1.842-5.006-1.228-1.133-2.995-1.695-5.3-1.695zm16.653 0c-.772 0-1.432.149-1.983.448-.543.291-1.1.71-1.666 1.261v-.745a.695.695 0 00-.2-.516.688.688 0 00-.521-.214h-2.646a.702.702 0 00-.516.214.689.689 0 00-.2.516l.084 11.484c.002.213-.018.388.116.521.134.134.304.2.516.2h2.646a.685.685 0 00.506-.2.687.687 0 00.215-.52V29.8c.802-1.125 1.64-1.685 2.513-1.685 1.37-.008 2.056.932 2.056 2.82v6.774c0 .205.066.38.2.521.142.134.319.2.531.2h2.63a.685.685 0 00.507-.2.688.688 0 00.215-.52v-6.775c0-.338-.021-.675-.068-1.013.889-1.204 1.747-1.807 2.582-1.807 1.369-.008 2.055.932 2.055 2.82v6.774c0 .205.066.38.2.521.142.134.319.2.531.2h2.63a.707.707 0 00.522-.2.706.706 0 00.2-.52v-6.775c0-1.935-.448-3.365-1.345-4.286-.89-.928-2.106-1.388-3.649-1.388-1.534-.008-3.033.746-4.496 2.265-.945-1.51-2.332-2.265-4.166-2.265zm42.267 0c-2.298 0-4.058.562-5.286 1.695-1.228 1.125-1.842 2.796-1.842 5.006 0 2.203.614 3.869 1.842 5.002 1.227 1.133 2.988 1.7 5.286 1.7 2.305 0 4.072-.567 5.3-1.7 1.228-1.133 1.841-2.8 1.841-5.002 0-2.21-.613-3.881-1.841-5.006-1.228-1.133-2.995-1.695-5.3-1.695zm8.004.234a.507.507 0 00-.405.165c-.22.252-.203.542.05.872l3.833 5.416-4.107 5.44c-.126.141-.19.271-.19.39 0 .11.018.208.05.286.062.244.23.366.506.366h2.514c.724 0 1.336-.35 1.831-1.043l2.28-3.068 2.265 3.068c.504.693 1.118 1.043 1.842 1.043h2.514c.275 0 .443-.122.506-.366a.626.626 0 00.05-.272c0-.126-.065-.263-.19-.405l-4.108-5.44 3.834-5.415c.252-.33.27-.62.049-.872a.496.496 0 00-.4-.165h-2.562c-.763 0-1.377.345-1.841 1.037l-1.959 2.976-1.963-2.976c-.464-.692-1.078-1.037-1.842-1.037h-2.557zm-113.59 2.444c1.747 0 2.659.925 2.738 2.781h-5.49c.094-1.856 1.013-2.78 2.752-2.78zm15.356 0c1.747 0 2.659.925 2.738 2.781h-5.49c.094-1.856 1.013-2.78 2.752-2.78zm31.309 0c1.054 0 1.826.318 2.314.955.496.637.745 1.653.745 3.054s-.25 2.423-.745 3.068c-.488.645-1.26.969-2.314.969-1.047 0-1.812-.324-2.3-.97s-.735-1.667-.735-3.067c0-1.4.247-2.417.735-3.054s1.253-.955 2.3-.955zm58.92 0c1.054 0 1.826.318 2.314.955.496.637.745 1.653.745 3.054s-.25 2.423-.745 3.068c-.488.645-1.26.969-2.314.969-1.047 0-1.812-.324-2.3-.97-.488-.644-.735-1.667-.735-3.067 0-1.4.247-2.417.735-3.054s1.253-.955 2.3-.955zm-74.444.176c.692 0 1.547.158 2.562.472v6.17c-1.133.709-2.128 1.062-2.986 1.062-.85 0-1.49-.307-1.915-.92-.425-.614-.638-1.592-.638-2.937s.224-2.321.673-2.927c.448-.613 1.218-.92 2.304-.92zm52.906 3.068h6.752c.606 0 1.07.179 1.393.54.323.362.482.861.483 1.49 0 .63-.16 1.124-.483 1.486-.322.362-.787.54-1.393.54h-6.752v-4.056z"/><path d="M6.255.117C4.34.171 2.643.757 1.55 2.012c-3.42 3.921.345 7.568 1.652 12.526 1.745 6.616-.24 13.656 5.056 18.287 1.825 1.595 4.027 2.015 6.144 2.21-2.783 3.278-4.46 7.823-3.547 12.493 1.599 8.173 9.68 13.615 17.694 12.248 4.571-.78 8.249-3.58 10.25-7.403a.18.18 0 01.317 0c2.001 3.822 5.68 6.623 10.25 7.403 8.013 1.367 16.06-4.075 17.66-12.248.913-4.67-.73-9.215-3.513-12.492 2.117-.196 4.285-.616 6.11-2.211 5.296-4.632 3.311-11.671 5.056-18.287 1.307-4.958 5.067-8.605 1.647-12.526C75.23.758 73.575.17 71.658.117 67.44-.002 63.048 1.69 58.597 3.8c-4.452 2.11-9.363 5.731-12.452 9.609L57.55 20.03 39.51 30.502 37.93 50.367l-.409-20.78-2.134-1.238-1.568 19.685-.41-20.834-2.138-1.242-1.564 19.748-.42-20.898-2.123-1.232-1.574 19.797-.414-20.956-2.119-1.227-1.578 19.856-.415-21.015 10.922-6.34c-3.126-4.009-8.226-7.783-12.67-9.892S10.552.023 6.254.117z" fill-opacity=".7"/></g></g></g></g></svg>