<?xml version="1.0" encoding="UTF-8" standalone="no"?>
<svg
   xmlns:dc="http://purl.org/dc/elements/1.1/"
   xmlns:cc="http://creativecommons.org/ns#"
   xmlns:rdf="http://www.w3.org/1999/02/22-rdf-syntax-ns#"
   xmlns:svg="http://www.w3.org/2000/svg"
   xmlns="http://www.w3.org/2000/svg"
   xmlns:sodipodi="http://sodipodi.sourceforge.net/DTD/sodipodi-0.dtd"
   xmlns:inkscape="http://www.inkscape.org/namespaces/inkscape"
   width="164.77452"
   height="35.51125"
   viewBox="0 0 164.77452 35.51125"
   version="1.1"
   id="svg15"
   sodipodi:docname="logo-visa.svg"
   inkscape:version="0.92.4 (5da689c313, 2019-01-14)">
  <metadata
     id="metadata21">
    <rdf:RDF>
      <cc:Work
         rdf:about="">
        <dc:format>image/svg+xml</dc:format>
        <dc:type
           rdf:resource="http://purl.org/dc/dcmitype/StillImage" />
        <dc:title>E800211D-2689-44D0-92A1-A3DF71AD12CC</dc:title>
      </cc:Work>
    </rdf:RDF>
  </metadata>
  <defs
     id="defs19" />
  <sodipodi:namedview
     pagecolor="#ffffff"
     bordercolor="#666666"
     borderopacity="1"
     objecttolerance="10"
     gridtolerance="10"
     guidetolerance="10"
     inkscape:pageopacity="0"
     inkscape:pageshadow="2"
     inkscape:window-width="1920"
     inkscape:window-height="1027"
     id="namedview17"
     showgrid="false"
     fit-margin-top="0"
     fit-margin-left="0"
     fit-margin-right="0"
     fit-margin-bottom="0"
     inkscape:zoom="3.8924731"
     inkscape:cx="46.496437"
     inkscape:cy="18.111978"
     inkscape:window-x="-8"
     inkscape:window-y="-8"
     inkscape:window-maximized="1"
     inkscape:current-layer="svg15" />
  <!-- Generator: sketchtool 54.1 (76490) - https://sketchapp.com -->
  <title
     id="title2">E800211D-2689-44D0-92A1-A3DF71AD12CC</title>
  <desc
     id="desc4">Created with sketchtool.</desc>
  <g
     id="Weblate"
     style="fill:none;fill-rule:evenodd;stroke:none;stroke-width:1"
     transform="translate(-0.00356259,2.3992707)">
    <g
       id="Payment-Summary"
       transform="translate(-890,-917)"
       style="fill:#1a1f71;fill-rule:nonzero">
      <g
         id="Visa-logo"
         transform="translate(890,917)">
        <path
           d="m 58.638026,29.932758 c -4.812376,-0.589101 -8.365071,-2.758957 -9.860943,-6.038286 -0.55111,-1.197838 -0.718412,-2.012762 -0.718412,-3.485514 -0.0098,-1.12911 0.02952,-1.384388 0.265714,-2.042217 0.413333,-1.148747 0.866031,-1.836032 1.889522,-2.85714 1.112063,-1.119292 2.096189,-1.78694 4.458091,-3.014234 2.046982,-1.0702 2.273331,-1.207657 3.011426,-1.924396 0.915237,-0.8738335 1.043173,-1.8458502 0.39365,-2.8276853 C 56.679615,5.6716138 51.729461,5.5439752 47.330418,7.4781903 46.759625,7.723649 46.287244,7.920016 46.277403,7.9101977 46.267562,7.890561 45.952642,6.4669001 45.578674,4.7388705 45.086611,2.4413764 44.938992,1.5773616 45.027563,1.5184515 c 0.560952,-0.363279 3.729838,-1.10947362 5.570153,-1.30584063 1.495872,-0.16691195 4.467932,-0.1374569 5.737455,0.0490918 3.700314,0.54982763 6.623168,2.08149023 8.315865,4.35934763 1.751744,2.3564041 2.214283,5.9401017 1.082538,8.2965057 -0.954602,1.993126 -2.243807,3.092781 -6.052375,5.144816 -2.243807,1.207657 -3.080314,1.777122 -3.473964,2.346586 -0.93492,1.345114 0.06889,2.837503 2.243807,3.348057 0.856189,0.206186 2.883489,0.196367 4.113647,-0.0098 0.797142,-0.127639 3.070473,-0.805105 3.719996,-1.099655 0.216508,-0.108002 1.535236,5.989194 1.318729,6.126651 -0.295238,0.196366 -2.253649,0.726557 -3.611743,0.981835 -0.836507,0.157093 -4.526979,0.274913 -5.353645,0.17673 z"
           id="Path"
           transform="matrix(1,0,0,-1,0,30.071642)"
           inkscape:connector-curvature="0" />
        <path
           d="M 0.02348126,29.240475 C 0.01364,29.0932 0.00379874,28.906651 0.00379874,28.808468 -0.00604252,28.680829 0.28919528,28.563009 1.3618926,28.297913 c 3.3558697,-0.844378 6.1606288,-2.012761 6.9184058,-2.85714 0.2165077,-0.255277 0.492063,-0.716739 0.5904756,-1.01129 0.098413,-0.304369 1.535237,-5.792826 3.198409,-12.204209 L 15.080609,0.58071 h 4.015234 4.005393 l 6.032692,14.374065 c 3.326346,7.903772 6.042534,14.413339 6.042534,14.462431 0,0.03927 -1.771427,0.06873 -3.936504,0.04909 L 27.303454,29.44666 24.93171,23.467285 C 23.632664,20.178138 21.88092,15.769698 21.044413,13.67839 20.217747,11.577263 19.519017,9.908143 19.509176,9.9670531 c -0.01968,0.049092 -0.757777,3.9175219 -1.64349,8.5812379 -1.751745,9.28816 -1.732062,9.22925 -2.607934,10.034355 -0.246032,0.225822 -0.669206,0.520372 -0.93492,0.638192 -0.482222,0.216004 -0.560952,0.225822 -7.380945,0.255278 l -6.89872322,0.02945 z"
           id="path7"
           transform="matrix(1,0,0,-1,0,30.08628)"
           inkscape:connector-curvature="0" />
        <path
           d="M 38.433919,29.427024 C 38.355189,29.230657 32.283132,0.83598711 32.283132,0.69853021 c 0,-0.0785468 1.043173,-0.10800186 3.74952,-0.10800186 H 39.77233 L 42.81328,14.787863 c 1.682855,7.805589 3.070473,14.324974 3.090155,14.482067 l 0.03936,0.284732 h -3.729837 c -2.893331,0 -3.74952,-0.02945 -3.779044,-0.127638 z"
           id="path9"
           transform="matrix(1,0,0,-1,0,30.14519)"
           inkscape:connector-curvature="0" />
        <path
           d="M 79.452291,29.493871 C 78.871656,29.326959 78.015467,28.72804 77.690705,28.266577 77.49388,27.991663 75.023724,22.228292 71.756425,14.452158 68.676111,7.1080319 66.117383,1.0010179 66.068177,0.8733793 l -0.08857,-0.23564041 3.946345,-0.009818 h 3.956187 l 0.767618,2.14040051 0.777459,2.1404003 4.812377,0.029455 4.812376,0.029455 0.452698,-2.1698555 0.452698,-2.16003706 h 3.493647 c 1.919046,0 3.483806,0.009818 3.483806,0.0196367 0,0.0196367 -1.367935,6.51938466 -3.031108,14.46243016 l -3.021267,14.432975 -3.562536,0.0098 c -1.958411,0.0098 -3.690473,-0.01964 -3.867615,-0.06873 z M 82.6507,16.415828 c 0.600317,-2.85714 1.09238,-5.252817 1.09238,-5.331364 0,-0.11782 -0.541269,-0.137457 -3.060632,-0.137457 -2.401267,0 -3.05079,0.01964 -3.011425,0.127639 0.02952,0.06873 0.905396,2.474224 1.948569,5.351 1.043174,2.876777 1.909205,5.213545 1.919046,5.203726 0.01968,-0.01964 0.521587,-2.366222 1.112062,-5.213544 z"
           id="Shape"
           transform="matrix(1,0,0,-1,0,30.192402)"
           inkscape:connector-curvature="0" />
      </g>
    </g>
  </g>
  <g
     transform="translate(106.94802,-0.07423874)"
     style="fill:none;fill-rule:evenodd;stroke:none;stroke-width:1"
     id="Weblate-0">
    <g
       style="fill-rule:nonzero"
       id="Payment-Summary-4"
       transform="translate(-993,-914)">
      <g
         id="Mastercard-logo"
         transform="translate(993,914)">
        <rect
           style="fill:#ff5f00"
           id="Rectangle"
           x="21.142735"
           y="3.871233"
           width="15.615385"
           height="27.917261" />
        <path
           style="fill:#eb001b"
           inkscape:connector-curvature="0"
           d="M 22.134188,17.832329 C 22.12835,12.38375 24.641991,7.2352821 28.950427,3.8712329 21.6334,-1.8492895 11.125856,-1.016046 4.8122143,5.7853824 c -6.3136417,6.8014286 -6.3136417,17.2875326 0,24.0889616 6.3136417,6.801428 16.8211857,7.634672 24.1382127,1.914149 -4.307065,-3.362981 -6.820553,-8.509316 -6.816239,-13.956164 z"
           id="_Path_" />
        <path
           style="fill:#f79e1b"
           inkscape:connector-curvature="0"
           d="m 57.826496,17.832329 c -1.6e-4,6.797283 -3.901655,12.9978 -10.047506,15.968167 -6.145852,2.970366 -13.457074,2.189096 -18.828563,-2.012003 4.305187,-3.365836 6.818864,-8.511487 6.818864,-13.95863 0,-5.447143 -2.513677,-10.5927938 -6.818864,-13.9586301 5.371489,-4.20109884 12.682711,-4.9823692 18.828563,-2.0120025 6.145851,2.9703667 10.047346,9.1708836 10.047506,15.9681666 z"
           id="Path-5" />
        <path
           style="fill:#f79e1b"
           inkscape:connector-curvature="0"
           d="m 56.121197,29.256199 v -0.925532 h 0.232991 v -0.191489 h -0.589914 v 0.191489 h 0.25282 v 0.925532 z m 1.145128,0 V 28.139178 H 57.087863 L 56.879658,28.93705 56.671453,28.139178 H 56.51282 v 1.117021 h 0.128889 v -0.837766 l 0.193334,0.726064 h 0.133846 l 0.193333,-0.726064 v 0.845745 z"
           id="Shape-3" />
      </g>
    </g>
  </g>
</svg>
