<svg xmlns="http://www.w3.org/2000/svg" width="164.78" height="35.511" version="1.1" viewBox="0 0 164.78 35.511"><path fill="#1a1f71" d="m58.634 2.5383c-4.8124 0.5891-8.3651 2.759-9.8609 6.0383-0.55111 1.1978-0.71841 2.0128-0.71841 3.4855-0.0098 1.1291 0.02952 1.3844 0.26571 2.0422 0.41333 1.1487 0.86603 1.836 1.8895 2.8571 1.1121 1.1193 2.0962 1.7869 4.4581 3.0142 2.047 1.0702 2.2733 1.2077 3.0114 1.9244 0.91524 0.87383 1.0432 1.8459 0.39365 2.8277-1.3975 2.0717-6.3476 2.1993-10.747 0.2651-0.57079-0.24546-1.0432-0.44183-1.053-0.43201-0.0098 0.01964-0.32476 1.4433-0.69873 3.1713-0.49206 2.2975-0.63968 3.1615-0.55111 3.2204 0.56095 0.36328 3.7298 1.1095 5.5702 1.3058 1.4959 0.16691 4.4679 0.13746 5.7375-0.04909 3.7003-0.54983 6.6232-2.0815 8.3159-4.3593 1.7517-2.3564 2.2143-5.9401 1.0825-8.2965-0.9546-1.9931-2.2438-3.0928-6.0524-5.1448-2.2438-1.2077-3.0803-1.7771-3.474-2.3466-0.93492-1.3451 0.06889-2.8375 2.2438-3.3481 0.85619-0.20619 2.8835-0.19637 4.1136 0.0098 0.79714 0.12764 3.0705 0.8051 3.72 1.0997 0.21651 0.108 1.5352-5.9892 1.3187-6.1267-0.29524-0.19637-2.2536-0.72656-3.6117-0.98184-0.83651-0.15709-4.527-0.27491-5.3536-0.17673z"/><path fill="#1a1f71" d="m0.019921 3.2453c-0.0098413 0.14728-0.019683 0.33382-0.019683 0.43201-0.0098413 0.12764 0.2854 0.24546 1.3581 0.51056 3.3559 0.84438 6.1606 2.0128 6.9184 2.8571 0.21651 0.25528 0.49206 0.71674 0.59048 1.0113 0.098413 0.30437 1.5352 5.7928 3.1984 12.204l3.0114 11.645h8.0206l6.0327-14.374c3.3263-7.9038 6.0425-14.413 6.0425-14.462 0-0.03927-1.7714-0.06873-3.9365-0.04909l-3.9365 0.01964-2.3717 5.9794c-1.299 3.2891-3.0508 7.6976-3.8873 9.7889-0.82667 2.1011-1.5254 3.7702-1.5352 3.7113-0.01968-0.04909-0.75778-3.9175-1.6435-8.5812-1.7517-9.2882-1.7321-9.2292-2.6079-10.034-0.24603-0.22582-0.66921-0.52037-0.93492-0.63819-0.48222-0.216-0.56095-0.22582-7.3809-0.25528l-6.8987-0.02945z"/><path fill="#1a1f71" d="m38.43 3.1173c-0.07873 0.19637-6.1508 28.591-6.1508 28.728 0 0.07855 1.0432 0.108 3.7495 0.108h3.7397l3.041-14.197c1.6829-7.8056 3.0705-14.325 3.0902-14.482l0.03936-0.28473h-3.7298c-2.8933 0-3.7495 0.02945-3.779 0.12764z"/><path fill="#1a1f71" d="m79.448 3.0973c-0.58064 0.16691-1.4368 0.76583-1.7616 1.2273-0.19682 0.27491-2.667 6.0383-5.9343 13.814-3.0803 7.3441-5.639 13.451-5.6882 13.579l-0.08857 0.23564 3.9463 0.0098h3.9562l0.76762-2.1404 0.77746-2.1404 9.6248-0.05891 0.4527 2.1699 0.4527 2.16h3.4936c1.919 0 3.4838-0.0098 3.4838-0.01964 0-0.01964-1.3679-6.5194-3.0311-14.462l-3.0213-14.433-3.5625-0.0098c-1.9584-0.0098-3.6905 0.01964-3.8676 0.06873zm3.1984 13.078c0.60032 2.8571 1.0924 5.2528 1.0924 5.3314 0 0.11782-0.54127 0.13746-3.0606 0.13746-2.4013 0-3.0508-0.01964-3.0114-0.12764 0.02952-0.06873 0.9054-2.4742 1.9486-5.351s1.9092-5.2135 1.919-5.2037c0.01968 0.01964 0.52159 2.3662 1.1121 5.2135z"/><rect width="15.615" height="27.917" x="128.09" y="3.797" fill="#ff5f00"/><path fill="#eb001b" d="m129.08 17.758c-6e-3 -5.4486 2.5078-10.597 6.8162-13.961-7.317-5.7205-17.825-4.8873-24.138 1.9141-6.3136 6.8014-6.3136 17.288 0 24.089 6.3136 6.8014 16.821 7.6347 24.138 1.9141-4.3071-3.363-6.8206-8.5093-6.8162-13.956z"/><path fill="#f79e1b" d="m164.78 17.758c-1.6e-4 6.7973-3.9017 12.998-10.048 15.968-6.1459 2.9704-13.457 2.1891-18.829-2.012 4.3052-3.3658 6.8189-8.5115 6.8189-13.959s-2.5137-10.593-6.8189-13.959c5.3715-4.2011 12.683-4.9824 18.829-2.012 6.1459 2.9704 10.047 9.1709 10.048 15.968z"/><path fill="#f79e1b" d="m163.07 29.182v-0.92553h0.23299v-0.19149h-0.58991v0.19149h0.25282v0.92553zm1.1451 0v-1.117h-0.17846l-0.2082 0.79787-0.2082-0.79787h-0.15863v1.117h0.12889v-0.83777l0.19333 0.72606h0.13385l0.19333-0.72606v0.84574z"/></svg>