<svg width="222" height="59" version="1.1" viewBox="0 0 222 59" xmlns="http://www.w3.org/2000/svg"><g fill="none" fill-rule="evenodd"><g transform="translate(-755 -1587)" fill-rule="nonzero"><g transform="translate(755 1587)" style="mix-blend-mode:luminosity"><g transform="translate(.17238)"><path d="m63.949 14.983c-0.71562-1.4781-1.5438-2.9047-2.5047-4.25l-10.266 3.7359c1.1938 1.2219 2.1969 2.5953 3.0172 4.0641l9.7531-3.55zm-45.379 11.354-10.269 3.7359c0.13125 1.6469 0.41562 3.2734 0.81406 4.8672l9.7547-3.5516c-0.31719-1.65-0.42969-3.35-0.3-5.0516z" fill="#1FA385"/><path d="m41.359 12.075c2.1359 0.99688 3.9859 2.3563 5.5469 3.95l10.266-3.7359c-2.8438-3.9906-6.7172-7.325-11.462-9.5391-14.677-6.8438-32.186-0.47188-39.028 14.203-2.2156 4.7484-3.0391 9.7922-2.6516 14.677l10.267-3.7359c0.17031-2.225 0.7125-4.4547 1.7078-6.5922 4.4469-9.5344 15.82-13.672 25.355-9.2266" fill="#1FA385"/><path d="m52.309 30.835c-0.16406 2.2234-0.725 4.4531-1.7234 6.5922-4.4453 9.5359-15.82 13.673-25.353 9.2281-2.1391-0.99844-4.0031-2.3469-5.5578-3.9438l-10.245 3.7281c2.8375 3.9906 6.7062 7.3266 11.455 9.5422 14.677 6.8422 32.183 0.47031 39.027-14.206 2.2172-4.7453 3.0344-9.7891 2.6438-14.669l-10.245 3.7281z" fill="#1FA385"/><path d="m54.833 18.301-9.7547 3.55c1.8125 3.2469 2.6688 6.9844 2.3875 10.744l10.245-3.7266c-0.29375-3.6766-1.2734-7.2656-2.8781-10.567m-45.078 16.405-9.7547 3.5531c0.89531 3.5562 2.45 6.9359 4.5875 9.9438l10.244-3.7297c-2.6297-2.7-4.3781-6.1172-5.0766-9.7672" fill="#1FA385"/><path d="m62.462 12.279c-0.32344-0.525-0.65938-1.0422-1.0172-1.5453l-10.266 3.7359c0.45156 0.4625 0.86719 0.95312 1.2641 1.4562l10.019-3.6469zm-43.931 16.12c-0.025-0.68438-0.014125-1.3719 0.039-2.0609l-10.269 3.7359c0.053125 0.65781 0.13594 1.3109 0.23438 1.9625l9.9953-3.6375h6.25e-5z" fill="#144D3F"/><path d="m62.553 27.107-10.245 3.7281c-0.10788 1.475-0.39531 2.9531-0.86562 4.4062l11.152-4.0656c0.07975-1.3625 0.067125-2.7219-0.040625-4.0688zm-53.123 19.334c0.78906 1.1109 1.6625 2.1703 2.6109 3.1703l11.153-4.0672c-1.3031-0.81562-2.4812-1.7672-3.5203-2.8328l-10.244 3.7297z" fill="#144D3F"/></g><path d="m209.22 20.288v1.85h5.3656v16.384h2.0312v-16.384h5.3688v-1.85h-12.766zm-12.321 1.8484v6.0438h5v1.85h-5v8.4906h-2.0312v-18.231h10.706v1.8469h-8.675zm-9.2944-1.8462h2.0312v18.234h-2.0312v-18.234zm-7.2606 18.232v-8.5969h-9.0656v8.5969h-2.0312v-18.234h2.0312v7.7906h9.0656v-7.7906h2.0312v18.234h-2.0312zm-21.667 0.28658c-2.475 0-4.6906-1.0688-6.1219-2.525l1.3562-1.5125c1.3781 1.3281 2.9688 2.1906 4.8438 2.1906 2.4219 0 3.9344-1.2 3.9344-3.1281 0-1.6938-1.0156-2.6562-4.35-3.8562-3.9344-1.4062-5.2625-2.6812-5.2625-5.3125 0-2.9188 2.2906-4.6656 5.7031-4.6656 2.45 0 4.0125 0.73125 5.55 1.9562l-1.3031 1.5875c-1.3281-1.0938-2.5531-1.6938-4.375-1.6938-2.5031 0-3.5438 1.25-3.5438 2.6844 0 1.5125 0.67812 2.3688 4.325 3.675 4.0375 1.4562 5.2875 2.8125 5.2875 5.5219 0 2.8656-2.2406 5.0781-6.0438 5.0781zm-14.354-0.28658-6.6938-9.95c-0.44375-0.67812-1.0438-1.5906-1.2781-2.0594 0 0.67812 0.053 2.9688 0.053 3.9844v8.025h-3.5969v-18.234h3.4906l6.4625 9.6375c0.44375 0.67812 1.0406 1.5906 1.275 2.0594 0-0.67812-0.05-2.9688-0.05-3.9875v-7.7094h3.5938v18.234h-3.2562 1.25e-4zm-28.753 0v-18.234h12.659v3.5688h-9.0125v3.1531h5.2375v3.5406h-5.2375v4.4031h9.4031v3.5688h-13.05zm-10.362-6.459h-4.0125v6.4594h-3.6469v-18.234h7.9719c3.4375 0 6.2781 1.9031 6.2781 5.7812 0 4.2219-2.8125 5.9938-6.5906 5.9938zm0.1845-8.2312h-4.1969v4.6875h4.2469c1.6938 0 2.6062-0.78438 2.6062-2.3719s-1.0438-2.3156-2.6562-2.3156zm-19.871 14.977c-4.7688 0-8.025-3.4906-8.025-9.3781s3.3094-9.4312 8.0781-9.4312c4.7406 0 7.9969 3.4938 7.9969 9.3812s-3.3094 9.4281-8.05 9.4281zm-0.025-15.188c-2.5531 0-4.2469 2.0594-4.2469 5.7594s1.7719 5.8062 4.325 5.8062 4.2438-2.0562 4.2438-5.7562-1.7688-5.8094-4.3219-5.8094z" fill="#144D3F"/></g></g></g></svg>