<svg viewBox="0 0 222 59"><g fill="none" style="mix-blend-mode:luminosity"><path fill="#1FA385" d="M64.121 14.983a29.151 29.151 0 00-2.505-4.25L51.35 14.47a19.189 19.189 0 013.017 4.064l9.754-3.55zM18.742 26.337L8.473 30.073c.131 1.647.416 3.274.814 4.868l9.755-3.552a19.09 19.09 0 01-.3-5.052z"/><path fill="#1FA385" d="M41.532 12.075a19.006 19.006 0 015.546 3.95l10.266-3.736A29.187 29.187 0 0045.881 2.75C31.204-4.094 13.695 2.278 6.853 16.953A29.15 29.15 0 004.201 31.63l10.268-3.736c.17-2.225.712-4.455 1.707-6.592 4.447-9.535 15.82-13.672 25.355-9.227m10.95 18.76a18.829 18.829 0 01-1.724 6.592c-4.445 9.536-15.82 13.674-25.353 9.229a18.888 18.888 0 01-5.558-3.944L9.602 46.44a29.117 29.117 0 0011.455 9.542c14.676 6.842 32.182.47 39.026-14.206a29.067 29.067 0 002.644-14.669l-10.245 3.728z"/><path fill="#1FA385" d="M55.005 18.301l-9.755 3.55a19.14 19.14 0 012.388 10.744l10.244-3.725a29.581 29.581 0 00-2.877-10.57M9.927 34.706L.172 38.26a29.698 29.698 0 004.588 9.943l10.243-3.73a19.174 19.174 0 01-5.076-9.767"/><path fill="#144D3F" d="M62.634 12.279a28.012 28.012 0 00-1.017-1.546L51.351 14.47c.451.463.867.953 1.264 1.457l10.019-3.647zm-43.932 16.12a18.167 18.167 0 01.039-2.06L8.472 30.073c.053.658.136 1.311.234 1.963l9.996-3.638zm44.022-1.292l-10.245 3.728a18.744 18.744 0 01-.866 4.406l11.152-4.065c.08-1.363.067-2.722-.04-4.069zM9.602 46.441a29.111 29.111 0 002.61 3.17l11.154-4.066a18.955 18.955 0 01-3.52-2.833l-10.244 3.73zm199.621-26.153v1.85h5.366v16.385h2.031V22.138h5.369v-1.85h-12.766zm-12.321 1.849v6.044h5v1.85h-5v8.49h-2.031V20.29h10.706v1.847h-8.675zm-9.294-1.846h2.03v18.234h-2.03V20.291zm-7.261 18.232v-8.597h-9.066v8.597h-2.03V20.288h2.03v7.791h9.066v-7.79h2.031v18.234h-2.03zm-21.667.286c-2.475 0-4.69-1.068-6.122-2.525l1.357-1.512c1.378 1.328 2.968 2.19 4.843 2.19 2.422 0 3.935-1.2 3.935-3.128 0-1.693-1.016-2.656-4.35-3.856-3.935-1.406-5.263-2.681-5.263-5.312 0-2.92 2.29-4.666 5.703-4.666 2.45 0 4.013.731 5.55 1.956l-1.303 1.588c-1.328-1.094-2.553-1.694-4.375-1.694-2.503 0-3.544 1.25-3.544 2.684 0 1.513.679 2.37 4.325 3.675 4.038 1.457 5.288 2.813 5.288 5.522 0 2.866-2.24 5.078-6.044 5.078zm-14.354-.286l-6.693-9.95c-.444-.678-1.044-1.59-1.278-2.06 0 .679.053 2.97.053 3.985v8.025h-3.597V20.288h3.49l6.463 9.638c.444.678 1.04 1.59 1.275 2.06 0-.679-.05-2.97-.05-3.988v-7.71h3.594v18.235h-3.257zm-28.752 0V20.288h12.659v3.57h-9.013v3.152h5.238v3.54h-5.237v4.404h9.403v3.569h-13.05zm-10.362-6.46h-4.013v6.46h-3.647V20.29h7.972c3.438 0 6.278 1.903 6.278 5.781 0 4.222-2.812 5.994-6.59 5.994zm.184-8.23H101.2v4.687h4.247c1.694 0 2.606-.784 2.606-2.372 0-1.587-1.043-2.316-2.656-2.316zM85.525 38.809c-4.769 0-8.025-3.49-8.025-9.378 0-5.887 3.31-9.431 8.078-9.431 4.74 0 7.997 3.494 7.997 9.381 0 5.888-3.31 9.428-8.05 9.428zM85.5 23.622c-2.553 0-4.247 2.06-4.247 5.76 0 3.7 1.772 5.805 4.325 5.805s4.244-2.056 4.244-5.756-1.769-5.81-4.322-5.81z"/></g></svg>