<svg width="99" height="74" viewBox="0 0 99 74" xmlns="http://www.w3.org/2000/svg"><g fill="none"><path transform="" d="m49.523 14.769c-0.0061593-1.453e-4 -0.012319-2.731e-4 -0.018479-3.832e-4 -0.0061601 1.101e-4 -0.01232 2.379e-4 -0.018479 3.832e-4 -0.40428-0.0055218-0.8094 0.065726-1.1951 0.22868-2.1881 0.92613-3.5673 3.301-4.4325 5.6739-0.75104 2.0595-1.0835 4.2717-1.0883 6.4544l-0.00603 0.28566c-0.0068082 0.1112-0.01595 0.222-0.027622 0.33242 0.080336 5.5668 1.1278 11.175 3.3304 16.297 2.4667 5.736 6.3876 11.013 11.924 13.424 4.1763 1.8198 8.8059 1.3906 12.591-0.75285 4.6996-2.6613 8.09-7.3672 10.309-12.421 4.6101-10.503 4.721-23.308 0.1206-34.086 4.4837-2.3222 4.4739-6.9525 4.4739-6.9525s4.1997 3.0092 8.9226 1.1198c6.2888 14.733 6.1371 32.08-0.49408 46.591-3.8768 8.4835-10.171 15.916-18.409 19.739-7.3333 3.4045-15.956 3.4896-23.296 0.29194-6.5951-2.8745-11.959-8.0532-15.818-14.075-5.5893-8.7214-8.2361-19.339-8.248-29.802h0.043378c-0.0033068-0.11022-0.0046684-0.22043-0.0035013-0.33084 0.085005-9.4086 3.9413-18.992 11.676-23.909 2.8406-1.8059 6.16-2.8399 9.5106-2.8768 0.038351-2.9795e-4 0.07782-4.8294e-4 0.11671-5.5495e-4 0.050575-3.444e-5 0.10309 1.6203e-4 0.15367 5.5495e-4 3.3506 0.036935 6.67 1.0709 9.5106 2.8768 7.7346 4.9175 11.591 14.5 11.676 23.909 0.0011671 0.11041-1.945e-4 0.22063-0.0035014 0.33084h0.043378c-0.011277 9.9434-2.4024 20.027-7.4375 28.489-1.4442-0.0072666-2.8833-0.3012-4.2399-0.89234-3.0558-1.3313-5.7467-3.8456-7.9358-7.2474 0.62428-1.1097 1.1869-2.2587 1.6892-3.4267 2.2025-5.1216 3.25-10.73 3.3304-16.297-0.011671-0.11041-0.020814-0.22122-0.027622-0.33242l-0.0060301-0.28566c-0.0048629-2.1827-0.3373-4.3949-1.0883-6.4544-0.86522-2.3729-2.2444-4.7477-4.4325-5.6739-0.38583-0.16301-0.79108-0.23425-1.1951-0.22934zm-3.2441 56.446c-7.2239 2.9712-15.614 2.8118-22.775-0.5125-8.2379-3.8238-14.532-11.256-18.409-19.739-6.6311-14.511-6.7829-31.858-0.49408-46.591 4.7229 1.8894 8.9226-1.1198 8.9226-1.1198s-0.0097259 4.6303 4.4739 6.9525c-4.6004 10.778-4.4895 23.583 0.1206 34.086 2.2195 5.0536 5.6099 9.7595 10.309 12.421 1.6774 0.9498 3.5205 1.563 5.4165 1.7931 0.0070183 0.01097 0.014041 0.021938 0.021067 0.032902 3.3483 5.2245 7.5661 9.5784 12.414 12.677z" fill="#2eccaa" fill-opacity=".5"/><g transform="translate(32 17)"><path d="m36 20.55v6.4496c0 5.54-3.8099 10.638-9.0384 11.914l-0.04172 0.010188 0.068841 0.075442h-0.37779l-0.36098 0.088145-0.36098-0.088145h-21.389c-2.4853 0-4.5-2.0147-4.5-4.5v-6c0-1.1525 0.43328-2.2039 1.1458-3-0.71256-0.79613-1.1458-1.8475-1.1458-3v-6c0-1.1525 0.43328-2.2039 1.1458-3-0.71256-0.79613-1.1458-1.8475-1.1458-3v-6c0-2.4853 2.0147-4.5 4.5-4.5h24c2.4853 0 4.5 2.0147 4.5 4.5v6c0 1.1525-0.43328 2.2039-1.1458 3 0.71256 0.79613 1.1458 1.8475 1.1458 3v2.717z" fill="#d5f5ee"/><path d="m28.5 3c0.82843 0 1.5 0.67157 1.5 1.5v6c0 0.82843-0.67157 1.5-1.5 1.5h-24c-0.82843 0-1.5-0.67157-1.5-1.5v-6c0-0.82843 0.67157-1.5 1.5-1.5zm0 12c0.82843 0 1.5 0.67157 1.5 1.5v1.005l-3.75-1.665-9.75 4.32v3.84h-12c-0.82843 0-1.5-0.67157-1.5-1.5v-6c0-0.82843 0.67157-1.5 1.5-1.5zm-12 12c0.09 3.375 1.5 6.6 3.69 9h-15.69c-0.82843 0-1.5-0.67157-1.5-1.5v-6c0-0.82843 0.67157-1.5 1.5-1.5zm-3-18v-3h-1.5v3zm0 12v-3h-1.5v3zm0 12v-3h-1.5v3zm-7.5-24h3v-3h-3zm0 12h3v-3h-3zm0 12h3v-3h-3zm27-10.5v4.5c0 4.17-2.88 8.055-6.75 9-3.87-0.945-6.75-4.83-6.75-9v-4.5l6.75-3zm-6.75-0.09-3.75 1.68v3.99c0 2.31 1.605 4.47 3.75 5.01z" fill="#2a3744"/></g></g></svg>