<svg viewBox="0 0 100 74"><g fill="none" fill-rule="evenodd"><path fill="#2eccaa" fill-opacity=".5" fill-rule="nonzero" d="M49.718 14.965a3.225 3.225 0 00-.037 0 2.952 2.952 0 00-1.195.229c-2.188.926-3.567 3.3-4.433 5.674-.75 2.06-1.083 4.271-1.088 6.454l-.006.286a7.553 7.553 0 01-.028.332c.08 5.567 1.128 11.175 3.33 16.297 2.467 5.736 6.388 11.012 11.924 13.424 4.177 1.82 8.806 1.39 12.592-.753 4.7-2.661 8.09-7.367 10.309-12.42 4.61-10.504 4.721-23.309.12-34.087 4.484-2.322 4.475-6.952 4.475-6.952s4.2 3.009 8.922 1.12c6.289 14.733 6.137 32.08-.494 46.59-3.877 8.484-10.171 15.916-18.41 19.74-7.333 3.404-15.956 3.49-23.295.292-6.595-2.875-11.959-8.054-15.818-14.075-5.59-8.722-8.236-19.34-8.248-29.802h.043a8.154 8.154 0 01-.003-.331c.085-9.409 3.941-18.992 11.676-23.91 2.84-1.805 6.16-2.839 9.51-2.876a19.87 19.87 0 01.27 0c3.351.037 6.67 1.071 9.511 2.877 7.735 4.917 11.591 14.5 11.676 23.909.001.11 0 .22-.003.33h.043c-.011 9.944-2.402 20.028-7.437 28.49a10.727 10.727 0 01-4.24-.892c-3.056-1.331-5.747-3.846-7.936-7.248a36.005 36.005 0 001.69-3.426c2.202-5.122 3.25-10.73 3.33-16.297a7.552 7.552 0 01-.028-.332l-.006-.286c-.005-2.183-.337-4.395-1.088-6.454-.866-2.373-2.245-4.748-4.433-5.674a2.964 2.964 0 00-1.195-.23zm-3.244 56.446c-7.224 2.971-15.614 2.812-22.775-.512-8.238-3.824-14.532-11.256-18.41-19.74-6.63-14.51-6.782-31.857-.493-46.59 4.723 1.889 8.922-1.12 8.922-1.12s-.01 4.63 4.474 6.952c-4.6 10.778-4.49 23.583.12 34.086 2.22 5.054 5.61 9.76 10.31 12.421 1.678.95 3.52 1.563 5.417 1.793l.021.033c3.348 5.225 7.566 9.579 12.414 12.677z"/><circle cx="50" cy="37" r="18" fill="#d5f5ee"/><path fill="#1fa385" fill-rule="nonzero" d="M50 22c-8.25 0-15 6.75-15 15s6.75 15 15 15 15-6.75 15-15-6.75-15-15-15zm-3 22.5L39.5 37l2.115-2.115L47 40.255 58.385 28.87 60.5 31z"/></g></svg>