<svg height="74" viewBox="0 0 100 74" width="100" xmlns="http://www.w3.org/2000/svg"><g fill="none" transform=""><path d="m49.7179482 14.9650295c-.0061593-.0001454-.0123191-.0002731-.0184792-.0003832-.0061602.0001101-.0123199.0002378-.0184793.0003832-.4042819-.0055219-.8094043.0657257-1.1951215.2286837-2.1881382.9261296-3.5672742 3.3009823-4.4324923 5.6738703-.7510358 2.0595285-1.0834679 4.2717092-1.0883309 6.4544204l-.00603.2856582c-.0068082.1111984-.0159506.2220039-.0276217.3324165.0803362 5.5667976 1.1278181 11.1750491 3.3303508 16.2966601 2.4666887 5.7359529 6.3875975 11.0125737 11.9235931 13.4243615 4.1763115 1.8198428 8.8058511 1.3905697 12.5911805-.7528487 4.6995663-2.6612967 8.0900232-7.3671906 10.3094789-12.4208252 4.6100877-10.5031434 4.7209633-23.3082514.1206015-34.086444 4.4836507-2.32220037 4.4739248-6.95245578 4.4739248-6.95245578s4.1996537 3.00923379 8.9225622 1.11984283c6.2887819 14.73320235 6.1370579 32.07996075-.4940769 46.59076625-3.8767531 8.483497-10.1713708 15.9157171-18.409228 19.7394892-7.3333463 3.4045186-15.9563501 3.4895874-23.2955319.2919449-6.5951487-2.8744597-11.95919-8.0532416-15.8184365-14.0750491-5.5892937-8.7214145-8.2361065-19.3390962-8.2479721-29.8017681h.0433776c-.0033068-.1102162-.0046684-.2204323-.0035013-.3308448.0850045-9.4086444 3.9413332-18.9915521 11.6759711-23.90903737 2.8405532-1.80589391 6.1600109-2.83988212 9.5105915-2.87681728.0383507-.00029796.0778198-.00048295.1167112-.00055496.0505747-.00003444.1030947.00016203.1536695.00055496 3.3505806.03693516 6.6700383 1.07092337 9.5105915 2.87681728 7.7346379 4.91748527 11.5909666 14.50039297 11.6759712 23.90903737.0011671.1104125-.0001946.2206286-.0035014.3308448h.0433777c-.0112768 9.9434003-2.4024417 20.0268058-7.437474 28.4894519-1.4441799-.0072665-2.8832797-.3012008-4.2398632-.892337-3.0558378-1.331293-5.746709-3.8455795-7.9357816-7.2473963.6242819-1.1096538 1.1869005-2.2586691 1.6892144-3.4267324 2.2025326-5.121611 3.2500146-10.7298625 3.3303507-16.2966601-.0116711-.1104126-.0208135-.2212181-.0276216-.3324165l-.0060301-.2856582c-.004863-2.1827112-.337295-4.3948919-1.0883308-6.4544204-.8652182-2.372888-2.2443541-4.7477407-4.4324924-5.6738703-.3858303-.1630058-.7910774-.2342474-1.1951215-.2293442zm-3.2441357 56.446099c-7.2239355 2.9712321-15.6140952 2.8117984-22.7746548-.5125037-8.2378571-3.8237721-14.53247482-11.2559922-18.40922792-19.7394892-6.63113463-14.5108055-6.78285903-31.8575639-.49407691-46.59076625 4.72290844 1.88939096 8.92256223-1.11984283 8.92256223-1.11984283s-.009726 4.63025541 4.4739248 6.95245578c-4.6003618 10.7781926-4.4894863 23.5833006.1206014 34.086444 2.2194558 5.0536346 5.6099127 9.7595285 10.3094789 12.4208252 1.6773658.9497976 3.520499 1.5630094 5.4165085 1.7930871.0070182.0109705.0140407.0219378.0210672.0329019 3.3482614 5.2244876 7.5661042 9.5784015 12.4138166 12.676888z" fill="#2eccaa" fill-opacity=".5"/><path d="m45.8293036 41.2079832-2.2079833-2.2079832 1.0543399-1.0543398-2.1066423.0020373-.0083577-.0083577v.0083658l-.0042668.0000042.0042668.0042503v2.1087001l1.0563894-1.0563894zm11.5519419-8.2129083 1.0644147-1.0644147-2.1250616-.0037545zm.0011755.0011838 1.0531776 1.060647.0037412-2.1175659zm-9.882421 9.882421-1.0606602 1.0606601h2.1213204zm3-23.520156 15 6.6666667v9.9748096c0 9.0387281-6.2511969 17.407737-14.6441757 19.4571853l-.3558243.0868874-.3558243-.0868874c-8.3929788-2.0494483-14.6441757-10.4184572-14.6441757-19.4571853v-9.9748096z" fill="#d5f5ee" stroke="#d5f5ee" stroke-width="3"/><path d="m10.5 24-6-6 2.115-2.115 3.885 3.87 9.885-9.885 2.115 2.13zm3-24-13.5 6v9c0 8.325 5.76 16.11 13.5 18 7.74-1.89 13.5-9.675 13.5-18v-9z" fill="#2a3744" transform="translate(37 21)"/></g></svg>