<svg width="100" height="74" version="1.1" viewBox="0 0 100 74" xmlns="http://www.w3.org/2000/svg"><path d="m49.718 14.965c-0.0061593-1.454e-4 -0.012319-2.731e-4 -0.018479-3.832e-4 -0.0061602 1.101e-4 -0.01232 2.378e-4 -0.018479 3.832e-4 -0.40428-0.0055219-0.8094 0.065726-1.1951 0.22868-2.1881 0.92613-3.5673 3.301-4.4325 5.6739-0.75104 2.0595-1.0835 4.2717-1.0883 6.4544l-0.00603 0.28566c-0.0068082 0.1112-0.015951 0.222-0.027622 0.33242 0.080336 5.5668 1.1278 11.175 3.3304 16.297 2.4667 5.736 6.3876 11.013 11.924 13.424 4.1763 1.8198 8.8059 1.3906 12.591-0.75285 4.6996-2.6613 8.09-7.3672 10.309-12.421 4.6101-10.503 4.721-23.308 0.1206-34.086 4.4837-2.3222 4.4739-6.9525 4.4739-6.9525s4.1997 3.0092 8.9226 1.1198c6.2888 14.733 6.1371 32.08-0.49408 46.591-3.8768 8.4835-10.171 15.916-18.409 19.739-7.3333 3.4045-15.956 3.4896-23.296 0.29194-6.5951-2.8745-11.959-8.0532-15.818-14.075-5.5893-8.7214-8.2361-19.339-8.248-29.802h0.043378c-0.0033068-0.11022-0.0046684-0.22043-0.0035013-0.33084 0.085004-9.4086 3.9413-18.992 11.676-23.909 2.8406-1.8059 6.16-2.8399 9.5106-2.8768 0.038351-2.9796e-4 0.07782-4.8295e-4 0.11671-5.5496e-4 0.050575-3.444e-5 0.10309 1.6203e-4 0.15367 5.5496e-4 3.3506 0.036935 6.67 1.0709 9.5106 2.8768 7.7346 4.9175 11.591 14.5 11.676 23.909 0.0011671 0.11041-1.946e-4 0.22063-0.0035014 0.33084h0.043378c-0.011277 9.9434-2.4024 20.027-7.4375 28.489-1.4442-0.0072665-2.8833-0.3012-4.2399-0.89234-3.0558-1.3313-5.7467-3.8456-7.9358-7.2474 0.62428-1.1097 1.1869-2.2587 1.6892-3.4267 2.2025-5.1216 3.25-10.73 3.3304-16.297-0.011671-0.11041-0.020814-0.22122-0.027622-0.33242l-0.0060301-0.28566c-0.004863-2.1827-0.3373-4.3949-1.0883-6.4544-0.86522-2.3729-2.2444-4.7477-4.4325-5.6739-0.38583-0.16301-0.79108-0.23425-1.1951-0.22934zm-3.2441 56.446c-7.2239 2.9712-15.614 2.8118-22.775-0.5125-8.2379-3.8238-14.532-11.256-18.409-19.739-6.6311-14.511-6.7829-31.858-0.49408-46.591 4.7229 1.8894 8.9226-1.1198 8.9226-1.1198s-0.009726 4.6303 4.4739 6.9525c-4.6004 10.778-4.4895 23.583 0.1206 34.086 2.2195 5.0536 5.6099 9.7595 10.309 12.421 1.6774 0.9498 3.5205 1.563 5.4165 1.7931 0.0070182 0.01097 0.014041 0.021938 0.021067 0.032902 3.3483 5.2245 7.5661 9.5784 12.414 12.677z" fill="#2eccaa" fill-opacity=".5"/><path d="m45.829 41.208-2.208-2.208 1.0543-1.0543-2.1066 0.0020373-0.0083577-0.0083577v0.0083658l-0.0042668 4.2e-6 0.0042668 0.0042503v2.1087l1.0564-1.0564zm11.552-8.2129 1.0644-1.0644-2.1251-0.0037545zm0.0011755 0.0011838 1.0532 1.0606 0.0037412-2.1176zm-9.8824 9.8824-1.0607 1.0607h2.1213zm3-23.52 15 6.6667v9.9748c0 9.0387-6.2512 17.408-14.644 19.457l-0.35582 0.086887-0.35582-0.086887c-8.393-2.0494-14.644-10.418-14.644-19.457v-9.9748z" fill="#d5f5ee" stroke="#d5f5ee" stroke-width="3"/><path transform="translate(37 21)" d="m10.5 24-6-6 2.115-2.115 3.885 3.87 9.885-9.885 2.115 2.13zm3-24-13.5 6v9c0 8.325 5.76 16.11 13.5 18 7.74-1.89 13.5-9.675 13.5-18v-9z" fill="#2a3744"/></svg>