<svg xmlns="http://www.w3.org/2000/svg" xmlns:svg="http://www.w3.org/2000/svg" id="svg74" width="247" height="86" version="1.1" viewBox="0 0 247 86"><metadata id="metadata78"/><defs id="defs10"><path id="a" d="m208 30-5 5-5-5h-79c-1.104569 0-2-.8954305-2-2v-26c0-1.1045695.895431-2 2-2h116c1.104569 0 2 .8954305 2 2v26c0 1.1045695-.895431 2-2 2z"/><filter id="b" width="126.7%" height="191.4%" x="-13.3%" y="-40%"><feOffset id="feOffset3" dx="0" dy="2" in="SourceAlpha" result="shadowOffsetOuter1"/><feGaussianBlur id="feGaussianBlur5" in="shadowOffsetOuter1" result="shadowBlurOuter1" stdDeviation="5"/><feColorMatrix id="feColorMatrix7" in="shadowBlurOuter1" type="matrix" values="0 0 0 0 0 0 0 0 0 0 0 0 0 0 0 0 0 0 0.1 0"/></filter></defs><g id="g72" fill="none" fill-rule="evenodd" transform="translate(0 8)"><rect id="rect12" width="6" height="30" x="20" y="48" fill="#2eccaa" opacity=".5" rx="2"/><rect id="rect14" width="6" height="20" x="10" y="58" fill="#38f" opacity=".3" rx="2"/><rect id="rect16" width="6" height="10" y="68" fill="#38f" opacity=".1" rx="2"/><rect id="rect18" width="6" height="25" x="30" y="53" fill="#38f" opacity=".7" rx="2"/><rect id="rect20" width="6" height="30" x="40" y="48" fill="#2eccaa" rx="2"/><rect id="rect22" width="6" height="20" x="50" y="58" fill="#38f" rx="2"/><rect id="rect24" width="6" height="50" x="60" y="28" fill="#2eccaa" rx="2"/><rect id="rect26" width="6" height="30" x="70" y="48" fill="#2eccaa" rx="2"/><rect id="rect28" width="6" height="10" x="80" y="68" fill="#f6664c" rx="2"/><rect id="rect30" width="6" height="20" x="90" y="58" fill="#38f" rx="2"/><rect id="rect32" width="6" height="35" x="100" y="43" fill="#2eccaa" rx="2"/><rect id="rect34" width="6" height="5" x="110" y="73" fill="#f6664c" rx="2"/><rect id="rect36" width="6" height="20" x="120" y="58" fill="#38f" rx="2"/><rect id="rect38" width="6" height="50" x="130" y="28" fill="#2eccaa" rx="2"/><rect id="rect40" width="6" height="30" x="140" y="48" fill="#2eccaa" rx="2"/><rect id="rect42" width="6" height="15" x="150" y="63" fill="#f6664c" rx="2"/><g id="g50" fill="#2eccaa"><rect id="rect44" width="6" height="35" x="160" y="43" rx="2"/><rect id="rect46" width="6" height="30" x="170" y="48" rx="2"/><rect id="rect48" width="6" height="40" x="180" y="38" rx="2"/></g><rect id="rect52" width="6" height="25" x="190" y="53" fill="#38f" rx="2"/><rect id="rect54" width="6" height="55" x="200" y="23" fill="#2a3744" rx="2"/><rect id="rect56" width="6" height="20" x="210" y="58" fill="#38f" rx="2"/><rect id="rect58" width="6" height="45" x="220" y="33" fill="#2eccaa" rx="2"/><rect id="rect60" width="6" height="40" x="230" y="38" fill="#2eccaa" rx="2"/></g></svg>