<svg viewBox="0 0 247 86"><g fill="none" fill-rule="evenodd" transform="translate(0 8)"><rect width="6" height="30" x="20" y="48" fill="#2eccaa" opacity=".5" rx="2"/><rect width="6" height="20" x="10" y="58" fill="#38f" opacity=".3" rx="2"/><rect width="6" height="10" y="68" fill="#38f" opacity=".1" rx="2"/><rect width="6" height="25" x="30" y="53" fill="#38f" opacity=".7" rx="2"/><rect width="6" height="30" x="40" y="48" fill="#2eccaa" rx="2"/><rect width="6" height="20" x="50" y="58" fill="#38f" rx="2"/><rect width="6" height="50" x="60" y="28" fill="#2eccaa" rx="2"/><rect width="6" height="30" x="70" y="48" fill="#2eccaa" rx="2"/><rect width="6" height="10" x="80" y="68" fill="#f6664c" rx="2"/><rect width="6" height="20" x="90" y="58" fill="#38f" rx="2"/><rect width="6" height="35" x="100" y="43" fill="#2eccaa" rx="2"/><rect width="6" height="5" x="110" y="73" fill="#f6664c" rx="2"/><rect width="6" height="20" x="120" y="58" fill="#38f" rx="2"/><rect width="6" height="50" x="130" y="28" fill="#2eccaa" rx="2"/><rect width="6" height="30" x="140" y="48" fill="#2eccaa" rx="2"/><rect width="6" height="15" x="150" y="63" fill="#f6664c" rx="2"/><g fill="#2eccaa"><rect width="6" height="35" x="160" y="43" rx="2"/><rect width="6" height="30" x="170" y="48" rx="2"/><rect width="6" height="40" x="180" y="38" rx="2"/></g><rect width="6" height="25" x="190" y="53" fill="#38f" rx="2"/><rect width="6" height="55" x="200" y="23" fill="#2a3744" rx="2"/><rect width="6" height="20" x="210" y="58" fill="#38f" rx="2"/><rect width="6" height="45" x="220" y="33" fill="#2eccaa" rx="2"/><rect width="6" height="40" x="230" y="38" fill="#2eccaa" rx="2"/></g></svg>