<?xml version="1.0" encoding="UTF-8" standalone="no"?>
<svg
   xmlns:dc="http://purl.org/dc/elements/1.1/"
   xmlns:cc="http://creativecommons.org/ns#"
   xmlns:rdf="http://www.w3.org/1999/02/22-rdf-syntax-ns#"
   xmlns:svg="http://www.w3.org/2000/svg"
   xmlns="http://www.w3.org/2000/svg"
   xmlns:sodipodi="http://sodipodi.sourceforge.net/DTD/sodipodi-0.dtd"
   xmlns:inkscape="http://www.inkscape.org/namespaces/inkscape"
   height="86"
   viewBox="0 0 247 86"
   width="247"
   version="1.1"
   id="svg74"
   sodipodi:docname="Chart.svg"
   inkscape:version="0.92.4 (5da689c313, 2019-01-14)">
  <metadata
     id="metadata78">
    <rdf:RDF>
      <cc:Work
         rdf:about="">
        <dc:format>image/svg+xml</dc:format>
        <dc:type
           rdf:resource="http://purl.org/dc/dcmitype/StillImage" />
      </cc:Work>
    </rdf:RDF>
  </metadata>
  <sodipodi:namedview
     pagecolor="#ffffff"
     bordercolor="#666666"
     borderopacity="1"
     objecttolerance="10"
     gridtolerance="10"
     guidetolerance="10"
     inkscape:pageopacity="0"
     inkscape:pageshadow="2"
     inkscape:window-width="1920"
     inkscape:window-height="1027"
     id="namedview76"
     showgrid="false"
     inkscape:zoom="1.465587"
     inkscape:cx="123.5"
     inkscape:cy="43"
     inkscape:window-x="-8"
     inkscape:window-y="-8"
     inkscape:window-maximized="1"
     inkscape:current-layer="g72" />
  <defs
     id="defs10">
    <path
       id="a"
       d="m208 30-5 5-5-5h-79c-1.104569 0-2-.8954305-2-2v-26c0-1.1045695.895431-2 2-2h116c1.104569 0 2 .8954305 2 2v26c0 1.1045695-.895431 2-2 2z" />
    <filter
       id="b"
       height="191.4%"
       width="126.7%"
       x="-13.3%"
       y="-40%">
      <feOffset
         dx="0"
         dy="2"
         in="SourceAlpha"
         result="shadowOffsetOuter1"
         id="feOffset3" />
      <feGaussianBlur
         in="shadowOffsetOuter1"
         result="shadowBlurOuter1"
         stdDeviation="5"
         id="feGaussianBlur5" />
      <feColorMatrix
         in="shadowBlurOuter1"
         type="matrix"
         values="0 0 0 0 0   0 0 0 0 0   0 0 0 0 0  0 0 0 0.1 0"
         id="feColorMatrix7" />
    </filter>
  </defs>
  <g
     fill="none"
     fill-rule="evenodd"
     transform="translate(0 8)"
     id="g72">
    <rect
       fill="#2eccaa"
       height="30"
       opacity=".5"
       rx="2"
       width="6"
       x="20"
       y="48"
       id="rect12" />
    <rect
       fill="#38f"
       height="20"
       opacity=".3"
       rx="2"
       width="6"
       x="10"
       y="58"
       id="rect14" />
    <rect
       fill="#38f"
       height="10"
       opacity=".1"
       rx="2"
       width="6"
       y="68"
       id="rect16" />
    <rect
       fill="#38f"
       height="25"
       opacity=".7"
       rx="2"
       width="6"
       x="30"
       y="53"
       id="rect18" />
    <rect
       fill="#2eccaa"
       height="30"
       rx="2"
       width="6"
       x="40"
       y="48"
       id="rect20" />
    <rect
       fill="#38f"
       height="20"
       rx="2"
       width="6"
       x="50"
       y="58"
       id="rect22" />
    <rect
       fill="#2eccaa"
       height="50"
       rx="2"
       width="6"
       x="60"
       y="28"
       id="rect24" />
    <rect
       fill="#2eccaa"
       height="30"
       rx="2"
       width="6"
       x="70"
       y="48"
       id="rect26" />
    <rect
       fill="#f6664c"
       height="10"
       rx="2"
       width="6"
       x="80"
       y="68"
       id="rect28" />
    <rect
       fill="#38f"
       height="20"
       rx="2"
       width="6"
       x="90"
       y="58"
       id="rect30" />
    <rect
       fill="#2eccaa"
       height="35"
       rx="2"
       width="6"
       x="100"
       y="43"
       id="rect32" />
    <rect
       fill="#f6664c"
       height="5"
       rx="2"
       width="6"
       x="110"
       y="73"
       id="rect34" />
    <rect
       fill="#38f"
       height="20"
       rx="2"
       width="6"
       x="120"
       y="58"
       id="rect36" />
    <rect
       fill="#2eccaa"
       height="50"
       rx="2"
       width="6"
       x="130"
       y="28"
       id="rect38" />
    <rect
       fill="#2eccaa"
       height="30"
       rx="2"
       width="6"
       x="140"
       y="48"
       id="rect40" />
    <rect
       fill="#f6664c"
       height="15"
       rx="2"
       width="6"
       x="150"
       y="63"
       id="rect42" />
    <g
       fill="#2eccaa"
       id="g50">
      <rect
         height="35"
         rx="2"
         width="6"
         x="160"
         y="43"
         id="rect44" />
      <rect
         height="30"
         rx="2"
         width="6"
         x="170"
         y="48"
         id="rect46" />
      <rect
         height="40"
         rx="2"
         width="6"
         x="180"
         y="38"
         id="rect48" />
    </g>
    <rect
       fill="#38f"
       height="25"
       rx="2"
       width="6"
       x="190"
       y="53"
       id="rect52" />
    <rect
       fill="#2a3744"
       height="55"
       rx="2"
       width="6"
       x="200"
       y="23"
       id="rect54" />
    <rect
       fill="#38f"
       height="20"
       rx="2"
       width="6"
       x="210"
       y="58"
       id="rect56" />
    <rect
       fill="#2eccaa"
       height="45"
       rx="2"
       width="6"
       x="220"
       y="33"
       id="rect58" />
    <rect
       fill="#2eccaa"
       height="40"
       rx="2"
       width="6"
       x="230"
       y="38"
       id="rect60" />
  </g>
</svg>
